/* XPM */
static char *result[] = {
/* columns rows colors chars-per-pixel */
"64 64 225 2 ",
"   c #0B072D",
".  c #14082B",
"X  c #08162C",
"o  c #14152A",
"O  c #151B2D",
"+  c #191E2F",
"@  c #191E30",
"#  c #1B232F",
"$  c #18242E",
"%  c #1A2433",
"&  c #1C2739",
"*  c #1C3436",
"=  c #22292F",
"-  c #232934",
";  c #2B2A33",
":  c #352E36",
">  c #273534",
",  c #373835",
"<  c #453B3A",
"1  c #513C38",
"2  c #1D4934",
"3  c #185536",
"4  c #394735",
"5  c #285738",
"6  c #246B3B",
"7  c #4F4F35",
"8  c #574438",
"9  c #47583B",
"0  c #635139",
"q  c #596738",
"w  c #576A3B",
"e  c #6F6938",
"r  c #65783B",
"t  c #1D3446",
"y  c #232C44",
"u  c #26344C",
"i  c #353543",
"p  c #2C3754",
"a  c #323B5C",
"s  c #473D42",
"d  c #274348",
"f  c #244856",
"g  c #2B5157",
"h  c #335855",
"j  c #39665D",
"k  c #394669",
"l  c #2A5867",
"z  c #34576F",
"x  c #3E4C73",
"c  c #3A5572",
"v  c #396C6E",
"b  c #336B7C",
"n  c #534A46",
"m  c #584A46",
"M  c #6E5244",
"N  c #675656",
"B  c #52694E",
"V  c #557848",
"C  c #6F604D",
"Z  c #7B7C44",
"A  c #7B6955",
"S  c #404E75",
"D  c #405176",
"F  c #40587B",
"G  c #416F68",
"H  c #417367",
"J  c #417168",
"K  c #777874",
"L  c #835B42",
"P  c #8F724C",
"I  c #A47D4D",
"U  c #AA7957",
"Y  c #876E62",
"T  c #8E7466",
"R  c #957A69",
"E  c #6C823B",
"W  c #31914A",
"Q  c #309748",
"!  c #35A64D",
"~  c #3AA458",
"^  c #35B151",
"/  c #38B351",
"(  c #5B8849",
")  c #688645",
"_  c #788543",
"`  c #748A41",
"'  c #66934A",
"]  c #7B9648",
"[  c #668D56",
"{  c #688B55",
"}  c #6B9257",
"|  c #749854",
" . c #4FB854",
".. c #77A25F",
"X. c #5E856C",
"o. c #6F9B6E",
"O. c #749C6D",
"+. c #7A9F6A",
"@. c #648E72",
"#. c #669175",
"$. c #6B9473",
"%. c #6C9870",
"&. c #729672",
"*. c #7C9971",
"=. c #77A663",
"-. c #78A764",
";. c #77A863",
":. c #7AA863",
">. c #75A169",
",. c #7DA169",
"<. c #72C55A",
"1. c #919239",
"2. c #ADAC39",
"3. c #D4CC3B",
"4. c #FFED36",
"5. c #868646",
"6. c #839D46",
"7. c #879B48",
"8. c #9A9A4D",
"9. c #948F5C",
"0. c #A8854A",
"q. c #A29E50",
"w. c #B49252",
"e. c #88A349",
"r. c #95B34D",
"t. c #99B64D",
"y. c #9BB94E",
"u. c #8BAA52",
"i. c #84AD5D",
"p. c #8AAE5C",
"a. c #96AF5F",
"s. c #8FB257",
"d. c #8CB159",
"f. c #83BB59",
"g. c #94B553",
"h. c #98B751",
"j. c #99B850",
"k. c #92B15A",
"l. c #9DB25C",
"z. c #B1AC4A",
"x. c #AAA553",
"c. c #B2AC56",
"v. c #A9B554",
"b. c #A4B951",
"n. c #ABB954",
"m. c #A3B25E",
"M. c #ABB45D",
"N. c #B3BA56",
"B. c #B7B55B",
"V. c #B5B65D",
"C. c #B6BA58",
"Z. c #BEBA5B",
"A. c #8D906D",
"S. c #869D6F",
"D. c #B89D62",
"F. c #B2936F",
"G. c #81A566",
"H. c #82AB61",
"J. c #8AAB61",
"K. c #8CA16C",
"L. c #97AA65",
"P. c #A3AB66",
"I. c #A9AE64",
"U. c #ADB263",
"Y. c #B4B460",
"T. c #C29954",
"R. c #D9945F",
"E. c #D8995E",
"W. c #C1AE4B",
"Q. c #CDA454",
"!. c #C1A853",
"~. c #DEA35C",
"^. c #CBBC50",
"/. c #C0BA5B",
"(. c #D4B651",
"). c #E1AB5A",
"_. c #D79563",
"`. c #C6A87A",
"'. c #87CA5D",
"]. c #95D562",
"[. c #98D763",
"{. c #C5C845",
"}. c #D6C84D",
"|. c #DCD949",
" X c #D7C050",
".X c #E3D24D",
"XX c #E7DE54",
"oX c #E6EA45",
"OX c #FEEC45",
"+X c #F9E249",
"@X c #FBE849",
"#X c #E9F044",
"$X c #F1EE58",
"%X c #F6F07C",
"&X c #3D6883",
"*X c #3F758C",
"=X c #38798A",
"-X c #3D7D90",
";X c #406481",
":X c #3D8395",
">X c #3E8698",
",X c #3F889A",
"<X c #498F8C",
"1X c #4B8A96",
"2X c #428C9B",
"3X c #46929C",
"4X c #52A39D",
"5X c #4C9CA1",
"6X c #56ACA8",
"7X c #5AB3AC",
"8X c #A7A3A1",
"9X c #C8AA8D",
"0X c #D4B584",
"qX c #DCD395",
"wX c #E1CA98",
"eX c #F1F092",
"rX c #DCDFAB",
"tX c #EADAA5",
"yX c #EFE1AB",
"uX c #F4F2B3",
"iX c #D9D9D2",
"pX c #FBF9D3",
"aX c #FBF8E6",
"sX c #FCF9F3",
"dX c #FFFFFF",
/* pixels */
"y.i.N.N.N.N.N.N.y.y.y.n.l.d.i.;.U.;.;.;.:.:.;.;.s.g.y.y.y.j.N.y.y.y.s.b.N.C.N.N.N.n.y.y.y.N.p.d.;.L.k.;.;.:.;.:.;.d.s.y.y.y.y.N.",
"y.y.y.y.y.y.y.y.n.n.y.y.y.y.y.y.j.i.i.;.;.;.:.;.:.;.;.k.d.:.:.:.y.y.y.y.j.j.y.y.y.n.b.y.y.y.y.j.j.y.i.i.;.:.:.;.;.:.:.:.d.k.;.;.",
"y.y.y.y.y.b.b.Z.Z./.N.b.y.y.s.g.s.:.:.:.h.y.:.;.:.:.i.i.H.a.Z.l.y.y.y.y.y.y.j.n.n.Z.Z.Z.b.j.y.h.g.k.:.:...d.y.i.:.:.:.i.i.i.i./.",
"y.y.y.y.y.y.C.Z.y.y.Z.Z.n.y.y.y.y.y.y.y.y.y.d.i.s.y.b.Z.b.Z.Z.Z.b.y.y.y.y.y.y.b.Z.N.y.C./.Z.y.y.y.y.y.y.y.y.y.j.i.:.y.y.N.N.N./.",
"/.b.b.j.h.y.y.y.y.y.y.y.y.y.y.y.y.y.y.y.y.y.j.j.y.b.Z.V.V.M.:.V.Z.Z.n.b.y.j.j.j.y.y.y.y.y.y.y.y.y.y.y.y.y.y.y.y.y.y.h.C.V.C.V.:.",
"H.:.H.:.:.:.:.:.h.j.j.h.y.y.y.y.y.y.y.y.y.y.y.j.d.:.:.j.:.:.:.:.H.H.:.:.H.:.:.:.:.h.j.h.h.j.y.y.y.y.y.y.y.y.y.y.h.h.:.:.k.d.:.:.",
":.:.:.;.:.;.:.:.:.:.s.j.y.y.y.y.y.y.y.j.y.y.j.j.h.j.j.y.y.y.:.:.:.:.:.:.:.:.:.:.:.:.:.H.j.j.y.y.y.y.y.y.y.y.y.y.h.h.j.y.y.y.h.s.",
"y.s.h.k.H.h.h.y.y.y.y.y.y.y.y.y.j.g.&.&.g.y.,.o.%.j.y.y.Z.N.j.:.j.j.h.s.h.:.g.j.j.y.y.y.y.y.y.y.y.y.y.%.&.,.y.k.%.%.k.y.y.N.C.y.",
"y.y.y.y.y.j.Z.Z.b.y.y.j.v.c.z.{.U.*.Y.&.#.O.$.Y.Y.%.y.C.Z.Z.Z.H.h.y.y.y.y.y.y.C.Z.N.y.y.t.y.t.y.h.J.#.Y.P.#.*.#.U.Y.*.k.N.Z.Z.Z.",
"y.b.C././.Z.Z./.y.y.D.R.R.R.@XOXOXOX.XZ.Y.*.Y.Z.Z./.V./.Z.Z.Z.Z.j.y.y.Z.Z.Z.Z.Z.Z.b.y.h.$.#.#.O.#.#.L././.V.P.U.Z././.Y.Z.Z.Z.Z.",
"y.b.n.b.n.b.b.t.$.F.E.).~._.~.+X+X+X+XOX XZ.Z.Z./.Z.Z.Z.Z.Z.Z.Z.Z.y.y.n.b.n.b.n.y.O.#.$.P./.*.#.Y.Y.K./.Z./.Z.Z./././././.Z.Z.Z.",
"/.n.y.y.y.y.N.+.D.OXOXOXOX+X~._.R.R._.E._.Y.Z.N.y.y.N./.L.:.Z.C.Z./.N.y.y.y.y.N.,.*./.P.Z.Z././././././.V.a.m.Z.Z.j.y.b./.M.;.M.",
"y.y.y.y.N./././..XOX@X$XOXOX).~.E.E.R.R._.D.y.y.y.k.d.;.=.;.b.Z 4 4 4 , w n./.Z.Z.Z.Z.Z.y.y.C./.b.k.k.m.;.;.;.y.n.y.y.d.:.;.-.k.",
"y.y.n./.n.t.n./.$X4.sXaXOXOXOXOX~._.R.R.R.E.s.h.g.:.:.:.i.4 = & -X=X-XO N.C.y.y.Z.Z.n.y.y.y.n.C.y.-.:.:.:.:.:.s.d.y.:.;.:.s.-.-.",
"y.y.y.y.y.y.t.!.dX4.dX%X+X~.OXL 9.d.J.R.R.R.:.:.:.:.:.t.* % 4X5X2X2Xc O t.y.y.y.y.y.y.y.y.s.s.s.=.;.p.i.:.;.:.:.;.;.;.;.k.y.y.p.",
"y.y.j.:.i.y.t.r dXdXdXpX+XR.L [ y.y.h.p.R.R.:.:.i.y...# <X6X3X:X:Xk k o 9 :.j.y.y.y.y.y.y.y.d.i.:.d.y.y.:.y.j.i.;.:.h.d.d.y.y.y.",
"i.g.:.;.-.j.y.E iXpXdXaXOXR.< b.b.y.y.y.c.v.y.y.h.j., & 7X,Xp O p u S k O V p.t.y.j.j.j.n./.j.j.b.b.b.y.y.y.y.y.y.y.y.y.y.y.y.y.",
":.:.:.-.:.:.:.e.2.4.dXsXOX}.; B.Z.V.h.y.g.g.D.D.c.r * 5X,X;Xa a b b z S p @ V ;.h.g.h.B.Z./././.Z.Z.V.v.j.g.h.k.:.:.g.y.g.g.y.y.",
":.:.:.:.:.-.:.:.q }.eXdXuX+X@ 5...9 ( 3 5 } E.R._.# ,X5X5X3X2X,X,X>X-Xx x a > =.H.i.` . ( o /./.Z.a.:.:.:.:.;.:.:.:.:.:.:.-.:.;.",
"k.y.p.#.$.;.j.y.7.  3.pXuXXXR = t.q ( <.Q   P R._._.1X5X<Xb u O o b z x x x @ ) 6.4 6 ^ f.X /.n.y.y.y.j.g.s.-.:.:.;.;.:.;.-.#.#.",
"&.$.K.V.&.#.g.b.C.8.< tXyXyXqXm ` y.  [. . .3 0 _.R.8Xa o o o o l l u u a S x + O ! / '.w 7.Z.j.y.y.y.y.:.:.:.:.:.:.-.%.#.&.&.$.",
"/.Y./.Z.Z.Y.Y.b.j.] P F.wXyXyX0X# t.r ' [./ ~ > t F.F.c -X:X,X>X:X:X:X:X*XS a @ j / '.'.. /.Z.b.Z.y.y.y.y.h.j.:.-.:.-.#.P.B./.Y.",
"/./.Z.Z./.Z./.b.B.1.@ A.yXtX0X0X# t.y.  ].<.~ v & >X>X3X6X7X3X3X2X>X-X*XS S > v H / [.V ] y.C./.j.N.y.y.y.y.y.h.V.V.Y.P././././.",
"N./.Z.n.Z./././.Z.8.Y 0X0X< C tX$ y.t.` { <.~ J v 3X7X7X7X7X6X6X1Xx x x S D D H H / '., y.C.y.y.y.y.y.y.y.y.y.C.j.b./.Z.Z./.b.N.",
"j.b.y.y.Z././.Z.Z.8.- F., 8 `.< 4 C.j.y.. / H J 3X7X7X2X,X,X>X>X>X&XS x S S S G v ~ 6 8.Z.Z./.N.N.N.C.n.y.y.y.y.y.y.y.y.C.n.y.y.",
"y.y.y.y.b.n.n.y.b.b.; @ O % % = p.u.y.y.E % * v 7X6X2X:X:X,X>X>X&XF x x D F S x > & o v.n.b.j.y.p.p.p.y.y.y.y.y.y.y.y.y.y.y.y.y.",
"y.y.y.y.y.y.y.y.y.y.y.O N N N - =.:.i.:.V # :X2X2X2Xf O O d :Xc S x y O u :X-XS x y o r.y.y.s.:.;.:.-.:.:.:.s.t.N.Z.Z.b.y.y.y.y.",
"k.y.y.h.d.y.y.y.y.y.y.$ N R R = p.:.:.:.o =X6X6X:Xf O Q 2 O O O O @ d j $ @ 2X-XS S y 6.s...:.i.d.d.;.:.;.;.:.I.Z.Z.Z./.Z.J.;.d.",
"d.y.h.;.;.:.s.:.d.y.d.| N R R = y.:.p.y.o 2X7X3X-X$ j / / / Q Q W !  .J h O l >XF S u ] i.d.d.y.y.y.d...y.h.p.p.p.n.N.p.i.k.g.d.",
"i.y.d.;.i.i.:.:.i.p.h.e.n N R > y.y.y.t.o b 3X:Xg h G H 6 / ^  .^ ^ ! h h h & >X:XS u } y.y.y.y.y.y.y.y.y.h.p.p.p.y.p.p.h.i.i.j.",
";.:.:.i.y.y.y.y.y.y.y.e.- n s   O X.y.Z.x.o b :X-Xo g H > ! [. ./ / / d H v & & 2XS - ] y.k.#.#.G.,.$.k.N./.Y.S.#.J.#.S.o.;.;.;.",
"y...:.h.g.g.h.j.y.k.u.o ' % o ! W B /././.c.o =X,X% % v v o '.<.^ / W 2 H g O :XF & w k.%.S./.V.S.I.I.L././././.S.#.Y.Z.L.I.M.;.",
"y.k.:.:.J.H.J.H.N.+.q.* ].].' # ^ O /./.J.:.x.O &X&X+ % J # f.].^ / . h j O l *XO # S.B././.Z.V.Z.Z./.Z./.M.:.V.Z.K.Z.y.Z././.Z.",
"y.:.V.C.Z.Z.Z.Z.b.y.6.6  .].].2 2 @ H.:.:.;...p &X;XS p h g   [.;.W > v o l D D x = j.j.b.B.i.:.:.m.U.:.:.:.:.:.:.g.j.y.y.y.y.Z.",
"y.y.y.y.y.y.y.y.y.y.7.5 ^ / / 2 O O O } ..;.[ g :X:Xb S p k u W ^ . x y S S S S S = b.j.y.y.r.y.y.b.:.:.:.;.....:.:.-.:.k.j.:.:.",
"y.y.y.y.y.y.y.C././.b.o / / / 2 9 4 O O $ = % f ,X,X2X2XF D D O ^ p x x S S S S k O 8.c.@ X 0 E y.'.:...:.p.y.i.-.:.:.:.:.:.:.Z.",
"y.y.y.y.y.b.Z.Z.n.b.Z.x.* * * O e.h.g.Z 4 , O O -X,X,X>X>X>Xx p @ a S S S S x & O @ @ - 1.|.{.h r.t.t.t.t.y.y.y.:.:.g.y.N.n.n./.",
"C.y.y.y.y.j.y.b.y.y.b.b.= @ ; ; u.h.j.r.y.y.$ = O * -X-X:X>Xx D S S S S x - : N T : O e .X Xz.. r t.y.].y.y.y.y.y.y.y.Z.Z.Z./.p.",
"L.J.l.J.;.i.i.i.y.y.y.y.= ; T , e.y.j.j.y.y.X T `., : : # t y : i y y & C 9XR N < @ @ e 0.1.rXiXX r ) E r.'.b.y.y.y.:.;.d.d.:.:.",
":.;.:.;.:.:.-.;.;.;.d.s.] + s , y.y.j.j.y.y.+ ; Y R 0X0XR Y X 9X0XT m T 9.M - @ @ y O 2 O 2.iXK 2.yXqX1., E y.y.k.s.s.j.j.y.k.i.",
"y.d.k.d.:.s.s.y.y.y.y.y.y.e.e.y.'.t.S.i.r.b.@ k O O X X m n X F.R m o s y k k S S S O ] X 1.7 |.pXdXdX$X2.> t.y.:.G.g.j.y.n.N.y.",
"y.y.y.y.y.y.n.n.y.y.y.y.y.y.y.y.G.O.L.$.@.V f *X*X*Xc x O O F.< M m A o y S S S S S u o ] 0 z.oXaX9XaX$XoX1.w X.L.L.&.g.n././.N.",
"y.b.n./././././.b.y.s.#.#.O.,.#.@./././.P.B =X2X:X:X2XS O Y R X O X N s & p p + o o O O B P (.#XeX9X0 0 q z.L r @ x.Y.P.Z./././.",
"j.y.N.N.C.N.N.j.%.,.#.U.U.#.&./.K.*././.Y.o b z o o o + ; 0XF.X x.u.s T # , 5._ + + @.$.C w.(.#XoX{.3.W.< 0.}.uXyXe x./.Z.Z./.Z.",
"/.b.y.y.y.y.b.p.S.Z.S.Z./././././././.Y.Y._ 5.P q o = 8.; 9.F.5.x.q.7 X $ 6.6.7., $ c.K.Z w.Q..XoX|.1.8 0 3.|.pXsXeX7 b.Z.V.;.V.",
"y.y.y.y.n.Z./.Z.Z./.Z.y.b.Z.Z.y.g.V.U.;.:.;.] e.` O > [ [ 4 q 5.8.6.6.6.e.7.q., o Z q.q.r P U T.D.T.8 }.q z.0.$XuX%Xe e.i.:.;.l.",
"y.y.b.Z.C.y.C.Z.C.b.y.y.j.Z.C.g.;.:.;.;.| ] ] ] V O [ } } [ } 6.6.6.6.6.8.q.6.7.= # 8.6._ < U U c.|.7 1.P U |.#X#X|.P | ;.i.;.;.",
"y.y.y.b.y.y.y.j.y.y.y.j.j.j.s.:.:.:.;.;.} [ [ ( 4 4 [ 6.6.] } [ 6.6.6.6.6.6.6.6.6.6.6.6._ : L U ^.4.{.3. Xc.{.#X#X}.P } s.y.y.:.",
"y.y.y.:.H.y.y.y.y.y.y.y.j.:.:.:.j.y.h.:.j.| [ [ [ ] [ 6.6.6.6.6.6.6.6.6.| [ 6.6.6.6.6.6.q M U U (.oX#X#X#X#XoX#X}.Q.0 :.s.y.y.y.",
"d.y.:.:.:.y.y.y.y.y.y.N.n.y.y.j.b.y.y.y.y.y.j.j.e.e.e.6.6.6.6.6.} { 6.| [ [ | e.6.e.j.t.7.- U U T.(.|.oXoX|. XQ.Q.0.r y.j.y.y.y.",
":.:.:.:.:.:.i.y.y.y.Z.Z.Z.Z.C././.C.y.y.y.j.d.:.g.y.y.t.t.t.h.H.....=.=.....:.:.y.j.j.Z./.0 1 P U T.Q.Q.Q.Q.Q.Q.0.9 r.y.y.y.y.y.",
";.;.:.:.;.:.:.:.s.j.b./.Z.Z././.J.:.:...:.:.;.:.:...:.=.:.i.H.-.:.:.:.:.:.:.:.:.:...h.b.V.c.5.e 1 M P I w.0.L 8 B | =.i.:.:.i.:.",
"k.g.p.%.o.:.k.y.y.N.C.C.Z.Z.b.k.h.y.k.g.:.:.:.:.:.:.-.:.>.#.#.O.g.g.s.g.%.%.;.H.y.y.y.C.N./.Z.N.u.u.E ` ` ) [ ..:.;.:.;.;.:.%.#.",
"#.,.*.I.#.#.j.y.Z././././.C.y.y.y.j.s.;.:.:.:.:.:.:.%.#.%.#.#.#.#.#.O.%.I.K.#.G.y.N././.Z.Z./.y.y.b.y.g.-.-.:.:.:.-.:.>.#.%.#.#.",
"Z.P.Z./.V.P.P.n.y.y.y.C.Z.Z.y.n.y.y.y.y.s.s.:.:.:.>.#.P.Z./.L.&.Z./.I.V././.P.P.C.n.y.y.n.Z.Z.b.N.t.t.t.j.k.k.:.-.:.:.#.K.Y.Z.Y.",
"Z.Z.Z.Z./././.b.N.y.y.y.b./.C.N.n.y.y.y.y.y.a.m.L.S.I.Z.Z./.Y./.Z./.Z./.Z./.Z./.N.N.n.y.y.y.Z.Z.N.n.y.y.j.j.y.s.I.P.P.K./.Z.Z.Z.",
"C./.Z.N.Z./.Z./././.y.b.b.y.y.y.y.y.y.y.y.y.N.y.C./.Z./.C.N././.Z.N././.N.Z.Z./.Z.Z./.y.y.n.y.y.y.y.y.y.y.y.y.Z.j.n.{.Y././.N.C.",
"y.b.y.y.Z.Z././.Z./.n././.C.n.n.b.n.y.y.y.y.y.y.y.y.b./.y.y.b.N.y.y.y.y.y.N./.Z.Z.Z.Z.n.Z./.Z.n.b.n.n.b.y.y.y.y.y.y.y.y./.M.y.y.",
"y.y.y.y.N.N.N.y.N.N.N.N.N.y.j.g.k.g.y.y.y.y.y.y.y.y.y.y.y.y.j.y.y.y.y.y.y.n.N.N.y.b.N.N.N.N.b.y.g.g.k.y.y.y.y.y.y.y.y.y.y.y.y.y.",
"y.y.y.y.y.y.y.y.y.y.y.y.h.d.;.;.:.:.s.;.:.y.y.b./.N.y.y.y.y.y.h.k.y.y.y.y.y.y.y.y.y.y.y.y.y.h.:.:.;.:.i.;.:.h.y.y.Z.Z.y.y.y.y.y.",
"j.y.y.y.g.y.y.y.y.y.y.h.;.:.:.i.i.-.:.:.:.M.V././.C./.Z.:.:.h.:.:.k.y.y.y.g.h.y.y.y.y.y.h.i.:.:...i.:.:.:.:.H.V.Z././.Y.Z.a.:.g.",
"H.y.y.:.:.i.h.:.k.y.H.H.:.s.y.y.y.:.i.h.i.H.:.H.Z.M.H.H.y.:.i.y.y.:.h.y.d.:.;.h.k.H.y.i.:.:.i.y.y.y.s.:.j.g.H.:.H.C.Z.H.H.s.s.:.",
"d.y.s.:.:.:.:.:...i.g.y.y.j.y.y.y.j.y.y.h.g.h.j.j.h.j.j.:.y.h.h.:.:.y.y.:.:.:.:.:.:.:.i.y.y.y.y.y.y.j.j.j.j.g.j.j.j.j.h.h.d.s.j.",
":.:.;.i.y.j.h.j.y.y.y.y.G.%.%.t.%.O.y.Z.Y.S.$.$.G.$.$.;.;.:.;.:.:.:.:.:.;.y.y.j.h.y.y.y.y.h.%.&.J.G.%.y.n.V.Y.$.$.k.#.%.>.:.:.:."
};
