/* XPM */
static char *result[] = {
/* columns rows colors chars-per-pixel */
"64 64 224 2 ",
"   c #09000F",
".  c #000018",
"X  c #000024",
"o  c #020828",
"O  c #000C2B",
"+  c #120B26",
"@  c #09162C",
"#  c #0B162C",
"$  c #16192B",
"%  c #151B2E",
"&  c #00183B",
"*  c #171E30",
"=  c #181E32",
"-  c #1B222F",
";  c #1D2232",
":  c #1E253B",
">  c #23292F",
",  c #242531",
"<  c #232B35",
"1  c #2C2B33",
"2  c #21293E",
"3  c #322D36",
"4  c #293532",
"5  c #343135",
"6  c #323C31",
"7  c #3C3A38",
"8  c #433B3B",
"9  c #394935",
"0  c #3C543D",
"q  c #484836",
"w  c #485736",
"e  c #575135",
"r  c #605F3A",
"t  c #56693A",
"y  c #5F743C",
"u  c #65623C",
"i  c #63773C",
"p  c #1E3746",
"a  c #1F3B4A",
"s  c #242D46",
"d  c #2E3856",
"f  c #4A3F40",
"g  c #1F4E5E",
"h  c #344943",
"j  c #264B5C",
"k  c #364364",
"l  c #394469",
"z  c #3C496D",
"x  c #32576D",
"c  c #3E4C72",
"v  c #346A73",
"b  c #326977",
"n  c #387379",
"m  c #4F4241",
"M  c #544941",
"N  c #574A44",
"B  c #435D48",
"V  c #5B5549",
"C  c #66574A",
"Z  c #645F50",
"A  c #725D55",
"S  c #4E6747",
"D  c #5B7B4D",
"F  c #6F714D",
"G  c #786555",
"H  c #404E75",
"J  c #405177",
"K  c #405579",
"L  c #405B7C",
"P  c #567A65",
"I  c #5A7E65",
"U  c #646761",
"Y  c #897459",
"T  c #937D5E",
"R  c #866E61",
"E  c #8C7363",
"W  c #997F67",
"Q  c #967A6A",
"!  c #997D6C",
"~  c #6E843F",
"^  c #5E8452",
"/  c #768A44",
"(  c #7B9648",
")  c #648956",
"_  c #668E57",
"`  c #718851",
"'  c #6C9154",
"]  c #6A9459",
"[  c #749754",
"{  c #7AA259",
"}  c #5C8265",
"|  c #5E8871",
" . c #759C6E",
".. c #669175",
"X. c #6A9571",
"o. c #6B9473",
"O. c #6D9970",
"+. c #729672",
"@. c #719870",
"#. c #7C9971",
"$. c #76A663",
"%. c #78A764",
"&. c #77A863",
"*. c #7AA863",
"=. c #7BA169",
"-. c #878B4F",
";. c #849847",
":. c #839D46",
">. c #9E9A4F",
",. c #8B9259",
"<. c #9B9A53",
"1. c #A29E4F",
"2. c #A39F50",
"3. c #88A449",
"4. c #8FAA4A",
"5. c #97A64D",
"6. c #91AD4B",
"7. c #93B04B",
"8. c #99B74E",
"9. c #9BB94E",
"0. c #84A455",
"q. c #84AD5E",
"w. c #8AAE5C",
"e. c #96AF5F",
"r. c #8FB257",
"t. c #8BB159",
"y. c #94B553",
"u. c #98B751",
"i. c #99B850",
"p. c #92B15B",
"a. c #9DB15D",
"s. c #A8A653",
"d. c #ABB153",
"f. c #A4B951",
"g. c #ABB954",
"h. c #A4B35D",
"j. c #AAB45D",
"k. c #AAB858",
"l. c #B2B756",
"z. c #B3BA56",
"x. c #B5B65D",
"c. c #B9B55B",
"v. c #B6BA58",
"b. c #BEBA5B",
"n. c #9A846A",
"m. c #859C6F",
"M. c #899E6E",
"N. c #829C70",
"B. c #A88C6F",
"V. c #AB926C",
"C. c #B59B73",
"Z. c #BB9E75",
"A. c #82A565",
"S. c #82AB61",
"D. c #8AAB61",
"F. c #8DA16D",
"G. c #93AE61",
"H. c #98A865",
"J. c #9AA769",
"K. c #A3AB66",
"L. c #A9AE63",
"P. c #AEB163",
"I. c #B3B461",
"U. c #B7B56C",
"Y. c #B6A876",
"T. c #C0BA5B",
"R. c #C4A67A",
"E. c #CCAD7E",
"W. c #D2B37E",
"Q. c #3B6B83",
"!. c #357484",
"~. c #3B7B87",
"^. c #3F758C",
"/. c #3B7A8D",
"(. c #3F7D92",
"). c #406281",
"_. c #41788D",
"`. c #3E8395",
"'. c #3E8698",
"]. c #3C889A",
"[. c #468C8B",
"{. c #49928D",
"}. c #448A99",
"|. c #5C8E97",
" X c #4B9897",
".X c #51A09B",
"XX c #4C9CA1",
"oX c #4EA0A3",
"OX c #55A9A6",
"+X c #5AB3AC",
"@X c #909A91",
"#X c #959C91",
"$X c #A5AA9C",
"%X c #B6B394",
"&X c #CAAE81",
"*X c #CFB485",
"=X c #D5B583",
"-X c #D9BC8A",
";X c #D1BE93",
":X c #C0BDBB",
">X c #A0C3AA",
",X c #DCC897",
"<X c #E3CD98",
"1X c #E5D49D",
"2X c #D5CCAC",
"3X c #DFD7A1",
"4X c #E8D9A5",
"5X c #EADCA5",
"6X c #EADBB7",
"7X c #EEE1AB",
"8X c #EDE5AB",
"9X c #F0E5AC",
"0X c #F2E6BC",
"qX c #CDCDCE",
"wX c #E9D9C5",
"eX c #F3EBC5",
"rX c #F4EBCB",
"tX c #F1EAD6",
"yX c #F4ECD4",
"uX c #E6E6E6",
"iX c #F4ECE1",
"pX c #FAF6E7",
"aX c #FDFBF6",
"sX c #FFFFFE",
/* pixels */
"9.q.z.z.z.z.z.z.9.9.9.g.a.t.q.&.h.*.*.&.*.*.&.&.r.u.i.9.i.i.z.9.9.9.r.k.z.g.z.z.z.g.9.9.9.z.q.t.%.G.G.&.&.*.*.*.&.t.r.9.9.9.9.z.",
"9.9.9.9.9.9.9.9.g.g.9.9.9.9.9.9.8.q.q.*.&.&.*.%.%.*.*.r.r.*.*.*.9.9.9.9.9.9.9.9.9.k.g.9.9.9.9.9.9.9.w.q.%.*.&.%.&.*.*.*.w.y.&.$.",
"9.9.9.9.9.f.f.b.b.b.g.f.9.9.r.y.r.%.*.%.u.9.*.&.*.&.q.q.S.e.T.p.9.9.9.9.9.9.f.f.g.T.T.b.f.9.9.u.y.y.*.&.*.t.9.q.*.&.*.S.q.q.D.b.",
"9.9.9.9.9.9.v.T.f.9.b.b.z.9.9.9.9.9.9.9.9.9.t.q.r.9.f.b.f.T.T.T.f.9.9.9.9.9.9.f.v.z.9.v.b.b.9.9.9.9.9.9.9.9.9.i.S.q.9.i.v.g.z.b.",
"T.f.f.i.u.i.9.9.9.9.9.9.9.9.9.9.9.9.9.9.9.9.9.9.9.k.x.v.x.j.*.x.b.T.k.f.f.u.i.i.9.9.9.9.9.9.9.9.9.9.9.9.9.9.9.9.9.9.u.x.x.x.x.*.",
"S.*.S.*.*.*.*.*.u.u.u.u.8.9.9.9.9.9.9.9.9.9.9.u.t.&.*.8.*.*.*.*.A.*.S.*.*.*.*.*.*.i.u.u.i.u.9.9.9.9.9.9.9.9.9.9.8.u.*.*.y.t.*.*.",
"*.*.*.*.*.*.&.*.*.*.r.8.9.9.9.9.9.9.9.9.9.9.8.8.y.u.i.9.9.i.*.*.*.*.*.&.*.&.*.*.*.*.*.S.u.i.9.9.9.9.9.9.9.9.9.9.u.u.u.9.9.9.u.r.",
"9.r.u.r.S.u.u.9.9.9.9.9.9.9.9.9.9.p.+.O.y.9.B p !.b % y s.v.i.*.9.9.u.r.u.*.u.i.8.9.9.9.9.9.9.9.9.9.u.O.O. .9.u.O.O.p.9.9.z.v.9.",
"9.9.9.9.9.f.v.v.f.9.i.i.i.i.9.9.+.#.P.#.| $ $ p }.{.{.{.+ t s.*.i.9.9.9.9.9.9.v.v.v.9.9.9.i.9.9.i.D...I.K...@...P.I.#.p.z.T.T.b.",
"9.g.v.T.b.T.T.b.9.9.D.....O.@.....T.T.s.* p Q.'.XX+X+XXXOX Xb e 9.9.9.v.b.b.b.b.T.f.9.u....... .....J.T.T.b.K.P.b.T.T.I.v.T.b.b.",
"9.f.g.f.g.f.f.9.X. ...x.I...m.T.P.#.s.% 2 ^.'.oX+X+XoXoX+X+X+X.Xe 9.9.g.f.g.f.g.9. .....K.T.#...c.I.F.T.T.T.b.b.T.T.T.T.b.b.T.b.",
"b.g.9.9.9.i.z.=.J.T.K.T.T.T.T.T.T.T.i $ '.'.'.}.+X+X+X+X}.OX+XOX`.e z.9.9.9.9.z.A.@.T.L.b.b.b.T.T.T.T.T.x.G.h.b.b.i.9.f.T.P.&.j.",
"9.9.9.9.z.T.b.T.T.T.z.9.f.b.v.9.t.e.% c Q.'.'.!.{. X+X+X+X}.OX+X+X$ 3.9.8.g.b.b.T.T.b.b.9.9.b.b.f.y.t.H.&.*.&.u.g.9.i.w.*.&.*.p.",
"9.9.g.T.g.9.g.T.z.i.9.9.9.z.z.y.*.*.$ c Q.`.- $ * * % [.+X+Xv  X+X}.t f.v.v.8.f.b.b.g.9.9.9.g.v.9.&.*.*.&.*.*.r.r.9.*.*.*.r.&.&.",
"9.9.9.9.9.9.9.9.9.9.9.y.t.r.w.&.*.t.* ).'.'.H c H s % % [.+X+Xs OXOX% 8.9.9.9.9.i.9.9.9.i.r.r.r.&.&.t.D.*.*.&.*.*.&.&.&.y.9.9.t.",
"9.9.9.*.*.9.9.9.9.9.9.9.9.w.S.&.9.9.< d c }.^.H H H s % * b +Xb n [.% 8.q.*.u.9.9.9.9.9.9.9.r.q.&.r.9.9.*.9.u.q.&.*.u.r.q.9.9.i.",
"q.y.&.*.*.i.9.9.i.9.9.v.z.9.9.f.f.9./ * c c K K c z - 9 $ k ^.b `.^.k q.%.*.w.9.9.9.9.9.f.b.9.9.f.f.f.9.9.9.9.i.f.9.9.9.9.9.9.9.",
"*.&.*.*.&.*.*.y.y.f.b.b.b.b.T.T.b.x.u./ % : 2 2 s - ( y.t # }., x k 0 &.*.*.*.*.y.y.u.b.T.T.T.T.b.b.x.k.9.y.y.U.-X*.u.9.y.y.9.9.",
"*.*.&.*.*.*.*.*.u.9.9.b.b.b.b.x.*.S.*.*.] ^ ; - 9 ] $.$.< $ ^.l ].$ ] *.&.*.*.*.*.q.9.9.v.T.T.b.x.e.*.*.*.*.Y.=X=X*.*.*.%.*.$.&.",
"y.i.D...o.*.i.9.9.z.b.b.T.T.9.i.i.9.u.u.S.*.*.&.{ h $ A # d j $ x % $ t ....%.q.9.9.f.b.b.T.T.g.9.9.9.i.y.U.*XaXq *.*.$.&.%.....",
"+.+.F.x.+...u.i.T.b.b.b.b.z.9.9.9.9.i.{ *.&.*.$.; V.R.W & c . X   iXtX:X1 H... .f.v.b.b.b.b.b.9.9.9.9.9.D =XaXpXX *.*.O...o.+.o.",
"T.I.T.b.b.I.x.k.9.9.9.z.b.b.f.z.9.9.9.9.u.u.{ % @ s :XwXsXsXsXsXaXwX2X. o 7 c.c.z.f.9.9.f.b.b.f.b.9.9.U.O aXsXeXX *.*...K.c.T.T.",
"b.T.T.T.b.T.T.f.v.f.9.9.9.T.z.f.z.9.9.9.9.9.F - Q G C.4X5X7X1X<X<X7X7X5XW.5 d.T.v.v.z.9.9.9.v.T.f.g.i.W.3XsXiX9XX I.I.K.T.T.T.T.",
"z.b.v.k.T.b.T.b.T.T.9.g.g.9.9.9.9.9.9.9.9.9.- < Q ! *X5X7XrXyXpXsXsXaXwX<XT -.T.T.T.T.9.f.v.9.9.9.9.;.=XeXsXW.5XX f.T.T.T.I.f.z.",
"9.i.9.9.b.b.b.T.b.T.z.T.b.v.z.z.v.v.9.9.9.:.% C Q *X=X4X7X7X7X7XeXpXqXtX9X,X8 c.b.T.b.z.b.b.T.z.z.l.9 uXeX2X1X;X9 9.9.9.z.g.9.9.",
"9.9.9.9.g.k.f.9.f.g.g.g.g.9.u.t.q.t.9.9.8.3.% Q Q *X=X<X4X7X7X7X7XpX- Z.4X5XV ;.9.9.g.g.g.g.9.9.q.[ 7 pX5X=X<XX ;.9.9.9.9.9.9.9.",
"9.9.9.9.i.9.9.9.9.9.8.4 - ' &.{ *.&.q.*.%.- , N ! =X=X=X<X7X7X7XyXsX, N ;XpXZ , 9.9.9.9.9.9.t.&.{ 4 1X8X-X=XY 9 g.b.T.f.9.9.9.9.",
"u.9.9.i.r.9.9.9.9.9.6.% R.> [ t.q.*.*.*.=.= f Q B.=X=X=X=X=X-X7XaXsX; $ =X4X;XC 9.9.9.9.t.*.*.q.[ N 7X,X=X=X* -.T.b.T.T.T.D.&.t.",
"w.9.u.&.&.*.r.*.t.9.{ % N W.G 6 9.*.t.9.( % f Q E.=X=X=X=X=X<X7XrXsX; % C =X6X# [ q.9.t.t.w.t.8.< 3X3XR.=XY > t.w.k.z.w.t.y.y.q.",
"q.9.t.*.q.q.&.&.q.q.3.% % N =XG 9 ( 9.8.[ % f Q B.=X=X=X&X=X<X5XrXqX* % , M V % ] *.q.t.8.8.9.3.Z 8XS R.=X1 ` w.w.9.w.w.y.q.q.u.",
"*.*.*.S.9.9.9.9.9.9.6.p /.a V =XG - w c.1.% % 7 Q R.=XE.G , # # # $ % - % % 3 , 9 9.9.9.9.r.| % 3X4XM =XY - I.m...D...M.O.*.&.*.",
"9.*.*.y.u.y.u.i.9.y.0.p '.'.~.U n.W C $ u % $ Q Q &X=X=X4X<X,XO ; ; % % % C.pXG % 9.9.[ h N.s.N 8Xn.C.=X5 s.T.T.M...x.T.J.L.h.&.",
"i.y.*.*.D.D.D.D.x.#.d.p '.'.'.|.#XW.=XE.C.@ O , ! B.B.*X=X-X4X7XeXaX:X* f =X5X7XO p.I P  X+ r Z.*XC =XT * P.*.x.b.F.v.9.T.b.b.b.",
"9.S.x.v.x.b.v.b.f.f.4.p '.'.`.].W.V.o Z n.7X9X7 3 ! ! =X=X=X-X7X9XrXuX* B.tXiX5Xo z.+ n oX!.C =X1 G =X7 ] *.&.*.*.y.i.i.9.f.9.b.",
"9.9.9.9.9.9.9.9.9.9.4.p '.}.XX].W.=X=XR.Y X =X3 5 ! Q =X=X=X=X4X9X0XuX@ =X7X7XV.$ i {.'.  g C.Z.1 W n.% &.*.&.*.*.*.*.*.y.i.*.*.",
"9.9.9.9.9.9.9.v.T.T.5.p '.'..XOX9X5X=X=X=XO 4X5 $ ; G &X=X=X=X<X5X7X4X:X1X7X7XV 4.>.~.+X/.O B.@ A Q 1 D &.q.i.{ *.*.*.*.*.*.*.v.",
"9.9.9.9.9.f.v.b.g.f.d.p '.'.'.+X3X1X,X=X=XO =X5 = = % O T V.=X,X7X7XpXpX6X1XC.$ -.c.q ~.'./.j $ G A s % / 8.9.8.*.*.u.i.z.g.g.T.",
"v.9.9.9.9.9.9.f.8.9.5.q #X}.'.oX%X5X9XW.=XR =X5 : l d % = % o &X7X7XpXpX7XC.s % * u.i $ j ~.Q.z s $ k _.j ;.9.9.9.9.i.b.T.b.T.D.",
"G.G.G.D.*.q.q.q.9.9.5.M =X=X$X|.%X=X=X=X=XR =X5 % H H H s % % % $ Z.,X5X;X: c : * 4.* G G f s z H l $ % $ 3.9.9.9.i.*.&.t.q.*.*.",
"&.*.*.*.*.*.*.%.%.%.{ M *XW.7X8X%X=X=X=X=XQ =X5 , H L J L H d s % * ; 1 * H b c * S @ Q C.=XM = s l H : 3.8.9.9.r.y.y.i.i.i.r.t.",
"9.q.r.t.*.r.r.i.9.9.4.- E.=X-X4X$X}.#X=X=XN =X5 : H /.L (.'.c K c : % = c '.L s 9 i @ Q =X=X=XE % * ; ; A.D.i.i.=.A.y.i.i.g.z.9.",
"9.9.9.9.9.9.z.g.f.i.9.4 R.=X-X4X>X+X XOX#X* *X5 : H J _._.'.'.`.K H c c c (.c * 5.F $ A Z.=X=XZ.% 0.| H.F...A...J.J.+.u.k.T.T.z.",
"9.f.g.T.T.b.b.b.f.i.t.I 8 =X=X=X@XOXXX].}.# B.3 % z H H `.}.`.'.`._.H L }.~.$ 6 T./ - % 7 8 N * h ..J.b.b.I.F.J.b.b.T.K.v.T.T.b.",
"9.f.z.z.z.z.z.i.o.A...P.9 C =X=X=X].].].'.% Q , % - H H K /.'.'.'.'.'.'._.% $ f.i.S d c $ , ; I I.K.#.T.T.T.b.T.b.T.T.T.T.b.T.T.",
"T.f.9.9.9.9.f.w.m.T.M.T.T.q Z =X=X@X'.'.!.E f = % % s z H H L L ).).L j % % ~ z.w.B % s = T.b.T.b.T.b.T.x.j.x.b.b.f.9.k.T.x.&.x.",
"9.9.9.9.k.b.T.T.b.T.v.9.g.T.q G *X#X'.!.f m 9 k.( % % % $ * - - % $ $ % * < c.T.T.T.>.2.4.9.b.T.f.u.h.x.*.*.*.i.z.9.9.u.q.*.*.p.",
"9.9.f.b.v.9.v.T.v.f.9.9.9.v.v.9 G #X!.m $ 9 u.i.i.) * $ * ^ ) ~ / / ~ - * $ 6.f.T.b.v.9.9.9.z.b.9.*.*.&.*.&.*.u.u.9.*.*.*.S.*.*.",
"9.9.9.f.9.9.9.i.9.9.9.8.9.9.t.*.9 g O E 9 *.%.*.*.{ ^ * * 3.*.q.i.i % % * * 6.9.i.f.i.i.9.u.u.u.*.*.*.*.*.*.*.&.*.*.*.%.y.9.i.*.",
"9.9.9.*.S.9.9.9.9.9.9.9.8.*.*.*.i.w $ 9 u.q.*.&.*.8.*.9 % i 6.6.6.6 t % < D i.i.9.9.9.9.9.9.q.*.*.t.9.9.*.i.y.*.*.*.y.q.r.9.9.9.",
"t.9.*.*.*.9.9.9.9.9.9.z.g.9.i.i.f.i.y 8.9.u.u.6.7.:.:.( 6 % w :.' ' ;.[ _ _ 0.i.9.9.9.9.9.b.9.9.9.9.9.9.i.9.9.9.u.u.9.9.u.9.9.9.",
"*.*.*.*.*.*.S.i.9.9.b.b.T.v.v.T.T.v.9.9.8.i.[ ' ( :.:.:.i 9 ~ ' _ _ _ _ _ _ ' ] 6.9.i.v.T.T.v.b.b.T.v.z.9.i.i.u.*.q.i.9.9.9.9.9.",
"$.&.*.*.*.*.*.*.r.i.f.T.T.T.T.T.D.*.*.*.&._ _ _ _ ' _ _ _ ' ' _ _ _ _ _ _ _ _ _ _ { u.f.b.b.T.b.b.h.%.%.S.&.*.*.*.*.*.q.*.*.q.*.",
"y.y.D.O.O.*.y.i.9.z.v.v.T.b.f.y.y.9.y.y.*._ _ _ _ _ _ _ ) P I } ( ( ( ( I } ' ' :.6.i.v.z.T.T.g.u.y.9.u.u.t.%.*.*.*.&.&.*.*.o...",
"..=.#.L.....u.9.b.T.T.T.T.v.i.i.9.9.r.&.&.{ _ _ _ _ I P } P P P P P } } ,.` P ` 3.z.T.T.T.T.b.f.i.8.i.y.&.%.*.%.&.&.*.=...X.....",
"b.K.b.b.b.K.K.g.9.9.9.v.T.b.f.k.9.9.9.9.r.r.$._ _ ) P ,.2.1.,.I 2.1.<.<.1.1.,.H.v.k.9.9.g.T.b.f.z.9.9.9.9.r.r.*.*.*.*.o.F.I.b.I.",
"b.b.b.T.b.T.b.f.g.f.9.9.f.T.v.g.g.9.9.9.i.i.a.h.H.m.K.s.2.2.>.>.2.2.1.c.c.c.T.T.v.g.g.9.9.9.v.b.g.g.9.9.9.9.9.r.h.K.J.F.T.T.b.b.",
"z.b.v.z.T.b.T.T.T.T.9.f.f.9.9.9.9.9.9.9.9.9.v.9.v.T.T.b.b.g.b.T.b.z.b.b.g.b.b.T.T.b.T.i.9.g.9.9.9.9.9.9.9.9.9.b.9.g.T.T.T.T.z.v.",
"9.g.i.9.b.T.b.b.T.b.g.T.T.z.g.g.f.k.9.9.9.9.9.9.9.9.f.b.9.9.f.z.9.9.9.f.9.z.T.b.T.T.b.g.T.T.b.g.g.g.g.f.9.9.9.9.9.9.9.9.b.g.9.9.",
"9.9.9.9.v.z.z.9.z.z.z.z.z.i.9.y.y.y.9.9.9.9.9.9.9.9.9.9.9.9.9.9.9.9.9.9.9.g.v.z.9.i.v.z.z.v.f.9.r.y.r.9.9.9.i.9.9.i.9.9.9.9.9.9.",
"9.9.9.9.9.9.9.9.9.9.9.9.u.t.&.&.*.*.r.&.*.i.9.f.T.z.9.9.9.9.9.y.y.9.9.9.9.9.9.9.9.9.9.9.9.9.u.$.*.&.*.q.*.&.u.9.f.v.T.i.9.9.9.9.",
"i.9.9.9.u.9.9.9.9.9.9.u.&.*.*.q.q.*.%.*.%.j.x.T.T.b.b.b.*.S.y.S.%.y.9.9.9.u.u.9.9.9.9.9.u.q.*.*.{ q.*.*.*.*.D.v.b.b.b.b.b.G.*.u.",
"S.9.9.*.*.q.u.*.y.9.q.*.*.r.9.9.9.*.S.9.q.S.*.S.b.h.S.S.9.*.S.9.u.*.u.9.q.*.&.u.r.q.9.q.*.*.S.9.9.9.t.*.i.y.*.*.S.x.b.A.q.r.r.*.",
"t.9.y.&.*.*.*.*.*.*.y.9.9.9.9.9.9.i.9.9.u.u.u.i.i.y.i.i.*.u.u.u.*.*.9.9.*.*.*.*.%.*.q.q.9.9.i.9.i.i.i.i.9.9.u.y.u.9.u.u.u.t.t.i.",
"*.S.*.*.9.9.u.u.9.9.9.9.A.+.O.u.+. .9.v.I.m.o.o.A.o.O.&.&.*.*.*.*.*.*.*.&.9.9.i.u.u.9.9.9.u.O.O.D.D.O.9.g.x.P.O...p...o.$.*.*.*."
};
