/* XPM */
static char *result[] = {
/* columns rows colors chars-per-pixel */
"64 64 228 2 ",
"   c #000515",
".  c #000024",
"X  c #000A2B",
"o  c #08162B",
"O  c #151C2E",
"+  c #191E2F",
"@  c #10152E",
"#  c #191E31",
"$  c #1C232F",
"%  c #1D2232",
"&  c #1E2930",
"*  c #232A2F",
"=  c #21262F",
"-  c #222434",
";  c #2B2C32",
":  c #25253C",
">  c #262C34",
",  c #2B3331",
"<  c #2B3732",
"1  c #343135",
"2  c #323E31",
"3  c #3C3938",
"4  c #322D36",
"5  c #433A3C",
"6  c #3C4A34",
"7  c #324638",
"8  c #394736",
"9  c #394F39",
"0  c #474A36",
"q  c #445335",
"w  c #495938",
"e  c #565639",
"r  c #514936",
"t  c #516237",
"y  c #536439",
"u  c #596A3A",
"i  c #5F723B",
"p  c #4E653E",
"a  c #64643D",
"s  c #6B6A3E",
"d  c #61743B",
"f  c #687A3E",
"g  c #2F2745",
"h  c #2D2C44",
"j  c #36334D",
"k  c #3B3553",
"l  c #3E3956",
"z  c #322B48",
"x  c #433C5B",
"c  c #42315C",
"v  c #4A3F40",
"b  c #4E3E68",
"n  c #3F5340",
"m  c #4F4341",
"M  c #544941",
"N  c #594C44",
"B  c #435C41",
"V  c #5B5748",
"C  c #66574A",
"Z  c #6E5E54",
"A  c #4B6946",
"S  c #4A6543",
"D  c #566B48",
"F  c #58794B",
"G  c #567859",
"H  c #657842",
"J  c #787642",
"K  c #786555",
"L  c #6C6A50",
"P  c #4D4166",
"I  c #54436D",
"U  c #5A4473",
"Y  c #63477C",
"T  c #6E506A",
"R  c #8A7659",
"E  c #865B7D",
"W  c #967A6A",
"Q  c #997D6B",
"!  c #8B7263",
"~  c #6E843F",
"^  c #5D8251",
"/  c #5C805A",
"(  c #698749",
")  c #748C42",
"_  c #768743",
"`  c #76954E",
"'  c #7D994B",
"]  c #7B9546",
"[  c #658C55",
"{  c #678A56",
"}  c #6B9154",
"|  c #6C9559",
" . c #729453",
".. c #729D5D",
"X. c #7A9955",
"o. c #738F55",
"O. c #7CA259",
"+. c #6C966D",
"@. c #789D6C",
"#. c #6B9572",
"$. c #799871",
"%. c #6C8663",
"&. c #76A464",
"*. c #79A763",
"=. c #7BA962",
"-. c #7DA169",
";. c #74A269",
":. c #878547",
">. c #928E4A",
",. c #829C46",
"<. c #829C4C",
"1. c #899A49",
"2. c #95924C",
"3. c #939D4B",
"4. c #9B9D4E",
"5. c #99954D",
"6. c #899556",
"7. c #979853",
"8. c #A09D4F",
"9. c #A19E50",
"0. c #8AA549",
"q. c #8EAA4B",
"w. c #87A147",
"e. c #92AD4B",
"r. c #9AA84D",
"t. c #95B34C",
"y. c #9AB64E",
"u. c #9BB94E",
"i. c #84AD5D",
"p. c #8AAE5C",
"a. c #87A754",
"s. c #96A75A",
"d. c #8FB257",
"f. c #8CB159",
"g. c #94B554",
"h. c #99B653",
"j. c #9AB850",
"k. c #94B259",
"l. c #9CB25B",
"z. c #A4A351",
"x. c #A8AA55",
"c. c #B2AE56",
"v. c #B0AD59",
"b. c #A3B554",
"n. c #A3B951",
"m. c #ABB954",
"M. c #A4B35D",
"N. c #ACB55C",
"B. c #ACB556",
"V. c #B3B157",
"C. c #B2BA56",
"Z. c #B5B65C",
"A. c #B9B65D",
"S. c #B6BA58",
"D. c #BDBA5B",
"F. c #A1B44F",
"G. c #9A846A",
"H. c #889D6C",
"J. c #809B70",
"K. c #AB926C",
"L. c #B79C74",
"P. c #A88C6F",
"I. c #82A566",
"U. c #83AA61",
"Y. c #8BAB61",
"T. c #8DA26C",
"R. c #86A36A",
"E. c #93AD61",
"W. c #9AAF61",
"Q. c #9AA769",
"!. c #97A569",
"~. c #9BB060",
"^. c #A4AC66",
"/. c #A9AE64",
"(. c #A0A968",
"). c #ACB062",
"_. c #B2B361",
"`. c #B9B56D",
"'. c #B8A178",
"]. c #C0BB5B",
"[. c #C7A97B",
"{. c #CDB575",
"}. c #6C4D8A",
"|. c #674B84",
" X c #765395",
".X c #7A5596",
"XX c #7A5598",
"oX c #74518F",
"OX c #855C95",
"+X c #875E86",
"@X c #8D6398",
"#X c #926398",
"$X c #9B6998",
"%X c #946789",
"&X c #A36E99",
"*X c #A8719A",
"=X c #A7719A",
"-X c #A6878E",
";X c #B09490",
":X c #B2B2B4",
">X c #CAAE81",
",X c #CFB584",
"<X c #D4B583",
"1X c #D9BC8A",
"2X c #CBB396",
"3X c #C1AEA5",
"4X c #DCC897",
"5X c #DACA96",
"6X c #E3CD98",
"7X c #E5D49D",
"8X c #DFD7A1",
"9X c #DAC7AA",
"0X c #EADCA5",
"qX c #E8D9A5",
"wX c #EADBB7",
"eX c #EEE1AB",
"rX c #EEE6AC",
"tX c #F0E4AC",
"yX c #F2E6BC",
"uX c #CDCDCE",
"iX c #E9D9C5",
"pX c #F3EBC6",
"aX c #F2EBD6",
"sX c #FAF6E7",
"dX c #FFFFFE",
"fX c #FDFBF6",
"gX c #EDE9E4",
"hX c None",
/* pixels */
"hXhXO O hXhXhXhXhX7 B O hXhXhXO O hXhXhXa r $ t O O hXhXhXO + hXhX0 a 7 7 r a O @ hXJ s hXO O hX$ t hXhXhX0 J = hXhXhXO O hXhXhX",
"hXhX) u.t t 6 $ t ^ &.B >.J r c.>.8 { A D.4.) y.e 5.u ] q ..^ O * c.D.X.X.v.D.B ..2.S.D.0 a D.4.d u.t F 7 8.].a O O $ ] e.q hXhX",
"hXO d u.q.u.u.i u.x.l.4.D.2.x.D.:.S O.s.D.V.y.q.r.m.s.y.u.h.H c.z.2.].Z.A.].2.7.D.S.m.j.n.1.c.m.1.u.e.Y.c.9.v.4.D.>.F y.u.d hXhX",
"% F F [ d.u.u.0.n.u.C.S.D.m.D.C.C.B.r.].].].m.m.n.u.g.y.u.u.m.m.D.D.m.S.S.m.D.m.].].].C.n.m.y.u.u.j.j.m.u.C.D.S.x.s ..d.f i $ hX",
"> &.O.u.u.j.u.u.u.u.u.u.n.u.n.u.u.u.n.C.B.C.D.H : |.Y O a q.F.u.u.n.u.n.u.u.u.u.C.C.m.S.S.C.n.M.b.j.j.u.u.u.j.n.t.g.O.f.u.u.i hX",
"hXS p p.f.=.=.=.h.C.D.m.n.g.g.f.u.u.u.u.u.q.O O :  X+XE E o u z.S.n.g.g.p.u.u.u.u.u.j.u.j.f.=.=.=.=.=.m.S.D.m.g.j.=.=.u.] f & hX",
"hX) q.q.j.f.i.f.p.l.S.b.k.p.d.d.d.j.O.f.a.@ z U .X#X=X*X@X&X%Xb w l.d.p.g.f.u.p.=.g.f.h.f.i.h.h.i.d.f.i.m.C.M.d.i.g.i.h.u.t hXhX",
"hXf ,.q.u.w.u.b.Y.I.p.I.i.i.f.*.i.p.p.X.O % |. X#X*X*X#X@X*X&X*X%X9 =.f.i.O.d.*.d.i.p.d.j.d.f.g.k.j.l.I.f.I.U.U.d.i.*.&.p.^ hXhX",
"hXr _ J J 2.x.D.D.H.T._.Q.E.p.p.f.=.f.u o XX X XOX*X*X*X*X.X&X*X&XoXq i.p.d.O.i.d.g.u.d.Y.Q.Q.!.!.S.]._.$.^.^.l.i.p.d.=.=.q.>.- ",
"a ].x.M.M.D.N.E.Y.).M.n.C.S.C.u.g.p.~.O l U  X XY %XE *X*X*XOX$X*X*Xo z.u.u.p.E.).M.N.).S.A.~.S.Z.).Y.l.M.m.m.C.S.m.j.d.E.S.V.; ",
"= s q.u.d.p.i.=.=.=.=.f.d.f.f.u.u.u.u.O P Y  X$ O O O + E *X*XU +X=X.Xp g.u.u.u.u.u.n.n.u.u.g.d.p.=.*.*.&.U.f.d.p.d.u.u.d.{ * hX",
"hX0 1.j.d.p.i.d.g.=.=.f.k.M.S.j.u.u.u.O U  X Xx x x : O O E =X*X: &X$XO b.u.u.u.u.C.S.S.m.n.g.g.i.i.g.f.*.i.k.k.S.N.u.u.u.u.] hX",
"t F.B.h.u.u.u.u.u.j.j.N.Z.).l.S.m.m.h.> h P  X}.x x x - O # Y *XU T oX+ V.C.m.n.j.u.u.u.m.n.u.u.u.u.u.u.u.h.Z.N.M.Z.C.m.n.u.y., ",
"q y i.i.k.j.u.u.u.g.p.d.g.i.=.=.=.=.=.^ O l b x x x x # 2 O k |.b  X|.j *.=.=.=.=.=.i.p.g.j.j.j.u.u.u.u.k.U.k.d.=.I.=.*.=. .H O ",
"hXq.j.u.j.g.-.Y.g.=.i.u.n.m.p.g.h.f.p.f.( O % : : % O  .=.y @ XX: b k w f.j.p.p.f.d.j.j.j.j.u.j.Y.I.f.f.=.f.u.m.`.<Xy.k.d.( $ hX",
"* ' ) ' I.$.D.Q.J._._.)._.D.S.j.u.n.m.S.].e.) % % 2 %._.).> @ |.k XXO v.h.j.n.m.C.D.m.u.U.I.f.-.Q._.T.H.D.).m.{.1X<Xu.u.m.b.0 hX",
"hXq 4.9.Z.Q.D.D.D.D.S.].].D.D.S.n.m.m.m.n.-.@._.T.(.V O Z @ z k O c O O s F.m.m.m.m.U.R.Q.^.T._./.].D.D.D.S.{.<XfXr m.n.n.r.c.a ",
", y.u.D.C.N.N.=.k.m.j.h.E.=.S.S.m.u.n.S.).Z.A.C.V.% K.[.G.X k       aXgXuX* u.u.m._./.D.C.S.D.m.N.~.=.m.n._ {.fXsX. C.m.n.m.:.O ",
"hXf u.m.f.=.=.&.i.d.f.&.f.=.f.j.u.n.C.u.C.m.j.t.@ @ g :XiXdXdXdXdXdXiX9X  X 2 S.n.m.C.n.j.n.m.i.=.=.=.p.`.X fXdXpX. h.u.n.B.0.w ",
"@ ] d.i.=.g.f.f.i.&.i.i.g.j.j.u.u.u.f.j.u.u.j.H @ W K L.qXeXeX7X4X6XeXtX0X[.1 a.g.j.u.j.g.f.=.i.g.U.f.U.[.qXdXgXrX. u.u.] F u.y ",
"~ j.m.m.m.m.n.u.h.g.h.u.u.h.j.O.i.O.*.f.u.u.n.* 4 W W <XeXeXpXaXsXdXdXfXiX4XR F i.h.u.u.C.C.n.m.m.j.h.' <XpXdX{.eX. =.f.*.2 9 O ",
"~ t.m.D._.E.i.O.=.=.*.p.=.f.=.*.=.*.*.*.=.d.0.O C Q <X<XqXeXeXeX0XpXsXuXaXeX4X3 *.=.p.b.S.D.D.N.i.p.=.< gXpX9XqX,X7 &.&.....g.) ",
"hXe N.C.u.u.d.i.=.=.=.;.;.#.#.H.U.Y.$.@.u.m.z.O W W <X<X6X7XeXeXeXtXfX$ '.qXeXV G d.n.S.D.].m.j.j.f.} 7 sXqX<X7X. G =.0.F ( u.) ",
"; S.].C.m.u.u.d.p.&.&.#.< $ %.Z._._.D.Q.Z.n.$ - C Q <X<X<X6XeXeXtXaXdX- M 1XsXZ & ).m.u.m.S.m.n.j.j.< 8XrX1X<XR 8 H.D.8.A.a i < ",
"$ z.B.m.u.n.u.u.n.m.D.x.O [.- 8.D.D.D.D.D.D.O v W Q 1X<X<X<X1X1XeXfXdX% @ {.0X9XC D.D.m.u.n.m.n.y.a.M rX1X<X<XO 7.].S.].D.:.:.8 ",
"2 ~ d r.m.m.u.u.u.u.j.e.+ M [.K 7 b.m.D.D.4.O 0 W >X<X<X<X<X<X6XtXpXdX% O C 1X0Xo z.D.S.D.D.m.n.n.> 8X8X[.<XR > j.C.u.n.u.b.].s ",
"u t.t.k.=.=.d.f.h.b.C.q.# # N <XK 2 ] u.u.,.O v W P.<X<X[.[.[.6X0XpXuX# O - M V O w.u.u.u.h.p.=.| D rXV [.<X; ,.j.g.h.u.u.q.4.1 ",
"+ 2 0.g.f.i.=.=.f.N.D.x.g }.z N {.K = q u.' O O 5 W [.<X[.R - @ @ @ O # O O O 4 & 6 j.u.k.O.p.f.@ 8XqXr <XR & Y.p.f.i.h.u.X.< hX",
"O p w.p.g.g.g.h.k.k.y.a.g  X X}.K Q W C # w O O W W >X<X<XqX7X9XX % % $ O O L.aXK $ =.d.] w u.w.N rXG.L.<X3 ' f.h.g.f.d.p.O.9 hX",
"S &.#.#.f.@.l.D./.#.@.H.g  X X X+X;X<X<X[.L.X o # W L.P.>X<X1XqXrXpXfX:X# 5 <XeXeXX j.] T %Xo 9 '.<XC <XR @ R.=.=.=.=.=.*.w.w.2 ",
"> F A z._.D.D.Z.N._./.x.g  X X X X<XK.. L G.qXrX3 4 Q Q <X<X<X1XtXeXaXgX+ K.gXaXeXX j.o T #XY C <X; K <X3 x.D.D.N.j.h.g.&.p.q.w ",
"& w.] f.Y.~.I.U.&.U.k.q.g  X X#XXX<X<X<X[.R . ,X4 4 Q Q <X<X<X<XqXeXyXgX@ <X0XeXK.@ f E .X  c K.[.4 W Q % d.h.j.b.n.j.g.n.m.z.> ",
"* t.u.u.u.f.i.i.p.&.*.&.z  X X#X&XrXqX<X<X1X. qX4 O O K {.{.<X<X6X0XeXqX:XqXeXeXV q.5.T *X}.X P.o Z W ; F *.i.i.k.k.u.u.u.q.y.* ",
"7 ] u.u.u.h.t.y.u.f.g.r.g  X X X=X9X7X4X<X<XX ,X1 # # O o W K.<X6XeXeXsXsXtX7XL.@ _ m.q }.XXoXc @ K Z g o ~ C.C.D.A.n.j.t.9 w + ",
"q u.y.f.f.j.f.u.u.j.f.X.M -XXX X#X2X7XtX<X<X! >X1 # l z O # O X >XtXrXsXsXtXL.: O O h.f @ c }.b l : O k |.c X.p.=.Y./.l.a.*.g.u ",
"hX6 ' h.d.d.k.y.u.g.g.q.m <X<X;X%X;X<X<X<X<X! <X1 # l l l g O O @ @ '.4X0X2X# x % $ O.O K ! 3 : l x k O O + w.h.g.=.f.=.*.( ~ 7 ",
"hXw t.u.t.@.Q.$.-.T.T.a.M <X<XeXrX2X>X<X<X<XW <X4 % b b P P x h - O O - , O x P x O f o Q L.<Xm O - l x - o.n.D.S.k.u.y.u.h.= O ",
"$ J f q J 2.D.D.).D.D.v.$ [.<X1XeX;XOX-X,X<XN <X1 % x }.P |. XP x x % O # x  XP : 2 s o Q <X<X<X! O O # ; ].D.D.].S.n.u.m.z.z.e ",
"s D.].c.D.D.S.M.Z.D.n.m.1 [.<X1X7X3X=XOX$X-XO ,X1 % x x oX|. X X Xb x x x P oXl + r.D O K L.,X<X'.- s.V.B.n.D.M.M.].D.m.y.u.b.e ",
"e F.n.D.h.U.U.&.p.u.g.i.| 5 <X<X<X-X$X@XXX X@ P.1 O l x x oX X X X X|.x P  X}.O , D.R + + z 0 N + 9 *.g.j.p.=.*.U.n.n.u.n.3.f + ",
"+ f f.f.O.p.=.=.=.=.=.=.u.7 C {.<X<X X X X.XO W = + + x x b |. X X X X X X}.O O q.u.d j x O $ $ O.=.=.=.=.*.i.h.d.d.u.u.n.j.j.> ",
"~ u.y.y.k.j.j.j.u.f.g.g.y.u.8 L <X<X&X X X|.! 0 O O + : l x x b I I I I k O + { p.u.i O : O g.g.u.g.u.g.d.h.g.j.u.y.f.j.i.O.~ hX",
",.u.u.C.D.).g.d.f.=.p.h.f.u.f.7 Z <X-X X|.m m 0 A.5.O O O O O O @ O O O O O $ ..=.i.d.1.4.c.S.D.l.h.d.p.U.g.g.g.h.U.*.&.i.a.O.F ",
"6 e q C.j.d.f.i.&.=.=.*.&.+.+.i.8 K -X}.m @ 0 D.].n.` O O O [ ^ ^ ^ G G O O O +.&.p.h.n.S.].S.k.d.p.=.=.=.&.&.;.+.;.[ ^ O.a.u.] ",
"9 ..S r.j.j.d.i.*.*.*.#.$.Q.#.T.H.0 k o ! r C.D.S.u.u.] + O | *.;.#.D + O O + x.J.E.C.C.S.D.n.u.j.f.O.=.&.&.#.T.H.$.2.>.d J H 8 ",
"S *.O.O.i.g.j.j.g.l.W.!.].D./.D.].D.e O w m.u.n.S.S.n.u.8 + D s.H.v.0 e + 4 :.D.].D.n.n.u.C.S.m.u.u.j.g.M.Y./.].D._.].D.D.D.e hX",
"O D C.n.u.u.u.u.n.n.m.S.D.n.D.m.N.C.C.s ].].m.C.r.r.,.,.,.< + e 3.z.3.3.4.3.4.F.D.D.D.C.m.C.u.j.u.u.u.n.u.C.S.C.m.S.m.C.m.n.V.; ",
"w t.m.n.l.l.j.j.u.u.u.u.n.u.n.u.u.u.n.C.m.m.C.0.3.<.<.,.,.d 6 ~ ,.1.,.,.,.,.,.,.3.z.m.C.C.m.b.k.l.u.u.u.u.u.n.n.u.F.u.u.u.y.:.= ",
"6 y O.O.=.*.=.&.l.S.].C.b.g.d.p.j.j.u.u.u.u.,.' } [ } } { o.3.8.3.3.` '  .,.,.,.,.,.t.u.j.p.*.*.=.=.=.m.S.D.m.h.g.i.d.u.u.g.i $ ",
"hX$ O.j.u.f.f.g.f.k.m.b.k.f.g.d.g.g.=.i.f.d.'  .` w.,.} <.X.` 3.1.<.' ` ' ` ,. .} ` O.h.f.f.u.u.i.d.d.f.b.C.l.d.f.j.d.g.d.d.y.< ",
"hXe a f q.Y.j.n.R.-.p.R.i.i.i.=.i.i.p.d.p.d.d.,.o.o. .' 3.o.{  .%. .} } } }  .} ' ` f.g.j.f.Y.k.Y.n./.;.Y.-.=.=.i.=.=.f.=.f.p $ ",
"> V.D.B.z.).A.D.D.!.T._.W.E.f.f.d.=.f.d.g.u.p.Y.7.6.6.6.9.7.7.%.7.6.7.} ` ' }  .p.g.u.p.Y.^.^.Q.W.D.D.S.@.).).).Y.d.g.i.=.f.[ A ",
"; r.u.l.^.Z.M.E.=.^.m.j.S.S.C.j.h.Y.M.N.N.N.C.S.^.W.N.M.6.} 6.a.1.r.3.4.y.y.i.l.N.N.N.M.S.N.k.N._./.=.E.M.n.n.C.S.n.u.d.f.} A hX",
"hX6 e.u.g.f.i.&.=.=.=.i.f.i.p.j.u.u.u.u.j.m.j.j.j.g.f.p.*.*.=.=.=.f.p.i.g.u.y.u.u.u.n.n.u.u.h.g.f.=.=.=.=.=.i.d.f.f.u.u.u.t.* $ ",
"* 5.r.y.d.f.p.g.j.=.i.d.l.m.S.j.u.u.u.m.S.S.S.C.u.g.d.p.f.u.i.O.f.b.h.].B.u.u.u.n.C.D.S.S.n.g.d.p.f.g.d.=.p.g.g._.S.j.u.h.w.t.t ",
"* r.n.u.u.u.u.u.u.u.j.M.M.^.~.D.C.m.g.j.j.u.n.n.n.u.u.u.u.u.u.u.l.M.).E.C.S.m.j.g.u.u.u.n.n.u.u.u.u.u.u.u.g.).).~.).S.m.n.w.f hX",
"hX@ ( *.p.h.u.h.u.g.f.d.j.f.=.=.O.=.=.=.=.=.d.g.u.u.u.u.u.u.h.d.f.g.f.=.=.*.=.&.*.&.i.i.g.j.u.u.u.j.u.u.k.f.g.g.i.=.=.=.=.O.w hX",
"hXe c.D.k.Y.-.I.g.-.I.j.n.C.p.g.u.g.f.d.j.u.u.u.u.j.h.R.-.k.=.-.g.n.S.h.d.h.d.d.d.g.u.u.u.j.u.u.Y.-.p.Y.;.p.j.C.n.i.u.U.d.u.,.hX",
"> c.D.].D.W.].^.R._.].N.].].S.g.u.m.C.D.D.n.l.-.I.-.#._._.H.).D./.D.D.].j.u.m.m.S.D.C.u.=.-.I.@.(._.Q.T.]._.C.D.D.C.g.=...( 6 hX",
"; c.:.n.n.m.S.S._.].S.D.]._.D.D.n.m.n.n.j.@.-._.Q.)._._.].D.D.S.S.D.N.D.D.m.n.m.m.n.I.H.(./.Q.A./.].D.D.D.C.D.A.D.D.Y.+.&.&.B hX",
"hX@ q w.g.u.u.g.n.m.u.k.p.=.C.C.m.u.n.S._.A.S.n.S.S.M.N.Y.U.m.u.g.~.=.b.C.m.n.m.C.A.Z.].m.S.S.m.M.E.=.M.n.u.k.U.E.l.&.;.#./ 7 hX",
"hX* e.u.O.j.( *.O.' O.*.f.i.i.t.u.t.8.u.C.m.u.u.y.<.*.&.&.=. .f.*.} f.=.g.j.m.V.q.n.m.u.a.} H ( =...} i.a.=.=.d.D g.g.0.d.d hXhX",
"hXhX' u.y i & A A &.[ i q.~ h.i e.u.d ~ u.u.,.u.d q.t.O.O.f.O.7 9 ] u.~ y.~ C.J u.t.u.u.[ O.9  .u.D ^ ..A f.) ) 6 t t ,.u.) hXhX",
"hXhXO O hXhXhXhX9 ^ A O O & ) q w d $ $ ' e.w y * ) i A A ) i O hXq t hX@ $ O $ ~ q q.' % O O 6 t hXhXO $ ) i $ hXhXhXw d & hXhX"
};
