/* XPM */
static char *result[] = {
/* columns rows colors chars-per-pixel */
"64 64 231 2 ",
"   c #000012",
".  c #000024",
"X  c #000A2A",
"o  c #02132B",
"O  c #09182D",
"+  c #151C2E",
"@  c #1A1D2F",
"#  c #10152E",
"$  c #1C1E30",
"%  c #231A30",
"&  c #1C232F",
"*  c #1E2331",
"=  c #1E2930",
"-  c #232A2F",
";  c #21262F",
":  c #242332",
">  c #2D2337",
",  c #2B2C32",
"<  c #262C34",
"1  c #362639",
"2  c #2B3331",
"3  c #2B3732",
"4  c #343135",
"5  c #323E31",
"6  c #3C3938",
"7  c #472834",
"8  c #433A3C",
"9  c #66323C",
"0  c #3C4A34",
"q  c #324638",
"w  c #394736",
"e  c #394F3A",
"r  c #474A36",
"t  c #445335",
"y  c #495939",
"u  c #565639",
"i  c #514936",
"p  c #516237",
"a  c #536339",
"s  c #596B3B",
"d  c #5F723B",
"f  c #4E653E",
"g  c #64643D",
"h  c #6B6A3E",
"j  c #61743B",
"k  c #687A3E",
"l  c #3F2940",
"z  c #56334B",
"x  c #5A3651",
"c  c #493544",
"v  c #613956",
"b  c #663B59",
"n  c #693D5B",
"m  c #673557",
"M  c #733D52",
"N  c #3F5340",
"B  c #4D4342",
"V  c #544941",
"C  c #594C44",
"Z  c #435C41",
"A  c #5B5748",
"S  c #66574A",
"D  c #7B425A",
"F  c #74405A",
"G  c #715B52",
"H  c #4B6946",
"J  c #4A6543",
"K  c #566B48",
"L  c #58794B",
"P  c #567859",
"I  c #657842",
"U  c #787642",
"Y  c #786555",
"T  c #6C6A50",
"R  c #884648",
"E  c #9A494B",
"W  c #864559",
"Q  c #9C4C58",
"!  c #8E5752",
"~  c #A54D4F",
"^  c #A54E54",
"/  c #AB5356",
"(  c #B65555",
")  c #B75957",
"_  c #9D695B",
"`  c #8A7659",
"'  c #B6645C",
"]  c #A56C5E",
"[  c #967A6A",
"{  c #997D6B",
"}  c #8B7263",
"|  c #BD6D61",
" . c #BB7666",
".. c #A97161",
"X. c #C27A68",
"o. c #6E843F",
"O. c #5D8251",
"+. c #5C805A",
"@. c #698749",
"#. c #748C42",
"$. c #768743",
"%. c #76954E",
"&. c #7D994B",
"*. c #7B9546",
"=. c #658C55",
"-. c #678A56",
";. c #6B9154",
":. c #6C9559",
">. c #729453",
",. c #729D5D",
"<. c #7A9955",
"1. c #738F55",
"2. c #7CA259",
"3. c #6C966D",
"4. c #7C9D6D",
"5. c #749C6B",
"6. c #6B9572",
"7. c #799871",
"8. c #6C8663",
"9. c #76A464",
"0. c #79A763",
"q. c #7BA962",
"w. c #7DA169",
"e. c #74A269",
"r. c #878547",
"t. c #928E4A",
"y. c #829C46",
"u. c #829C4C",
"i. c #899A49",
"p. c #95924C",
"a. c #939D4B",
"s. c #9B9D4E",
"d. c #99954D",
"f. c #899556",
"g. c #979853",
"h. c #A09D4F",
"j. c #A19E50",
"k. c #8AA549",
"l. c #8EAA4B",
"z. c #87A147",
"x. c #92AD4B",
"c. c #9AA84D",
"v. c #95B34C",
"b. c #9AB64E",
"n. c #9BB94E",
"m. c #84AD5D",
"M. c #8AAE5C",
"N. c #87A754",
"B. c #96A75A",
"V. c #8FB257",
"C. c #8CB159",
"Z. c #94B554",
"A. c #99B653",
"S. c #9AB850",
"D. c #94B259",
"F. c #9CB25B",
"G. c #A4A351",
"H. c #A8AA55",
"J. c #B2AE56",
"K. c #B0AD59",
"L. c #A3B554",
"P. c #A3B951",
"I. c #ABB954",
"U. c #A4B35D",
"Y. c #ACB55C",
"T. c #ACB556",
"R. c #B3B157",
"E. c #B2BA56",
"W. c #B5B65C",
"Q. c #B9B65D",
"!. c #B6BA58",
"~. c #BDBA5B",
"^. c #A1B44F",
"/. c #9A846A",
"(. c #889D6C",
"). c #809B70",
"_. c #AB926C",
"`. c #B89B74",
"'. c #A88C6F",
"]. c #82A566",
"[. c #83AA61",
"{. c #8BAB61",
"}. c #8DA26C",
"|. c #86A36A",
" X c #93AD61",
".X c #9AAF61",
"XX c #9AA769",
"oX c #97A569",
"OX c #9BB060",
"+X c #A4AC66",
"@X c #A9AE64",
"#X c #A0A968",
"$X c #ACB062",
"%X c #B2B361",
"&X c #B9B56D",
"*X c #B8A178",
"=X c #C0BB5B",
"-X c #C5836D",
";X c #C58A6D",
":X c #CB9B79",
">X c #C8A97B",
",X c #CDB575",
"<X c #B2B2B4",
"1X c #CAAE81",
"2X c #CFB584",
"3X c #D5B483",
"4X c #D9BC8A",
"5X c #D1B78E",
"6X c #C0BDBB",
"7X c #DCC897",
"8X c #DACA96",
"9X c #E2CD98",
"0X c #E5D49D",
"qX c #DFD7A1",
"wX c #DBC6AC",
"eX c #EADCA5",
"rX c #E8D9A5",
"tX c #EADBB7",
"yX c #EEE1AB",
"uX c #EEE6AC",
"iX c #F0E4AC",
"pX c #F2E6BC",
"aX c #CDCDCE",
"sX c #E9D9C5",
"dX c #F3EBC6",
"fX c #F2EBD6",
"gX c #FAF6E7",
"hX c #FFFFFE",
"jX c #FDFBF6",
"kX c #EDE9E4",
"lX c None",
/* pixels */
"lXlX+ + lXlXlXlXlXq Z + lXlXlX+ + lXlXlXg i & p + + lXlXlX+ + lXlXr g q q i g + + lXU h lX+ + lX& p lXlXlXi U ; lXlXlX+ + lXlXlX",
"lXlX#.n.p p 0 & p O.9.Z t.U i J.p.q =.H ~.s.#.n.u d.s *.t ,.O.+ - J.~.<.<.K.~.Z ,.p.!.~.r g ~.s.j n.a L q s.~.g # + * *.x.t lXlX",
"lX+ j n.l.b.n.d n.H.F.s.~.p.H.~.r.u m.B.~.R.b.k.c.I.B.b.n.b.$.R.G.p.=XW.Q.=Xp.g.~.R.I.S.P.i.J.I.z.n.l.{.J.j.H.j.=Xt.K n.n.j lXlX",
"* L L =.V.n.n.l.P.n.E.!.~.I.~.E.E.H.c.~.=X=XI.I.P.n.Z.v.n.n.P.I.~.~.I.!.!.I.~.I.=X=X=X!.P.I.b.n.S.n.S.I.P.E.~.!.L.h ,.Z.k d & lX",
"< 9.2.n.n.S.S.n.n.n.n.S.P.n.P.n.n.n.S.E.I.I.!.h 7 E E + s k.n.n.n.P.S.P.n.n.n.n.E.E.I.E.E.E.I.U.L.S.n.n.n.n.P.S.v.Z.q.V.n.n.d lX",
"lXJ f M.C.q.q.q.A.E.=XI.P.Z.Z.C.n.n.n.n.n.k.& + 1 ( ] ] _ o u G.!.P.V.A.M.S.n.n.n.n.n.n.S.C.0.0.0.[.q.I.!.!.I.A.b.q.q.b.*.k = lX",
"lX#.v.l.n.C.m.C.m.F.!.L.V.M.V.V.V.S.2.M.N.# 7 E ( ' ;XX.' X...R y F.C.C.Z.C.n.M.q.Z.C.A.C.m.A.S.[.V.C.m.I.W.U.V.m.Z.m.A.n.p lXlX",
"lXj y.k.n.z.S.L.}.[.M.].m.M.M.q.M.C.m.2.+ > Q ( | -X-XX.X.-X-X-X .e q.C.m.2.V.q.C.m.M.V.S.Z.M.Z.Z.S.F.|.M.[.[.q.V.m.q.9.M.O.lXlX",
"lXr U $.U p.H.~.~.}.}.%X X XC.M.C.0.C.s o ) ( ( ) -X-X-X-X)  .-X'.( i m.C.V.2.m.Z.Z.n.V.{.XXXXoXoXQ.~.%X7.+X+XOXq.C.C.m.q.k.t.: ",
"g ~.H.@XU.Q.Y.F.[.Y.U.P.!.!.E.S.A.M.OX+ x W ( ) E ] ..-X-X;X'  .-X-Xo G.P.n.M. X@XU.I.@X!.W.OX!.W.Y.{..XU.I.I.!.!.I.n.C. X!.J., ",
", h l.n.V.M.q.q.0.0.0.M.Z.C.M.n.n.n.n.+ F Q ( $ + + @ @ _ -X-XR | X.) y Z.n.n.n.S.S.S.P.n.n.Z.V.m.q.q.q.q.q.C.V.C.C.S.n.C.;.: lX",
"lXr i.v.Z.M.M.V.A.0.[.C.D.U.!.S.n.n.n.# W ) ( b n n 1 + @ _ -X-X7 '. .& L.n.n.n.n.E.~.!.E.S.Z.Z.m.M.Z.V.q.m.D.D.!.E.n.n.n.n.*.lX",
"p ^.L.S.S.n.n.n.n.S.S.Y.$XU.@XE.I.I.S.2 c F ( Q n n n > + @ E -XR R ( @ E.I.I.S.S.S.S.n.I.I.n.n.n.n.n.n.n.A.Y.$X@XY.E.I.P.n.b.2 ",
"t a m.[.Z.n.n.n.n.Z.M.V.A.m.q.q.q.q.9.O.+ n F F n n v * q + z Q R ( Q z 0.q.q.q.q.q.m.C.V.S.n.n.n.n.n.n.Z.m.Z.V.q.[.q.q.q.>.j + ",
"lXl.b.n.S.D.|.[.S.q.m.S.P.I.m.S.Z.C.m.C.@.+ > > > > + 1.w.a o ( : M x y V.S.M.M.C.V.S.S.n.n.n.n.{.].C.C.w.V.b.I.&X3Xn.D.V.@.* lX",
"& y.#.u.].).%XXX4.%X%X$X%X~.E.S.n.P.E.!.~.c.#.& * q 8.%X@X< O ^ x ) O J.Z.S.P.E.E.!.E.S.[.[.M.4.XX%X}.(.~.$XI.,X4X3Xn.n.I.L.r lX",
"lXy c.j.%XXX~.=X~.=X!.~.=XQ.~.!.P.I.I.I.P.w.4.%X}.XXA + G # c z O M + # g P.I.I.I.I.[.|.XX#X}.%X+X~.~.~.~.R.,X3XjXi I.P.P.c.H.g ",
"2 b.S.~.!.Y.Y.q.D.I.S.A..Xq.E.E.I.n.P.!.$XW.Q.I.%X* _.>X{ % m .     kXkXaX- b.^.I.%X@X~.E.!.~.I.W.OXq.I.L.$.,XjXgX. !.I.P.I.r.@ ",
"lXk n.I.V.9.9.q.m.C.M.q.C.q.C.S.n.P.E.S.!.I.S.v.$ O < <XsXhXhXhXjXhXsXwX  X 5 E.P.I.E.S.S.P.I.m.q.q.0.M.&XX jXhXdX. n.n.P.T.k.y ",
"# #.Z.m.0.Z.V.C.M.q.q.m.A.S.S.n.n.S.C.S.n.n.n.I # [ Y `.rXyXeX0X9X9XyXiXeX,X4 N.Z.S.n.S.S.C.m.q.A.m.C.[.1XqXhXgXuX. n.n.*.L b.s ",
"o.b.I.I.I.I.n.n.S.Z.S.n.n.b.b.m.M.q.9.C.S.n.n.- > [ { 3XeXyXdXfXgXjXhXjXsX7X` L m.S.n.S.E.I.I.I.P.S.S.&.2XdXhX,XeX. q.C.0.5 e + ",
"o.x.I.~.%X XM.[.q.0.q.M.q.M.q.0.9.q.q.q.[.C.c.+ S [ 3X3XrXyXyXyXyXdXgXaXfXyX9X6 9.q.M.I.!.=X~.Y.m.m.q.3 kXdXwX0X5Xq q.q.,.,.Z.#.",
"lXu R.E.S.n.C.m.0.0.q.e.5.6.6.w.[.[.4.5.n.I.G.# [ [ 3X3X9XrXyXyXuXiXjX* `.rXyXA P V.P.!.~.=XI.n.S.C.:.6 gX0X3X9X. P w.k.O.@.n.o.",
", !.=XI.I.n.n.V.m.0.9.6.2 & 8.W.%X%X=XXXY.P.& : S { 3X3X3X9XyXyXiXfXhX: V 7XgXS = $XI.S.I.!.I.P.S.S.3 qXuX8X3X` w |.~.j.R.g j 3 ",
"& j.T.I.n.P.n.n.I.I.!.H.+ >X: j.~.~.~.=X~.~.+ 8 { /.3X3X3X3X3X4XeXjXjX* + 2XrX7XS ~.!.E.n.P.I.n.n.z.A uX7X3X3X+ d.=X~.~.~.r.` 0 ",
"w o.j c.I.I.n.n.n.n.S.c.@ i >XY 5 P.I.~.~.s.+ B { 1X3X3X3X3X3X0XiXfXhX: + S 4XtXo H.~.!.!.~.I.I.I.= qXqX>X3X` 2 S.E.n.P.n.L.=Xk ",
"s v.v.Z.q.q.V.V.S.P.I.l.@ @ C 3XY w *.P.n.y.@ 8 [ '.3X3X3X1X3X7XeXdXaX+ + : V A + z.n.n.P.S.M.q.:.K uXA >X,X< *.S.A.S.n.n.l.s.2 ",
"+ 5 k.Z.C.[.0.q. XY.~.H.7 ( 7 C ,XY ; 0 n.y.+ + 6 { >X3X>XY * # # # + @ + + + , * 0 S.S.V.2.M.C.# qXeXc 3X` * C.m.C.m.Z.S.&.2 lX",
"@ Z z.M.Z.S.A.S.V.Z.S.N.7 ( ( ~ ! /.[ S + y + + [ [ 1X5X3XrX0X7XX & * # + + `.kXY & q.V.&.y S.z.C uX/.`.3X6 &.V.A.Z.C.V.m.9.e lX",
"J 9.6.6.M.7.F.~.+X6.5.(.7 ( ( ( ) `.3X3X>X`.o o % [ `.'.1X3X4XrXiXdXjX6X@ 8 3XyXyXX S.*.G ..O t *X3XS ,X` + |.w.q.q.q.q.q.z.z.5 ",
"3 L H G.%X~.~.%X$X%X$XH.7 ( ( ( ( 3X_.. T /.yXuX6 4 [ { 3X3X3X4XyXiXfXkX+ _.fXfXuXX S.o E X.E C 3X, } 1X6 G.~.~.Y.S.b.V.q.M.l.y ",
"= z.*.M.{.F.[.q.0.[.C.l.7 ( ( | ) 3X3X3X*X` . 3X4 1 { { 3X3X3X3X0XyXpXkXO 3XyXiX_.# k _ / X 9 _.>X4 [ [ & V.S.S.U.P.n.Z.I.I.G.- ",
"2 v.n.n.S.C.m.2.M.9.q.5.7 ( ( | X.uXrX3X3X3XX eX4 + @ Y >X3X3X3X9XiXiXrX6X9XyXyXA k.d.! -X~ X /.O G [ , L 0.q.2.OXD.n.n.n.l.v.2 ",
"3 *.b.n.n.S.A.S.n.V.Z.c.7 ( ( ( -X9X0X7X3X3XX 3X4 $ $ # o [ _.3X9XeXiXgXgXtX0X`.# $.E.t / ( ~ M + Y G 7 o $.E.E.=X!.P.n.n.e e + ",
"y v.v.V.C.S.V.S.n.n.V.<.V -X) ( | 3XrXiX3X3XY 3X4 : x c + + + X 1XuXyXgXgXuX`.1 + + Z.k + 9 ~ W b 1 + z Q 9 <.C.q. XOXOXN.2.A.s ",
"lXt 2.S.V.V.Z.v.n.V.Z.k.V 3X3X:X| :X3X3X3X3X} 3X4 $ b n n 1 + + # + *X7XrX5X: n > + N.# Y Y 8 1 x n x + + @ z.S.D.q.C.m.q.=.o.q ",
"lXy v.b.v.4.oX7.w.}.oXN.V 3X3XeXuX>X3X3X3X3X[ 3X4 > b D n D n z > + + & < @ b D n + I O { `.3XV + > v n > 1.S.~.!.D.b.n.n.S.; + ",
"& U k t U p.~.~.$X~.=XH.$ ,X3X4XeX:X' ;X3X3XC 3X1 : n ^ D ^ ( F n b > @ @ b / D 1 8 I O { 3X3X3X} $ + : > =X~.~.~.!.P.P.I.G.G.u ",
"h ~.=XJ.~.~.!.@XE.~.P.I.4 >X,X4XrX3X-XX.X.-X+ 1X4 > n n / Q ( ( ( n n b b D / b $ k.K + G `.3X3X*X* B.R.T.P.!.@XU.=X!.I.n.S.P.u ",
"u ^.^.=XZ.[.[.0.C.S.Z.m.:.8 3X3X3XX.X.) ) ( # '.4 + v n n / ( ( ( ( Q n D ( ^ @ 4 %Xr.$ # c r C @ e 9.Z.S.V.q.q.[.P.L.n.P.a.k @ ",
"& k Z.V.q.m.[.q.q.q.q.q.A.q S 3X3X3X( ( ( ( + [ - + $ n n D ^ ( ( ( ( ( ( Q + + l.n.j z b + & @ 2.q.0.0.q.q.m.S.V.V.n.n.S.n.n.2 ",
"$.n.n.v.V.S.Z.n.S.C.Z.Z.b.n.w T 3X3XX.( ( ~ } 8 + + + 1 v n n F W W W W 9 + + =.M.n.d # 1 @ Z.Z.b.Z.S.Z.C.S.V.b.n.n.V.A.M.9.k lX",
"y.n.n.E.~.Y.Z.Z.C.q.C.Z.C.S.C.q G 3X;X( E B V i ~.p.+ + # + + & # + # + + + = 2.q.m.V.i.s.H.~.~.F.A.V.C.m.V.Z.Z.S.m.9.9.m.N.,.L ",
"w y t R.F.Z.V.[.q.0.0.0.9.3.3.m.0 Y ;XE B O r ~.~.I.*.+ + + O.O.O.O.P P + + + 3.9.M.A.I.!.=XI.F.Z.C.q.0.0.0.w.9.6.e.=.O.2.V.b.y.",
"e :.f c.n.b.V.q.9.0.0.6.4.XX6.(.}.r 9 o } t E.~.!.n.n.#.@ + ,.9.e.6.K @ @ + + G.4.{.E.I.~.~.S.n.A.V.q.9.0.9.6.}.(.7.p.p.g U o.5 ",
"J 9.2.2.m.Z.n.n.A.F..XXX=X=X$X~.~.~.u @ u I.n.P.!.E.I.b.w @ K B.(.K.6 u @ 2 r.=X=X=XP.P.n.E.~.I.n.n.n.Z.F.{.@X=X=X$X~.~.=X~.u lX",
"& K E.P.n.n.n.n.P.n.I.!.~.P.~.I.I.E.E.h =X=XI.E.H.x.y.y.y.5 # u a.j.a.c.s.a.s.^.~.~.=X!.I.E.n.S.n.n.n.I.P.E.!.E.I.!.I.!.P.I.R., ",
"y v.L.I.F.F.S.n.n.n.n.n.P.b.P.n.n.n.P.E.I.I.I.a.i.u.u.y.y.d w $.y.y.y.i.y.y.y.y.a.^.I.E.E.I.A.F.A.n.n.n.n.n.n.P.n.P.n.n.n.b.r.& ",
"0 s ,.2.0.0.q.0.F.!.~.E.P.Z.C.M.n.n.n.n.n.n.z.&.;.;.;.=.-.>.a.j.c.a.%.&.>.&.y.y.y.y.v.S.n.m.0.q.0.q.q.I.!.%XE.D.S.m.C.S.n.v.d & ",
"lX& 2.A.S.V.C.V.C.D.E.F.Z.C.Z.V.V.A.q.m.C.V.&.%.%.y.y.;.&.%.%.a.f.&.&.%.&.%.y.>.;.>.N.A.C.C.A.n.m.V.C.C.L.I.F.Z.C.S.C.A.V.C.v.3 ",
"lXu g k l.{.S.Y.|.w.{.].q.m.m.0.m.m.m.V.C.V.V.y.1.1.%.&.a.<.8.>.-.1.:.%.;.;.%.;.&.>.C.Z.n.V.{.Z.C.P.@Xe.{.w.[.q.M.q.q.C.q.V.J & ",
", E.=XH.G.$X!.=X~.oX}.Q.+XOXC.C.V.q.C.V.Z.n.m.}.g.f.f.f.j.j.f.8.g.f.f.>.%.*.;.>.C.Z.S.M.{.+X+XXXXX~.~.!.4.$X$X$Xm.V.V.C.2.V.:.J ",
", c.n.F.@XE.U.M.q.+XI.n.E.!.E.n.A.M.@XY.Y.Y.I.!.+X.XW.U.f.=.f.i.i.a.a.h.b.v.M.OXY.Y.Y.U.!.Y..XY.%X@Xq. XU.P.P.E.!.I.n.C.m.:.H lX",
"lX0 l.n.V.C.m.q.q.q.q.m.C.m.m.n.n.n.n.n.S.I.P.n.n.Z.V.m.q.q.q.q.[.M.M.M.Z.n.S.n.n.n.P.P.n.n.A.Z.C.q.q.q.q.q.m.C.m.C.n.n.n.v.2 & ",
"- p.c.b.Z.C.M.V.S.q.q.Z.A.E.Q.P.S.S.S.P.!.!.!.E.n.Z.V.C.C.n.m.q.C.L.F.~.I.n.n.n.P.I.~.!.!.S.A.Z.C.M.Z.V.q.C.D.A.!.E.b.n.A.z.x.p ",
"- c.I.n.n.n.b.n.n.n.S.+X$XOXF.!.E.I.A.S.S.n.n.I.S.n.n.n.n.n.n.n.F.U.U. XE.!.I.S.Z.b.P.b.P.P.n.n.n.n.n.n.n.Z.U.$XOX$XE.I.I.z.k lX",
"lX# @.q.C.Z.n.n.n.S.V.V.A.C.q.q.9.q.9.q.q.m.C.Z.n.n.n.P.n.n.A.V.C.A.C.q.q.q.q.q.0.q.2.m.Z.S.S.n.S.S.S.S.Z.C.A.V.m.q.q.q.q.2.t lX",
"lXu J.~.F.{.w.].Z.e.].n.I.I.M.Z.b.Z.C.Z.Z.n.S.S.n.n.Z.].w.Z.w.w.Z.S.!.A.C.S.V.C.V.Z.S.S.n.n.S.S.{.w.M.M.w.C.S.E.I.q.S.q.V.S.z.lX",
", J.~.~.Q.OX~.#X|.%X=XU.=X%X!.A.n.I.E.!.~.P.D.w.].].6.%X%X(.$X~.$X!.=X~.F.S.P.E.!.~.I.b.[.w.[.4.#X%XXX}.%X%XE.=X=XE.Z.q.,.@.0 lX",
"- J.r.P.P.I.!.!.%X=X!.=X=XE.~.Q.P.P.I.I.S.w.|.%XXX$X%X%X~.~.~.!.!.~.W.~.=XI.P.P.I.P.].}.XX$XXX%X$X=X=X~.~.!.=X%X!.~.{.5.9.9.Z lX",
"lX+ 0 k.A.n.S.Z.P.P.n.V. Xq.E.E.I.n.P.!.%X!.!.I.~.W.U.U.{.[.I.n.Z. Xq.L.E.I.S.I.E.~.$X=XI.R.!.P.U. X0.F.P.A.D.[. XF.9.e.6.+.e lX",
"lX- x.S.<.S.@.q.2.N.2.2.V.m.m.v.n.v.G.b.I.I.n.n.v.u.q.q.0.0.>.C.0.>.C.q.S.n.P.E.l.P.E.n.l.;.k ;.0.2.:.M.N.q.2.V.K Z.Z.l.V.d lXlX",
"lXlXy.n.a d = H H 0.=.K l.o.S.d x.n.d o.S.n.z.v.j l.x.2.2.C.2.q Z #.b.o.b.$.!.U n.v.n.b.-.9.e >.b.K O.,.H V.#.#.0 p a y.n.#.lXlX",
"lXlX+ + lXlXlXlXe O.J & + = #.t y j & & y.x.y a - #.d H H #.d + lXt p lX+ + + & o.t x.y.& # + 0 p lXlX+ = #.j + lXlXlXt j & lXlX"
};
