/* XPM */
static char *result[] = {
/* columns rows colors chars-per-pixel */
"64 64 230 2 ",
"   c #000013",
".  c #000024",
"X  c #00022B",
"o  c #000B2B",
"O  c #04122C",
"+  c #0B162D",
"@  c #0E192D",
"#  c #151B2E",
"$  c #1A1F2F",
"%  c #10152E",
"&  c #1D232F",
"*  c #1E2331",
"=  c #1E2930",
"-  c #232A2F",
";  c #22252E",
":  c #242431",
">  c #2C2C32",
",  c #272A32",
"<  c #312C34",
"1  c #2B3331",
"2  c #2B3732",
"3  c #343135",
"4  c #3B3435",
"5  c #323E31",
"6  c #3D3A39",
"7  c #33302E",
"8  c #443B3A",
"9  c #3C4A34",
"0  c #324638",
"q  c #394836",
"w  c #384E3B",
"e  c #444232",
"r  c #4C4B36",
"t  c #464937",
"y  c #53483A",
"u  c #445335",
"i  c #4C5B36",
"p  c #47573A",
"a  c #585639",
"s  c #675C3B",
"d  c #516237",
"f  c #536439",
"g  c #596B3B",
"h  c #5F723B",
"j  c #4E653E",
"k  c #64643D",
"l  c #69663A",
"z  c #61743B",
"x  c #667A3D",
"c  c #6A793E",
"v  c #7D743B",
"b  c #4B3F41",
"n  c #3F5340",
"m  c #544941",
"M  c #5B4C42",
"N  c #574846",
"B  c #435C41",
"V  c #5B5648",
"C  c #4F4341",
"Z  c #6A5645",
"A  c #6D5947",
"S  c #6F5A48",
"D  c #655447",
"F  c #725E48",
"G  c #6B5A50",
"H  c #4B6946",
"J  c #4A6543",
"K  c #566B48",
"L  c #58794B",
"P  c #567859",
"I  c #7B6848",
"U  c #657842",
"Y  c #787542",
"T  c #786555",
"R  c #6A6C50",
"E  c #877C39",
"W  c #877846",
"Q  c #8A745A",
"!  c #967A6A",
"~  c #997D6B",
"^  c #8B7263",
"/  c #6E843F",
"(  c #5D8251",
")  c #5C805A",
"_  c #698749",
"`  c #748C42",
"'  c #768743",
"]  c #76954E",
"[  c #7D994B",
"{  c #7B9546",
"}  c #658C55",
"|  c #678A56",
" . c #6B9154",
".. c #6C9559",
"X. c #729453",
"o. c #729D5D",
"O. c #7A9955",
"+. c #738F55",
"@. c #7CA259",
"#. c #6C966D",
"$. c #7C9D6D",
"%. c #749C6B",
"&. c #6B9572",
"*. c #799871",
"=. c #6C8663",
"-. c #76A464",
";. c #79A763",
":. c #7BA962",
">. c #7DA169",
",. c #74A269",
"<. c #968B3F",
"1. c #948B3F",
"2. c #888547",
"3. c #978D48",
"4. c #829C46",
"5. c #829C4C",
"6. c #899A49",
"7. c #95924C",
"8. c #939D4B",
"9. c #9C9D4E",
"0. c #9C9246",
"q. c #899556",
"w. c #969853",
"e. c #A49946",
"r. c #A19E50",
"t. c #AE9E50",
"y. c #8AA549",
"u. c #8EAA4B",
"i. c #87A147",
"p. c #92AD4B",
"a. c #9AA84D",
"s. c #95B34C",
"d. c #9AB64E",
"f. c #9BB94E",
"g. c #84AD5D",
"h. c #8AAE5C",
"j. c #87A754",
"k. c #96A75A",
"l. c #8FB257",
"z. c #8CB159",
"x. c #94B554",
"c. c #99B653",
"v. c #9AB850",
"b. c #94B259",
"n. c #9CB25B",
"m. c #AEA448",
"M. c #B3A645",
"N. c #B6AB49",
"B. c #A4A351",
"V. c #A8AA55",
"C. c #B2AE56",
"Z. c #B7AC5B",
"A. c #A3B554",
"S. c #A3B951",
"D. c #ABB954",
"F. c #A4B35D",
"G. c #ACB55C",
"H. c #ACB556",
"J. c #B3B157",
"K. c #B2BA56",
"L. c #B4B65C",
"P. c #B9B65D",
"I. c #B6BA58",
"U. c #BDBA5B",
"Y. c #A9B24E",
"T. c #9A846A",
"R. c #889D6C",
"E. c #809B70",
"W. c #AB926C",
"Q. c #B79C74",
"!. c #A88C6F",
"~. c #82A566",
"^. c #83AA61",
"/. c #8BAB61",
"(. c #8DA26C",
"). c #86A36A",
"_. c #93AD61",
"`. c #9AAF61",
"'. c #9AA769",
"]. c #97A569",
"[. c #9BB060",
"{. c #A4AC66",
"}. c #A9AE64",
"|. c #A0A968",
" X c #ACB062",
".X c #B2B361",
"XX c #BAB967",
"oX c #B9A176",
"OX c #C1BC59",
"+X c #C2AD64",
"@X c #C7A97B",
"#X c #CCB674",
"$X c #BEC164",
"%X c #C7C35C",
"&X c #CBC963",
"*X c #D6D76C",
"=X c #DCDF71",
"-X c #D0C875",
";X c #DDE072",
":X c #B2B2B4",
">X c #CAAE81",
",X c #CFB584",
"<X c #D5B583",
"1X c #D9BC8A",
"2X c #D1BE93",
"3X c #C0BDBB",
"4X c #DCC897",
"5X c #D9C990",
"6X c #E3CD98",
"7X c #E5D49D",
"8X c #E0DE86",
"9X c #DFD7A1",
"0X c #DBC6AC",
"qX c #EADCA5",
"wX c #E8D9A5",
"eX c #EADBB7",
"rX c #EEE2AB",
"tX c #EDE5AB",
"yX c #F0E4AC",
"uX c #F2E6BC",
"iX c #E8E49B",
"pX c #CDCDCE",
"aX c #E9D9C5",
"sX c #F3EBC6",
"dX c #F2EBD6",
"fX c #FAF6E7",
"gX c #FFFFFE",
"hX c #FDFBF6",
"jX c #EDE9E4",
"kX c None",
/* pixels */
"kXkX# # kXkXkXkXkX0 B # kXkXkX# @ kXkXkXA i ; f # # kXkXkX# # kXkXr k 0 0 y k # # kXY l kX# # kX& d kXkXkXr Y ; kXkXkX# # kXkXkX",
"kXkX` f.d j 9 & d ( -.B 3.Y r C.7.0 } H U.9./ f.a 7.g { u o.( # - C.U.O.O.C.U.B o.7.U.I.r k U.9.z f.f L 0 9.U.k % # & [ p.u kXkX",
"kX# z f.u.f.f.h f.V.n.9.U.7.V.OX2.a j.k.U.C.d.y.a.D.k.f.f.c._ J.B.7.OXL.P.U.7.w.U.J.D.v.v.6.C.D.6.f.u./.C.r.V.B.OX7.K f.f.z kXkX",
"* L L } l.f.f.y.S.f.K.I.P.D.U.K.K.V.a.OXU.U.D.D.S.f.x.d.f.d.S.D.I.U.D.I.I.D.U.D.U.U.%XI.D.D.d.f.f.f.v.D.S.K.U.K.A.l o.l.x h & kX",
"- ;.^.f.f.v.v.f.f.f.f.v.S.f.S.f.f.f.S.K.K.K.I.l 8 <.1.# h y.f.f.f.S.f.S.f.f.f.f.K.K.D.K.K.K.S.F.A.v.v.f.f.f.v.S.s.l.:.l.f.f.h kX",
"kXJ j g.h.:.@.:.c.K.OXD.S.x.x.z.f.f.f.f.f.u.$ # 5 M.P.I.L.X a B.K.S.x.x.h.v.f.f.f.f.f.f.v.z.:.:.:.:.:.D.K.U.D.x.d.:.g.f.{ x = kX",
"kX` p.u.f.z.g.z.g.n.I.A.b.h.l.x.x.x.:.z.i.% 8 <.M.%X=X;X%X*X$XE i n.z.h.x.z.f.g.:.x.l.x.z.^.x.v.g.l.z.g.D.K.F.l.g.x.g.x.f.d kXkX",
"kXx 4.y.f.i.f.A./.~.h.~.g.g.z.-.g.z.g.O.# , 0.M.%X;X=X%X%X=X;X;X&Xw g.z.:.g.l.:.l.g.h.l.f.b.b.x.b.v.n.~.z.).^.^.z.g.:.:.g.( kXkX",
"kXt W Y c 7.V.U.OXR.(..X'._.z.g.z.:.l.g o N.M.M.N.;X;X;X;XN.*X;X*Xe.u g.g.l.@.g.x.x.f.l./.'.'.].].P.OX.X*.|.}.`.g.h.z.g.:.y.2.: ",
"k U.V.F.G.U.G._./. XF.A.K.I.K.f.x.h.n.@ D W M.M.0.U.XX*X;X;XOX&X=X=XX B.S.f.z._. X XG.F.I.L.n.L.L. X/.b.F.D.D.I.U.S.f.z.b.L.P.> ",
"- l p.d.h.h.g.:.:.:.:.z.x.z.z.f.f.f.f.@ I 3.m.; # # % $ C.=X=XW U.=XN.B x.f.f.f.f.v.v.S.f.f.x.z.g.:.:.:.;.^.z.z.h.b.f.f.l.| : kX",
"kXt 6.d.x.h.g.l.x.:.:.z.b.F.I.v.f.f.f.@ W M.m.A S S 8 # # G.=X=X7 *X*X$ v.f.f.f.S.D.U.I.K.f.x.x.g.g.x.z.:.g.b.b.L.D.f.f.f.f.{ kX",
"f A.A.d.f.f.f.f.f.v.v.G..XG.{.K.K.S.c.> 8 I m.e.S S S < # # 3.=X1.7.M.$ C.K.D.S.v.f.S.f.D.D.f.f.f.f.f.f.v.c.L.G.F.L.K.D.S.v.d.1 ",
"u f g.g.l.f.f.f.f.x.z.z.x.g.:.:.:.:.:.( : S F S S S Z & 5 # a 0.2.e.3.N ;.:.:.:.:.:.g.z.l.v.f.f.f.f.f.f.x.g.x.z.:.~.:.:.:.X.x # ",
"kXp.d.f.d.b.~./.x.:.g.v.S.D.z.x.x.z.g.z.' % > > < > $ X.).f o M.: E M p l.d.z.h.z.l.v.v.f.v.f.f./.~.z.z.~.h.f.D.XX<Xf.l.z._ & kX",
"= { ` 5.~.E.XX'.$..X.X{.U.U.K.v.f.S.K.I.U.a.{ * * 2 =.L.}.> O 0.M M.+ C.n.d.S.D.D.U.D.v.^.^.h.$.'..X(.(.P.}.D.#X1X<Xf.S.D.A.t kX",
"kXu 9.r..X'.U.OXU.OXI.U.OXXXOXI.S.D.D.D.S.$.%..X(.'.V # T + 8 s + s # # l S.D.D.D.S.^.).'.|.(..X}.U.U.U.U.I.#X<XhXy D.S.S.a.C.k ",
"1 d.f.OXK.G.G.:.b.D.v.c.b.:.I.I.D.f.S.I. XL.U.D.Z.* W.@X~ ; s . .   dXjXpX, d.d.D..X XU.K.I.U.D.G.[.:.D.D._ #XhXfX. K.D.S.D.W # ",
"kXx f.D.z.:.-.:.g.z.z.:.h.:.z.x.f.S.K.f.K.K.v.p.% % * :XaXgXgXgXhXgXaX0X  o 5 K.S.D.K.D.v.v.D.g.:.:.;.h.XXo hXgXsX. f.f.S.D.u.i ",
"% { l.g.:.x.z.z.g.;.g.g.c.f.f.f.f.f.z.f.f.f.v.U % ! T >X7XrXrX7X6X6XrXyXrX@X3 j.x.v.f.f.x.l.^.g.c.^.z.^.@XwXgXjXtX. f.f.{ L f.f ",
"` d.S.D.D.D.S.f.f.x.x.f.v.v.v.@.g.:.:.z.v.f.S.= < ! ! <XqXrXsXdXfXgXgXhXeX4X! L ^.x.f.f.K.D.S.D.S.v.v.5.>XsXgX#XqX. :.h.;.2 p @ ",
"x s.D.U.L./.g.^.:.:.:.g.:.h.:.@.:.:.:.:.^.z.a.# G ! >X<XwXrXrXrXrXuXfXpXdXrX5X4 ;.:.z.S.K.%XU. Xh.g.-.2 jXsX0XwX2X0 :.:.o.o.x.` ",
"kXa J.K.f.f.z.g.:.:.:.,.,.&.&.R.^.~.*.%.f.D.B.@ ! ! <X<X6XwXrXrXrXyXhX* Q.wXrXV P z.S.I.U.U.S.v.c.z. .q fXqX<X7X. P ;.y.L _ f.` ",
"> L.OXD.D.f.f.l.g.:.,.&.2 * =.L..XL.U.|.G.S.$ : D ~ <X<X<X6XrXrXrXdXgX: m 4XfXG :  XS.S.D.U.D.D.v.v.2 9XtX1X<XQ q R.P.r.P.k h 2 ",
"; B.Y.D.f.S.f.f.S.D.U.V.# @X; r.U.U.U.U.U.U.# C ! T.<X<X<X<X1X1XyXhXgX* @ <XwX4XD U.I.K.f.S.S.S.f.j.m tX5X<X<X# 7.OXU.U.U.2.Y t ",
"5 / c a.D.D.f.f.f.f.v.p.$ y @XT 5 S.D.OXU.r.# 8 ! ,X<X<X<X<X<X6XyXsXgX* # D 1XeXO V.U.I.I.U.D.D.S.= 9X9X@X<XQ 2 v.K.f.S.f.S.U.Y ",
"g s.p.z.:.:.l.z.v.S.K.u.; $ M #XI 5 { d.v.4.$ 8 ! !.<X<X<X@X>X6XwXsXpX# # : m V # i.f.v.S.v.z.:.o.V rXV @X<X, { v.v.v.f.f.u.8.3 ",
"$ 0 y.x.z.g.:.:._. XU.V.8 e.y a <XT * u v.4.# # 4 ! @X<X@XT : % % % # $ # # # < & 9 v.f.l.@.g.z.@ 9XwXy <XQ * _.h.h.g.x.v.O.2 kX",
"$ p i.h.x.x.x.v.l.x.v.j.8 M.M.e.W ~ ! D $ p # % ! ! >X>X>XwX0X6Xo $ * % # # Q.jXT & :.l.{ d f.i.V tXT.Q.<X4 [ z.x.x.z.l.g.-.w kX",
"J -.&.&.z.*.n.P.}.&.%.R.e M.M.M.t.Q.<X1X@XQ.O O : ! >X!.>X<X1XwXyXsXhX3X# t <XrXrXo v.{ 2.XXo w oX,XD #XQ # ).:.:.:.:.:.@.i.i.0 ",
"2 L H B..XU.U.L.G..X}.V.e M.M.M.M.<XW.. R T.wXtX6 < ~ ~ <X<X<X1XyXqXdXjX# W.dXdXrXo n.X 7.&X<.D <X> ^ >X6 B.L.U.G.v.f.l.:.h.u.i ",
"= i.{ h./.n.~.^.-.^.z.u.e M.M.%XN.<X<X<X@XQ . <X< 3 ~ ~ <X<X<X<XwXyXuXjX+ <XrXrXW.% c G.N.X l W.@X< ! ! & b.v.A.S.S.f.x.A.D.B.- ",
"1 s.f.f.v.l.g.@.h.:.:.o.e M.M.OX=XyXwX#X<X<XX wX3 % $ T <X#X<X<X6XrXrXwX3X7XqXqXV y.7.r.;Xe.. !.O G ! > L ;.@.g.[.b.f.f.f.u.s.- ",
"2 { f.s.v.v.x.f.v.z.x.a.e M.M.N.=X7XwX6X<X<Xo <X3 ; $ $ O ! W.<X6XrXrXfXfXqXwXQ.% ' K.t e.M.e.s # T T 8 o ' K.K.XXU.S.v.d.9 w & ",
"i s.s.z.l.x.z.d.f.v.h.O.m +XN.m.%X5X7XyX<X<X^ >X3 : M 8 % $ $ X >XrXrXhXfXqXQ.4 # # x.c + l e.W Z 8 % y 0.a O.z.:._.n.n.j.@.x.h ",
"kXu j.x.l.x.x.d.f.x.x.p.m <X#X#XOX#X<X<X<X<X^ <X< ; Z S S 4 % # % % oX4XqX2X: S < # j.% T T 8 7 D S M # $ # y.v.x.:.z.^.:.} / 0 ",
"kXp p.f.p.$.].*.>.(.(.j.m <X<XrXrX-X#X1X<X<X~ <X< : F W S I Z C < # # ; < * Z I A # U + ! Q.<Xm # < Z Z < +.v.U.K.b.f.f.v.s.- # ",
"& Y v u Y 7.U.U. XU.OXV.* @X<X1X7X-X+X+X<X<XN <X3 > S 0.W e.m.I S Z > # $ D m.I 4 q U O ! <X<X<X^ # # : > OXU.U.OXI.S.S.K.B.r.a ",
"I OXI.C.U.U.U.F.L.U.S.K.5 @X<X1XqX;X=XOX&X+X% <X4 : S S e.e.M.M.M.F S Z Z I m.Z * 8.K # G Q.<X<XQ.* k.C.V.S.I.}.}.U.I.D.f.f.A.a ",
"a v.S.I.c.^.^.:.g.v.x.g...6 <X<X<X+X&XOXN.M.% !.< # Z S S e.M.M.M.M.3.I I M.e.$ 3 .X2.$ # b C M $ 9 :.x.v.b.:.:.^.S.v.f.S.7.x & ",
"& h l.l.@.z.^.:.:.:.:.:.v.0 D <X1X<XM.M.M.M.@ ! : # : S S I e.M.M.M.M.M.M.e.# # u.f.z y Z % & # @.:.:.:.@.:.g.x.l.l.f.f.v.v.f.- ",
"/ f.f.v.z.v.x.v.x.l.x.x.d.f.q S <X<XZ.M.M.e.^ 8 $ # # 4 D S S I W W W W a # # _ h.f.z # 8 $ x.x.f.x.f.l.l.x.x.f.f.v.z.v.g.:./ kX",
"[ f.f.D.OX.Xx.l.z.:.z.x.z.x.l.0 F <X+XM.e.8 N r U.7.# # # # + @ # @ % % # # = %.:.g.z.6.9.V.U.U.n.x.l.h.g.l.x.b.x.g.:.;.h.j.o.L ",
"9 d u J.c.l.z.g.;.;.:.-.:.#.%.g.t T +X0.b + r U.OXA.] $ # # _ ( | ) P K # # # #.-.g.c.D.K.U.K.x.x.z.:.:.:.:.-.>.#.,.} ( @.l.f.{ ",
"w ..J a.v.v.x.:.:.:.;.&.*.].&.(.(.t l X ^ r K.U.I.f.f.` # # o.-.%.&.K $ # # # V.E._.D.K.I.U.S.f.v.z.:.:.;.-.&.(.R.*.7.7.k Y / 0 ",
"H :.@.@.g.l.f.f.x.n.`.].OXOX}.U.U.OXr % r D.f.S.P.D.S.d.6 % U k.R.V.6 a # 7 2.U.U.OXD.S.f.K.K.D.v.f.v.x.n./.}.OXOX}.U.U.U.U.r kX",
"& K I.S.S.v.f.f.S.S.D.I.U.S.U.D.D.K.K.v OXU.D.K.Y.p.4.4.4.5 $ i 8.r.8.a.9.y.9.Y.U.U.U.K.D.K.f.v.f.f.f.D.S.K.U.K.Y.U.S.I.D.D.I.> ",
"u s.A.S.n.c.v.v.f.f.f.f.S.v.S.f.f.v.S.D.D.D.D.a.8.5.5.5.4.h 9 U 4.6.4.6.4.4.4.4.8.B.D.K.K.D.A.n.c.v.f.f.f.f.f.f.f.S.f.f.f.d.2.; ",
"9 g O.@.:.;.:.:.n.K.OXK.A.x.z.g.v.f.f.f.f.f.4.4. . ...} | O.8.r.a.8.] [ X.5.4.4.4.4.s.f.f.g.:.:.:.:.:.D.I.U.D.c.x.h.l.f.f.x.h & ",
"kX& @.x.f.l.g.x.z.b.D.n.b.z.x.x.x.x.:.:.l.l.[ X.] 5.4. .] X.] 8.6.5.[ ] { ] 4.X. .] j.c.l.z.x.f.g.l.z.z.F.D.c.l.h.v.z.x.l.z.s.2 ",
"kXa z x u.h.v.D.).>./.>.:.g.g.:.:.z.z.l.z.l.s.4.+.+.] [ 6.q.| X.| +. .X. . .X. .] O.h.x.f.h./.b.z.S.{.>./.>.^.:.h.^.:.h.@.l.j & ",
"> P.OXV.B. XXXU.OX].].L.`.[.z.z.z.:.z.l.x.f.^./.w.q.q.q.r.r.w.=.w.q.q.X.] [  .X.j.l.v.h./.}.}.'.'.U.U.I.*. X X}.^.l.l.h.:.z...H ",
"> a.f.n.{.K.{.z.:.}.S.f.K.U.K.f.x.b.{.G.G.F.K.I.{.`.J.F.q...j.q.6.8.8.r.d.s.h.n.G.K.G.F.K.L.b.G..X X:._.F.S.S.K.U.S.f.l.z...H kX",
"kXq u.f.x.z.g.:.:.:.:.g.z.g.g.f.f.f.f.f.f.D.S.f.v.x.l.h.;.:.:.@.^.h.z.^.x.f.c.f.f.f.S.S.f.f.x.x.z.:.:.:.:.:.h.z.g.l.f.f.f.s.= & ",
"- 7.a.f.x.z.g.x.v.:.h.l.n.G.U.v.f.f.f.D.I.I.I.K.v.x.l.g.z.f.g.:.z.c.n.U.D.v.f.f.f.K.U.I.K.S.x.l.g.z.x.l.:.z.x.c.P.K.f.f.x.i.s.d ",
"; a.D.f.v.f.f.f.f.v.x.F.G.[.n.U.K.D.x.v.v.f.f.S.S.f.f.f.v.v.v.s.n.F. X_.K.K.D.A.x.f.f.f.S.S.f.f.f.f.f.f.f.x. XF.[. XK.D.D.i.x kX",
"kX% _ :.z.x.f.v.f.x.z.l.x.z.:.:.@.:.:.:.:.:.z.x.f.f.f.f.f.f.d.x.z.c.z.:.:.:.:.:.;.:.g.g.x.x.f.f.f.f.f.v.b.g.x.x.g.:.:.:.:.@.u kX",
"kXa C.U.n./.>.~.x.>.~.f.D.K.g.x.d.l.z.z.v.f.f.f.f.f.x.).>.b.;.$.x.S.I.c.z.v.l.z.z.x.f.f.f.f.f.f.^.>././.>.z.f.K.D.:.v.:.l.v.i.kX",
", J.P.U.U.[.OX|.R.XXP.F.U.U.U.d.f.D.I.I.U.S.x.>.~.~.&..X.XR.}.U.}.U.U.OXA.v.S.K.I.U.K.v.~.>.^.*.|.P.'.(.U..XL.U.U.K.x.:.o._ 9 kX",
", C.2.D.S.S.I.K.U.U.K.U.U.L.U.I.D.S.D.S.v.>.E.XX'.}..X.XOXU.OXI.K.OXG.U.U.D.S.S.D.S.~.R.'. X'.P.}.OXOXOXI.K.U.I.I.OX/.%.,.:.B kX",
"kX% u i.x.f.S.x.S.D.f.x./.:.K.K.D.f.S.I..XL.U.S.U.K.F.F.^.^.D.f.x.b.:.F.K.D.S.D.K.P.L.OXD.I.U.S.}._.:.c.S.f.b.^._.[.;.,.#.) 0 kX",
"kX- p.f.O.f._ :.o.@.@.:.l.^.g.s.f.s.B.f.D.D.f.f.a.5.:.:.;.:.] h.:. .z.@.x.v.S.K.u.S.D.d.u. .U _ :.o...h.j.:.:.l.K x.x.i.l.h kXkX",
"kXkX{ f.d h & H H @.} g u./ f.z p.f.z / f.f.i.d.z u.s.@.-.l.@.0 B ` f./ d.' I.Y f.s.f.f.( :.w X.f.K L -.H z.` ` 9 f f 4.f.` kXkX",
"kXkX# # kXkXkXkXw } H # # & ` u p z & & 4.p.p f - ` h H H ` h # kXu f kX# # % * / u p.[ * # # 9 f kXkX@ & ` h & kXkXkXu z = kXkX"
};
