/* XPM */
static char *result[] = {
/* columns rows colors chars-per-pixel */
"64 64 220 2 ",
"   c #00000D",
".  c #04001B",
"X  c #000025",
"o  c #000729",
"O  c #05142A",
"+  c #0B162C",
"@  c #151529",
"#  c #151B2E",
"$  c #1A1E2F",
"%  c #161E30",
"&  c #1B1F35",
"*  c #1C232F",
"=  c #1A2333",
"-  c #1C2739",
";  c #23292F",
":  c #252531",
">  c #242A33",
",  c #2B2B33",
"<  c #20283E",
"1  c #332E36",
"2  c #2C3737",
"3  c #383A36",
"4  c #433C3B",
"5  c #42393C",
"6  c #394635",
"7  c #374A3A",
"8  c #49473A",
"9  c #475837",
"0  c #535337",
"q  c #5F723B",
"w  c #61753B",
"e  c #1B3747",
"r  c #232B44",
"t  c #29324D",
"y  c #213E4D",
"u  c #2C3754",
"i  c #313D5D",
"p  c #333F60",
"a  c #4A3E40",
"s  c #144B5D",
"d  c #254952",
"f  c #364264",
"g  c #384568",
"h  c #2A5868",
"j  c #3E4C73",
"k  c #3D5878",
"l  c #366E74",
"z  c #35677B",
"x  c #464B45",
"c  c #564845",
"v  c #5C5348",
"b  c #645548",
"n  c #6A5B4A",
"m  c #6B5851",
"M  c #506F4C",
"N  c #696455",
"B  c #7A6956",
"V  c #565865",
"C  c #404E75",
"Z  c #405378",
"A  c #405A7C",
"S  c #587C64",
"D  c #407F7D",
"F  c #7A7572",
"G  c #88775C",
"H  c #8C775E",
"J  c #876E61",
"K  c #8C7265",
"L  c #927767",
"P  c #967A6A",
"I  c #9A7E6C",
"U  c #69874D",
"Y  c #738941",
"T  c #7A9343",
"R  c #7C9848",
"E  c #668E57",
"W  c #668759",
"Q  c #778757",
"!  c #6B9357",
"~  c #6A9459",
"^  c #7A9C53",
"/  c #729E5E",
"(  c #75A05E",
")  c #7EA559",
"_  c #5A8165",
"`  c #6C8E68",
"'  c #749B6E",
"]  c #638F76",
"[  c #669175",
"{  c #6B9473",
"}  c #6D9970",
"|  c #729672",
" . c #719870",
".. c #7C9971",
"X. c #77A663",
"o. c #78A764",
"O. c #77A863",
"+. c #7AA863",
"@. c #7BA169",
"#. c #898B4E",
"$. c #839D46",
"%. c #8A9C48",
"&. c #99954D",
"*. c #949E4B",
"=. c #9D9D4E",
"-. c #889558",
";. c #999954",
":. c #A29E4F",
">. c #A29E50",
",. c #8AA448",
"<. c #8AA549",
"1. c #97A54C",
"2. c #93AF4B",
"3. c #95B34C",
"4. c #99B64D",
"5. c #9BB94E",
"6. c #84AD5E",
"7. c #89AE5C",
"8. c #9BAD5E",
"9. c #8FB257",
"0. c #8BB159",
"q. c #94B553",
"w. c #98B751",
"e. c #99B850",
"r. c #92B15A",
"t. c #9CB25C",
"y. c #A0B44F",
"u. c #A9A855",
"i. c #B2AD56",
"p. c #A8B554",
"a. c #A3B951",
"s. c #ABB954",
"d. c #A4B35D",
"f. c #AAB45D",
"g. c #B5B257",
"h. c #B3BA56",
"j. c #B5B65C",
"k. c #BAB65B",
"l. c #B6BA58",
"z. c #BEBA5B",
"x. c #8B8F6E",
"c. c #9A826A",
"v. c #869D6F",
"b. c #A88E6D",
"n. c #A58970",
"m. c #AB9374",
"M. c #B89A77",
"N. c #82A565",
"B. c #82AB60",
"V. c #8AAB61",
"C. c #8DA16D",
"Z. c #93AE61",
"A. c #98AA65",
"S. c #9AA769",
"D. c #9CB060",
"F. c #A3AB66",
"G. c #A9AE65",
"H. c #AEB163",
"J. c #B3B361",
"K. c #B2B864",
"L. c #BDA37A",
"P. c #C0BA5B",
"I. c #C3A57A",
"U. c #C7A97B",
"Y. c #CAAC7D",
"T. c #D0B57F",
"R. c #3F6482",
"E. c #3F728A",
"W. c #387888",
"Q. c #3E7D91",
"!. c #406180",
"~. c #477D89",
"^. c #7C7D81",
"/. c #3D8295",
"(. c #3E8698",
"). c #3E8999",
"_. c #468F92",
"`. c #468A97",
"'. c #5C9394",
"]. c #4997A0",
"[. c #4C9CA2",
"{. c #4FA1A3",
"}. c #55A8A6",
"|. c #55ABA9",
" X c #5AB3AC",
".X c #889992",
"XX c #949693",
"oX c #96A497",
"OX c #ABA38A",
"+X c #B9AD8C",
"@X c #9D9EA2",
"#X c #BEB8A7",
"$X c #C3AA84",
"%X c #CAB589",
"&X c #D5B583",
"*X c #D8BA87",
"=X c #9EC5AC",
"-X c #DCC38E",
";X c #CCC697",
":X c #DDC899",
">X c #E1CB96",
",X c #E3CD99",
"<X c #E5D39D",
"1X c #DACDA4",
"2X c #E5D7A3",
"3X c #EADBA5",
"4X c #EDDEA8",
"5X c #E2CEB0",
"6X c #E8E3AB",
"7X c #EFE2AB",
"8X c #F1E3AC",
"9X c #F1E5B7",
"0X c #C3C3C5",
"qX c #F3E9CD",
"wX c #F6EED3",
"eX c #F8F2DB",
"rX c #F0ECE4",
"tX c #F9F7F1",
"yX c #FCFBF4",
"uX c #FFFFFE",
/* pixels */
"5.7.h.h.h.h.h.h.5.5.5.s.e.0.6.O.d.+.+.O.+.+.O.O.9.w.w.5.5.5.h.5.5.5.9.p.h.h.h.s.h.s.5.5.5.h.0.6.+.Z.Z.+.O.+.+.+.O.0.9.e.e.e.5.h.",
"5.5.5.5.5.5.5.5.s.a.5.5.e.5.5.w.w.6.6.+.O.O.+.+.+.O.O.q.0.+.O.+.5.5.5.5.5.5.5.5.5.a.s.5.5.5.5.e.5.5.6.6.+.+.O.+.+.O.+.O.0.q.O.O.",
"5.5.5.5.5.s.a.z.z.z.s.a.5.5.q.q.9.+.+.) w.5.+.+.+.O.B.6.7.Z.P.r.5.5.5.5.5.5.a.a.s.P.P.z.a.e.5.e.q.q.+.+.+.0.5.6.+.O.+.) 6.6.V.z.",
"5.5.5.5.5.5.l.P.a.5.P.z.h.5.e.w.5.5.w.5.w.5.0.B.9.5.a.z.a.z.z.z.a.5.5.5.5.5.e.a.z.s.5.z.z.z.5.5.e.5.5.5.5.5.5.w.B.B.5.a.l.s.h.z.",
"z.5.a.e.w.5.5.5.5.5.5.5.5.5.5.5.5.5.5.5.5.5.5.5.5.a.u.8 2 , * 2 1 ; y.4.a.w.5.5.5.5.5.e.5.5.5.4.&Xa.5.5.5.5.5.5.5.5.w.z.l.l.K.+.",
"+.B.N.+.+.+.+.+.w.w.w.w.5.5.5.5.5.5.5.5.5.5.5.w.7.7 % e W./.Q.l 7 y @ M +.+.o.+.+.e.e.e.w.5.5.a.&X&Xe.5.5.5.5.5.w.w.O.+.r.0.+.+.",
"+.+.+.O.+.+.O.+.+.+.9.w.5.5.5.5.5.5.5.5.5.5.5.w.,.% Q.(.(.(.(._.[.|._.# * X.+.+.+.+.+.) 5.w.5.K.5X+X3.5.5.5.5.e.e.e.w.5.5.5.w.9.",
"e.r.w.q.B.w.w.w.5.5.5.5.5.5.5.5.5.r. .| r.5.N._ + W.(.(.}.|.|. X X[.).l # 7 w.q.e.e.e.5.5.5.a.T.5XrX6  . .@.5.q.} } r.5.5.s.z.5.",
"5.5.5.5.5.5.z.z.a.5.e.e.5.e.e.e. .| J.| { | ] # r (.).).}. X X].{. X X Xh * 4.l.l.h.5.5.4.4.4.*XuXyX3 p.F.{ | { H.J...r.h.z.z.z.",
"5.s.l.z.P.z.z.z.5.5.N.[ { }  .{ [ z.P.P.J.v.u.# k W./.* }. X X X]. X X X X- h.z.P.a.5.5.{ [ M @XuXyX2X8 z.z.F.H.z.z.P.J.z.z.z.z.",
"5.5.s.a.a.s.a.w.} ' [ k.J.[ v.z.G...z.z.z.P.=.# k ).- # l  X X X[.[. X X X- y.a.5.' { [ G.P.x.@XuX5X3Xt i.z.P.z.P.P.P.P.z.P.P.z.",
"P.s.5.5.5.5.h.@.S.P.F.P.P.P.P.P.P.P.P.D.Z.k.>.t k E.z * -  X X X_.[. X|._.# 4.h.N.| P.F.P.P.*X-XuX*X*X8 i.A.t.z.z.e.5.a.P.f.X.f.",
"5.5.5.a.h.P.z.P.P.P.h.e.a.P.z.5.0.8.D.+.o.X.R - j E.E.j =  X X XD _. X X# $ z.z.P.P.z.z.5.5.b rX9X*X&X8 / O.O.e.s.5.5.6.+.+.o.r.",
"5.5.s.z.s.5.s.P.h.e.5.5.5.s.h.q.+.O.O.O.+.0.) * g k C j = |. X Xl D  X].# #.5.5.P.z.s.5.5.5.* @X8X&X&X3 / X.+.9.9.5.+.+.+.9.X.O.",
"5.5.5.5.5.5.5.5.5.5.5.q.9.0.6.+.+.0.+.+.O.+.+.x - C C g = {. X X/.D }.W.2 e.5.5.5.5.5.5.5.9.X 8X6X*X&X4 X.X.O.O.+.O.O.+.q.5.e.0.",
"5.5.5.+.+.5.5.5.5.5.5.5.5.7.6.O.5.5.5.6.4.0.+.~ % # % % # W. X X.  X{.$ q ) q.5.5.5.5.5.5.5.X 7X3X&X&X4 ( 5.w.7.+.+.w.0.7.5.5.w.",
"6.q.+.O.+.w.5.5.5.5.5.h.h.e.e.a.s.5.e.5.5.5.5.5.<.9 = # # = {.~.f  Xz # X.+.7.5.5.e.5.5.a.P.o 6X2X&X&X4 2.5.5.5.5.5.5.5.5.5.5.5.",
"+.O.+.+.+.O.+.q.q.a.z.z.z.z.P.z.z.j.w.e.w.q.6.O.0.2.* # 8 , Z z u _.c 4 * 7 +.O.q.q.w.z.P.z.o 8X;X&XU.* 2.q.q.q.O.+.q.5.q.q.5.5.",
"O.+.O.+.+.+.+.6.e.e.5.z.P.P.z.l.+.+.+.+.+.O.O.+.o.2 4 I.*X5XXXc V OX2X&X= * / +.) 6.5.5.z.z.o 8X;XT.U.# / X.+.o.+.+.+.+.+.+.o.X.",
"q.5.V.[ { X.q.5.5.h.z.P.z.P.5.e.e.5.e.w.+.+.+.O.7 $ : : N uXuXyXyXyXyXv c , = ) 5.e.a.z.z.z.o 7X;Xb U.# 2.9.+.+.X.+.O.+.X.o.[ [ ",
"| { C.k.| { q.e.P.z.z.P.P.h.5.5.5.5.w.+.+.+.+.~ $ J U.M., n F 1X5XwX1X:X&XI : 9 e.P.z.z.z.z.X 8X;Xn I.# ( +.+.+.+.+.o.} [ | | { ",
"P.J.z.z.z.J.J.s.5.5.5.s.z.P.s.h.5.5.5.5.w.w.+.~ 5 I &X&X*X8X8X8X%X4X5X&XM.L J 3 z.5.5.5.a.z.o *Xo n Y.# 2.w.q.+.+.+.o.{ F.J.P.P.",
"P.P.z.P.z.P.P.a.l.a.5.5.5.P.h.a.h.5.5.5.5.5.f.* a I m.&X,XeXuX  0XyX4X&X&X&XL # s.l.h.5.w w 0 &X# c b.# 3.5.5.w.J.j.J.G.P.z.P.z.",
"h.P.l.s.P.z.P.P.P.P.5.s.s.5.5.5.5.5.5.5.5.w.%.+ P I.&X*X8XwXwXX #XwX4X3X>X&XL.1 ; P.P.6 l ~.X *X# 4 K & # w 2.z.e.a.J.P.z.z.a.h.",
"w.a.5.5.z.P.P.z.z.z.l.z.z.z.h.h.h.l.w.5.5.5.w c n.&X&X>X4X7XeXX #XqX8X,X&X,X&XL ; g.P.# d l s *X$ a K & u z # 5.5.5.5.5.l.s.5.5.",
"5.5.5.5.a.s.s.5.a.s.s.s.a.5.q.6.0.0.5.5.5.<.# 3 L.I.&X3X8XwXXX&   wXwX4X2X&X&XI , Y s.@ |.h d X @ + O # i & * 5.5.5.5.5.5.5.5.5.",
"5.5.5.5.5.5.5.5.5.5.5.5.q.) O.) O.+.7.O.o.T + I m.&X*X8XyXuX^.# X rX4X8X3X&X&XJ 1 ; 5.6 {.].(./.~.j j k u t = w.h.z.z.a.5.5.5.5.",
"q.5.5.w.0.5.5.5.5.5.5.0.~ ~ 7.9.6.+.+.O.o.Q + I &X$X@ @ + # $ # # # # # @ v &XP : * 5.Y $ h W.W.W.g g g g - 9 D.z.z.z.P.P.V.O.0.",
"7.5.w.O.O.+.9.+.0.5.6.^ # v 3 5.5.+.0.5.9.U + I &X&XJ , % # # % # # # o B &XI P 5 * 4.9.7.# 1 a m n a + $ 0 0.0.7.h.s.7.7.q.q.7.",
"6.5.7.O.6.6.O.O.6.7.q.,.@ I.n 3 3.5.5.5.r.U + P &X&X4X4XK N + % # x b tXeX*X$XI.3 * 6.7.y.+ P m.&X&X&X5 9 q.0.V.7.e.7.7.q.6.6.q.",
"O.+.+.6.5.5.5.5.e.5.5.,.# $ U.Y.: S 4.z.P.Q # 1 I &X4X8XyX9Xo # $ OX9X8X4X&X&XI J * 5.5.5.# m m.&X&X&X3 p.P.J.v.[ V.[ C.' +.O.+.",
"5.+.+.w.w.w.q.5.5.q.9.` y e * U.Y.$ 3 z.z.&.# c n.&X4X4X6XyXXX% . tXuX9X4X*X*Xc.5 2 5.r.| $ : P I L 8 $ g.P.P.P.v.[ J.z.A.G.d.O.",
"5.9.+.O.B.V.V.6.j...P.u.d (.Q.e I.U.B $ 7 +.# b n.3X*X3X8X7Xx.@ + 7X8X8X2X&X&XI * <.v.J.P.k.% % % # 0 u.P.K.O.j.z.C.z.5.z.P.P.z.",
"5.+.z.z.z.z.z.z.a.a.e.1.e (.).(.F H M.I.H $ # : n.&X*X7X4X4XuX. 1XtX4X7X*X*X&Xb , h.w.e.a.z.U t j % 8.N.+.+.O.+.+.w.w.e.5.5.5.z.",
"5.5.5.5.e.5.5.5.e.a.w.<.y (.(.(._.Y.B G +X>X+X;X* H &X3X8XeXtXrXqXqX4X2X&XU.$ % T a.5.5.w.5.T $ @ 9 +.+.+.O.+.+.+.+.+.+.q.5.+.+.",
"5.5.5.5.5.e.5.l.z.z.s.<.y (.`.{.`.&X*Xb.B . m.>X> @ L >X4X7XwXwXqX3X6X2XU.# # 3 a.z.z.z.e.5.5.T T 5.+.B.O.B.w.) +.O.O.+.+.+.+.z.",
"5.5.5.5.5.a.z.z.s.a.z.u.d (.(.[.}.<X,X&X&XI.X >X: # @ c.5X7X7X7X7X7X:XL O - i # i.z.e.z.P.z.5.4.q.q.e.q.q.5.5.5.+.+.w.5.s.s.s.P.",
"h.5.5.5.5.5.5.a.5.5.5.1.e (.(.(. X3X<X-X&X&XX ,X: < j * o m.2X4X8X+Xo # p j j = ; 5.5.5.a.a.5.5.5.4.5.5.5.5.4.5.5.5.5.z.P.P.P.V.",
"Z.Z.Z.7.O.B.6.6.w.w.5.,.x (.(.`.|.;X-X:X&X&Xx &X: - j j t @ o %XK * r i C C j j # Y 5.5.5.5.5.5.5.5.5.5.5.5.5.5.5.e.+.+.0.6.+.+.",
"O.+.+.+.+.+.+.+.+.X.7.$.b &XXX`.).;X-X3X&X&XB &X: r j j !.j & % + f C Z (.Q.R.j = * o.+.9.q.5.5.5.5.5.5.5.5.5.5.q.9.9.e.5.5.r.6.",
"5.6.9.0.+.9.9.w.5.5.5.<.b &XT.3X=X+X&X&X&X&XP &X: - C C Q.C j r f C E.(.(.(.(.!.t # ,.5.5.5.5.5.5.5.5.N.N.V.e.w.@.N.q.w.e.s.h.5.",
"5.5.5.5.5.e.h.s.5.5.5.<.c &X*X7X9XoXOX%X&X&XK *X: r !.Z Q.(.R.!.k ).(.(.(.(.(.(.Z # ,.5.5.5.5.5.5.9.[ S.C.[ N.[ S.S.| w.s.P.z.l.",
"5.a.s.z.P.z.z.P.a.5.0._ # Y.&X<X6X=X X'.@X&Xc &X: - k Q.Z (./.(.(.(.(.(.(.(.(./.r # R 4.{ [ [ 6.] [ S.z.z.K.C.S.z.z.P.F.z.P.z.z.",
"5.a.l.h.h.h.h.5.} @.[ H.6 n &X&X-X'. X`.[.`.O m.: r C ~.!.(.`.(.(.(.(.(.(.(./.g # # # > v.z.| [ J.F...P.P.P.P.z.z.z.P.P.z.z.P.P.",
"P.a.5.5.5.5.a.7.v.z.v.z.i.: Y.&X&X%X).`.`./.O I = < C C Q.(.(./.(.(.(.(.(./.k * # # $ # k.z.z.z.z.P.P.P.k.f.j.z.P.5.5.h.z.j.O.j.",
"5.5.5.5.s.z.z.P.z.z.z.5.s.>.* Y.&X%X(.(.`./.c J $ # f C C A (.`.(.(.(.`.(.k # $ =.# $ #.a.5.z.z.a.w.d.j.O.+.+.w.l.5.5.q.6.+.+.r.",
"5.5.a.z.h.5.z.z.z.a.5.5.5.z.=.$ I.&X.X`.`.e J + $.; # t C C j z A z A g r # # %.z.0 # 9 6 4.h.z.e.+.O.+.O.+.+.w.w.5.+.+.+.B.+.+.",
"5.5.a.e.5.5.5.w.5.5.5.5.q.4.r.E + U..X(.e 5 + ! o.X.> # # # # # * @ # # # R 5.5.e.a.# # 2.4.4.q.+.+.) +.+.+.+.+.O.+.O.+.q.e.e.+.",
"5.5.5.+.6.5.5.5.5.5.5.5.5.+.+.+.R O '.e K O ~ +.+.5.o.T 6 + * w T T T 5.0.+.w.5.5.5.T 5.5.e.6.) +.9.e.5.+.e.q.+.+.+.q.6.q.5.5.5.",
"0.5.+.+.+.5.5.5.5.5.5.h.s.5.e.w.5.R @ @ 8 %.e.w.e.5.5.w.9 # # T B.) 5.6.+.+.7.4.5.5.5.5.5.z.5.4.w.e.5.5.e.5.5.5.w.w.5.5.w.e.5.5.",
"O.+.+.+.+.+.V.e.5.e.z.z.z.z.z.z.z.z.R * %.e.9.+.q.5.5.5.Y * = U X./ / / / X.o.6.5.e.e.l.z.z.z.z.z.z.z.s.5.e.w.w.+.6.e.5.5.5.5.5.",
"+.+.+.+.O.+.O.+.9.e.a.P.z.z.z.z.V.+.+.+.+.+.o.+.o.( / E E > # 9 E E E E E E E ~ X.) w.a.z.z.z.z.z.H.O.+.B.O.+.+.+.+.+.B.O.+.6.+.",
"q.q.V.} ' O.q.e.5.s.l.z.z.z.a.q.w.5.q.q.) +.+.o.E E W E S 2 * # R R R R S _ E ! R $.2.l.l.z.z.h.q.q.5.e.q.9.+.O.+.+.O.O.+.O.{ [ ",
"[ @...G.[ [ w.e.z.z.z.z.P.l.5.5.5.w.9.O.+.o.+.E E E S S 2 7 t 2 S S _ S -.Q S Q ,.1.>.g.z.z.P.5.5.5.e.q.+.O.+.+.O.O.O.@.[ } [ [ ",
"z.F.z.z.k.F.F.s.5.5.5.h.z.z.a.s.5.5.5.5.9.9.o.E E _ S -.=.=.-.S =.>.;.;.>.>.-.-.=.%.$.2.s.z.z.a.s.5.5.5.e.9.9.+.+.+.+.{ C.j.z.K.",
"z.z.z.z.z.P.z.a.s.a.5.5.a.z.z.s.s.5.5.5.e.w.t.8.-.Q ;.=.=.u.;.>.>.>.>.>.>.>.&.u.=.*.*.5.5.5.z.z.s.s.5.5.5.5.5.9.d.F.S.C.P.z.P.P.",
"l.P.z.h.z.P.P.P.P.P.5.a.a.5.5.5.w.5.5.5.5.5.l.5.g.u.:.:.:.*.>.>.>.*.u.>.*.:.>.>.u.g.z.5.5.s.5.5.5.5.5.5.5.5.5.z.5.s.P.P.z.z.h.h.",
"5.a.5.5.z.P.P.P.P.P.s.P.P.z.s.a.s.a.5.5.5.5.5.5.5.5.a.k.4.,.%.1.,.$.$.%.$.p.g.k.P.P.z.s.z.P.z.s.s.s.s.a.5.5.5.5.5.5.5.5.z.s.5.5.",
"5.5.5.5.l.l.h.5.h.h.h.h.h.5.w.q.q.q.5.5.5.5.5.5.4.5.5.5.5.5.5.5.w.5.5.5.4.s.z.h.5.e.h.h.l.l.y.5.9.q.9.5.5.5.e.5.5.5.5.5.5.5.5.5.",
"5.5.5.5.5.5.5.5.5.5.5.5.w.0.O.O.+.+.9.O.+.w.5.a.z.h.e.5.5.5.5.w.q.5.5.5.5.5.4.4.5.5.5.5.5.5.q.+.+.O.+.6.+.+.w.e.a.z.z.w.5.5.5.5.",
"5.5.5.5.w.e.e.5.5.5.5.q.O.+.+.6.+.+.+.+.+.f.j.P.z.z.z.z.+.6.q.+.+.q.5.5.5.w.w.5.5.5.5.5.w.+.+.B.) +.+.+.+.+.B.j.z.z.z.z.z.r.+.w.",
"+.5.5.+.+.) e.+.q.5.B.B.+.9.5.5.5.+.6.5.6.B.+.B.z.d.B.) 5.+.B.5.w.+.w.5.7.+.O.w.9.6.5.6.B.6.+.5.5.5.9.+.w.w.B.+.B.j.z.B.B.9.9.+.",
"9.5.q.O.+.+.+.O.+.B.q.5.5.5.5.5.5.5.5.5.w.w.w.e.e.w.w.w.+.w.w.w.+.+.5.5.O.+.+.+.+.+.+.6.5.5.w.5.5.5.e.5.e.e.w.w.w.e.w.q.w.0.0.w.",
"+.+.+.+.5.5.w.w.5.5.5.5.N.} } w.} ' 5.z.K.v.{ { N.{ { +.+.+.O.+.+.+.+.+.O.5.5.e.w.5.5.5.5.w. .} V.N.} 5.a.z.H.{ [ r.{ { @.+.+.+."
};
