/* XPM */
static char *_c77f00857ec47e1887cdf088a1db673Kw5yCm4uC0CXR8ri[] = {
/* columns rows colors chars-per-pixel */
"64 64 229 2 ",
"   c None",
".  c #000017",
"X  c #000B2A",
"o  c #000528",
"O  c #03132B",
"+  c #09162B",
"@  c #151C2E",
"#  c #181D2F",
"$  c #1B1E32",
"%  c #1D242F",
"&  c #1E2333",
"*  c #1F2733",
"=  c #232A2F",
"-  c #22252F",
";  c #242433",
":  c #2B2C31",
">  c #23243A",
",  c #272A36",
"<  c #322C39",
"1  c #2A3632",
"2  c #373835",
"3  c #332A2A",
"4  c #463D3C",
"5  c #3C4A34",
"6  c #334539",
"7  c #364837",
"8  c #3D553E",
"9  c #4C4C37",
"0  c #454837",
"q  c #455335",
"w  c #47593A",
"e  c #565739",
"r  c #50493C",
"t  c #516237",
"y  c #536439",
"u  c #596A3A",
"i  c #5F723B",
"p  c #4E653E",
"a  c #65643D",
"s  c #6C6B3F",
"d  c #62743B",
"f  c #677B3D",
"g  c #70703F",
"h  c #2D2C44",
"j  c #2C2542",
"k  c #332A48",
"l  c #3E3955",
"z  c #352C4F",
"x  c #4A3A46",
"c  c #433D5B",
"v  c #44335C",
"b  c #503950",
"n  c #483C61",
"m  c #563E70",
"M  c #554943",
"N  c #435C41",
"B  c #524945",
"V  c #635448",
"C  c #675B50",
"Z  c #755F57",
"A  c #4C6A45",
"S  c #4A6543",
"D  c #526C44",
"F  c #58784A",
"G  c #5A7E5C",
"H  c #71634B",
"J  c #687943",
"K  c #787642",
"L  c #786A58",
"P  c #696A50",
"I  c #4D4166",
"U  c #5A4275",
"Y  c #54436E",
"T  c #785375",
"R  c #6D4C73",
"E  c #74726D",
"W  c #89765A",
"Q  c #927C5D",
"!  c #837058",
"~  c #887664",
"^  c #967A6A",
"/  c #947968",
"(  c #817E73",
")  c #6E843F",
"_  c #5C8152",
"`  c #68874A",
"'  c #758B42",
"]  c #778745",
"[  c #76954D",
"{  c #7C9648",
"}  c #668B56",
"|  c #6B9154",
" . c #6B9459",
".. c #729452",
"X. c #729D5D",
"o. c #799856",
"O. c #748757",
"+. c #7CA259",
"@. c #6D986E",
"#. c #789C6C",
"$. c #6A9572",
"%. c #769871",
"&. c #6F8764",
"*. c #76A564",
"=. c #79A663",
"-. c #7BA962",
";. c #7DA169",
":. c #74A269",
">. c #888748",
",. c #928E4A",
"<. c #839C46",
"1. c #829C4C",
"2. c #8B9A49",
"3. c #939C4B",
"4. c #9C9C4E",
"5. c #96924C",
"6. c #899556",
"7. c #989A55",
"8. c #A19E50",
"9. c #A09C4F",
"0. c #8AA549",
"q. c #8EAB4C",
"w. c #87A147",
"e. c #92AE4B",
"r. c #9AA84D",
"t. c #95B24C",
"y. c #99B64D",
"u. c #9BB94E",
"i. c #84AD5D",
"p. c #8AAE5C",
"a. c #88A856",
"s. c #97AB5D",
"d. c #8FB257",
"f. c #8CB159",
"g. c #94B554",
"h. c #99B653",
"j. c #9AB850",
"k. c #94B25A",
"l. c #9CB25B",
"z. c #A7A853",
"x. c #B2AE56",
"c. c #A3B655",
"v. c #A3B951",
"b. c #ABB954",
"n. c #A4B35D",
"m. c #ACB55C",
"M. c #AEB556",
"N. c #B2BA56",
"B. c #B5B65C",
"V. c #B9B65C",
"C. c #B6BA58",
"Z. c #BEB95B",
"A. c #BDBA5B",
"S. c #B3B156",
"D. c #8B8768",
"F. c #9C8369",
"G. c #889E6E",
"H. c #939772",
"J. c #A4896B",
"K. c #AB926C",
"L. c #B89C73",
"P. c #A99071",
"I. c #82A566",
"U. c #83AA61",
"Y. c #8BAB61",
"T. c #8DA26B",
"R. c #85A26A",
"E. c #93AE61",
"W. c #9AAF61",
"Q. c #9AA769",
"!. c #96A56A",
"~. c #9BB060",
"^. c #A4AC65",
"/. c #AAAF63",
"(. c #A0A968",
"). c #ACB162",
"_. c #ACB26D",
"`. c #B2B361",
"'. c #B5B867",
"]. c #BDA176",
"[. c #C0BB5B",
"{. c #C7A97C",
"}. c #CDB07E",
"|. c #6E4E8B",
" X c #684A85",
".X c #765295",
"XX c #795497",
"oX c #7B5797",
"OX c #75508D",
"+X c #865C97",
"@X c #936398",
"#X c #9A6898",
"$X c #8E608F",
"%X c #A36E9A",
"&X c #A9719A",
"*X c #A7709A",
"=X c #B1918C",
"-X c #BAAC8D",
";X c #B9B9BB",
":X c #94938B",
">X c #CDAE81",
",X c #CAB485",
"<X c #D5B583",
"1X c #D7BB89",
"2X c #C6B394",
"3X c #C7B8A5",
"4X c #CCB6A3",
"5X c #DCC38E",
"6X c #DAC796",
"7X c #DAD19E",
"8X c #CEC896",
"9X c #E2CC98",
"0X c #E4D39D",
"qX c #DBC6AA",
"wX c #EADBA6",
"eX c #E3D4B4",
"rX c #EEE2AB",
"tX c #ECE0A7",
"yX c #F1E6B9",
"uX c #F0E3B1",
"iX c #BDBDC0",
"pX c #C0BFC4",
"aX c #DCD6CB",
"sX c #F3E9C7",
"dX c #F3EAD8",
"fX c #F9F5E9",
"gX c #FFFEFE",
"hX c #FCFBF5",
"jX c #E4E4E4",
/* pixels */
"    @ @           6 N @       @ @       a 9 % t @ @       @ @     0 a 6 6 9 a @ @   K s   @ @   % t       0 K -       @ @       ",
"    ' u.w t 5 % t _ =.w ,.K 9 x.,.6 } D A.4.' y.9 5.u { q X._ @ = x.A.o.o.z.A.N X.,.C.C.9 a A.4.d u.y F 6 9.A.a @ @ % { e.q     ",
"  @ d u.q.y.y.d u.z.l.4.A.5.z.A.>.y +.r.A.x.u.0.r.b.a.u.u.h.J x.z.5.A.B.V.A.5.7.A.S.b.v.u.2.x.b.2.y.q.Y.x.8.x.4.A.,.F u.u.d     ",
"& F F } d.u.u.0.v.v.N.C.C.b.C.N.N.z.r.A.A.A.b.b.v.u.h.h.u.u.b.b.C.A.b.C.C.b.C.b.A.A.A.C.b.b.u.u.u.u.u.b.v.N.C.C.z.s X.k.f i %   ",
"= =.i.u.u.j.u.u.u.u.u.u.v.u.v.u.u.u.v.C.b.N.C.C.b.n.c.v.u.u.u.u.u.v.u.v.u.u.u.u.N.N.b.C.C.N.v.c.n.u.u.u.u.u.v.v.e.d.-.d.u.u.d   ",
"  N p p.p.-.-.-.h.b.A.b.v.h.g.f.u.u.u.u.u.u.u.j.F A A D -.k.b.C.N.v.g.j.p.j.u.u.u.u.u.u.u.f.-.-.-.-.U.b.C.C.b.h.h.-.i.u.{ f %   ",
"  ' e.q.u.d.i.d.i.l.N.c.k.p.k.k.g.j.U.i.d.g.` @ > .Xm O O D a.M.m.l.f.f.h.f.u.i.-.g.d.j.f.i.h.u.i.f.p.i.m.M.c.d.i.h.i.h.u.t     ",
"  f <.0.u.<.u.c.Y.U.p.I.i.i.p.-.i.i.i.f.i.D @ > U @X&X&X&XT b y  .p.-.f.-.-.d.-.d.i.p.d.u.k.p.h.k.u.l.I.p.I.U.-.f.i.-.-.i.F     ",
"  0 K K K 5.z.A.Z.G.G.`.!.E.i.p.f.-.d.g.i > n XX@X+X*X#X.X%X&X@Xb 6.l.i.p.d.-.i.g.h.u.k.Y.Q.Q.T.!.C.A.`.%.^.^.W.U.f.f.i.-.3.>.- ",
"a A.z.n.n.V.m.W.U.m.m.v.C.C.N.u.h.Y.W.] @ v .X.XoX&X&X&X&X#X&X&X%Xv z.C.u.u.p.E.n.n.m.n.C.B.~.B.B.m.U.W.n.b.b.C.C.v.u.d.E.V.S.: ",
"= s q.u.d.p.i.-.-.-.-.p.g.f.f.u.u.u.u.@ > |..X.XoX&X&X&X&X@X@X&X&XOX@ p.h.u.u.u.u.u.v.v.u.u.h.d.i.-.-.-.-.-.d.d.p.d.u.u.f.| ;   ",
"  0 2.j.g.f.i.d.h.-.U.f.k.n.B.j.u.u.u.@ k .X.X|.> ; ; $X*X&X&XT *X&Xz a c.u.u.u.u.b.C.C.N.u.h.g.i.i.h.d.-.i.k.k.B.m.u.u.u.u.{   ",
"y y.c.j.u.u.u.u.u.u.j.m.m.m.n.C.b.v.h.@ U .X X& & & @ @ , *X&XT R &X$Xw C.N.v.v.h.u.v.u.b.v.u.u.u.u.u.u.u.h.m.m.n.m.N.b.v.j.y.: ",
"q y i.i.d.u.u.u.u.h.p.f.h.i.-.-.-.-.-.@ c .X|.n c c l @ @ < #X&Xm T #X$ =.-.-.-.-.-.i.f.g.j.u.u.u.u.u.u.g.i.g.d.U.-.-.-.-...J @ ",
"  q.u.u.u.k.I.U.h.I.U.u.v.b.i.h.h.f.i.J h Y .XI c c c > @ @ U #XT R I $ p.u.f.f.f.d.u.u.u.u.u.u.p.I.p.p.I.p.u.b.v.i.u.d.d.` %   ",
"% { ' 1.I.G.V.Q.#.`.`.n.A.A.B.h.u.v.N.M.@ > c c c c > : 7.@ & .Xc U I > h.u.v.b.N.A.N.u.U.I.p.#.Q.`.T.G.Z./.m.A.A.n.u.u.b.c.0   ",
"  q 4.8.`.Q.Z.[.A.A.C.A.A.B.A.C.v.b.b.b.y.@ @ @ @ @ : /.A.K @ XXO |.> a A.v.v.b.b.v.I.G.Q.^.T.`.^.A.A.A.A.C.A.V.V.A.b.u.v.r.x.a ",
": y.u.A.N.m.m.-.l.b.u.h.E.-.C.C.b.u.v.C.).`.S.3.4.4.m.J D @ + U >  X@ J C.N.v.u.b.B./.Z.b.C.A.b.m.~.-.n.v.j.l.Y.s.C.N.v.v.b.W @ ",
"  f u.b.d.-.-.-.i.d.p.-.p.-.p.j.u.v.N.u.C.N.u.u.b.J @ Z / + l > @ & J.Q . ' u.N.v.b.C.v.u.v.b.i.-.-.-.f.k.U.,X_.-.k.u.u.v.m.q.w ",
"@ ' d.i.-.h.f.f.i.-.i.i.j.u.u.u.u.j.f.j.u.u.u.g.F @ F.dXaXiXpX;X;X;XgXhX;X@ ' d.g.u.u.u.h.f.U.U.j.i.d.-.-.}.<X'.u.u.u.u.{ F u.u ",
"' y.v.b.b.b.u.u.u.g.j.u.u.u.j.i.i.U.-.d.j.u.v.z.@ V ; . 1XfXfXdXdXdX5X1XP.W = *.i.h.u.u.N.N.v.b.b.u.u.j.<XeX3X{ u.g.-.f.=.1 w @ ",
"f e.b.A.B.p.i.i.-.-.-.i.-.p.-.-.-.-.-.-.U.d.b.# @ / F.0XrXrXrXrXyXsXsXsX9X<X4 X.-.-.i.c.C.A.A.m.i.i.-.}.eXgX:X} i.=.-.-.X.X.h.' ",
"  e x.N.u.u.d.i.-.-.-.:.#.$.$.;.U.I.%.#.u.b.V.% 2 ^ P.<XwXrXdXfXfXhXgXgXhXwX>X* @.d.v.C.A.A.v.j.j.f.2 qXgXhXD.G $.@.;.0.F ` u.' ",
": V.A.N.b.u.u.k.i.-.*.%.^.V.G.`.`.`.Z.Q.m.v.w.@ / ^ }.<XwXrXrXrXrXrXsX, 1XrXwXM 7./.b.u.b.A.b.v.u.).W hXgXyXD.,.`.G.V.8.S.a i 1 ",
"- 8.M.b.u.v.u.u.v.b.V.`.A.C.Z.A.A.A.A.A.C.A.<.@ ~ ^ <X<X<X1XrXrXrXuXsX& C 1XyXC 2 A.C.b.u.v.b.v.y.{.fXhXqXwXD.4.C.Z.C.A.C.>.K 0 ",
"2 ' d r.b.b.v.u.u.u.u.v.N.u.b.u.u.v.b.A.C.A.@ 4 / F.<X<X<X<X0XwXrXgXgX* & <XuXL : A.C.C.C.C.b.b.0.E hXfX<X5XD.2.u.b.u.v.u.c.A.K ",
"u y.e.d.-.-.d.f.j.v.b.u.u.u.j.h.y.y.u.u.u.u.@ x ^ J.<X<X<X<X<X9XrXyXyX& @ }.5XfX: u.u.u.j.j.i.-.@ eXyX1X<XD.= u.u.j.u.u.u.e.4.1 ",
"@ 2 0.h.d.i.-.-.E.m.A.B.l.i.p.* , 7 d.h.u.{ @ x ^ <X<X<X<X<X<X9XrXuXgX* @ r <XwX+ w.j.u.d.-.p.[ P rXtX<X<X< 4.p.i.p.i.h.j.o.1   ",
"@ N 0.p.g.h.h.j.k.g.j.g.k.g.g.@ L.H 6 -.-.| @ , B ^ P.>XQ H H L L ( E @ @ @ + O @  .-.k.j.j.u.O 7XtX<X<XW % g.d.h.g.f.d.i.*.7   ",
"S *.$.@.p.#.l.C.^.%.#.T.*.-.=.@ O {.{.X { t.@ @ ! ^ <X<X<X6X~ O @ @ @ @ @ @ + -XC @ j.u.h.R.} L rXP.<X<X2 &.R.I.-.-.-.-.-.1.w.2 ",
"1 F D z.B.Z.Z.B.n.`./.N.V.B.h.$ z X ].{.o 5 @ @ C ^ <X<X<X5XwXuX2X2X3Xo @ @ }.sX2X+ h.!.^.Z.X 8X7XM <XQ & C.C.Z.m.j.u.k.-.p.e.w ",
"= w.' p.Y.l.U.-.-.U.d.h.v.c.c.$ XX Xz L.{.W + @ : ^ ^ ^ >X<X<X9XrXyXgXjX@ r 1XdXwXX b.v.v.{ P rX~ <X<X2 +.k.j.j.c.v.u.g.c.b.z.= ",
": t.u.u.u.d.i.i.i.-.-.-.i.Y.s.$ XX.XXXT L J.P.W X ; ^ ^ <X<X<X<XrXrXtXjX@ <XdXuX9XX ,.z.v.+ -X7X4 <XJ.= -.-.-.i.W.k.u.u.u.q.t.= ",
"1 { u.u.u.u.h.u.u.d.g.b.C.C.V.$ XX.X.X.X=XK.K.].9XF.H.0 F.<X<X<X9XrXyXaX3 <XrXrXL @ R b g M 5X2 F.<X< q.d.j.N.N.C.C.v.u.y.5 w @ ",
"w y.t.d.d.h.d.u.u.j.f.Y.k.U.=.$ XXXX+XoX<X<XL H o 2X0XP # }.<X<X9XrXrXdXgXuXrXwXO z #X@XO K.K.: <XK.6 u.h.i.p.p.-.Y.n.l.a.*.g.u ",
"  q o.h.d.g.g.j.u.g.g.u.u.j.+.$ XX.X+X+X5X5X<X<X{.; ,XV @ # + ].9XrXrXsXsXwX<XM $ @X> m r <XO C {.: t.j.k.h.u.j.g.-.f.i.-.} ' 2 ",
"  w t.u.t.#.Q.%.;.T.T.k.C.A.l.$ XX.XXX@XwXwX1X<X<X4 7XV @ @ @ @ - 7XwXrXrXwXB l > *X+X> Q F., ^ L 6 #.#.Q.T.j.A.C.k.u.u.u.h.= @ ",
"# K K q K ,.A.Z.).A.A.V.A.A.A.$ oX.X.X@X4X<X1X<X<XM {.V @ c & $ @ @ 2 ~ 8X2 > c & R XX.Xj @ M / & @ 0 `.A.A.V.A.A.C.v.v.b.z.z.e ",
"s A.A.x.A.A.A.n.B.C.v.b.B.E.V.; <X:XoXXX-X0XrX<X<X^ {.V # .Xn c c $ @ @ @ > I |.c @ j .X Xc $ @ > n |.9 N.v.C.n.n.A.C.b.u.u.c.e ",
"e c.u.A.j.U.U.-.f.j.h.i.-.-.h.; <X<X7X3X=X<X<X<X<XF.>XV @ |..XOXc c l $ > c .XI > ; / - k n c l @ > k 6 u.d.-.-.U.v.v.u.v.3.f @ ",
"@ f d.d.-.i.U.-.-.-.-.-.j.g.p.; <X<XtXrX3X=X<X<X<XF.>XV @ I XX.X.X|.c c c |.Y j @ ! ^ >XQ @ > c l l 1 =.-.-.i.j.d.d.u.u.v.j.y.= ",
"] u.u.h.d.u.h.j.j.d.g.h.h.u.y.@ L.<X6XtX4X#X+X=X<XM >XV @ |..X.X.X.X.X|.|.U v @ @ ! {.<X<XJ.@ @ > @ <.g.f.j.k.u.u.u.d.j.i.=.f   ",
"<.u.y.N.A.m.g.g.d.i.f.h.d.j.d.8 H <X<X1X2X&X+X%XoX< P.V @ c Y |.XXXXXXXX.Xv @ @ @ B P.<X<X<XO e 1.{ d.p.i.k.g.g.j.i.-.-.i.a.o.F ",
"5 w q x.h.g.d.i.-.-.-.=.=.@.@.i.@ {.<X<X>XoX+X.X.X> / M @ h h h h h h h @ @ * @.1 @ B V Q H @ k.g.p.-.-.-.-.=.*.@.#.} _ +.f.u.<.",
"8  .S r.u.u.g.U.-.-.-.@.#.!.$.G.O.o {.<X<X.X.X.X.Xh / < @ @ @ @ @ @ @ @ 1 O.R./.@ c > @ @ e <.u.j.d.-.-.-.*.@.T.T.%.5.,.a K f 2 ",
"S =.i.+.i.g.u.u.h.l.W.!.A.A.).A.A.4.o {.<X-X.X.Xm / : @ @ @ ] s.G.K @ @ >.A.A.V.@ h > { u.N.C.b.u.u.u.k.l.T.).A.A.).A.A.[.A.e   ",
"@ J N.v.u.u.u.u.v.u.b.C.C.v.C.b.b.N.3.o {.-X.XU < ; y <.1 @ u 2.3.@ @ 1 3.2.4.c.>.K K C.b.N.u.u.u.u.u.v.u.N.C.N.b.C.b.C.b.b.S.: ",
"q t.z.v.l.l.j.u.u.u.u.u.v.u.v.u.u.u.v.3.X =XU C ; e 1.] 5 @ @ <.{ @ @ ' <.<.<.<.3.z.b.N.N.b.c.l.l.u.u.u.u.u.u.u.u.v.u.u.u.y.>.- ",
"5 u o.-.-.-.-.-.l.N.A.N.c.g.d.i.u.u.u.u.<.# @ L w } } 6 6 5 0 8.] 0 5 5 w { <.<.<.<.t.u.u.i.-.-.-.-.-.b.C.A.b.h.h.p.d.u.u.t.i @ ",
"  * o.h.u.d.p.k.f.k.b.l.k.d.g.g.g.h.-.i.f.[ @ w [ <.<.| { ..[ 3.2.1.[ [ <.[ <...| [ a.h.d.f.j.u.i.k.d.f.c.b.l.d.f.j.d.j.d.f.y.1 ",
"  e a f q.Y.u.m.R.;.Y.;.U.i.i.-.i.i.p.k.f.k.q.<.....[ { 2.o.} ..} ..| ..} | [ | { ..d.g.u.p.Y.k.p.v.n.#.Y.;.I.-.i.U.-.f.-.d.S % ",
": S.A.x.z.).B.A.A.T.T.V.^.W.f.d.d.-.f.d.h.u.Y.T.7.6.6.6.8.8.6.&.4.6.6...[ { | ..a.k.u.p.Y.^.^.Q.Q.C.A.V.#./.).).Y.d.k.i.-.f. .A ",
": r.j.l.n.B.n.E.U.n.n.u.N.C.N.u.h.E.n.m.m.m.m.C.n.W.S.n.6.} 6.6.<.3.3.4.y.y.p.l.m.m.m.n.C.m.E.m.m./.U.E.n.v.v.N.C.b.u.d.p. .A   ",
"  7 e.u.g.f.i.-.-.-.-.i.d.i.i.u.u.u.u.u.u.b.v.u.u.h.d.p.-.-.-.-.i.f.i.i.g.u.u.u.u.u.v.v.u.u.j.g.p.-.-.-.-.-.i.f.i.d.u.u.u.e.= @ ",
"= 5.r.j.k.f.p.g.j.-.i.k.l.m.V.v.u.u.u.v.C.C.C.N.u.g.d.p.d.u.i.-.d.l.l.A.b.u.u.u.u.N.C.C.C.v.h.g.p.p.j.d.-.p.h.h.V.N.u.u.u.w.t.y ",
"= r.v.u.u.u.u.u.u.u.h.n.n.n.~.C.N.b.h.h.j.u.u.v.u.u.u.u.u.u.u.u.l.n.n.E.B.C.b.c.g.u.u.u.v.v.u.u.u.u.u.u.u.g.n.n.W.m.C.b.b.1.f   ",
"  + ` -.p.h.u.u.u.h.d.d.j.p.-.-.-.-.-.-.-.i.f.g.u.u.u.u.u.u.j.d.d.j.d.-.-.-.-.-.-.-.i.i.g.j.u.u.u.u.u.u.g.p.h.g.i.-.-.-.-.+.q   ",
"  e S.A.l.Y.;.I.k.;.I.u.b.N.i.h.j.d.f.g.h.u.u.u.u.u.g.I.;.k.I.;.g.v.C.h.d.u.d.d.d.g.u.u.u.u.u.u.U.;.p.p.;.p.u.N.b.i.u.i.d.u.<.  ",
": x.A.A.A.W.A.^.G.V.B.n.A.A.V.j.u.b.C.C.A.v.g.;.I.I.%.B.`.G./.A./.C.A.A.h.u.v.N.C.A.b.u.I.;.U.#.(.V.Q.T.A.`.m.A.A.M.h.-.X.` 5   ",
": x.>.v.v.b.C.C.A.A.N.C.A.B.A.C.v.b.b.b.j.#.#.B.Q./.`.`.A.A.A.C.C.A.B.A.A.b.v.b.v.v.I.T.^./.Q.B./.A.A.A.C.N.A.V.V.A.Y.@.*.=.N   ",
"  @ q 0.h.u.j.g.c.b.u.k.Y.-.N.N.v.u.v.C.`.V.C.b.C.C.c.n.U.U.b.u.g.l.-.c.N.b.v.b.N.B.`.A.b.N.C.c.n.E.-.c.v.h.k.U.E.~.*.:.@._ 6   ",
"  = e.u.o.u.` =.+.+.o.-.d.i.i.e.u.t.r.u.b.b.u.u.t.1.-.-.-.-.[ f.=.| f.-.g.u.v.x.q.b.b.u.a.| d ` =.X.| i.a.-.-.d.D h.h.0.k.d     ",
"    <.y.t i % A A =.} u e.) u.d e.u.d ) u.u.<.y.d q.e.+.+.d.+.6 w ' y.) y.] C.K y.e.u.y.} =.8 ..u.D _ X.A d.' ' 5 t t <.u.'     ",
"    @ @         7 } A @ @ % ' q q d % % <.e.q y = ' i A A ' i @   q y   @ @ @ % ' q e.<.% @ @ 5 y     @ % ' i @       q d %     "
};
