/* XPM */
static char *_755803c2dad40f6b722571535622099kThXn8P15brlju4H[] = {
/* columns rows colors chars-per-pixel */
"64 64 230 2 ",
"   c None",
".  c #000017",
"X  c #000B2A",
"o  c #000528",
"O  c #02132B",
"+  c #08172D",
"@  c #151C2E",
"#  c #1A1D2F",
"$  c #10152E",
"%  c #1E1E31",
"&  c #211E2F",
"*  c #221F32",
"=  c #1D242F",
"-  c #1E2331",
";  c #1F2931",
":  c #232A2F",
">  c #23262F",
",  c #242431",
"<  c #2A2434",
"1  c #2B2C31",
"2  c #252E33",
"3  c #32243A",
"4  c #372734",
"5  c #2A3632",
"6  c #373835",
"7  c #332A2A",
"8  c #4D3138",
"9  c #6A353E",
"0  c #3C4A34",
"q  c #334539",
"w  c #364837",
"e  c #3D553E",
"r  c #4C4C37",
"t  c #454837",
"y  c #455335",
"u  c #47593A",
"i  c #565739",
"p  c #50493C",
"a  c #516237",
"s  c #526439",
"d  c #596A3A",
"f  c #5F723B",
"g  c #4E653E",
"h  c #65643D",
"j  c #6C6B3F",
"k  c #62743B",
"l  c #677B3D",
"z  c #70703F",
"x  c #3E2A41",
"c  c #462C45",
"v  c #523949",
"b  c #693D5B",
"n  c #653B58",
"m  c #713F5A",
"M  c #723A49",
"N  c #564843",
"B  c #435C41",
"V  c #524945",
"C  c #635448",
"Z  c #79415A",
"A  c #675B50",
"S  c #755F57",
"D  c #4C6A46",
"F  c #4A6543",
"G  c #526C44",
"H  c #58784A",
"J  c #5A7E5C",
"K  c #71634B",
"L  c #687943",
"P  c #787642",
"I  c #786A58",
"U  c #696A50",
"Y  c #74726D",
"T  c #833E43",
"R  c #894147",
"E  c #8E5153",
"W  c #A64F54",
"Q  c #AB5156",
"!  c #A15953",
"~  c #B65555",
"^  c #B85D59",
"/  c #B85957",
"(  c #A34D4E",
")  c #89765A",
"_  c #927C5D",
"`  c #866D58",
"'  c #BB675E",
"]  c #887664",
"[  c #967A6A",
"{  c #947968",
"}  c #817E73",
"|  c #BE6D62",
" . c #BD7264",
".. c #AA7060",
"X. c #C17968",
"o. c #6E843F",
"O. c #5C8152",
"+. c #68874A",
"@. c #758B42",
"#. c #778745",
"$. c #76954D",
"%. c #7C9648",
"&. c #668B56",
"*. c #6B9154",
"=. c #6B9459",
"-. c #729452",
";. c #729D5D",
":. c #799856",
">. c #748757",
",. c #7CA259",
"<. c #6D986E",
"1. c #7B9D6D",
"2. c #759C6B",
"3. c #6A9572",
"4. c #769871",
"5. c #6F8764",
"6. c #76A564",
"7. c #79A663",
"8. c #7BA962",
"9. c #7DA169",
"0. c #74A269",
"q. c #888748",
"w. c #928E4A",
"e. c #839C46",
"r. c #829C4C",
"t. c #8B9A49",
"y. c #939C4B",
"u. c #9C9C4E",
"i. c #96924C",
"p. c #899556",
"a. c #989A55",
"s. c #A19E50",
"d. c #A09C4F",
"f. c #8AA549",
"g. c #8EAB4C",
"h. c #87A147",
"j. c #92AE4B",
"k. c #9AA84D",
"l. c #95B24C",
"z. c #99B64D",
"x. c #9BB94E",
"c. c #84AD5D",
"v. c #8AAE5C",
"b. c #88A856",
"n. c #97AB5D",
"m. c #8FB257",
"M. c #8CB159",
"N. c #94B554",
"B. c #99B653",
"V. c #9AB850",
"C. c #94B25A",
"Z. c #9CB25B",
"A. c #A7A853",
"S. c #B2AE56",
"D. c #A3B655",
"F. c #A3B951",
"G. c #ABB954",
"H. c #A4B35D",
"J. c #ACB55C",
"K. c #AEB556",
"L. c #B2BA56",
"P. c #B5B65C",
"I. c #B9B65C",
"U. c #B6BA58",
"Y. c #BEB95B",
"T. c #BDBA5B",
"R. c #B3B156",
"E. c #8B8768",
"W. c #9C8369",
"Q. c #889E6E",
"!. c #939772",
"~. c #A4896B",
"^. c #AB926C",
"/. c #B89C74",
"(. c #AC8F70",
"). c #82A566",
"_. c #83AA61",
"`. c #8BAB61",
"'. c #8DA26B",
"]. c #85A26A",
"[. c #93AE61",
"{. c #9AAF61",
"}. c #9AA769",
"|. c #96A56A",
" X c #9BB060",
".X c #A4AC65",
"XX c #AAAF63",
"oX c #A0A968",
"OX c #ACB162",
"+X c #ACB26D",
"@X c #B2B361",
"#X c #B5B867",
"$X c #BDA176",
"%X c #C0BB5B",
"&X c #C5836E",
"*X c #C58B6D",
"=X c #CB9C76",
"-X c #C7A97C",
";X c #CFAD7E",
":X c #BDB085",
">X c #B9B9BB",
",X c #94938B",
"<X c #CEAD80",
"1X c #CAB485",
"2X c #D5B583",
"3X c #D7BA89",
"4X c #CEB489",
"5X c #C8BEA9",
"6X c #DCC38F",
"7X c #DBC695",
"8X c #DAD19E",
"9X c #CEC896",
"0X c #E2CC98",
"qX c #E4D39D",
"wX c #DBC6AA",
"eX c #EBDBA6",
"rX c #E3D4B4",
"tX c #EEE2AB",
"yX c #ECE0A7",
"uX c #F1E6B9",
"iX c #F0E3B1",
"pX c #BFBDC0",
"aX c #C7BFC4",
"sX c #DCD6CB",
"dX c #F3E9C7",
"fX c #F3EAD8",
"gX c #F9F5E9",
"hX c #FFFEFE",
"jX c #FCFBF5",
"kX c #E4E4E4",
/* pixels */
"    @ @           q B @       @ @       h r = a @ @       @ @     t h q q r h @ @   P j   @ @   = a       t P >       @ @       ",
"    @.x.u a 0 = a O.7.u w.P r S.w.q &.G T.u.@.z.r i.d %.y ;.O.@ : S.T.:.:.A.T.B ;.w.U.U.r h T.u.k x.s H q d.T.h @ @ = %.j.y     ",
"  @ k x.g.z.z.k x.A.Z.u.T.i.A.T.q.s ,.k.T.S.x.f.k.G.b.x.x.B.L S.A.i.T.P.I.T.i.a.T.R.G.F.x.t.S.G.t.z.g.`.S.s.S.u.T.w.H x.x.k     ",
"- H H &.m.x.x.f.F.F.L.U.U.G.U.L.L.A.k.T.T.T.G.G.F.x.B.B.x.x.G.G.U.T.G.U.U.G.U.G.T.T.T.U.G.G.x.x.x.x.x.G.F.L.U.U.A.j ;.C.k f =   ",
"2 7.c.x.x.V.x.x.x.x.x.x.F.x.F.x.x.x.F.U.G.L.U.U.G.H.D.F.x.x.x.x.x.F.x.F.x.x.x.x.L.L.G.U.U.L.F.D.H.x.x.x.x.x.F.F.j.m.8.m.x.x.k   ",
"  B g v.v.8.8.8.B.G.T.G.F.B.N.M.x.x.x.x.x.x.x.V.H D D H 8.C.G.U.L.F.N.V.v.V.x.x.x.x.x.x.x.M.8.8.8.8._.G.U.U.G.B.B.8.c.x.%.k =   ",
"  @.j.g.x.m.c.m.c.Z.L.D.C.v.C.C.N.V._.c.m.N.+.@ 4 ~ T O O G b.K.J.Z.M.M.B.M.x.c.8.N.m.V.M.c.B.x.c.M.v.c.J.K.D.m.c.B.c.B.x.a     ",
"  k e.f.x.e.x.D.`._.v.).c.c.v.8.c.c.c.M.c.G @ 4 R | &X&X&XE 8 s =.v.8.M.8.8.m.8.m.c.v.m.x.C.v.B.C.x.Z.).v.)._.8.M.c.8.8.c.H     ",
"  t P P P i.A.T.Y.Q.Q.@X|.[.c.v.M.8.m.N.f < M ~ ' ' &XX.~ X.&X| N p.Z.c.v.m.8.c.N.B.x.C.`.}.}.'.|.U.T.@X4..X.X{._.M.M.c.8.y.q.> ",
"h T.A.H.H.I.J.{._.J.J.F.U.U.L.x.B.`.{.#.@ 9 ~ ~ ^ &X&X&X&XX.&X&XX.9 A.U.x.x.v.[.H.H.J.H.U.P. XP.P.J._.{.H.G.G.U.U.F.x.m.[.I.R.1 ",
": z g.x.m.v.c.8.8.8.8.v.N.M.M.x.x.x.x.@ 3 Q ~ ~ ^ &X&X&X&X| | &X&X! @ v.B.x.x.x.x.x.F.F.x.x.B.m.c.8.8.8.8.8.m.m.v.m.x.x.M.*.,   ",
"  t t.V.N.M.c.m.B.8._.M.C.H.P.V.x.x.x.@ c Q ~ W 4 < < ..&X&X&XE &X&X8 h D.x.x.x.x.G.U.U.L.x.B.N.c.c.B.m.8.c.C.C.P.J.x.x.x.x.%.  ",
"s z.D.V.x.x.x.x.x.x.V.J.J.J.H.U.G.F.B.@ E ~ ( < < < # @ 4 &X&X! E &X..u U.L.F.F.B.x.F.x.G.F.x.x.x.x.x.x.x.B.J.J.H.J.L.G.F.V.z.2 ",
"y s c.c.m.x.x.x.x.B.v.M.B.c.8.8.8.8.8.@ b ~ Q m b b n # @ 4  .&XT E X.# 7.8.8.8.8.8.c.M.N.V.x.x.x.x.x.x.N.c.N.m._.8.8.8.8.-.L @ ",
"  g.x.x.x.C.)._.B.)._.x.F.G.c.B.B.M.c.L c E ~ Z b b b 3 @ @ R  .! E Z % v.x.M.M.M.m.x.x.x.x.x.x.v.).v.v.).v.x.G.F.c.x.m.m.+.=   ",
"= %.@.r.).Q.I.}.1.@X@XH.T.T.P.B.x.F.L.K.@ 3 b b b n 3 1 a.@ , ~ m E Z 3 B.x.F.G.L.T.L.x._.).v.1.}.@X'.Q.Y.XXJ.T.T.H.x.x.G.D.t   ",
"  y u.s.@X}.Y.%XT.T.U.T.T.P.T.U.F.G.G.G.z.@ @ @ @ @ 1 XXT.P + / O Q 3 h T.F.F.G.G.F.).Q.}..X'.@X.XT.T.T.T.U.T.I.I.T.G.x.F.k.S.h ",
"2 z.x.T.L.J.J.8.Z.G.x.B.[.8.U.U.G.x.F.U.OX@XR.y.u.u.J.L G @ + R x ( @ L U.L.F.x.G.P.XXY.G.U.T.G.J. X8.H.F.V.Z.`.v.U.L.F.F.G.) @ ",
"  l x.G.m.8.8.8.c.m.v.8.v.8.v.V.x.F.L.x.U.L.x.x.G.L @ S { + n 3 @ 3 ~._ . o.x.L.F.G.U.F.x.F.G.c.8.8.8.M.C.c.1X+X8.C.x.x.F.J.g.u ",
"@ @.m.c.8.B.M.M.c.8.c.c.V.x.x.x.x.V.M.V.x.x.x.N.H @ W.fXsXpXaX>X>X>XhXjX>X@ @.m.N.x.x.x.B.M._._.V.c.m.8.8.;X2X#Xx.x.x.x.%.H x.d ",
"@.z.F.G.G.G.x.x.x.N.V.x.x.x.V.c.c._.8.m.V.x.F.A.@ C , . 3XgXgXfXfXfX7X3X!.) 2 6.c.B.x.x.L.L.F.G.G.x.x.V.2XrX5X%.x.N.8.M.7.5 y @ ",
"l j.G.T.P.v.c.c.8.8.8.c.8.v.8.8.8.8.8.8._.m.G.# @ { W.qXtXtXtXtXuXdXdXdX0X2X8 ;.8.8.c.D.U.T.T.J.c.c.8.;XrXhX,X&.c.7.8.8.;.;.B.@.",
"  i S.L.x.x.m.c.8.8.8.0.2.3.3.9._.).4.2.x.G.I.= 6 [ (.2XeXtXfXgXgXjXhXhXjXeX<X; <.m.F.U.T.T.F.V.V.M.6 wXhXjXE.J 3.<.).f.H +.x.@.",
"1 I.T.L.G.x.x.C.c.8.6.<..XI.Q.@X@X@XY.}.J.F.h.@ { [ ;X2XeXtXtXtXtXtXdX2 3XtXeXN a.XXG.x.G.T.G.F.x.OX) jXhXuXE.p.@XQ.I.s.R.h f 5 ",
"> s.K.G.x.F.x.x.F.G.P.@XT.U.Y.T.T.T.T.T.U.T.e.@ ] [ 2X2X2X3XtXtXtXiXdX- A 3XuXA 6 T.U.G.x.F.G.F.z.-XgXjXwXeXE.u.U.Y.U.T.U.q.P t ",
"6 @.k k.G.G.F.x.x.x.x.F.L.x.G.x.x.F.G.T.U.T.@ 8 { W.2X2X2X2XqXeXtXhXhX; - 2XiXI 1 T.U.U.U.U.G.G.f.Y jXgX2X6XE.t.x.G.x.F.x.D.T.P ",
"d z.j.m.8.8.m.M.V.F.G.x.x.x.V.B.z.z.x.x.x.x.@ v [ ~.2X2X2X2X2X0XtXuXuX- @ -X6XgX1 x.x.x.V.V.c.8.@ rXuX3X2XE.2 x.x.V.x.x.x.j.u.5 ",
"@ 6 f.B.m.c.8.8.[.J.T.P.Z.c.v.; < w m.N.x.%.@ v [ 2X2X2X2X2X2X0XtXiXhX; @ p 2XeX+ h.V.x.m.8.v.$.U tXyX2X2X4 u.v.c.v.c.B.V.:.5   ",
"@ B f.v.N.B.B.V.C.N.V.N.C.C.N.@ /.K q 8.8.*.@ < V [ (.<X_ K K I I } Y @ @ @ + O @ =.8.C.V.V.x.O 8XyX2X2X) = N.m.B.N.M.m.c.6.w   ",
"F 6.3.<.v.1.Z.U..X<.1.'.9.8.7.@ O $X-XX %.l.@ @ ` [ 2X2X2X7X] O @ @ @ @ @ @ + :XA @ V.x.B.].&.I tX!.2X2X6 5.].8.8.8.8.8.8.r.h.6 ",
"5 H D A.P.Y.Y.P.H.@XXXU.I.P.B.# 8 X $X-Xo 0 @ @ A [ 2X2X2X6XeXiX1X1X5Xo @ @ ;XdX4X+ B.'..XY.X 9X8XN 2X_ - U.U.Y.J.V.x.C.8.v.j.u ",
": h.@.v.`.Z._.8.8._.m.V.F.D.D.& / ( 8 /.-X) + @ 1 [ [ [ <X2X2X0XtXuXhXkX@ p 3XfXeXX G.F.F.%.U tX] 2X2X6 ,.C.V.V.D.F.x.N.D.G.A.: ",
"2 l.x.x.x.m.c.c.c.8.8.8.c.`.n.& ~ ~ ~ E I ~.(.) X , [ [ 2X2X2X2XtXtXyXkX@ 2XfXiX0XX w.A.F.+ :X8Xt 2X~.2 8.8.8.c.{.C.x.x.x.g.l.2 ",
"5 %.x.x.x.x.B.x.x.m.N.G.U.U.I.& ~ ~ ~ ~ =X^.^.$X0X{ !.t W.2X2X2X0XtXuXsX7 2XtXtXI @ E 8 z N 6X6 W.2X6 g.m.V.L.L.U.U.F.x.z.0 u @ ",
"u z.l.m.m.B.m.x.x.V.M.`.C._.7.& ~ ~ ' ^ 2X2XI K o 1XqXU # ;X2X2X0XtXtXfXhXiXtXeXO 8  .| O ^./.1 2X^.6 x.B.c.v.v.8.`.H.Z.b.6.N.d ",
"  y r.B.m.N.N.V.x.N.N.x.x.V.,.& ~ ~ ^ ^ 6X6X2X2X-X, 4XC @ # + $X0XtXtXdXdXeX2XN , | 4 T t 3XO A -X1 l.z.C.B.x.V.N.8.M.c.8.&.@.6 ",
"  u l.x.l.1.}.4.9.'.'.C.U.T.Z.& ~ ~ ~  .yXeX3X2X2X8 8XC @ @ @ @ , 8XeXtXtXeXV n , &X' 4 _ W.< [ I q 1.1.}.'.V.T.U.C.x.x.x.B.: @ ",
"# P P y P w.T.Y.OXT.T.I.T.T.T.& / ~ ~  .3X2X3X2X2XN -XC @ b < * @ @ 6 ] 9X6 3 b < ( ~ ~ 8 @ N { , @ t @XT.T.I.T.T.U.F.F.G.A.A.i ",
"j T.T.S.T.T.T.H.P.U.F.G.P.[.I., 2X&X/ / <XqXtX2X2X[ -XC # ~ m b n * @ @ @ 3 Z Q n @ 4 ~ W b * @ 3 m W r L.F.U.H.H.T.U.G.x.x.D.i ",
"i D.x.T.V._._.8.M.V.B.c.8.8.B., 2X2X7X3X=X2X2X2X2XW.<XC @ W ~ Q b b n * 3 b ~ Z 3 , ] - 8 m b n # < 8 q x.m.8.8._.F.F.x.F.y.k @ ",
"@ l m.m.8.c._.8.8.8.8.8.V.N.v., 2X2XyXtX3X*X2X2X2XW.<XC # Z ~ ~ ~ Q b b b Q E x @ ` [ <X_ @ 3 n n v 5 7.8.8.c.V.m.m.x.x.F.V.z.: ",
"#.x.x.B.m.x.B.V.V.m.N.B.B.x.z.@ /.2X7XyX7XX.^ *X2XN <XC # Q ~ ~ ~ ~ ~ W Q E 9 @ @ ` -X2X2X~.@ @ 3 @ e.N.M.V.C.x.x.x.m.V.c.7.l   ",
"e.x.z.L.T.J.N.N.m.c.M.B.m.V.m.e K 2X2X3X<X&X' X./ 4 (.C @ b Z W ~ ~ ~ ~ ~ 9 @ @ @ V ~.2X2X2XO i r.%.m.v.c.C.N.N.V.c.8.8.c.b.:.H ",
"0 u y S.B.N.m.c.8.8.8.7.7.<.<.c.@ -X2X2X;X^ ' ~ ~ 4 { N # c c c c c c c + @ ; <.5 @ V C _ K @ C.N.v.8.8.8.8.7.6.<.2.&.O.,.M.x.e.",
"e =.F k.x.x.N._.8.8.8.<.1.|.3.Q.>.o -X2X2X~ ~ ~ ~ 8 { 4 @ @ @ @ @ @ @ @ 5 >.].XX# b 3 @ @ i e.x.V.m.8.8.8.6.<.'.'.4.i.w.h P l 6 ",
"F 7.c.,.c.N.x.x.B.Z.{.|.T.T.OXT.T.u.o -X2X=X~ ~ R { 1 @ @ @ #.n.Q.P @ @ q.T.T.I.@ c 3 %.x.L.U.G.x.x.x.C.Z.'.OXT.T.OXT.T.%XT.i   ",
"@ L L.F.x.x.x.x.F.x.G.U.U.F.U.G.G.L.y.X -X=X~ R 6 , s e.5 @ d t.y.@ @ 5 y.t.u.D.q.P P U.G.L.x.x.x.x.x.F.x.L.U.L.G.U.G.U.G.G.R.1 ",
"y l.A.F.Z.Z.V.x.x.x.x.x.F.x.F.x.x.x.F.y.X (.R A , i r.@.0 @ @ e.%.@ @ @.e.e.e.e.y.A.G.L.L.G.D.Z.Z.x.x.x.x.x.x.x.x.F.x.x.x.z.q.> ",
"0 d :.8.8.8.8.8.Z.L.T.L.D.N.m.c.x.x.x.x.e.# @ I u &.&.q q 0 t s.#.t 0 0 u %.e.e.e.e.l.x.x.c.8.8.8.8.8.G.U.T.G.B.B.v.m.x.x.l.f @ ",
"  ; :.B.x.m.v.C.M.C.G.Z.C.m.N.N.N.B.8.c.M.$.@ u $.e.e.*.%.-.$.y.t.r.$.$.e.$.e.-.*.$.b.B.m.M.V.x.c.C.m.M.D.G.Z.m.M.V.m.V.m.M.z.5 ",
"  i h k g.`.x.J.].9.`.9._.c.c.8.c.c.v.C.M.C.g.e.-.-.$.%.t.:.&.-.&.-.*.-.&.*.$.*.%.-.m.N.x.v.`.C.v.F.H.1.`.9.).8.c._.8.M.8.m.F = ",
"1 R.T.S.A.OXP.T.T.'.'.I..X{.M.m.m.8.M.m.B.x.`.'.a.p.p.p.s.s.p.5.u.p.p.-.$.%.*.-.b.C.x.v.`..X.X}.}.U.T.I.1.XXOXOX`.m.C.c.8.M.=.D ",
"1 k.V.Z.H.P.H.[._.H.H.x.L.U.L.x.B.[.H.J.J.J.J.U.H.{.R.H.p.&.p.p.e.y.y.u.z.z.v.Z.J.J.J.H.U.J.[.J.J.XX_.[.H.F.F.L.U.G.x.m.v.=.D   ",
"  w j.x.N.M.c.8.8.8.8.c.m.c.c.x.x.x.x.x.x.G.F.x.x.B.m.v.8.8.8.8.c.M.c.c.N.x.x.x.x.x.F.F.x.x.V.N.v.8.8.8.8.8.c.M.c.m.x.x.x.j.: @ ",
": i.k.V.N.M.v.N.V.8.c.C.Z.J.I.F.x.x.x.F.U.U.U.L.x.N.m.v.m.x.c.8.m.Z.Z.T.G.x.x.x.x.L.U.U.U.F.B.N.v.v.V.m.8.v.B.B.I.L.x.x.x.h.l.s ",
": k.F.x.x.x.x.x.x.x.B.H.H.H. XU.L.G.B.B.V.x.x.F.x.x.x.x.x.x.x.x.Z.H.H.[.P.U.G.D.N.x.x.x.F.F.x.x.x.x.x.x.x.N.H.H.{.J.U.G.G.r.k   ",
"  $ +.8.v.B.x.x.x.B.m.m.V.v.8.8.8.8.8.8.8.c.M.N.x.x.x.x.x.x.V.m.m.V.m.8.8.8.8.8.8.8.c.c.N.V.x.x.x.x.x.x.N.v.B.N.c.8.8.8.8.,.y   ",
"  i R.T.Z.`.9.).C.9.).x.G.L.c.B.V.m.M.N.B.x.x.x.x.x.N.).9.C.).9.N.F.U.B.m.x.m.m.m.N.x.x.x.x.x.x._.9.v.v.9.v.x.L.G.c.x.c.m.x.e.  ",
"1 S.T.T.T.{.T..XQ.I.P.H.T.T.I.V.x.G.U.U.T.F.N.9.).).<.P.@XQ.XXT.XXU.T.T.B.x.F.L.U.T.G.x.).9._.2.oXI.}.'.T.@XJ.T.T.K.B.8.;.+.0   ",
"1 S.q.F.F.G.U.U.T.T.L.U.T.P.T.U.F.G.G.G.V.1.1.P.}.XX@X@XT.T.T.U.U.T.P.T.T.G.F.G.G.F.).'..XXX}.P.XXT.T.T.U.L.T.I.I.T.`.<.6.7.B   ",
"  @ y f.B.x.V.N.D.G.x.C.`.8.L.L.F.x.F.U.@XI.U.G.U.U.D.H._._.G.x.N.Z.8.D.L.G.F.G.L.P.@XT.G.L.U.D.H.[.8.D.F.B.C._.[. X6.0.<.O.q   ",
"  : j.x.:.x.+.7.,.,.:.8.m.c.c.j.x.l.k.x.G.G.x.x.l.r.8.8.8.8.$.M.7.*.M.8.N.x.F.S.g.G.G.x.b.*.k +.7.;.*.c.b.8.8.m.G B.B.f.C.k     ",
"    e.z.a f = D D 7.&.d j.o.x.k j.x.k o.x.x.e.z.k g.j.,.,.m.,.q u @.z.o.z.#.U.P z.j.x.z.&.7.e -.x.G O.;.D m.@.@.0 a a e.x.@.    ",
"    @ @         w &.D @ @ = @.y y k = = e.j.y s : @.f D D @.f @   y s   @ @ @ = @.y j.e.= @ @ 0 s     @ = @.f @       y k =     "
};
