/* XPM */
static char *b0f72bd37aad43adf52a47a5951af242kivXtsgAmxFGZ0QR[] = {
/* columns rows colors chars-per-pixel */
"64 64 228 2 ",
"   c None",
".  c #000017",
"X  c #00032B",
"o  c #000C2B",
"O  c #000925",
"+  c #04122C",
"@  c #0B162C",
"#  c #151C2E",
"$  c #191E2E",
"%  c #10152E",
"&  c #1D242F",
"*  c #1E2331",
"=  c #1F2931",
"-  c #21242F",
";  c #232A2F",
":  c #2A2B2F",
">  c #242431",
",  c #2C2B32",
"<  c #262C32",
"1  c #342E34",
"2  c #2B3330",
"3  c #2A3834",
"4  c #353233",
"5  c #393934",
"6  c #342F2D",
"7  c #4A3D3B",
"8  c #433B38",
"9  c #3C4A34",
"0  c #334539",
"q  c #364837",
"w  c #3D553E",
"e  c #4C4C36",
"r  c #454737",
"t  c #514939",
"y  c #455335",
"u  c #47593A",
"i  c #565638",
"p  c #516237",
"a  c #526339",
"s  c #5A693B",
"d  c #5F723B",
"f  c #4E653E",
"g  c #64643D",
"h  c #6B673B",
"j  c #62743B",
"k  c #677B3D",
"l  c #766F3D",
"z  c #655E37",
"x  c #4A3F40",
"c  c #564943",
"v  c #435C41",
"b  c #524945",
"n  c #625446",
"m  c #695646",
"M  c #6E5A48",
"N  c #69564A",
"B  c #715D47",
"V  c #675B50",
"C  c #755F57",
"Z  c #4C6A46",
"A  c #4A6543",
"S  c #526C44",
"D  c #58784A",
"F  c #5A7E5C",
"G  c #72614C",
"H  c #796847",
"J  c #687943",
"K  c #787642",
"L  c #786A58",
"P  c #696A4D",
"I  c #74726D",
"U  c #857C3B",
"Y  c #89765A",
"T  c #927C5D",
"R  c #847250",
"E  c #887664",
"W  c #967A6A",
"Q  c #947968",
"!  c #817E73",
"~  c #6E843F",
"^  c #5C8152",
"/  c #68874A",
"(  c #758B42",
")  c #778745",
"_  c #76954D",
"`  c #7C9648",
"'  c #658C55",
"]  c #678A57",
"[  c #6B9154",
"{  c #6B9459",
"}  c #729452",
"|  c #729D5D",
" . c #799856",
".. c #748757",
"X. c #7CA259",
"o. c #6D986E",
"O. c #7B9D6D",
"+. c #759C6B",
"@. c #6A9572",
"#. c #769871",
"$. c #6F8764",
"%. c #76A564",
"&. c #79A663",
"*. c #7BA962",
"=. c #7DA169",
"-. c #74A269",
";. c #94893E",
":. c #888748",
">. c #948B48",
",. c #839C46",
"<. c #829C4C",
"1. c #8B9A49",
"2. c #939C4B",
"3. c #9C9C4E",
"4. c #96924C",
"5. c #899556",
"6. c #979A54",
"7. c #A69945",
"8. c #A19E50",
"9. c #8AA549",
"0. c #8EAB4C",
"q. c #87A147",
"w. c #92AE4B",
"e. c #9AA84D",
"r. c #95B24C",
"t. c #99B64D",
"y. c #9BB94E",
"u. c #84AD5D",
"i. c #8AAE5C",
"p. c #88A856",
"a. c #97AB5D",
"s. c #8FB257",
"d. c #8CB159",
"f. c #94B554",
"g. c #99B653",
"h. c #9AB850",
"j. c #94B25A",
"k. c #9CB25B",
"l. c #ADA147",
"z. c #B3A645",
"x. c #B6AA49",
"c. c #A4A252",
"v. c #A5AC52",
"b. c #A9A956",
"n. c #B2AE56",
"m. c #A3B655",
"M. c #A3B951",
"N. c #ABB954",
"B. c #A4B35D",
"V. c #ACB55C",
"C. c #AEB556",
"Z. c #B2BA56",
"A. c #B5B65C",
"S. c #B9B65C",
"D. c #B6BA58",
"F. c #BEB95B",
"G. c #BDBA5B",
"H. c #B5B255",
"J. c #BAB04D",
"K. c #8B8768",
"L. c #9C8369",
"P. c #889E6E",
"I. c #939772",
"U. c #A4896B",
"Y. c #AB926C",
"T. c #B89C74",
"R. c #A99071",
"E. c #82A566",
"W. c #83AA61",
"Q. c #8BAB61",
"!. c #8DA26B",
"~. c #85A26A",
"^. c #93AE61",
"/. c #9AAF61",
"(. c #93A46B",
"). c #9AA769",
"_. c #99A868",
"`. c #9BB060",
"'. c #A4AC65",
"]. c #AAAF63",
"[. c #A0A968",
"{. c #ACB162",
"}. c #ACB26D",
"|. c #B2B361",
" X c #BABC63",
".X c #BDA176",
"XX c #B9A267",
"oX c #C2BC58",
"OX c #CBAD7D",
"+X c #C4A67A",
"@X c #CBB075",
"#X c #C6AE6A",
"$X c #C8C45D",
"%X c #CDCB63",
"&X c #D7D86C",
"*X c #DCDF71",
"=X c #D2C876",
"-X c #DDE172",
";X c #BDB085",
":X c #B9B9BB",
">X c #94938B",
",X c #CFAF80",
"<X c #CAB485",
"1X c #D5B583",
"2X c #D7BB89",
"3X c #CBBF92",
"4X c #C5BEB0",
"5X c #DBC48E",
"6X c #DBC795",
"7X c #DAD19E",
"8X c #D7D291",
"9X c #E2CC98",
"0X c #E4D59C",
"qX c #DBC6AA",
"wX c #EBDBA6",
"eX c #E3D4B4",
"rX c #EEE2AB",
"tX c #ECE0A7",
"yX c #F1E6B9",
"uX c #F0E3B1",
"iX c #E3E18C",
"pX c #D5D0C8",
"aX c #F3E9C7",
"sX c #F3EAD8",
"dX c #F9F5E9",
"fX c #FFFEFE",
"gX c #FCFBF5",
"hX c #E4E4E4",
/* pixels */
"    # #           0 v #       # #       g e & p # #       # #     e g 0 0 e g # #   K h   # #   & p       e K -       # #       ",
"    ( y.u p 9 & p ^ &.u >.K e n.>.0 ' S G.3.( t.i 4.s ` y | ^ # ; n.G. . .b.G.v | 4.D.D.e g G.3.j y.a D 0 8.G.g % # & ` w.y     ",
"  # j y.0.t.t.j y.v.k.3.G.4.b.G.:.a X.a.G.n.y.9.e.N.p.y.y.g.J n.c.4.G.A.S.G.4.6.G.H.N.M.y.1.n.N.1.t.0.Q.n.8.n.3.G.>.D y.y.j     ",
"* D D ' s.y.y.9.M.M.Z.D.D.N.D.Z.Z.v.e.G.G.G.N.N.M.y.g.g.y.y.N.N.D.G.N.D.D.N.D.N.G.G.G.D.N.N.y.y.y.y.y.N.M.Z.D.D.v.h | j.k d &   ",
"< &.u.y.y.h.y.y.y.y.y.y.M.y.M.y.y.y.M.D.N.Z.D.D.N.B.m.M.y.y.y.y.y.M.y.M.y.y.y.y.Z.Z.N.D.D.Z.M.m.B.y.y.y.y.y.M.M.w.s.*.s.y.y.j   ",
"  v f i.i.*.*.*.g.N.G.N.M.g.f.d.y.y.y.y.y.y.y.h.D Z Z S *.j.N.D.Z.M.f.h.i.h.y.y.y.y.y.y.y.d.*.*.*.*.W.N.D.D.N.g.g.*.u.y.` k &   ",
"  ( w.0.y.s.u.s.u.k.Z.m.j.i.j.j.f.h.W.u.s.f./ # 4 z.U X X S p.C.V.k.d.d.g.d.y.u.*.f.s.h.d.u.g.y.u.d.i.u.V.C.m.s.u.g.u.g.y.p     ",
"  k ,.9.y.,.y.m.Q.W.i.E.u.u.i.*.u.u.u.d.u.S % 5 U $X-X-X-X6.g a { i.*.d.*.*.s.*.s.u.i.s.y.j.i.g.j.y.k.E.i.E.W.*.d.u.*.*.u.D     ",
"  r K K K 4.v.G.F.P.P.|._.^.u.i.s.*.s.f.d , h z.oXoX&X%Xz.&X-XoXP 5.B.u.i.s.*.u.f.g.y.j.Q.).).(.).D.G.|.#.'.'./.W.d.d.u.*.2.:.- ",
"g G.b.B.B.S.V./.W.V.V.M.D.D.Z.y.h.Q./.) % g z.z.J.*X*X*X*X%X-X*X&Xg v.D.y.y.i.^.B.B.V.B.D.A.`.A.A.V.W./.B.N.N.D.D.M.y.s.^.S.H., ",
"; h 0.y.s.i.u.*.*.*.*.i.f.d.d.y.y.y.y.# 1 7.z.z.J.*X-X*X*X$X$X-X-Xc.# i.g.y.y.y.y.y.M.M.y.y.g.s.u.*.*.*.*.*.s.s.i.s.y.y.d.[ >   ",
"  r 1.h.f.d.u.s.g.*.W.d.j.B.A.h.y.y.y.# t 7.z.7.4 2 2  X&X*X*Xc.&X-Xe g m.y.y.y.y.N.D.D.Z.y.g.f.u.u.g.s.*.u.j.j.A.V.y.y.y.y.`   ",
"a t.m.h.y.y.y.y.y.y.h.V.V.V.B.D.N.M.g.% :.z.7., , , $ # 5 *X*Xb.6.*X Xu D.Z.M.M.g.y.M.y.N.M.y.y.y.y.y.y.y.g.V.V.B.V.Z.N.M.h.t.2 ",
"y a u.u.s.y.y.y.y.g.i.d.g.u.*.*.*.*.*.% B z.7.G M M m $ # r %X-XU 6.%X$ &.*.*.*.*.*.u.d.f.h.y.y.y.y.y.y.f.u.f.s.W.*.*.*.*.} J # ",
"  0.y.y.y.j.E.W.g.E.W.y.M.N.u.g.g.d.u.J 7 R z.H M M M 1 # # ;.%Xc.4.H & i.y.d.d.d.s.y.y.y.y.y.y.i.E.i.i.E.i.y.N.M.u.y.s.s./ &   ",
"& ` ( <.E.P.S.).O.|.|.B.G.G.A.g.y.M.Z.C.# 1 M M M m 1 , 6.# > z.B >.H 1 g.y.M.N.Z.G.Z.y.W.E.i.O._.|.!.P.F.].V.G.G.B.y.y.N.m.r   ",
"  y 3.8.|.).F.oXG.G.D.G.G.A.G.D.M.N.N.N.t.# % % % % , {.G.K + x.X 7.1 g G.M.M.N.N.M.E.P.).'.!.|.'.G.G.G.G.D.G.S.S.G.N.y.M.e.n.g ",
"2 t.y.G.Z.V.V.*.k.N.y.g.^.*.D.D.N.y.M.D.{.|.H.2.3.3.V.J S # o U 8 7.# J D.Z.M.y.N.A.].F.N.D.G.N.V.`.*.B.M.h.k.Q.a.D.D.M.M.N.R # ",
"  k y.N.s.*.*.*.u.s.i.*.i.*.i.h.y.M.Z.y.D.Z.y.y.N.J # L Q @ m 1 # 1 U.T . ~ y.Z.M.N.D.M.y.M.N.u.*.*.*.d.j.W.,X}.*.j.y.y.M.V.0.u ",
"% ( s.u.*.g.d.d.u.*.u.u.h.y.y.y.y.h.d.h.y.y.y.f.D # L.sXpX4XpX:X:X:XfXgX:X# ( s.f.y.y.y.g.d.W.W.h.u.s.*.*.,X1X Xy.y.y.y.` D y.s ",
"( t.M.N.N.N.y.y.y.f.h.y.y.y.h.u.u.W.*.s.h.y.M.v.# n > . 2XdXdXsXsXsX6X2XR.Y < %.u.g.y.y.Z.Z.M.N.N.y.y.h.1XeX4X` y.f.*.d.&.3 y # ",
"k w.N.G.A.i.u.u.*.*.*.u.*.i.*.*.*.*.*.*.W.s.N.$ % Q L.0XrXrXrXrXyXaXaXaX9X1X7 | *.*.u.m.D.G.G.V.u.u.*.OXeXfX>X' u.&.*.*.| | g.( ",
"  i n.Z.y.y.s.u.*.*.*.-.+.@.@.=.W.E.#.+.y.N.S.& 5 W R.1XwXrXsXdXdXgXfXfXgXwX,X= o.s.M.D.G.G.M.h.h.d.3 qXfXgXK.F @.o.=.9.D / y.( ",
", S.G.Z.N.y.y.j.u.*.%.#.'.S.P.|.|.|.F._.V.M.q.% Q W OX1XwXrXrXrXrXrXaX, 2XrXwXc 6.].N.y.N.G.N.M.y.{.Y gXfXyXK.5.|.P.S.8.H.g d 3 ",
"- 8.v.N.y.h.y.y.M.N.A.|.G.D.F.G.G.G.G.oXD.G.,.% E W 1X1X1X2XrXrXrXuXaX* N 2XyXV 4 G.D.N.y.M.N.M.t.OXdXgXqXwXK.3.D.F.D.G.D.:.K r ",
"5 ( j t.N.N.M.y.y.y.y.M.Z.y.N.y.y.M.N.G.D.G.# 7 Q L.1X1X1X1X0XwXrXfXfX= * 1XuXL , G.D.D.D.D.N.N.9.I gXdX1X5XK.1.y.N.y.M.y.m.G.K ",
"s t.w.s.*.*.s.d.h.M.N.y.y.y.h.g.t.t.y.y.y.y.# x W U.1X1X1X1X1X9XrXyXyX* % OX5XdX: y.y.y.y.h.u.*.# eXyX2X1XK.< y.y.h.y.y.y.w.3.4 ",
"# 5 9.g.s.u.*.*.^.V.G.A.k.u.i.= , q s.g.y.` # x W 1X1X1X1X1X1X9XrXuXfX= # t 1XwX@ q.h.y.s.*.i._ P tXtX1X1X1 3.i.u.i.u.g.h. .3   ",
"# v 9.i.f.g.g.h.j.f.h.f.j.f.f.# T.G 0 *.*.[ # , b W R.,XT G G L L ! I # # # @ + # { *.j.g.h.y.+ 7XtX1X1XY & f.s.g.f.d.s.u.%.q   ",
"A %.@.o.i.O.k.D.'.#.O.(.&.*.&.# @ .X+Xo ` r.# % Y W 1X1X1X6XE + # # # # # # @ ;XV # h.y.g.~.] L rXR.1X1X4 $.~.E.*.*.*.*.*.<.q.5 ",
"3 D S b.A.F.F.A.B.|.].Z.S.A.g.& e X .X+XX 9 # # V W 1X1X1X5XwXuX<X<X4XO # % OXaX3X+ g.(.'.F.o 6X7Xc 1XT * D.D.F.V.h.y.j.*.i.w.u ",
"; q.( i.Q.k.W.*.*.W.s.g.M.m.m.- x.;.i T.+XY @ # , W W W ,X1X1X9XrXyXfXhX# t 2XsXwXo N.M.M.` L rXE 1X1X4 X.j.h.h.m.M.y.f.m.N.c.< ",
"< r.y.y.y.s.u.u.u.*.*.*.u.Q.a.- z.z.z.>.L U.R.Y X > W W 1X1X1X1XrXrXtXhX% 1XsXuX9Xo >.v.M.@ ;X7X7 1XU.< *.*.*.u./.j.y.y.y.0.t.< ",
"3 ` y.y.y.y.g.y.y.s.f.N.D.D.S.- z.z.z.z.@XY.Y..X9XQ I.r L.1X1X1X9XrXyXpX6 1XrXrXL # 4.s l c 5X5 L.1X4 0.s.h.Z.Z.D.D.M.y.t.9 u # ",
"u t.r.s.s.g.s.y.y.h.d.Q.j.W.&.- z.z.oXJ.1X1XL G X 3X0XP $ OX1X1X9XrXrXsXfXuXrXwX+ i %X$XX Y.T., 1XY.0 y.g.u.i.i.*.Q.B.k.p.%.f.s ",
"  y <.g.s.f.f.h.y.f.f.y.y.h.X.- z.z.J.J.5X5X1X1XOX> <Xn # $ @ .X9XrXrXaXaXwX1Xb < $X4 l r 2X+ V +X, r.t.j.g.y.h.f.*.d.u.*.' ( 5 ",
"  u r.y.r.O.).#.=.!.(.j.D.G.k.- z.z.z.%XtXwX2X1X1X8 7Xn # # # # - 7XwXrXrXwXb m , *XoX4 T L., W L 0 O.O.).!.M.G.D.j.y.y.y.g.; # ",
"$ K K y K >.G.F.{.G.G.S.G.G.G.- x.z.z.$XiX1X2X1X1Xb OXn $ M < > # # 5 E 6X5 1 M , >.x.z.8 # c Q > # e |.G.G.S.G.G.D.M.M.N.c.c.i ",
"h G.G.n.G.G.G.B.A.D.M.N.A.^.S.> 1X#Xx.x.=X0XrX1X1XW OXn $ l.G M m > # # # 1 H 7.m # 5 l.>.B > # 1 H 7.e Z.M.D.B.B.G.D.N.y.y.m.i ",
"i m.y.G.h.W.W.*.d.h.g.u.*.*.g.> 1X1X6XiX=X1X1X1X1XL.,Xn $ 7.z.7.B M m > 1 M l.H 1 > E * e G M m $ , r 0 y.s.*.*.W.M.M.y.M.2.k # ",
"# k s.s.*.u.W.*.*.*.*.*.h.f.i.> 1X1XtXrX8X#X1X1X1XL.,Xn $ H z.z.z.7.M M M 7.R 8 # Y W OXT % 4 m m c 3 &.*.*.u.h.s.s.y.y.M.h.t.; ",
") y.y.g.s.y.g.h.g.d.f.g.g.y.t.# T.1X6XtX0X&Xx.#X1Xb ,Xn $ 7.z.z.z.z.z.7.7.R z # # Y +X1X1XU.% % 5 # ,.f.d.h.j.y.y.y.s.h.u.&.k   ",
",.y.t.Z.G.V.f.f.s.u.d.g.s.h.s.w G 1X1X2X=X-XJ.&Xx.5 R.n $ M R 7.z.z.z.z.l.h # # # b R.1X1X1X+ i <.` s.i.u.j.f.f.h.u.*.*.u.p. .D ",
"9 u y n.g.f.s.u.*.*.*.&.&.o.o.u.# +X1X1X@XJ.oXz.z.5 Q b # 7 7 7 7 7 7 7 + # = o.3 % b n T G # j.f.i.*.*.&.&.&.%.o.+.' ^ X.d.y.,.",
"w { A e.y.y.f.W.*.*.*.o.O.).@.P...o +X1X1Xz.z.z.z.5 Q 1 # # # # # # # # 3 ..~.].$ M 1 # # i ,.y.h.s.*.*.*.%.o.!.!.#.4.4.g K k 5 ",
"A &.u.X.u.f.y.y.g.k./.).G.G.{.G.G.3.X +X1X@Xz.z.U Q < # # # ) a.P.K # # :.G.G.S.# 7 4 ` y.Z.D.N.y.y.y.j.k.!.{.G.G.{.G.G.oXG.i   ",
"# J Z.M.y.y.y.y.M.y.N.D.D.M.D.N.N.Z.2.o +X@Xz.U 4 > a ,.2 # s 1.2.# # 2 2.1.3.m.:.K K D.N.Z.y.y.y.y.y.M.y.Z.D.Z.N.D.N.D.N.N.H., ",
"y r.v.M.k.k.h.y.y.y.y.y.M.y.M.y.y.y.M.2.o XXU V > i <.) 9 # # ,.` # # ( ,.,.,.,.2.v.N.Z.Z.N.m.k.k.y.y.y.y.y.y.y.y.M.y.y.y.t.:.- ",
"9 s  .*.*.*.*.*.k.Z.G.Z.m.f.s.u.y.y.y.y.,.$ % L w ' ' 0 0 9 r 8.) r 9 9 u ` ,.,.,.,.r.y.y.u.*.*.*.*.*.N.D.G.N.g.g.i.s.y.y.r.d # ",
"  =  .g.y.s.i.j.d.j.N.k.j.s.f.f.f.g.*.u.d._ # u _ ,.,.[ ` } _ 2.1.<._ _ ,._ ,.} [ _ p.g.s.d.h.y.u.j.s.d.m.N.k.s.d.h.s.h.s.d.t.2 ",
"  i g k 0.Q.y.V.~.=.Q.=.W.u.u.*.u.u.i.j.d.j.0.,.} } _ ` 1.5.] } ] } [ } ' [ _ [ ` } s.f.y.i.Q.j.i.M.B.O.Q.=.E.*.u.W.*.d.*.s.A & ",
", H.G.n.c.{.A.G.G.(.(.S.'./.d.s.s.*.d.s.g.y.Q.(.6.5.5.5.8.8.6.$.3.5.5.} _ ` [ } p.j.y.i.Q.'.'._._.D.G.S.O.].{.{.Q.s.j.u.*.d.{ Z ",
", e.h.k.B.A.B.^.W.B.B.y.Z.D.Z.y.g.^.B.V.V.V.V.D.B./.H.B.5.' 5.5.,.2.2.3.t.t.i.k.V.V.V.B.D.V.^.V.V.].W.^.B.M.M.Z.D.N.y.s.i.{ Z   ",
"  q w.y.f.d.u.*.*.*.*.u.s.u.u.y.y.y.y.y.y.N.M.y.y.g.s.i.*.*.*.*.u.d.u.u.f.y.y.y.y.y.M.M.y.y.h.f.i.*.*.*.*.*.u.d.u.s.y.y.y.w.; # ",
"; 4.e.h.f.s.i.f.h.*.u.j.k.V.S.M.y.y.y.M.D.D.D.Z.y.f.s.i.s.y.u.*.s.k.k.G.N.y.y.y.y.Z.D.D.D.M.g.f.i.i.h.s.*.i.g.g.S.Z.y.y.y.q.r.a ",
"; e.M.y.y.y.y.y.y.y.g.B.B.B.`.D.Z.N.g.g.h.y.y.M.y.y.y.y.y.y.y.y.k.B.B.^.A.D.N.m.f.y.y.y.M.M.y.y.y.y.y.y.y.f.B.B./.V.D.N.N.<.k   ",
"  % / *.i.g.y.y.y.g.s.s.h.i.*.*.*.*.*.*.*.u.d.f.y.y.y.y.y.y.h.s.s.h.s.*.*.*.*.*.*.*.u.u.f.h.y.y.y.y.y.y.f.i.g.f.u.*.*.*.*.X.y   ",
"  i H.G.k.Q.=.E.j.=.E.y.N.Z.u.g.h.s.d.f.g.y.y.y.y.y.f.E.=.j.E.=.f.M.D.g.s.y.s.s.s.f.y.y.y.y.y.y.W.=.i.i.=.i.y.Z.N.u.y.u.s.y.,.  ",
", n.G.G.G./.G.'.P.S.A.B.G.G.S.h.y.N.D.D.G.M.f.=.E.E.#.A.|.P.].G.].D.G.G.g.y.M.Z.D.G.N.y.E.=.E.+.[.S.).(.G.|.V.G.G.C.g.*.| / 9   ",
"< n.:.M.M.N.D.D.G.G.Z.D.G.A.G.D.M.N.N.N.h.O.O.A.).].|.|.G.G.G.D.D.G.A.G.G.N.M.N.N.M.E.!.'.].).A.].G.G.G.D.Z.G.S.S.G.Q.o.%.&.v   ",
"  % y 9.g.y.h.f.m.N.y.j.Q.*.Z.Z.M.y.M.D.|.S.D.N.D.D.m.B.W.W.N.y.f.k.*.m.Z.N.M.N.Z.A.|.G.N.Z.D.m.B.^.*.m.M.g.j.W.^.`.%.-.o.^ 0   ",
"  ; w.y. .y./ &.X.X. .*.s.u.u.w.y.r.e.y.N.N.y.y.r.<.*.*.*.*._ d.&.[ d.*.f.y.M.n.0.N.N.y.p.[ j / &.| [ u.p.*.*.s.S g.g.9.j.j     ",
"    ,.y.p d & Z Z &.' s w.~ y.j w.y.j ~ y.y.,.t.j 0.w.X.X.s.X.0 u ( t.~ t.) D.K t.w.y.t.' &.w } y.S ^ | Z s.( ( 9 p p ,.y.(     ",
"    # #         q ' Z # # & ( y y j & & ,.w.y a ; ( d Z Z ( d #   y a   # # # & ( y w.,.& # # 9 a     # & ( d #       y j &     "
};
