/* XPM */
static char *result[] = {
/* columns rows colors chars-per-pixel */
"64 64 223 2 ",
"   c #09000F",
".  c #000018",
"X  c #000024",
"o  c #020828",
"O  c #000C2B",
"+  c #120B26",
"@  c #09162C",
"#  c #0B162C",
"$  c #16172A",
"%  c #151B2E",
"&  c #00183B",
"*  c #171E30",
"=  c #181F31",
"-  c #15212E",
";  c #1B222F",
":  c #1D2232",
">  c #1B2936",
",  c #1E253B",
"<  c #222A2F",
"1  c #242531",
"2  c #2D2B34",
"3  c #212938",
"4  c #21293E",
"5  c #322D36",
"6  c #263232",
"7  c #2B3933",
"8  c #343135",
"9  c #393B36",
"0  c #433A3C",
"q  c #2F4137",
"w  c #374336",
"e  c #4A4A36",
"r  c #465636",
"t  c #575034",
"y  c #605F3A",
"u  c #596C3A",
"i  c #63773D",
"p  c #1E3746",
"a  c #1F3B4A",
"s  c #242D46",
"d  c #2D3755",
"f  c #2E3856",
"g  c #4A3F40",
"h  c #1F4E5E",
"j  c #385048",
"k  c #264B5C",
"l  c #364364",
"z  c #394469",
"x  c #3C496D",
"c  c #32576D",
"v  c #3E4C72",
"b  c #346A73",
"n  c #326977",
"m  c #387379",
"M  c #4F4241",
"N  c #544941",
"B  c #574A44",
"V  c #435A41",
"C  c #5B5549",
"Z  c #66574A",
"A  c #645F50",
"S  c #725D55",
"D  c #51704B",
"F  c #6E6D4C",
"G  c #786555",
"H  c #404E75",
"J  c #405177",
"K  c #405579",
"L  c #405B7C",
"P  c #567A65",
"I  c #5A7E63",
"U  c #646761",
"Y  c #817155",
"T  c #897459",
"R  c #937D5E",
"E  c #866E61",
"W  c #8C7363",
"Q  c #997F67",
"!  c #967A6A",
"~  c #997D6C",
"^  c #6D833F",
"/  c #5F8452",
"(  c #748842",
")  c #7B9647",
"_  c #658957",
"`  c #668E57",
"'  c #76885F",
"]  c #6B9154",
"[  c #6B955A",
"{  c #749957",
"}  c #7AA55F",
"|  c #5C8163",
" . c #769660",
".. c #749B6E",
"X. c #648E74",
"o. c #669175",
"O. c #6B9473",
"+. c #6D9970",
"@. c #729672",
"#. c #749870",
"$. c #7C9971",
"%. c #76A663",
"&. c #78A764",
"*. c #77A863",
"=. c #7AA863",
"-. c #75A169",
";. c #7CA169",
":. c #839D46",
">. c #8A9649",
",. c #96984D",
"<. c #898D52",
"1. c #8B935A",
"2. c #989953",
"3. c #A39F4F",
"4. c #A39F50",
"5. c #8AA548",
"6. c #8EAA4B",
"7. c #92AE4B",
"8. c #96B44D",
"9. c #9BB94E",
"0. c #85A655",
"q. c #84AD5E",
"w. c #8AAE5C",
"e. c #96AF5F",
"r. c #8FB357",
"t. c #8BB159",
"y. c #94B553",
"u. c #98B751",
"i. c #99B850",
"p. c #92B15B",
"a. c #9DB15D",
"s. c #A7A754",
"d. c #A7B655",
"f. c #A8B352",
"g. c #A3B951",
"h. c #ACB954",
"j. c #A4B35D",
"k. c #ABB55D",
"l. c #B3BA56",
"z. c #B5B65D",
"x. c #BAB65C",
"c. c #B6BA58",
"v. c #BEBA5B",
"b. c #9A846A",
"n. c #859C6F",
"m. c #899C69",
"M. c #A88C6F",
"N. c #AB926C",
"B. c #B59B73",
"V. c #BB9E75",
"C. c #82A565",
"Z. c #82AB61",
"A. c #8AAB61",
"S. c #8DA16D",
"D. c #93AE61",
"F. c #99AE61",
"G. c #97A569",
"H. c #9AA769",
"J. c #9CB060",
"K. c #A3AB66",
"L. c #AAAE64",
"P. c #AEB163",
"I. c #B4B460",
"U. c #B5A776",
"Y. c #C0BA5B",
"T. c #C4A67A",
"R. c #D2B37E",
"E. c #3B6B83",
"W. c #357484",
"Q. c #3B7B87",
"!. c #3F758C",
"~. c #3B7A8D",
"^. c #3F7D92",
"/. c #406281",
"(. c #41788D",
"). c #3E8395",
"_. c #3E8698",
"`. c #3C889A",
"'. c #468C8B",
"]. c #49928D",
"[. c #448A99",
"{. c #5C8E97",
"}. c #4B9897",
"|. c #51A09B",
" X c #4C9CA1",
".X c #4EA0A3",
"XX c #55A9A6",
"oX c #5AB3AC",
"OX c #909A91",
"+X c #959C91",
"@X c #A5AA9C",
"#X c #B6B394",
"$X c #CAAE81",
"%X c #CFB485",
"&X c #D5B583",
"*X c #D9BC8A",
"=X c #D1BE93",
"-X c #C0BDBB",
";X c #A0C3AA",
":X c #DACA96",
">X c #DCC897",
",X c #E3CD98",
"<X c #E5D49D",
"1X c #D5CCAC",
"2X c #DFD7A1",
"3X c #E8D9A5",
"4X c #EADCA5",
"5X c #EADBB7",
"6X c #EEE1AB",
"7X c #EDE5AB",
"8X c #F0E5AC",
"9X c #F2E6BC",
"0X c #CDCDCE",
"qX c #E9D9C5",
"wX c #F3EBC5",
"eX c #F4EBCB",
"rX c #F1EAD6",
"tX c #F4ECD4",
"yX c #E6E6E6",
"uX c #F4ECE1",
"iX c #FAF6E7",
"pX c #FDFBF6",
"aX c #FFFFFE",
/* pixels */
"9.q.l.l.l.l.l.l.g.9.9.h.a.t.q.*.L.=.*.*.=.=.=.*.r.y.9.9.9.i.l.9.9.9.r.d.l.l.l.l.l.h.9.9.9.l.w.w.*.D.D.&.*.*.&.=.*.t.r.9.9.9.9.h.",
"9.9.9.9.9.9.9.9.h.g.9.9.9.9.9.9.i.q.q.*.*.*.=.=.=.=.=.r.t.*.*.=.9.9.9.9.9.9.9.9.9.h.h.9.9.9.9.9.9.9.q.w.*.*.=.&.=.*.*.*.w.y.&.*.",
"9.9.9.9.9.g.g.v.v.v.h.g.9.9.r.y.r.*.=.=.9.9.=.=.=.*.q.q.q.J.v.J.9.9.9.9.9.9.i.g.h.Y.Y.v.g.i.9.y.y.y.*.&.*.t.9.q.=.=.=.q.q.q.A.Y.",
"9.9.9.9.9.9.c.v.g.9.v.v.l.9.9.9.9.9.9.9.9.9.t.} r.9.g.v.g.v.v.Y.g.9.9.9.9.9.9.h.c.l.9.l.v.v.9.9.9.9.9.9.9.9.9.9.=.q.9.g.l.l.l.v.",
"Y.g.g.g.y.9.9.9.9.9.9.9.9.9.9.9.9.9.9.9.9.9.i.i.9.g.c.z.z.z.=.z.v.Y.h.g.g.u.i.9.9.9.9.9.9.9.9.9.9.9.9.9.9.9.9.9.9.i.i.l.l.z.z.=.",
"Z.=.=.=.=.=.=.=.u.u.9.y.9.9.9.9.9.9.9.9.9.9.9.u.t.=.Z.i.=.*.=.=.Z.=.Z.=.=.=.=.=.&.i.9.i.i.i.9.9.9.9.9.9.9.9.9.9.i.i.&.=.p.t.=.=.",
"=.=.=.*.=.*.=.=.=.=.r.9.9.9.9.9.9.9.9.i.9.9.i.i.u.u.i.9.i.i.=.=.=.=.=.*.*.=.=.=.&.=.&.Z.i.i.9.9.9.9.9.9.9.9.9.9.i.i.u.9.9.9.i.r.",
"9.r.u.y.Z.u.u.9.9.9.9.9.9.9.9.9.i.y.@.@.y.9.C.@.+.i.i.9.c.c.i.=.i.6.u % m W.p u 9.9.9.9.9.9.9.9.9.9.9.+.+.$.9.u.@.+.p.9.9.l.c.9.",
"9.9.9.9.9.g.c.c.g.9.i.i.9.i.9.i.@.#.I.@.O.#.O.I.z.O.9.v.Y.Y.c.] r + '.].]._.> % % s.9.9.9.9.9.9.i.Z.o.I.K.o.#.o.L.I.$.p.l.v.v.v.",
"9.h.c.Y.Y.Y.Y.v.9.9.Z.o.o.+.#.o.o.v.v.Y.I.$.I.Y.v.v.z.v.Y.Y.t n |.oX XoXoX.X`.W.a % 5.9.o.o.o...o.o.H.v.Y.v.K.P.Y.Y.Y.I.v.v.v.v.",
"9.9.h.g.g.h.g.i.O...o.x.z.o.n.Y.L.$.v.Y.v.v.v.v.v.v.v.Y.Y.t |.oXoXoX X.XoXoX.X_.(.3 % | K.Y.$.o.I.I.S.Y.v.Y.Y.Y.v.Y.Y.Y.Y.v.Y.v.",
"Y.h.9.9.9.i.l.;.H.v.K.v.Y.Y.Y.Y.Y.Y.Y.F.F.x.Y.l.9.9.l.v.r ).XXoXoX[.oXoXoXoX[._.^.[.$ D v.v.v.Y.Y.Y.Y.v.z.F.a.v.v.i.9.g.Y.k.*.k.",
"9.9.9.9.l.v.v.Y.v.v.l.9.g.v.c.9.t.e.J.=.*.*.9.g.9.y.w.[ + oXoXXX}.oXoXXX}.}.W._.).E.x % 9.9.v.v.g.y.p.J.*.=.*.9.g.9.9.t.=.=.=.D.",
"9.9.l.Y.h.9.h.Y.l.g.9.9.9.l.l.y.&.=.=.=.*.t.t.i.y.*.} j [.oX}.b oXoX'.% % % % ; )./.K % 9.9.h.c.g.=.*.=.&.=.=.r.r.9.=.=.&.w.*.=.",
"9.9.9.9.9.9.9.9.9.9.9.y.r.r.q.=.=.t.=.=.*.=.=.=.=.*.=.- .XXX, oXoX'.% % s H H v _._./.* i.r.r.r.*.*.w.q.&.=.*.=.=.=.*.*.y.9.9.t.",
"9.9.9.=.=.9.9.9.9.9.9.9.9.q.Z.=.9.9.i.q.9.t.=.=.=.9.q.- [.m n oXE.% % s H H H (._.K f 6 9.9.t.q.*.r.9.9.=.9.i.q.*.=.y.t.w.9.9.9.",
"q.y.=.*.=.i.i.i.9.9.9.l.l.i.9.g.g.9.9.9.9.9.9.9.9.9.9.l !.).n (.l = 7 - v H H v v v ; ( g.v.9.9.g.g.g.9.9.9.9.9.9.9.i.9.9.9.9.9.",
"*.*.=.*.=.&XU.u.y.d.v.v.Y.Y.Y.Y.v.z.y.9.y.y.q.=.w.i.9.r z c , ).$ V =.] % , 4 3 p % ( v.Y.Y.Y.Y.v.v.z.k.i.y.y.y.=.=.u.i.y.y.9.9.",
"=.*.=.=.=.&X*XU.p.i.9.v.Y.v.v.z.=.Z.=.&.&.=.=.&.&.=.=.[ % _.z (.$ 6 &.&.[ 7 ; ; / } 9.9.c.Y.Y.v.l.J.} =.=.*.&.=.=.=.&.=.&.&.*.*.",
"y.9.A.o.O.e pXR.Y.l.v.Y.Y.Y.9.i.i.9.u.u.=.*.=.=.&.&.V # % c $ k f # G % j o.*.w.9.9.g.v.v.Y.Y.h.i.9.9.i.u.p.=.=.=.*.=.=.&.&.o.o.",
"@.+.S.x.@.X iXpX&X<.x.Y.v.l.9.9.9.9.i.=.=.=.=.=.%.: 0XrXrX  X . v & b.T.N.= X.$.9.Y.Y.v.Y.v.Y.9.9.9.9.i.=.=.=.=.=.&.&.+.o.O.@.O.",
"Y.z.v.Y.v.X wXaXpXO I.l.v.v.h.l.9.9.9.9.i.u.=.*.6 O . 1XqXaXaXaXaXaXqX-X5 # $ k.c.9.9.9.g.Y.v.g.v.9.9.9.9.i.i.=.=.=.&.o.K.v.Y.I.",
"Y.v.Y.v.v.X 7XuXaX2X&Xi.9.Y.l.g.l.9.9.9.9.9.k.s.8 R.4X8X6X:X,X<X6X4X2XB.S ! $ ( c.c.l.9.9.9.c.Y.g.h.9.9.9.9.9.u.z.z.I.K.Y.Y.Y.Y.",
"l.Y.c.h.v.X 6XR.aXwX&X>.h.9.9.9.9.9.9.9.9.i.h.( Q ,X5XpXaXpXiXtXeX6X4X%X~ ! 5 1 Y.Y.Y.9.9.c.9.9.9.9.9.9.9.9.9.c.i.g.Y.Y.Y.Y.g.l.",
"i.g.9.9.v.e *X<X>XwXyXw v.c.c.l.l.c.i.9.9.9.8.9 >X6XrX0XiXwX6X6X6X6X3X&X&X~ Z $ s.x.v.l.v.v.Y.l.l.l.l.h.9.9.9.9.i.9.9.9.l.h.9.9.",
"i.9.9.9.g.>.X ,X&X6XiX9 5.9.y.w.q.r.9.9.9.9.) C 4X<XV.1 iX6X8X6X6X3X,X&X$X~ ! % 5.9.h.h.g.h.g.9.q.w.w.9.9.9.9.9.9.9.9.9.9.9.9.9.",
"9.9.9.9.8.9.w R &X*X8X3X7 } *.*.*.=.t.*.*.u.: A iX=XB 1 aXuX6X6X4X<X&X&X*X~ B 2 - 9.9.9.9.9.w.} ` - 7 =.=.=.w.9.l.v.v.g.9.i.9.9.",
"y.9.9.u.r.9.) % &X&X:X7XN [ t.t.q.=.=.*.*.a.Z >X4X%X* : pXpX6X*X&X&X&X&X&X~ ! g % 9.9.9.r.=.=.] 1 T.% [ *.*.Z.j.v.v.v.Y.Y.A.*.r.",
"w.9.u.*.*.=.t.> T &XT.3X2X> 9.9.9.=.w.9.w.{ @ 5X*XZ = 1 aXeX6X,X&X&X&X&X&X$X~ g % ] 9.t.t.6.7 G R.N * { 9.i.w.w.w.h.l.t.w.y.y.q.",
"q.9.t.*.q.q.*._ 1 &XT.C 7XA 5.9.9.9.9.i.D.) - C e 1 $ = yXqX4X>X$X$X&X&X&XM.! g % _ w.w.) q G &XN % * 7.i.y.w.A.w.9.w.w.y.q.q.u.",
"*.=.=.Z.9.9.9.9.; T &Xe 3X2X@ t.O.O.i.v.Y.w 1 2 % % = % # # $ # 1 S $X&X$X! g + $ :.8.r ; G &XB a Q.p 0.l.v.I.n.O.A.o.n.+.=.=.=.",
"9.=.=.u.u.y.u.9.5.8 &XB.b.7XB ' v.V ,.Y.Y.% G iXB.% % % = 1 o :X<X4X&X&X$X! ! # $ u * Z Q b.U ~.[.[.p m.Y.Y.Y.Y.n.o.z.Y.H.L.j.*.",
"i.y.=.=.A.A.A.A.z.$ R R.Z &XV.y + }.b ,.A.O 6X6X&X0 * -XpXwX6X3X*X&X$XM.B.! 1 + @ B.T.&XR.+X{.(._._.p s.Y.k.&.z.Y.n.v.9.Y.Y.Y.v.",
"9.=.c.c.c.c.v.v.g.5.9 &XG 2 R.C m XXm $ =.O 6XtXrXM.% yXeX6X6X*X&X&X&X~ ! 5 d 8X4Xb.A o B.R.).[._._.a  .Z.&.&.=.Z.u.i.i.9.9.9.v.",
"9.9.9.9.i.9.9.9.i.g.: Q ~ 5 V.B.h + '.'.D # N.6X4X&X# yX9X6X3X&X&X&X&X~ ~ 8 8 R.X T T.&XR.R.]. X_._.p { &.&.=.=.&.=.=.=.y.i.=.=.",
"9.9.9.9.9.g.i.c.Y.v.( 5 ! S @ M.o W.oXQ.) :.C 7X6X<X-X3X6X6X>X&X&X&X&XS 1 $ 8 4XO &X&X&X4X8XoX X_.[.a { &.q.i.=.&.=.&.=.=.=.=.v.",
"9.9.9.9.9.g.c.Y.h.^ + d S G % k ~._.~.w 9.^ # B.<X5XiXiX6X6X,X&XN.R O = = = 8 &XO *X&X>X3X1XoX_._._.p 6.p.9.9.i.=.=.u.i.h.h.h.Y.",
"c.9.9.9.9.9.9.g.:.k !.l $ s v /.~.k % ^ 9.% % s V.6XiXiX6X7X$Xo % % % f l = 8 &XY &X&X7X2X#X X).[.+Xe 7.9.9.9.9.9.9.i.v.Y.Y.Y.A.",
"D.D.D.A.*.q.q.q.5.% $ % z H x s 0 G G % 6.% s H : =X4X>XV.% = = % s J J x = 8 &XE &X&X&XR.#X|.@X&X&XN 6.9.9.9.9.9.i.=.*.t.q.=.=.",
"=.=.=.=.=.=.=.*.=.[ , v z s % t &XB.b.@ F $ x n v * 2 1 % $ s f H L J K H 3 8 &X! &X&X&X$X#X7X<X&X&XN 6.9.9.9.9.y.p.y.i.i.i.y.q.",
"9.q.r.t.=.r.r.i.9.9.< = % % T &X&X&X! @ D 9 s /.).v * % , v H K ).!.L ^.H , 8 &XB &X%X+X[.@X7X:X&XR.= { C.A.i.i.=.C.u.i.9.d.l.9.",
"9.9.9.9.9.i.l.h.i.9.9.8.7.; T.&X&XB.S % V { = H ).v v v H J )._._.(.^.H H : 8 &X% OXXX XoX;X3X%X&XT.1 H.S.o.C.o.G.H.@.p.h.Y.Y.c.",
"9.g.h.Y.Y.Y.v.v.g.i.t.o.o.w * B g 0 * * F #.8 % ~.[.L K !._._._._.^.J H H $ 8 M.# _.[. X.X+X&X&X&X0 m.x.v.I.S.H.v.Y.Y.K.c.Y.Y.v.",
"9.g.l.l.l.l.l.i.O.C.o.I.L.o.X.= : % x l F Y.s.% % ~._.[._._._._.(.L H v = = 1 ~ % [.[.(.).&X&X&XZ 9 $.Y.Y.Y.v.v.Y.v.Y.v.Y.v.Y.Y.",
"v.g.9.9.9.9.g.w.n.Y.n.Y.Y.v.v.v.v.- s % F Y.Y.6.- * k L L L L L J J x s % % = 0 W W.`._.OX%X&XF e v.v.Y.x.k.z.v.v.g.i.h.Y.x.*.x.",
"9.9.9.9.h.v.Y.Y.Y.Y.c.9.h.v.v.9.y.s.1._ q.} 9.f.< % $ $ ; $ - $ % $ % * % >.Y.e M g !._.+X&XS e g.i.d.z.=.*.=.i.l.9.9.u.q.&.=.p.",
"9.9.g.v.l.9.l.Y.c.g.9.9.9.c.l.y.=.=.&.=.=.r.u.6.% % - D ` / / ) ) % % $ >.v.9.d.e # M W.+XG e c.9.=.*.*.=.=.=.u.u.9.=.=.=.Z.*.=.",
"9.9.g.9.9.g.i.i.9.9.9.i.u.i.p.=.=.=.=.=.*.=.=.{ % % % % i 9.} w.5.* % ) 9.9.9.9.g.r W o h r 8.u.=.=.=.=.*.=.=.=.=.=.=.=.r.9.i.=.",
"9.9.9.=.q.9.9.9.9.9.9.i.9.=.=.=.9.9.u.=.i.q.} =.D 6 % r 7 7.7.8.i % w 9.t.=.9.9.9.8.r * r 9.q.=.=.r.i.9.=.u.y.=.=.=.y.q.r.9.9.9.",
"t.9.=.=.=.9.9.9.9.9.i.h.l.9.9.i.g.i.9.9.9.9.u.7.5.:.:.5.:.:.:.r % 6 :.{ `  .0.9.9.9.9.u 9.v.9.9.i.i.9.9.i.9.9.9.u.u.9.9.u.9.9.9.",
"*.=.=.=.*.=.Z.9.i.9.c.Y.Y.c.c.Y.Y.c.9.9.9.6.{ ] ) :.:.:.:.:.5.D q D ` ` ` ` ] ] 9.9.9.l.v.Y.v.c.v.Y.v.h.9.9.9.u.=.q.9.9.9.9.9.9.",
"=.=.=.=.=.=.=.=.r.g.g.v.Y.Y.Y.Y.A.=.=.=.%.` ` ` ` ] ] ` ` { ] ] ` _ ` ` ` ` ` ` ` q.u.g.v.v.v.v.Y.j.=.&.Z.*.*.=.=.=.*.q.=.=.q.=.",
"y.y.A.+.+.=.p.9.9.l.c.v.Y.Y.g.y.u.9.y.y.} ` ` ` ` ` ` ` _ P P | ) ) ) ) I | ` ] :.i.g.l.l.Y.Y.h.u.p.9.u.y.t.&.=.=.=.=.*.=.*.O.o.",
"X.;.$.L.o.o.i.i.v.Y.Y.Y.v.c.9.i.9.i.t.*.=.` ` ` ` ` I P | P P P P P | | 1.' P ] 7.l.Y.Y.v.v.Y.g.9.9.9.y.*.*.=.=.*.*.=.-.o.O.o.o.",
"v.K.v.Y.v.K.K.h.9.9.9.c.Y.c.g.h.9.9.9.9.r.r.*.` ` | P 1.3.3.1.P 2.3.2.2.4.4.1.K.c.h.9.9.h.v.v.g.l.9.9.9.9.r.r.=.=.=.=.o.G.I.v.I.",
"v.v.v.v.v.v.Y.g.h.g.9.i.g.Y.c.h.h.9.9.9.9.i.y.K.H.n.j.3.3.4.2.4.3.s.s.x.x.v.v.Y.c.h.h.9.9.9.v.v.h.h.9.9.9.9.9.r.j.K.H.S.v.v.v.Y.",
"c.Y.v.l.v.Y.v.Y.v.Y.9.g.g.9.9.9.i.9.9.9.9.9.l.9.c.Y.Y.v.c.l.Y.Y.Y.l.v.v.h.v.v.Y.v.v.Y.i.9.h.9.9.9.9.9.9.9.9.9.v.9.h.Y.Y.Y.Y.l.c.",
"9.g.9.9.v.v.Y.v.v.Y.h.Y.Y.c.h.h.h.h.9.9.9.9.9.9.9.9.g.Y.9.9.g.l.9.9.9.g.9.l.Y.v.Y.v.v.h.Y.Y.Y.h.h.h.h.g.9.9.9.9.9.9.9.9.v.h.9.9.",
"9.9.9.9.l.l.l.9.l.l.l.l.l.9.9.r.y.y.9.9.9.9.9.9.9.9.9.9.9.9.9.i.9.9.9.9.9.h.l.l.9.g.l.l.l.l.g.9.r.y.r.9.9.9.9.9.9.i.9.9.9.9.9.9.",
"9.9.9.9.9.9.9.9.9.9.9.9.u.t.=.*.=.=.r.=.*.9.9.g.Y.l.9.9.9.9.9.u.u.9.9.9.9.9.9.9.9.9.9.9.9.9.y.&.*.} =.q.=.*.y.9.g.c.Y.i.9.9.9.9.",
"i.9.9.9.u.9.9.9.9.9.9.i.*.=.=.q.} =.=.=.&.k.z.Y.Y.v.v.v.=.q.p.} =.p.9.9.9.u.u.9.9.9.9.9.u.q.&.Z.=.q.=.=.=.=.Z.z.Y.Y.Y.Y.v.D.=.u.",
"Z.9.9.=.=.Z.u.=.y.9.Z.=.=.r.9.9.9.=.q.i.q.=.Z.Z.v.j.Z.q.9.=.q.9.9.=.u.9.w.&.*.u.r.q.9.q.=.=.Z.9.9.9.r.} i.y.=.Z.Z.z.c.=.q.r.r.=.",
"t.9.r.=.=.=.*.=.=.Z.y.9.9.9.9.9.9.9.9.i.i.u.u.i.i.u.i.u.=.i.9.u.=.=.9.9.*.=.=.=.&.=.=.q.9.9.i.9.i.i.9.i.9.9.u.y.i.i.u.u.u.t.t.i.",
"=.=.*.q.9.9.i.u.9.9.9.9.C.+.+.i.@.$.9.c.I.n.o.+.C.O.O.*.*.*.*.=.=.=.=.=.=.9.9.u.i.9.9.9.9.i.+.+.A.Z.+.9.d.v.P.O.O.p.O.O.-.=.=.=."
};
