/* XPM */
static char *_ae0eb788deb496dff32b2fe0b920bc1UCatqVXUNbdSTXlZ[] = {
/* columns rows colors chars-per-pixel */
"64 64 228 2 ",
"   c None",
".  c #000515",
"X  c #000024",
"o  c #000A2B",
"O  c #08162B",
"+  c #151C2E",
"@  c #191E2F",
"#  c #10152E",
"$  c #191E31",
"%  c #1C232F",
"&  c #1D2232",
"*  c #1E2930",
"=  c #232A2F",
"-  c #21262F",
";  c #222434",
":  c #2B2C32",
">  c #25253C",
",  c #262C34",
"<  c #2B3331",
"1  c #2B3732",
"2  c #343135",
"3  c #323E31",
"4  c #3C3938",
"5  c #322D36",
"6  c #433A3C",
"7  c #3C4A34",
"8  c #324638",
"9  c #394736",
"0  c #394F39",
"q  c #474A36",
"w  c #445335",
"e  c #495938",
"r  c #565639",
"t  c #514936",
"y  c #516237",
"u  c #536439",
"i  c #596A3A",
"p  c #5F723B",
"a  c #4E653E",
"s  c #64643D",
"d  c #6B6A3E",
"f  c #61743B",
"g  c #687A3E",
"h  c #2F2745",
"j  c #2D2C44",
"k  c #36334D",
"l  c #3B3553",
"z  c #3E3956",
"x  c #322B48",
"c  c #433C5B",
"v  c #42315C",
"b  c #4A3F40",
"n  c #4E3E68",
"m  c #3F5340",
"M  c #4F4341",
"N  c #544941",
"B  c #594C44",
"V  c #435C41",
"C  c #5B5748",
"Z  c #66574A",
"A  c #6E5E54",
"S  c #4B6946",
"D  c #4A6543",
"F  c #566B48",
"G  c #58794B",
"H  c #567859",
"J  c #657842",
"K  c #787642",
"L  c #786555",
"P  c #6C6A50",
"I  c #4D4166",
"U  c #54436D",
"Y  c #5A4473",
"T  c #63477C",
"R  c #6E506A",
"E  c #8A7659",
"W  c #865B7D",
"Q  c #967A6A",
"!  c #997D6B",
"~  c #8B7263",
"^  c #6E843F",
"/  c #5D8251",
"(  c #5C805A",
")  c #698749",
"_  c #748C42",
"`  c #768743",
"'  c #76954E",
"]  c #7D994B",
"[  c #7B9546",
"{  c #658C55",
"}  c #678A56",
"|  c #6B9154",
" . c #6C9559",
".. c #729453",
"X. c #729D5D",
"o. c #7A9955",
"O. c #738F55",
"+. c #7CA259",
"@. c #6C966D",
"#. c #789D6C",
"$. c #6B9572",
"%. c #799871",
"&. c #6C8663",
"*. c #76A464",
"=. c #79A763",
"-. c #7BA962",
";. c #7DA169",
":. c #74A269",
">. c #878547",
",. c #928E4A",
"<. c #829C46",
"1. c #829C4C",
"2. c #899A49",
"3. c #95924C",
"4. c #939D4B",
"5. c #9B9D4E",
"6. c #99954D",
"7. c #899556",
"8. c #979853",
"9. c #A09D4F",
"0. c #A19E50",
"q. c #8AA549",
"w. c #8EAA4B",
"e. c #87A147",
"r. c #92AD4B",
"t. c #9AA84D",
"y. c #95B34C",
"u. c #9AB64E",
"i. c #9BB94E",
"p. c #84AD5D",
"a. c #8AAE5C",
"s. c #87A754",
"d. c #96A75A",
"f. c #8FB257",
"g. c #8CB159",
"h. c #94B554",
"j. c #99B653",
"k. c #9AB850",
"l. c #94B259",
"z. c #9CB25B",
"x. c #A4A351",
"c. c #A8AA55",
"v. c #B2AE56",
"b. c #B0AD59",
"n. c #A3B554",
"m. c #A3B951",
"M. c #ABB954",
"N. c #A4B35D",
"B. c #ACB55C",
"V. c #ACB556",
"C. c #B3B157",
"Z. c #B2BA56",
"A. c #B5B65C",
"S. c #B9B65D",
"D. c #B6BA58",
"F. c #BDBA5B",
"G. c #A1B44F",
"H. c #9A846A",
"J. c #889D6C",
"K. c #809B70",
"L. c #AB926C",
"P. c #B79C74",
"I. c #A88C6F",
"U. c #82A566",
"Y. c #83AA61",
"T. c #8BAB61",
"R. c #8DA26C",
"E. c #86A36A",
"W. c #93AD61",
"Q. c #9AAF61",
"!. c #9AA769",
"~. c #97A569",
"^. c #9BB060",
"/. c #A4AC66",
"(. c #A9AE64",
"). c #A0A968",
"_. c #ACB062",
"`. c #B2B361",
"'. c #B9B56D",
"]. c #B8A178",
"[. c #C0BB5B",
"{. c #C7A97B",
"}. c #CDB575",
"|. c #6C4D8A",
" X c #674B84",
".X c #765395",
"XX c #7A5596",
"oX c #7A5598",
"OX c #74518F",
"+X c #855C95",
"@X c #875E86",
"#X c #8D6398",
"$X c #926398",
"%X c #9B6998",
"&X c #946789",
"*X c #A36E99",
"=X c #A8719A",
"-X c #A7719A",
";X c #A6878E",
":X c #B09490",
">X c #B2B2B4",
",X c #CAAE81",
"<X c #CFB584",
"1X c #D4B583",
"2X c #D9BC8A",
"3X c #CBB396",
"4X c #C1AEA5",
"5X c #DCC897",
"6X c #DACA96",
"7X c #E3CD98",
"8X c #E5D49D",
"9X c #DFD7A1",
"0X c #DAC7AA",
"qX c #EADCA5",
"wX c #E8D9A5",
"eX c #EADBB7",
"rX c #EEE1AB",
"tX c #EEE6AC",
"yX c #F0E4AC",
"uX c #F2E6BC",
"iX c #CDCDCE",
"pX c #E9D9C5",
"aX c #F3EBC6",
"sX c #F2EBD6",
"dX c #FAF6E7",
"fX c #FFFFFE",
"gX c #FDFBF6",
"hX c #EDE9E4",
/* pixels */
"      + +       - K q       y %   + +   d K   + + s t 8 8 s q     + +       + + y % t s       + +       + V 8           + +     ",
"    w r.[ % + + s F.9.8 G y i.f 5.F.s t D.F.3.X.V F.c.o.o.F.v.= + / X.w [ i 6.r u._ 5.F.F { 8 ,.v.t K ,.e =./ y % 7 y e i._     ",
"    f i.i.G ,.F.5.c.0.v.T.w.i.2.M.C.2.i.m.M.C.F.8.3.F.S.A.[.3.x.v.J j.i.i.d.M.t.q.i.C.F.d.+.u >.F.c.3.F.5.z.c.i.f u.u.w.i.f +   ",
"  % p g h.X.d c.D.F.Z.m.M.i.i.i.i.i.M.M.D.F.F.F.M.D.M.D.D.M.F.D.M.M.i.i.j.j.i.m.M.M.F.F.F.t.c.Z.Z.F.M.F.D.M.m.m.q.i.i.g.{ G G & ",
"  f i.i.g.-.f.r.m.m.i.i.i.i.i.n.N.M.Z.D.Z.M.Z.Z.i.i.i.i.m.i.m.i.i.i.q.p + T  Xh d D.Z.M.D.m.i.i.i.m.i.m.i.i.i.i.i.i.j.i.i.p.=., ",
"  % g [ i.p.-.j.j.M.F.D.M.Y.-.=.=.=.g.i.i.i.i.i.i.i.j.a.j.h.m.Z.x.u O W W @X.X> + + w.i.i.i.i.i.g.h.j.n.M.F.M.z.=.-.-.a.a.a V   ",
"    y i.j.p.j.p.g.N.Z.B.p.a.g.p.i.j.p.g.j.g.h.-.p.i.g.j.g.g.z.e n &X*X$X=X*X#X.XT x + s.p.-.j.h.h.h.a.l.n.D.z.p.g.p.g.i.w.r._   ",
"    G p.=.=.p.g.-.T.U.a.U.z.i.l.j.a.l.i.f.a.p.g.-.g.-.-.g.-.0 &X=X=X=X$X$X=X=X%X.X X& + o.p.p.p.=.a.p.p.U.a.Y.T.n.i.<.i.q.<.g   ",
"- >.4.-.p.g.g.Y.Q././.%.`.F.F.~.~.!.!.T.l.i.j.h.p.-.g.a.p.w |.%X=X*X.X=X=X=X=X+X.X.XoXO i g.=.g.a.p.W.~.`.J.J.F.F.x.3.K K K q   ",
": C.S.W.g.i.m.F.D.M.M.N.Q.T.B.A.A.^.A.F.N.B.N.N.W.a.i.i.x.O =X=X%X+X=X=X*X@X@X X.X.XY z + Q.T.j.i.Z.F.D.m.B.B.T.Q.B.S.N.N.c.F.s ",
"  ; | g.i.i.f.a.f.g.-.=.=.=.-.p.g.j.i.i.m.m.i.i.i.i.i.j.e XX=X+XU =X=XW @ + + + $ .XT I + i.i.i.i.g.g.h.a.=.=.=.=.p.a.f.i.w.d = ",
"  [ i.i.i.i.B.A.l.l.p.=.g.j.p.p.h.j.i.Z.F.F.M.i.i.i.i.n.@ %X*X> =X-XW + + > c c c .X.XY + i.i.i.k.A.n.l.g.Y.=.j.f.p.g.h.j.2.q   ",
"< u.k.m.M.Z.B.N.B.B.j.i.i.i.i.i.i.i.m.M.i.m.i.j.m.m.Z.A.@ .XR Y -XT + + > c c c  X.Xc x < j.m.M.D.N.B.B.B.j.i.i.i.i.i.i.k.n.u.y ",
"+ J ..-.-.-.U.Y.f.h.p.h.i.i.i.i.i.i.j.h.g.p.=.=.=.-.-.=.k  X.XY  Xl + 3 % z c c c c c $ / =.-.-.-.=.p.j.g.a.j.i.i.i.i.f.p.p.u w ",
"  % ) g.f.i.1X'.M.i.a.U.a.a.U.a.i.i.i.i.i.i.g.g.g.g.i.g.e l n & oX+ u U...@ ; ; ; ; + ) g.p.g.j.j.p.M.m.i.T.U.j.T.U.h.i.i.i.w.  ",
"  q n.M.i.i.1X1X}.B.(.F.J.R.`.!.#.a.U.T.i.Z.F.Z.M.m.i.j.c.+ oXl  X+ , (.`.&.3 & & [ t.F.D.Z.m.i.j.A.F.F.N.`.`.%.!.S.K.U.1._ [ % ",
"s c.t.m.i.M.t gX1X}.D.F.F.F.F./.`.R.).!.E.U.m.M.M.m.m.d + + c + l j + A + C !.R.`.#.#.m.M.M.M.m.D.F.A.F.F.D.F.F.[.F.!.`.0.5.w   ",
"+ E M.m.m.D.X dXgX1X_ m.n.-.^.B.M.F.D.M.F.(.A.M.i.u.= iXhXhX. X X z o H.{.L.- C.M.F.`._.D.m.i.M.D.D.-.W.j.i.M.z.-.B.B.Z.F.i.u.< ",
"e w.B.M.i.i.X aXfXgXo '.g.=.=.=.p.M.m.i.m.D.M.m.Z.1 o . 0XpXfXfXfXfXfXpX>X> O + r.i.Z.D.i.Z.m.i.k.a.-.a.=.a.g.p.=.=.=.g.M.i.g   ",
"i i.G [ i.i.X tXhXfX9X<XY.g.p.k.Y.Y.g.j.i.i.i.h.s.2 1XqXrXrX7X7X8XrXrXwX].L Q + J i.i.i.k.g.k.i.i.i.i.j.p.p.=.p.g.g.j.=.p.f.[ + ",
"+ w 3 =.g.-.X rX}.fXaX<X<.i.i.M.M.m.Z.Z.i.i.j.p.G Q 5XeXgXfXfXdXsXaXrXqX1X! Q : - m.i.k.g.=.Y.p.p.k.i.i.i.k.h.i.i.i.M.M.M.m.u._ ",
"^ j.X.X.=.=.8 2X8X0XaXhX1 =.p.p.B.F.F.D.n.p.-.*.4 5XrXsXiXdXaXrXrXrXrXwX1X<XQ Z + t.g.Y.=.=.=.=.=.-.a.-.p.=.=.-.p.p.a.A.F.M.r.g ",
"_ i.) G q.;.H X 7X1XqXdX4 | g.k.k.m.F.F.F.m.g.H C qXwX].& dXrXrXrXrXwX7X1X<XQ Q + x.M.i.#.%.U.T.;.$.$.#.:.=.=.=.p.g.i.i.Z.v.r   ",
"1 p s C.0.S.J.9 E 1X2XtX9X1 u.i.m.M.F.M.i.M.(.% Z dX2XB ; fXsXrXrXqX7X1X1X1XH.B ; % m.B.!.F.`.`.`.&.% 2 $.*.=.p.h.i.i.M.Z.F.F.: ",
"q K >.F.F.F.F.6.+ 1X1X6XtXN e.i.m.M.m.i.M.F.F.Z 5XwX1X+ & gXgXrX2X1X1X1X1X1XH.Q b + F.F.F.F.F.F.0.; {.+ c.A.M.m.i.i.m.i.M.V.0.- ",
"K F.m.i.m.i.M.i.< E 1X{.9X9X= m.M.M.F.F.F.F.x.O rX2XZ + & fXaXrX7X1X1X1X1X1X,XQ b + 9.F.F.M.G.3 L {.N + t.i.i.i.i.m.M.M.t.f _ 3 ",
"2 5.w.i.i.i.j.i.[ : 1X{.C tXC ..-.p.j.i.i.i.e.+ C N ; + + iXaXwX5X1X1X1X1X1XI.Q 6 + <.i.i.[ 3 L 1XB + $ r.M.m.k.g.f.-.-.g.r.u.i ",
"  1 o.k.j.p.a.p.a.% E 1XM wX9X+ g.a.=.f.i.k.7 & : + + + + + # # + ; L {.1X{.Q 4 + + <.u.w ; L 1XB x |.h c.F.B.W.-.=.p.g.j.q.3 + ",
"  0 *.p.f.g.h.j.f.] 2 1XP.H.rXB e.i.e [ h.-.+ L hXP.+ + + & & o 6X9XwX1X1X<XQ Q + + e @ Z Q ! A |..X.Xh s.k.h.l.j.j.j.h.a.q.V + ",
"3 e.1.-.-.-.-.=.-.E.+ E 1XZ <XP.m O &XR [ k.o rXqX1X6 + iXgXaXyXwX2X1X{.I.I.Q ; o O P.{.1X1X:X+X.X.X.Xh J.#.$./.F.z.%.a.@.$.*.D ",
"e r.a.=.h.i.k.B.F.D.x.4 1X~ : 1XC T %XT O z.o rXsXsXL.+ hXsXrXrX2X1X1X1X! Q 5 4 tXqXH.P X L.1X.X.X.X.Xh c.(.`.N.A.F.F.A.c.S G 1 ",
"= x.M.n.h.i.m.n.k.k.h.% H.! 5 {.P.v O OXW g # L.rXqX1XO hXuXrXwX1X1X1X1X! ! 2 2 1XX E {.1X1X1XXX$X.X.Xh q.g.T.=.-.T.z.Y.a._ e.= ",
"= u.w.i.i.i.l.Q.p.-.=.G : Q A O I.O |.=XR 4.q.C rXrX8X>XwXrXrX7X1X1X1X{.L @ + 2 qXo 1X1X1XwXtX*X$X.X.Xh X.=.=.p.p.p.g.i.i.i.u.< ",
"+ e 7 u.i.m.F.F.Z.Z.) + j L L + v |..X|.w M.` + P.8XrXdXdXrXrX7X1XL.E o + $ $ 2 1Xo 1X1X5X8X0X*X.X.X.Xh t.h.g.i.i.j.i.i.i.i.[ 1 ",
"i h.*.s.z.N.T.-.a.' v  Xk + > z Y |.v + J h.+ + > P.rXdXdXrXyX,Xo + + + j l $ 2 1X~ 1X1XtX8X3X$X.XXX;XN o.g.k.i.i.g.j.g.g.y.u.e ",
"3 _ { -.p.g.=.h.k.q.+ + + l c z > 6 L L + s.+ ; c $ 3XqX5X].# + + + > c c c $ 2 1X~ 1X1X1X1X:X#X:X1X1XN w.h.h.i.j.h.h.f.j.1.w   ",
"+ = j.i.i.i.l.D.F.m.o.; c z ; + N 1XP.! O g + c I c + : & + + > k c I c I c & 2 1XQ 1X1X1X1X:XtXqX1X1XN s.R.R.;.%.!.#.y.i.y.e   ",
"r x.x.M.m.m.F.F.F.S.F.= $ + + ~ 1X1X1XQ O J 9 > I .Xc + + & c c I .X|.I |.c & 2 1XB 1X1X;X+X:XqX2X1X{.% c.F.F._.F.F.,.K w K K @ ",
"r n.i.i.M.F.F.N.N.D.m.V.C.d.% P.1X1XP.A + F q.+ c .XI c c c c .X.X.X XOXc c & 2 1X+ ;X%X#X=X4XwX2X1X{.2 M.m.F.A.N.F.F.F.v.F.F.d ",
"+ g 4.m.i.m.m.Y.=.-.g.i.h.=.0 + B 6 6 + $ >.F.1 @ |..XI c  X.X.X.X.XOXc c z + 2 I.# .XXX#X%X;X1X1X1X6  .p.j.k.g.=.T.Y.j.F.i.m.r ",
"= u.k.m.i.i.f.f.k.p.=.-.=.-.=.o.% % + c k f i.w.+ +  X.X.X.X.X.X.X XI c c $ + ; Q + .X.X.X.X1X1X1XZ 3 u.=.-.=.=.=.Y.p.-.g.f.g + ",
"  g =.p.k.g.i.i.i.h.k.g.h.i.j.i.h.h.+ > + f i.a.{ + + l U U U U I c c z > + + + M ~  X.X.X*X1X1XA 7 i.j.j.h.g.j.k.j.i.g.j.i.i.` ",
"G o.s.p.=.=.p.k.h.h.h.p.a.g.j.z.F.F.c.5.2.g.p.-.*.* + + + + + + + + + + + + 6.F.q M M  X.X;X1XA 8 g.k.g.j.g.p.g.h.h.B.F.Z.u.i.<.",
"<.i.g.+./ { #.$.:.=.=.=.=.-.a.h.l.Z.F.D.M.j.a.*.@.+ + + S H / / / } + + + ' n.[.F.q # M  X;XL 9 p.@.$.=.=.=.=.=.p.g.h.z.C.w e 7 ",
"8 g K s 3.3.%.R.R.$.*.=.=.-.g.k.i.m.F.F.Z.Z.W.%.c.+ + + + F $.#.=.X.+ + _ i.i.F.F.Z.w ~ o v q R.J.$.~.%.$.=.=.=.Y.h.i.i.t.D  .0 ",
"  r F.[.F.F._.F.F._.R.z.l.i.i.i.M.D.Z.i.m.M.F.F.F.>.< + r 4 b.J.d.J + 8 i.m.Z.F.m.i.M.w + r F.F.F._.F.F.~.Q.z.j.i.i.h.p.+.p.=.D ",
": C.M.M.D.M.F.M.Z.F.Z.i.m.i.i.i.i.i.Z.M.D.F.F.F.n.5.4.5.4.4.0.4.e + 3 <.<.<.r.G.Z.M.F.F.K Z.Z.M.M.F.m.F.D.M.i.m.i.i.i.i.m.Z.J + ",
"- >.u.i.i.i.m.i.i.i.i.i.i.i.i.z.z.n.M.Z.Z.M.G.4.<.<.<.<.2.<.2.<.^ 7 f <.1.1.1.2.4.M.M.M.Z.m.i.i.i.m.i.m.i.i.i.i.i.k.z.z.m.c.y.w ",
"+ p y.i.i.f.a.j.j.M.F.F.M.-.-.=.=.=.p.i.i.y.<.<.<.<.] ..] ' 4.5.9.4.' { | { { | ] <.i.i.i.i.i.i.p.f.h.n.Z.F.Z.z.=.-.=.=.-.X.i 7 ",
"1 u.g.f.j.g.j.g.f.z.M.n.g.g.h.p.i.k.g.g.j.s.' | ..<.' <.' ' 1.2.4.' ' ] | <.<.' ' ] f.g.p.-.j.h.h.h.g.l.z.M.l.g.h.a.f.i.j.+.&   ",
"% D f.-.g.=.Y.p.-.U.;.T.#.N.m.a.h.T.a.i.h.g...] | ' | | ..| ..} ..} o.2.] ' ' O.<.w.h.g.h.a.p.p.=.p.p.Y.;.T.;.E.B.i.T.w.g s r   ",
"S  .g.-.p.h.f.T._._.(.%.S.F.F.!.!././.T.a.i.h.s...| ] ' ..7.7.5.&.8.0.0.7.7.7.8.R.T.i.j.g.g.=.f.g.g.Q./.S.R.~.F.F.A._.x.c.F.C.: ",
"  S  .a.g.i.m.F.Z.m.m.N.W.Y.N.B.B.W.B.D.N.B.B.B.z.a.u.u.5.4.4.2.7.7.| 7.N.C.Q./.F.B.B.B.B.N.W.j.i.Z.D.Z.i.n.N.Y.W.N.A.N.z.k.t.: ",
"+ = r.i.i.i.g.p.g.p.-.=.=.=.-.a.h.k.i.i.m.m.i.i.i.i.i.h.p.p.g.p.=.=.=.=.a.g.j.i.i.m.M.i.i.i.i.i.i.p.p.g.p.=.=.=.=.p.g.h.i.r.7   ",
"y y.e.i.i.i.Z.S.j.j.a.=.g.j.a.a.h.j.m.D.D.F.Z.i.i.i.i.M.F.z.z.g.-.p.i.g.a.f.h.i.Z.D.D.F.m.i.i.i.m.S.B.z.h.p.=.j.h.a.g.h.j.t.6.= ",
"  g 1.M.M.D.B.Q.N.N.h.i.i.i.i.i.i.i.m.m.i.i.i.h.n.M.D.A.W.N.N.z.i.i.i.i.i.i.i.k.m.i.i.k.j.j.M.Z.D.^.N.N.N.j.i.i.i.i.i.i.i.m.t.= ",
"  w +.-.=.=.=.p.h.j.g.h.i.i.i.i.i.i.j.h.p.p.=.=.=.=.=.=.-.g.j.g.f.k.i.i.i.i.i.i.h.g.p.=.=.=.=.=.=.=.a.j.f.g.j.i.i.i.j.a.=.) #   ",
"  <.i.g.p.i.p.M.Z.i.a.;.a.a.;.Y.i.i.i.i.i.i.h.f.f.f.i.g.h.D.m.h.;.U.h.;.U.h.i.i.i.i.i.j.h.g.f.j.j.p.Z.M.i.U.;.h.U.;.T.z.F.C.r   ",
"  7 ) X.=.j.Z.F.F.B.`.F.R.!.S.).#.U.;.U.i.M.F.D.Z.m.i.z.F.F.F.(.F.(.J.`.A.$.U.U.;.h.m.F.F.D.M.i.j.S.F.F.N.S.S.J.).F.Q.F.F.F.v.: ",
"  V =.*.@.T.F.S.S.F.Z.F.F.F.F.(.A.!.(.).R.U.m.M.M.m.M.F.F.A.F.D.D.F.F.F.`.`.(.!.A.#.#.k.M.M.M.m.F.F.A.F.F.Z.F.F.D.F.M.m.m.>.v.: ",
"  8 ( $.:.*.^.W.Y.l.j.m.N.=.W.N.n.F.Z.M.F.`.A.Z.M.m.M.Z.N.=.z.h.i.M.T.T.N.N.Z.F.M.F.S.`.D.m.i.M.Z.Z.=.T.l.i.M.n.h.k.i.j.q.w +   ",
"    f h.q.j.j.F g.-.-.s.p.| X.=.) f | s.i.M.M.w.v.m.i.h.-.g.| =.g.' -.=.=.=.1.t.i.i.M.M.i.t.t.i.r.p.p.g.-.o.+.+.=.) i.o.i.r.=   ",
"    _ i.<.y y 7 _ _ g.S X./ F i...0 =.} u.i.r.u.K D.` u.^ u._ e 8 +.g.+.+.r.w.f u.<.i.i.^ f i.r.f i.^ r.i { =.S S % p y i.<.    ",
"    % f w       + p _ % +     u 7 + + % <.r.w _ % + + +   u w   + p _ S S p _ = u w r.<.% % f e w _ % + + S { 0         + +     "
};
