/* XPM */
static char *result[] = {
/* columns rows colors chars-per-pixel */
"64 64 231 2 ",
"   c #000012",
".  c #000024",
"X  c #000A2A",
"o  c #02132B",
"O  c #09182D",
"+  c #151C2E",
"@  c #1A1D2F",
"#  c #10152E",
"$  c #1C1E30",
"%  c #231A30",
"&  c #1C232F",
"*  c #1E2331",
"=  c #1E2930",
"-  c #232A2F",
";  c #21262F",
":  c #242332",
">  c #2D2337",
",  c #2B2C32",
"<  c #262C34",
"1  c #362639",
"2  c #2B3331",
"3  c #2B3732",
"4  c #343135",
"5  c #323E31",
"6  c #3C3938",
"7  c #472834",
"8  c #433A3C",
"9  c #66323C",
"0  c #3C4A34",
"q  c #324638",
"w  c #394736",
"e  c #394F3A",
"r  c #474A36",
"t  c #445335",
"y  c #495939",
"u  c #565639",
"i  c #514936",
"p  c #516237",
"a  c #536339",
"s  c #596B3B",
"d  c #5F723B",
"f  c #4E653E",
"g  c #64643D",
"h  c #6B6A3E",
"j  c #61743B",
"k  c #687A3E",
"l  c #3F2940",
"z  c #56334B",
"x  c #5A3651",
"c  c #493544",
"v  c #613956",
"b  c #663B59",
"n  c #693D5B",
"m  c #673557",
"M  c #733D52",
"N  c #3F5340",
"B  c #4D4342",
"V  c #544941",
"C  c #594C44",
"Z  c #435C41",
"A  c #5B5748",
"S  c #66574A",
"D  c #7B425A",
"F  c #74405A",
"G  c #715B52",
"H  c #4B6946",
"J  c #4A6543",
"K  c #566B48",
"L  c #58794B",
"P  c #567859",
"I  c #657842",
"U  c #787642",
"Y  c #786555",
"T  c #6C6A50",
"R  c #884648",
"E  c #9A494B",
"W  c #864559",
"Q  c #9C4C58",
"!  c #8E5752",
"~  c #A54D4F",
"^  c #A54E54",
"/  c #AB5356",
"(  c #B65555",
")  c #B75957",
"_  c #9D695B",
"`  c #8A7659",
"'  c #B6645C",
"]  c #A56C5E",
"[  c #967A6A",
"{  c #997D6B",
"}  c #8B7263",
"|  c #BD6D61",
" . c #BB7666",
".. c #A97161",
"X. c #C27A68",
"o. c #6E843F",
"O. c #5D8251",
"+. c #5C805A",
"@. c #698749",
"#. c #748C42",
"$. c #768743",
"%. c #76954E",
"&. c #7D994B",
"*. c #7B9546",
"=. c #658C55",
"-. c #678A56",
";. c #6B9154",
":. c #6C9559",
">. c #729453",
",. c #729D5D",
"<. c #7A9955",
"1. c #738F55",
"2. c #7CA259",
"3. c #6C966D",
"4. c #7C9D6D",
"5. c #749C6B",
"6. c #6B9572",
"7. c #799871",
"8. c #6C8663",
"9. c #76A464",
"0. c #79A763",
"q. c #7BA962",
"w. c #7DA169",
"e. c #74A269",
"r. c #878547",
"t. c #928E4A",
"y. c #829C46",
"u. c #829C4C",
"i. c #899A49",
"p. c #95924C",
"a. c #939D4B",
"s. c #9B9D4E",
"d. c #99954D",
"f. c #899556",
"g. c #979853",
"h. c #A09D4F",
"j. c #A19E50",
"k. c #8AA549",
"l. c #8EAA4B",
"z. c #87A147",
"x. c #92AD4B",
"c. c #9AA84D",
"v. c #95B34C",
"b. c #9AB64E",
"n. c #9BB94E",
"m. c #84AD5D",
"M. c #8AAE5C",
"N. c #87A754",
"B. c #96A75A",
"V. c #8FB257",
"C. c #8CB159",
"Z. c #94B554",
"A. c #99B653",
"S. c #9AB850",
"D. c #94B259",
"F. c #9CB25B",
"G. c #A4A351",
"H. c #A8AA55",
"J. c #B2AE56",
"K. c #B0AD59",
"L. c #A3B554",
"P. c #A3B951",
"I. c #ABB954",
"U. c #A4B35D",
"Y. c #ACB55C",
"T. c #ACB556",
"R. c #B3B157",
"E. c #B2BA56",
"W. c #B5B65C",
"Q. c #B9B65D",
"!. c #B6BA58",
"~. c #BDBA5B",
"^. c #A1B44F",
"/. c #9A846A",
"(. c #889D6C",
"). c #809B70",
"_. c #AB926C",
"`. c #B89B74",
"'. c #A88C6F",
"]. c #82A566",
"[. c #83AA61",
"{. c #8BAB61",
"}. c #8DA26C",
"|. c #86A36A",
" X c #93AD61",
".X c #9AAF61",
"XX c #9AA769",
"oX c #97A569",
"OX c #9BB060",
"+X c #A4AC66",
"@X c #A9AE64",
"#X c #A0A968",
"$X c #ACB062",
"%X c #B2B361",
"&X c #B9B56D",
"*X c #B8A178",
"=X c #C0BB5B",
"-X c #C5836D",
";X c #C58A6D",
":X c #CB9B79",
">X c #C8A97B",
",X c #CDB575",
"<X c #B2B2B4",
"1X c #CAAE81",
"2X c #CFB584",
"3X c #D5B483",
"4X c #D9BC8A",
"5X c #D1B78E",
"6X c #C0BDBB",
"7X c #DCC897",
"8X c #DACA96",
"9X c #E2CD98",
"0X c #E5D49D",
"qX c #DFD7A1",
"wX c #DBC6AC",
"eX c #EADCA5",
"rX c #E8D9A5",
"tX c #EADBB7",
"yX c #EEE1AB",
"uX c #EEE6AC",
"iX c #F0E4AC",
"pX c #F2E6BC",
"aX c #CDCDCE",
"sX c #E9D9C5",
"dX c #F3EBC6",
"fX c #F2EBD6",
"gX c #FAF6E7",
"hX c #FFFFFE",
"jX c #FDFBF6",
"kX c #EDE9E4",
"lX c None",
/* pixels */
"lXlXlX+ + lXlXlX- U i lXlXlXp = lX+ @ lXh U lX+ + g i q q h r lXlX+ + lXlXlX@ + p & i g lXlXlX+ + lXlXlX+ Z q lXlXlXlXlX+ + lXlX",
"lXlXt x.&.& + + g ~.h.q L a b.j d.~.g i W.!.t.,.Z =XK.<.<.~.R.- + O.,.t *.s d.u n.#.s.~.H =.q t.J.i U p.Z 0.L p * 0 p p n.#.lXlX",
"lXlXd n.n.K p.~.s.H.h.J.{.l.n.i.I.T.i.S.P.I.R.~.d.p.~.!.W.~.d.H.J.I S.n.b.B.I.c.k.n.J.~.B.N.A r.=XH.t.~.j.F.H.n.j n.b.k.S.d + lX",
"lX& d k V.,.h L.!.Q.!.^.I.n.n.n.n.n.I.I.E.=X~.=XI.W.E.!.!.I.~.!.I.P.P.n.n.Z.b.L.I.I.=X=X=Xj.^.I.E.~.I.!.!.I.P.P.k.n.n.C.=.L L = ",
"lXj n.n.C.q.V.v.P.S.n.n.n.n.n.L.U.I.I.E.!.I.E.E.n.n.n.n.P.n.P.n.n.n.k.d O E E 7 I !.E.I.!.n.n.n.n.P.n.P.n.n.S.n.n.n.Z.n.S.2.q.< ",
"lX& k *.n.m.q.S.A.I.!.!.I.q.q.q.q.q.C.n.n.n.n.n.n.n.Z.C.Z.Z.P.E.G.u o ] _ ] ( 1 + + k.n.n.n.n.n.M.Z.Z.L.I.~.E.A.q.q.2.M.M.f J lX",
"lXlXp n.Z.2.S.m.V.U.E.Y.M.C.V.m.S.Z.m.C.Z.V.Z.q.M.n.C.Z.C.C.F.y R ..-X| -X-X' ( E 7 & &.C.q.Z.V.Z.V.M.V.L.E.F.[.V.m.C.n.l.l.#.lX",
"lXlXO.M.q.q.m.C.q.m.].C.w.F.S.D.Z.C.D.n.V.C.[.V.q.V.q.m.C.2.e  .-X-X;X' | -X-XX.) Q : + 2.M.M.C.0.M.M.m.].D.].{.P.n.z.n.k.z.k lX",
": t.k.q.m.C.C.q.+X@X+X7.%X~.~.oXoXXXXX{.D.n.Z.Z.m.q.V.M.m.y / X.-X-X) -XX.-X-X) ) ( ) o s C.q.C.C.M. XoX%X|.}.~.=XH.a.U U ` r lX",
", R.%XD.C.n.I.~.E.I.I.U.OXm.Y.%XW.F.%X!.U.Y.Y.Y. XM.n.P.G.o -X;X .' -X-X'...| E ) ( W v + F.{.Z.n.E.!.E.P.Y.$X[.OX$X~.U.OXH.~.g ",
"lX; ;.M.n.n.V.M.V.C.q.q.q.q.q.m.V.Z.n.n.P.P.n.n.n.n.n.Z.y ) X.' R -X-X_ $ + + + % ( Q n O n.b.n.n.C.M.Z.C.q.q.0.q.m.C.V.b.l.h - ",
"lX*.n.n.n.n.E.!.D.D.m.q.C.Z.M.m.Z.Z.n.E.W.~.I.n.n.n.b.L.@ X.X.1 -X-X_ + + 1 b n n ( ) W + n.n.n.S.Y.Y.D.C.q.q.Z.V.q.C.V.n.i.r lX",
"2 b.Z.P.I.E.Y.+X%XY.A.S.n.n.n.n.n.n.P.I.n.P.n.Z.P.P.E.E.@ ( G R -XE + + > n n n ^ ( M c < F.P.E.!.@XU.E.L.S.S.n.n.n.n.n.n.L.A.a ",
"+ k >.q.q.q.[.[.V.Z.m.Z.n.n.n.n.n.n.Z.Z.C.m.q.q.q.q.q.0.z Q ( R Q z + 5 & b n n n n m @ O.q.q.q.q.q.m.Z.M.M.Z.n.n.n.n.D.2.M.a t ",
"lX& @.V.Z.S.3X&XI.n.D.q.C.D.q.M.n.n.n.S.n.b.V.C.C.M.S.V.y x R : ( O a 0.>.@ > > > > + @.V.M.C.Z.S.m.I.I.n.{.].A.{.q.D.S.n.n.x.lX",
"lXr L.I.n.n.3X3X,XY.$X&X(.}.%XXX4.M.].{.n.I.~.I.I.P.n.F.H.O ( z Q o 3 +X%X8.5 * = *.c.~.W.E.P.n.S.W.~.~.+X%X%X4.XXQ.).].y.#.*.= ",
"g J.v.P.P.E.i jX3X,X!.~.~.=X~.+X%XoX+XXX|.].I.I.I.I.L.g # + M o z c # Y + A #X}.%Xw.w.P.I.E.I.n.E.~.%X=X~.!.=X~.=X~.XX%XG.c.y lX",
"& ` I.P.P.E.. gXjX3Xo.L.L.m.OXY.I.Q.!.E.~.$XW.I.^.n.- aXkXfX    . m % /.>X_.: R.I.Q.%X$X!.n.n.I.!.E.q.OXS.n.I.F.q.$XU.E.~.S.b.2 ",
"t k.I.I.n.n.. pXhXjXX &XM.0.0.0.[.I.S.n.P.E.I.P.E.2 X   wXsXhXhXhXhXhXsX<X< O # v.S.I.E.n.!.I.n.S.C.q.C.q.m.C.m.q.q.q.C.I.b.k lX",
"s b.L o.n.n.. uXkXhXqX2X[.C.m.S.q.[.V.Z.n.n.S.Z.N.4 3XrXyXyX9X8X0XyXeXqX*XY [ + I n.n.n.n.V.Z.n.n.S.S.S.m.q.q.M.C.C.Z.q.m.V.*.# ",
"+ e q 2.C.q.. uX,XhXdX2X&.n.n.P.I.I.E.E.S.n.S.m.L /.8XtXjXhXhXgXfXdXyXeX3X{ [ 1 ; S.n.b.C.0.q.M.q.n.n.n.n.Z.V.n.n.n.I.I.I.P.b.o.",
"o.Z.,.,.q.q.q 5X0XwXdXkX3 q.m.M.Y.~.~.!.L.M.q.9.6 8XyXfXaXgXdXyXyXyXyXrX3X1X[ S + c.C.[.q.q.q.q.q.q.{.0.M.q.q.q.[.m. XW.=XI.x.o.",
"o.n.@.L k.q.P . 0X3XrXgXw ;.C.Z.S.I.~.~.!.P.V.P A yX0X*X$ jXyXyXyXyXrX9X3X3X{ [ + G.I.b.5.7.].{.q.6.6.5.0.0.0.q.m.C.n.n.E.J.i lX",
"5 j T R.j.Q.(.0 ` 3X4XuXqX3 v.n.P.I.~.I.n.I.@X= S jX4XC : hXgXeXyXyX9X3X3X3X/.C : & P.Y.#X=X%XR.%X8.* 2 6.9.q.m.V.n.n.I.E.=X!.2 ",
"r ` r.!.=X!.=Xa.+ 3X3X4XuXV N.n.n.I.P.n.I.!.=XS 7XeX,X# : hXjXuX4X3X3X3X3X3X/./.8 @ ~.~.=X~.!.!.j.: >X+ H.Q.T.P.n.n.S.n.E.H.j.; ",
"h ~.P.n.S.n.E.n.2 ` 3X>XqXqX= I.I.I.!.!.~.~.H.O tX3XS $ : hXdXuX9X3X3X3X3X3X1X{ B + j.!.~.I.^.w Y 1Xi @ c.S.S.n.n.n.I.I.b.j o.5 ",
"2 k.x.n.n.n.n.n.*.< 3X>XA uXA <.q.M.S.P.n.n.k.+ A V : + + aXdXeX9X>X3X2X3X1X'.[ 8 @ y.n.n.*.5 Y 3XV @ @ x.I.S.S.V.V.q.q.V.x.n.d ",
"lX3 &.n.Z.m.M.M.M.* ` 3Xr yXqX+ C.C.q.V.Z.A.0 = 4 + + + + O # # # : ! >X3X1X[ 6 + + &.b.t : Y 3XC 7 ^ 7 H.~.W.M.q.q.m.V.Z.k.5 @ ",
"lXe 0.m.V.C.Z.Z.D.&.6 3X`./.uXC z.n.p *.Z.2.+ Y kX`.+ + + : ; X 7XrXrX3X3X3X{ [ + + y & S [ /.! / ( ( 7 N.b.Z.D.S.Z.Z.Z.M.z.Z + ",
"5 z.y.q.q.q.q.q.q.|.+ ` 1XS 3X*XN o ..G *.S.X yXeX3X8 + aXjXdXiXrX4X3X1X'.'.[ : o o `.>X3X>X`.' ( ( ( 7 (.7.3.+XQ.F.4.V.3.6.e.J ",
"y x.M.q.Z.n.S.$X~.W.G.6 3X` : >XA E X.R o A.X yXfXfX_.+ kXfXyXiX5X3X3X3X{ { 1 6 uXeX/.G . _.3X( ( ( ( 7 H.@X%XY.W.~.~.%XH.K L 3 ",
", j.I.L.Z.n.L.L.L.S.V.* [ [ 4 >X`.9 o / _ k + _.iXyX3X# aXdXyX0X3X3X3X3X{ { 4 4 3X. ` >X4X,X3X) | ( ( 7 l.D.[.q.q.].OX[.C.$.z.= ",
"< v.l.Z.n.n.D.OX2.m.9.O.> [ G o /.o ~ -X! d.k.A eXeX7X6XrXyXiX7X3X3X,X3XG $ + 4 rX. 3X3X3XeXuX-X| ( ( 7 ,.0.0.M.m.q.C.n.n.n.v.3 ",
"& y 0 b.S.P.~.~.!.I.@.o l Y Y + 9 ~ ( ~ t T.$.+ `.rXyXgXgXyXuX7X3X_.[ o + $ % 4 3X. 3X3X7XrX9X-X( ( ( 7 c.D.V.S.n.S.n.n.n.n.*.3 ",
"s V.0.N.F.@X{.q.C.<.9 Q x # 1 b W ~ M O k A.+ + 1 `.uXgXgXeXiX1XX + + # c x : 4 3X} 3X3XuX9X3X| ( ) -XV <.C.S.n.n.C.S.C.C.b.v.y ",
"q o.;.q.2.C.q.D.n.k.+ + + x n v 1 8 Y Y + N.+ > n : 5XyX9X*XO + $ + 1 n m b $ 4 3X} 3X3X3X3X:X| :X3X2Xi l.Z.Z.b.Z.A.V.V.Z.&.t lX",
"+ - v.n.n.n.D.!.~.S.<.> b x > @ i 3X:X[ O I # n D n $ < * + + 1 z n D n M n > 1 3X[ 3X3X3X3X:XuXeX3X3XV N.oX}.].7.oX4.v.n.v.y lX",
"u j.j.E.P.P.!.~.~.~.=X, : + @ } 4X3X3X[ O I 8 1 D / n $ + > b n n ) / W / n : 4 3XC 3X3X;X' :XrX5X3X>X; H.=X=X@XQ.~.t.U t U U & ",
"u P.n.b.I.!.=XU.U.W.L.T.R.B.& `.3X3X`.G + K g.$ b / F b v n F / ( ( Q / n n : 1 3X+ X.X.X.X.3XrX4X3X>X2 E.L.E.W.U.~.~.~.J.~.!.h ",
"+ k a.P.n.S.P.[.q.q.V.S.Z.0.e & C c 6 $ @ r.!.2 $ ^ ( D F Q ( ( ( ) / n n x + 4 '.+ ( ) ' X.-X3X3X3X8 :.m.Z.n.M.0.m.m.S.!.P.L.u ",
", b.n.P.n.S.V.V.S.m.q.q.q.q.q.2.& & + b z j n.k.+ + ~ ( ( ( ) ( ( ^ F n b % + < [ + ) ( ( ( ,X3X,XS q n.q.q.q.q.0.m.M.q.D.V.k + ",
"lXo.2.m.S.C.S.S.S.Z.S.C.V.n.S.n.Z.Z.@ 1 + d S.C.-.+ + 9 D W W D F n n b 1 + + + c } ~ ( ( X.3X3XT q n.Z.Z.Z.C.S.S.Z.S.V.Z.n.n.$.",
"L <.N.m.q.9.q.n.V.V.D.m.C.V.Z.F.Q.!.K.s.i.C.m.q.,.= + + + + + + + # # + + + d.~.r B i E ( ;X3XT q Z.S.V.Z.C.q.C.Z.D.Y.=XE.n.n.&.",
"*.n.V.2.O.=.e.e.e.0.q.0.q.q.m.Z.D.E.~.E.L.A.C.9.3.@ + + H +.+.O.O.-.+ + + %.L.=X~.t # B E ;XY 0 m.3.6.9.q.q.q.0.m.M.V.A.R.t y 0 ",
"q o.h h f.d.5.(.}.6.0.q.q.q.V.S.n.n.~.~.E.E. X4.H.+ + + @ K 6.5.0.,.+ + #.n.n.!.~.E.i } o 9 r }.(.6.oX7.6.q.q.q.2.Z.n.b.c.f :.e ",
"lXu ~.=X~.~.%X=X=X$X}.F.D.n.n.n.I.!.E.n.P.L.=X~.=Xr.4 + u 5 K.(.B.K + 5 n.I.E.Q.P.S.T.y + u =X=X=X%X=X=XoXOXOXA.S.n.Z.m.2.N.9.J ",
", R.I.P.!.I.Q.I.!.!.E.n.I.n.n.n.n.n.E.I.W.~.=X~.^.s.a.c.s.a.j.s.y + 5 y.y.u.x.^.E.I.~.~.h E.E.I.I.!.T.!.!.I.n.I.n.n.b.n.P.E.K & ",
"; r.b.n.b.b.P.b.n.n.n.n.n.n.n.F.F.L.I.I.E.T.^.a.y.y.y.y.i.y.i.u.$.0 d y.y.u.u.a.a.E.I.I.E.P.n.n.n.P.S.P.n.n.n.n.n.S.F.F.P.^.x.y ",
"+ d v.b.S.V.M.Z.A.I.~.~.L.q.q.q.q.q.m.S.S.v.z.&.z.z.*.;.u.%.a.s.j.a.1.-.;.;.=.;.&.&.n.S.S.S.n.n.C.V.Z.A.E.%X!.U.q.q.0.q.q.<.s 0 ",
"2 b.V.V.A.C.Z.C.V.F.I.L.C.C.D.m.n.Z.V.V.Z.2.%.;.;.y.%.y.%.%.&.i.a.<.%.&.;.y.y.>.%.&.V.C.q.q.S.V.D.Z.V.D.A.E.A.C.V.M.V.S.Z.2.= lX",
"& J V.2.C.q.q.M.q.q.].{.w.@XS.C.D.{.C.S.Z.C.>.&.;.%.;.;.>.:.1.-.1.-.1.a.&.<.1.1.z.V.V.C.Z.C.m.m.0.[.[.[.].{.].[.Y.S.[.x.k g u lX",
"H :.V.q.C.V.V.m.$X$X$X7.W.~.~.#X#X+X+X{.D.n.Z.N.>.;.&.%.>.f.f.s.P g.j.j.f.f.f.g.{.M.S.Z.V.C.q.V.V.C.OX.X%X}.oX=X~.!.$XG.H.~.R., ",
"lXH ;.M.C.n.I.!.E.P.P.U. Xq.@XY.E. XY.E.U.E.Y.Y.F.m.n.b.s.c.a.i.g.f.:.f.F.E..XU.W.T.Y.Y.Y.+XC.S.S.E.!.E.S.I.+Xq. XU.W..XF.n.c., ",
"+ 2 v.n.n.n.C.M.C.m.q.q.q.q.q.C.V.n.n.n.P.I.n.n.n.n.n.A.m.m.M.q.q.w.q.q.M.V.Z.n.n.P.I.n.n.n.n.n.S.M.m.V.m.0.q.q.0.[.C.Z.n.x.0 lX",
"p v.z.n.n.S.E.W.F.A.m.q.V.S.C.m.Z.Z.n.!.!.!.I.n.n.n.n.L.~.F.L.V.q.m.S.C.M.V.Z.n.!.!.!.!.P.n.n.n.S.Q.E.A.V.m.q.S.Z.M.V.Z.b.c.d.- ",
"lXk z.L.I.E.@XOXU.$XA.n.n.n.n.n.n.n.I.I.n.n.n.V.L.I.E.W. XU.U.F.n.n.S.S.n.n.n.n.I.n.n.n.Z.A.I.I.!.OX+XU.+XS.n.n.n.n.n.n.n.P.c.- ",
"lXt 2.2.q.q.0.m.V.S.m.V.S.S.S.n.n.n.Z.Z.M.q.q.q.q.q.q.q.q.C.Z.C.Z.S.n.n.n.S.S.n.Z.C.M.0.0.q.9.q.q.q.m.S.V.V.Z.n.n.n.Z.M.0.-.# lX",
"lXy.n.C.m.n.q.I.E.n.M.w. XC.w.].S.S.n.n.n.n.Z.V.C.D.S.C.A.E.P.A.w.q.D.|.].A.n.n.n.n.S.Z.V.C.V.n.Z.m.E.I.S.].w.D.w.w.{.F.!.R.u lX",
"lX0 =.,.q.Z.E.~.~.E.$X~.oXXXW.#X7.[.w.].n.E.~.E.I.I.S.S.~.=X!.@X~.@X(.%X%X5.w.].w.Z.P.=X!.E.I.n.S.Q.~.=XU.%XQ.(.+X~.OX=X~.!.J., ",
"lXy q.e.5.M.~.!.!.=XE.~.~.~.~.$XW.XX$XXX|.].I.I.I.P.I.~.~.W.~.!.!.=X=X%X%X$X$XXXW.).).S.I.I.I.P.!.=XE.~.~.!.~.~.E.!.I.P.P.` J., ",
"lXe +.6.e.9.OX X[.D.S.n.U.0. X+XY.!.!.I.~.%XQ.E.I.S.I.E.F.q.OXZ.n.I.[.].$XA.!.~.I.!.!.%X!.P.n.P.!.E.q.M.Z.n.P.L.A.n.n.Z.k.t # lX",
"lXlXd V.k.b.Z.K C.2.q.N.M.;.,.q.@.k ;.l.^.I.I.l.T.I.n.Z.2.M.;.q.V.%.q.9.q.q.u.A.b.b.I.E.n.G.v.n.v.m.m.V.q.2.2.2.0.@.n.<.n.x.- lX",
"lXlX#.S.y.p p 0 *.%.m.H 2.O.H n.;.e 2.=.n.n.x.b.U E.o.n.$.b.#.Z q 2.V.2.2.x.l.j v.z.n.b.o.j n.v.d n.$.k.s =.0.H H & d p n.y.lXlX",
"lXlX& k t lXlXlX+ d #.& & lXlXa 0 + + & *.x.t #.& + + + lXa t lX+ d #.H H j #.= s t x.y.& & j t t #.& + + H =.e lXlXlXlX+ + lXlX"
};
