/* XPM */
static char *result[] = {
/* columns rows colors chars-per-pixel */
"64 64 230 2 ",
"   c #000013",
".  c #000024",
"X  c #00022B",
"o  c #000B2B",
"O  c #04122C",
"+  c #0B162D",
"@  c #0E192D",
"#  c #151B2E",
"$  c #1A1F2F",
"%  c #10152E",
"&  c #1D232F",
"*  c #1E2331",
"=  c #1E2930",
"-  c #232A2F",
";  c #22252E",
":  c #242431",
">  c #2C2C32",
",  c #272A32",
"<  c #312C34",
"1  c #2B3331",
"2  c #2B3732",
"3  c #343135",
"4  c #3B3435",
"5  c #323E31",
"6  c #3D3A39",
"7  c #33302E",
"8  c #443B3A",
"9  c #3C4A34",
"0  c #324638",
"q  c #394836",
"w  c #384E3B",
"e  c #444232",
"r  c #4C4B36",
"t  c #464937",
"y  c #53483A",
"u  c #445335",
"i  c #4C5B36",
"p  c #47573A",
"a  c #585639",
"s  c #675C3B",
"d  c #516237",
"f  c #536439",
"g  c #596B3B",
"h  c #5F723B",
"j  c #4E653E",
"k  c #64643D",
"l  c #69663A",
"z  c #61743B",
"x  c #667A3D",
"c  c #6A793E",
"v  c #7D743B",
"b  c #4B3F41",
"n  c #3F5340",
"m  c #544941",
"M  c #5B4C42",
"N  c #574846",
"B  c #435C41",
"V  c #5B5648",
"C  c #4F4341",
"Z  c #6A5645",
"A  c #6D5947",
"S  c #6F5A48",
"D  c #655447",
"F  c #725E48",
"G  c #6B5A50",
"H  c #4B6946",
"J  c #4A6543",
"K  c #566B48",
"L  c #58794B",
"P  c #567859",
"I  c #7B6848",
"U  c #657842",
"Y  c #787542",
"T  c #786555",
"R  c #6A6C50",
"E  c #877C39",
"W  c #877846",
"Q  c #8A745A",
"!  c #967A6A",
"~  c #997D6B",
"^  c #8B7263",
"/  c #6E843F",
"(  c #5D8251",
")  c #5C805A",
"_  c #698749",
"`  c #748C42",
"'  c #768743",
"]  c #76954E",
"[  c #7D994B",
"{  c #7B9546",
"}  c #658C55",
"|  c #678A56",
" . c #6B9154",
".. c #6C9559",
"X. c #729453",
"o. c #729D5D",
"O. c #7A9955",
"+. c #738F55",
"@. c #7CA259",
"#. c #6C966D",
"$. c #7C9D6D",
"%. c #749C6B",
"&. c #6B9572",
"*. c #799871",
"=. c #6C8663",
"-. c #76A464",
";. c #79A763",
":. c #7BA962",
">. c #7DA169",
",. c #74A269",
"<. c #968B3F",
"1. c #948B3F",
"2. c #888547",
"3. c #978D48",
"4. c #829C46",
"5. c #829C4C",
"6. c #899A49",
"7. c #95924C",
"8. c #939D4B",
"9. c #9C9D4E",
"0. c #9C9246",
"q. c #899556",
"w. c #969853",
"e. c #A49946",
"r. c #A19E50",
"t. c #AE9E50",
"y. c #8AA549",
"u. c #8EAA4B",
"i. c #87A147",
"p. c #92AD4B",
"a. c #9AA84D",
"s. c #95B34C",
"d. c #9AB64E",
"f. c #9BB94E",
"g. c #84AD5D",
"h. c #8AAE5C",
"j. c #87A754",
"k. c #96A75A",
"l. c #8FB257",
"z. c #8CB159",
"x. c #94B554",
"c. c #99B653",
"v. c #9AB850",
"b. c #94B259",
"n. c #9CB25B",
"m. c #AEA448",
"M. c #B3A645",
"N. c #B6AB49",
"B. c #A4A351",
"V. c #A8AA55",
"C. c #B2AE56",
"Z. c #B7AC5B",
"A. c #A3B554",
"S. c #A3B951",
"D. c #ABB954",
"F. c #A4B35D",
"G. c #ACB55C",
"H. c #ACB556",
"J. c #B3B157",
"K. c #B2BA56",
"L. c #B4B65C",
"P. c #B9B65D",
"I. c #B6BA58",
"U. c #BDBA5B",
"Y. c #A9B24E",
"T. c #9A846A",
"R. c #889D6C",
"E. c #809B70",
"W. c #AB926C",
"Q. c #B79C74",
"!. c #A88C6F",
"~. c #82A566",
"^. c #83AA61",
"/. c #8BAB61",
"(. c #8DA26C",
"). c #86A36A",
"_. c #93AD61",
"`. c #9AAF61",
"'. c #9AA769",
"]. c #97A569",
"[. c #9BB060",
"{. c #A4AC66",
"}. c #A9AE64",
"|. c #A0A968",
" X c #ACB062",
".X c #B2B361",
"XX c #BAB967",
"oX c #B9A176",
"OX c #C1BC59",
"+X c #C2AD64",
"@X c #C7A97B",
"#X c #CCB674",
"$X c #BEC164",
"%X c #C7C35C",
"&X c #CBC963",
"*X c #D6D76C",
"=X c #DCDF71",
"-X c #D0C875",
";X c #DDE072",
":X c #B2B2B4",
">X c #CAAE81",
",X c #CFB584",
"<X c #D5B583",
"1X c #D9BC8A",
"2X c #D1BE93",
"3X c #C0BDBB",
"4X c #DCC897",
"5X c #D9C990",
"6X c #E3CD98",
"7X c #E5D49D",
"8X c #E0DE86",
"9X c #DFD7A1",
"0X c #DBC6AC",
"qX c #EADCA5",
"wX c #E8D9A5",
"eX c #EADBB7",
"rX c #EEE2AB",
"tX c #EDE5AB",
"yX c #F0E4AC",
"uX c #F2E6BC",
"iX c #E8E49B",
"pX c #CDCDCE",
"aX c #E9D9C5",
"sX c #F3EBC6",
"dX c #F2EBD6",
"fX c #FAF6E7",
"gX c #FFFFFE",
"hX c #FDFBF6",
"jX c #EDE9E4",
"kX c None",
/* pixels */
"kXkXkX# # kXkXkX- Y r kXkXkXf & kX# # kXl Y kX# # k r 0 0 k r kXkX# # kXkXkX$ # f & r s kXkXkX% # kXkXkX# B 0 kXkXkXkXkX# # kXkX",
"kXkXu p.{ & # % k U.9.0 L f f.z r.U.s r I.U.7.o.B OXC.O.O.U.J., # ( o.u { g 9.r f./ a.OXK | 0 7.J.r Y 7.B -.L f * 9 d d f.` kXkX",
"kXkXh f.f.L 7.U.9.V.r.C./.u.f.6.D.H.6.f.v.D.J.U.7.7.U..XXXI.7.V.C.U v.f.f.k.D.a.y.f.J.U.k.O.V 2.OXB.7.U.9.n.V.f.z f.d.y.f.h # kX",
"kX& h x l.o.k A.I.U.I.S.D.f.f.f.f.f.D.D.I.U.OXU.D.U.K.I.K.K.U.K.D.D.f.f.d.c.d.S.D.D.OXOXOXa.Y.K.K.I.D.U.U.D.S.S.y.f.f.z.} K ( * ",
"kXz f.f.l.@.x.s.S.f.f.f.f.f.f.A.n.D.K.K.I.D.K.I.v.f.f.f.S.f.S.v.f.f.y.h % 1.<.e c I.J.D.K.S.f.f.f.D.f.S.f.f.f.f.f.f.d.f.f.g.:.= ",
"kX& x { v.g.:.c.c.D.I.I.S.^.:.:.;.;.g.f.f.f.f.v.f.f.v.g.v.x.D.K.B.a X L.L..XM.5 % # y.f.f.f.f.v.z.l.x.S.D.U.K.c.:.:.:.h.g.j J kX",
"kXkXf f.c.:.c.g.z.F.I.G.g.h.z.g.v.v.g.z.c.z.x.:.z.f.z.v.g.z.n.i 1.XX*X%X=X=X%XM.1.r & [ g.:.v.x.l.x.h.b.A.K.n.h.z.g.z.f.u.u.` kX",
"kXkX( g.:.:.g.z.^.g.~.h.:.F.v.b.v.z.z.f.l.z.g.z.:.z.^.:.z.@.w &X=X=X;X%X%X=X=X&XM.0.: & @.g.g.g.:.g.g.g.~.b.^.).S.f.i.f.y.i.x kX",
": 3.y.:.g.z.z.^.[.{.{.*.XXOXU.].].'.'.~.b.f.c.x.g.:.l.h.^.r e.*X=X*XN.;X=X=X=XN.N.M.N.o g z.:.z.g.g._._..X).).U.U.V.7.Y Y ' r kX",
", J..Xb.z.v.D.U.I.D.S. X_.g.F.XXL.n.L.I.}.D.F.F._.h.f.S.V.. =X=X&XU.;X;X=XXXP.<.N.M.W Z % n./.v.f.K.U.K.S.G. X^._.G.P.F.{.V.U.l ",
"kX:  .h.v.f.z.z.l.z.@.:.:.:.@.g.l.x.f.f.S.S.f.f.f.f.f.x.i N.=XOXE =X;XH.* # % # ; m.3.I @ f.f.f.f.z.z.b.z.:.;.;.:.:.z.z.v.p.l , ",
"kX{ f.f.f.f.D.I.b.b.g.:.z.v.g.g.l.v.f.K.I.U.D.S.f.f.f.c.# *X*X7 =X=XG.# # 4 S S Z m.M.W @ f.f.f.v.I.G.b.z.:.;.v.x.g.z.x.c.6.e kX",
"1 d.v.S.D.K.G.{.G.G.c.f.c.f.f.f.f.f.D.D.f.S.f.x.S.D.D.I.$ M.7.2.=X3.# # < S S S 0.M.F y > f.D.D.I.}.F.G.G.d.d.f.f.f.f.f.f.A.A.f ",
"# x ..:.:.:.^.^.b.x.g.x.f.f.f.f.f.f.v.l.z.g.:.:.:.:.:.;.M 3.t.E 0.a # 5 * Z S S F F A $ L ;.:.:.:.:.g.c.h.g.x.f.f.f.f.z.@.g.f u ",
"kX& _ l.b.f.<XXXD.f.b.>.z.z.:.h.v.f.f.f.f.d.l.z.h.z.f.z.i M E : M.o f ).+.& , > < < $ _ b.h.z.x.c.g.D.S.f./.).x./.~.b.v.f.f.u.kX",
"kXt A.D.f.f.<X<X#XG. XXXR.(.XX'.%.h.~./.f.D.U.D.D.S.f.n.B.% M.a 0.O , }..X=.5 * ; ` a.U.K.K.S.f.c.I.OXU.F..X.X$.'.P.$.~.4.` 4.= ",
"k C.a.A.f.D.y hX<X#XI.U.U.U.U.{..X(.{.'.).^.D.D.D.S.A.k % # s + a y @ G # V |.R..X$.$.S.D.D.D.S.I.U.XXU.U.I.U.U.OXXX'..XB.9.u kX",
"# W D.S.D.K.. fXhX<X/ D.H.:.[.G.D.U.I.D.XX XL.D.S.v.- pXjXdX  . . A ; T.@XW.; Z.D.P.L. XK.S.f.D.I.I.:.b.c.f.D.n.^.G.G.D.U.f.d.1 ",
"i u.D.A.f.f.. uXgXhXX XXz.:.:.;.^.D.v.f.A.K.D.S.L.2 o   0XaXgXgXgXgXhXaX:X, + # s.f.K.K.f.K.S.f.v.h.:.z.;.g.z.g.:.:.:.z.D.f.x kX",
"g d.L { f.f.. tXjXgX9X,X:.z.g.v.^.^.z.v.f.f.f.x.j.4 ,XqXrXrX6X5X7XrXtX0X>XT ! # U f.f.f.v.z.v.v.f.v.v.v.g.g.:.g.h.z.x.:.g.l.{ % ",
"# w 5 ;.z.:.. tX#XgXsX,X[ v.f.D.D.S.K.D.f.f.x.g.L T.5XeXhXgXgXfXdXsXrXrX<X! ! : ; v.f.f.z.:.^.g.@.v.f.f.f.d.x.f.f.f.D.D.D.D.d./ ",
"/ x.o.-.:.:.0 2X7X0XsXjX2 @.g.^.G.U.U.U.A.z.:.;.4 5XrXdXpXfXsXyXrXrXrX7X<X<X! G # a.h.:.-.:.:.:.:.:.g.:.g.:.:.:.g.^._.J.OXD.p.x ",
"/ S._ L y.>.P . 6X<XwXfXq  .z.v.v.D.OXU.I.S.l.P V qXwXoX* hXtXyXrXrXwX6X<X<X! ! # B.D.d.%.*.~.^.>.&.&.%.,.:.:.:.g.z.f.f.K.C.i kX",
"5 h l J.r.P.R.q Q <X5XtX9X2 d.f.D.D.U.D.f.D. X& G hX1Xm : gXdXrXrXrX6X<X<X<XT.M : & S.L.'.OXL..XXX=.& 2 &.-.:.g.l.v.f.D.K.U.U.> ",
"9 Y 2.U.U.U.U.9.% <X<X5XtXB y.f.v.D.S.f.D.U.U.D 4XwX#X% : gXhXrX1X<X<X<X<X<XT.~ b # P.U.U.U.U.U.r., @X# V.I.D.S.f.f.f.S.D.Y.r.: ",
"v U.D.v.S.f.D.v.1 Q <X@X9X9X, F.D.D.I.I.U.U.B.+ eX1XD # : gXdXrX6X<X<X<X<X<X<X~ t $ r.U.U.D.D.5 T @Xy # a.v.v.v.f.v.D.D.d.z ` 5 ",
"3 y.u.f.f.v.v.f.4.: <X@XV tXV o.:.g.v.S.f.f.y.# V N : # # pXsXqX6X@X<X@X<X>X!.! 8 $ 4.f.S.{ 5 T <Xm & $ u.D.S.v.z.x.:.:.z.p.d.g ",
"kX2 O.f.x.g.z.g.h.$ Q <Xy wX9X@ z.z.:.l.d.v.9 = 3 # # # # + + @ % : Q @X<X>X^ 8 # # { f.u * T #XM r e.8 V.OXG.k.:.:.g.z.x.y.5 # ",
"kXw ;.g.l.z.x.x.l.[ 4 <XQ.T.rXM i.f.i { z.:.# T jXQ.# # # : ; o 0XwXwX<X<X<X~ ! @ # p & Z ~ ~ W e.M.M.e j.f.x.l.v.c.c.x.h.y.B $ ",
"5 i.4.:.:.:.:.:.^.R.# Q <XD ,XQ.n o $X2.{ v.o rXrX<Xt # 3XhXsXtX7X1X<X>X!.!.! : O O Q.@X<X@XoXt.M.M.M.e R.>.&.{.P.n.*.z.#.&.,.J ",
"i u.h.:.x.v.v.F.P.U.B.6 ,XQ , <XV <.&X7.X n.o rXdXdXW.% jXdXrXrX1X<X<X<X~ ! < b tXrXT.G . W.1XM.M.M.M.e V.}..X XL.P.U.L.V.K L 1 ",
", B.D.A.x.f.A.D.v.v.z.& ! ! < @XQ.s . N.G.c # W.tXrX<X+ jXaXrX7X<X<X<X<X~ ! < < <X. Q @X1X<X#XN.%XM.M.e u.z.^.:.:.^._./.h.` i.= ",
"- s.u.f.f.f.b.[.g.@.:.L > ! G O !.. e.;Xr.8.y.V rXrX6X3XwXrXrX6X<X<X1X@XT * # < wX. 1X<X<XwXtX*X%XM.M.e o.:.;.g.^.g.z.f.f.f.s.1 ",
"& p 9 x.f.S.P.P.K.J.' o 8 T T # s e.M.e.t J.' % Q.7XqXfXfXrXrX4X<XW.Q O # * $ 4 <X. <X<X5X7XiX*XM.M.M.e a.x.z.v.v.v.f.f.f.f.{ 2 ",
"g l.@.j.n.{./.:.h.O.a 0.M % 4 Z E e.k + x x.# # 4 Q.rXfXfXeXyX>XX # $ % 8 M : < <X^ <X<XyX7X5X%XM.M.+Xy @.z.v.v.d.z.c.z.z.s.d.i ",
"0 ` } :.g.z.:.x.v.y.$ $ # M A D 4 4 T T # j.$ < S : 2XrX4XoX+ $ $ # 4 Z F Z $ 4 <X^ <X<X<X<X#XOX#X<X1Xy u.x.c.v.v.l.x.l.s.j.9 kX",
"# = s.f.f.f.b.I.U.S.O.> A D < $ m <XQ.! + c % Z I Z $ 1 $ $ # < 8 Z W F W A : < <X! <X<X<X#X-XyXqX<X<Xm j.].(.>.#.].$.p.d.s.i kX",
"a r.B.D.S.f.U.U.OXP.OX, ; # # ^ <X<X1X! + U 6 4 I m.Z $ $ > Z S W M.0.W e.A : 4 <XN <X<X@XZ.-XwX1X<X@X& V.U.U. XU.U.3.Y u Y Y # ",
"a Y.d.f.D.U.U.F.F.U.A.H.J.k.& oX<X<XQ.G # K y.$ Z e.I A Z S I m.t.M.0.e.S S < < #X# +X%XOX;X8XwX1X<X@X7 K.S.U.I.}.U.U.U.C.U.U.l ",
"$ x 8.S.f.v.A.g.:.:.z.c.x.:.w # N b 8 $ $ 2.U.7 $ e.t.W F 3.m.M.M.M.t.S S D $ < !.# M.OXOX&X+X<X<X<X8 ..@.c.v.g.:.^.g.c.U.A.S.f ",
"- f.v.S.v.v.l.l.v.g.:.:.:.:.:.@.$ * % Z y z v.y.# # 0.M.M.M.m.M.M.W W S Z $ $ : ! % M.M.M.M.#X<X#XZ 0 f.:.:.:.:.:.@.z.:.b.z.x & ",
"kXx @.g.v.l.v.f.f.z.v.z.x.f.c.v.x.x.# 8 # z f.z.} % % s W W W W W Z A Z 4 # # $ b ^ e.M.M.+X<X<XG q d.x.x.x.h.v.v.v.v.z.x.f.f.' ",
"L O.h.g.:.:.g.v.l.x.l.^.z.z.c.n.P.I.V.9.6.z.g.:.@.= # # @ # # # # # % % $ # 8.U.r C 8 0.M.+X<XI 0 z.c.l.x.h.^.z.l.b.G.$XK.f.f.{ ",
"4.f.j.@.( } ,.&.-.;.:.:.:.:.g.x.n.J.OXK.D.c.z.-.#.# & # H P ( ( | R $ $ # ] A.OXU.r % b <.XXT w g.%.#.-.:.:.:.:.g.z.x.c.J.u i 9 ",
"0 / Y k 6.7.*.).(.&.;.:.:.:.z.v.f.f.OXI.K.D._.$.V.% # # # K &.%.@...# # ` f.v.I.U.K.i ^ X s t (.).&.].E.&.:.:.:.:.x.f.v.p.J ..w ",
"kXr P.U.U.U..XU.U..X(.[.b.f.f.f.D.U.K.f.S.D.OXXXU.2.3 # a 6 C.R.k.K # 0 d.D.K.U.S.f.D.r # a OXOXOX XOXXX'.`.`.x.f.f.x.g.@.j.,.J ",
", J.D.D.K.D.P.D.K.I.D.S.S.f.f.f.f.f.K.D.K.U.OXU.Y.9.6.a.9.8.r.8.i # 5 4.4.4.p.a.K.D.U.OXl K.K.D.D.U.D.U.K.D.f.D.f.f.f.f.S.J.U # ",
"; 2.f.f.f.f.S.f.f.S.f.f.f.f.f.n.n.A.D.D.K.D.B.8.4.4.4.i.6.4.6.4.' 9 h 4.6.5.5.8.8.D.D.D.K.S.f.f.f.S.f.v.f.f.f.f.f.v.b.n.S.Y.s.u ",
"$ h s.f.f.z.z.v.b.D.P.U.D.:.:.:.:.:.g.v.f.s.[ i.i.i.[ X.5.] 8.8.r.8.O.|  .} }  .[ [ f.f.f.f.f.f.g.l.x.A.K.U.K.n.:.:.;.:.:.O.g 9 ",
"1 d.z.l.v.z.v.g.b.c.D.A.g.z.x.g.f.v.z.z.v.@.]  . .[ { [ ] ] 5.8.8.] ] ]  .4.4.O.] [ l.z.g.:.c.x.x.x.z.b.n.K.b.z.z.z.l.f.x.@.& kX",
"& j l.@.z.:.^.g.:.:.~./.>.}.S.z.b./.z.v.x.z.] {  .]  . .X. . .=.+.| q.6.[ O.X.+.i.p.x.g.x.g.g.:.:.:.g.:.>.h.>.).D.f.h.u.x k a kX",
"H ..z.:.g.z.x./. X X X*.I.U.U.'.'.}.{./.z.v.x.h. . .[ ] X.q.q.9.P w.r.r.q.q.q.w./.g.f.x.l.z.:.l.z.z.n.{.P.(.].U.U.XX XB.C.OXJ., ",
"kXH } g.z.f.D.I.K.S.S.}._.^.{.K.G.b. XK.F.K.L.G.n.g.d.d.9.8.y.6.w.q...q.n.L.b.{.U.G.G.G.G.{.b.c.f.K.I.K.f.D.F.^.z.{.L.F.b.v.a.> ",
"# 1 s.f.f.f.z.^.l.g.:.:.;.;.:.g.x.c.f.f.S.S.v.f.f.f.f.x.g.g.z.g.>.:.:.:.z.z.x.f.v.v.D.f.f.v.f.f.f.g.g.l.g.:.:.:.:.g.z.x.f.u.9 kX",
"f s.i.v.f.f.K.I.x.x.g.:.l.v.z.g.x.x.S.I.I.I.K.f.f.f.f.D.OXc.F.z.:.g.v.z.z.l.x.f.K.I.I.I.S.v.f.f.S.P.D.n.z.g.:.c.x.g.z.x.f.a.7., ",
"kXx 4.D.D.I.G.[. X Xc.f.f.f.f.f.f.f.S.S.f.S.v.z.S.D.K.L._.}.F.n.f.v.v.v.f.f.f.S.S.S.f.v.c.c.S.D.I.n.{.F.F.c.f.f.f.v.f.f.f.S.a.- ",
"kXu @.:.:.:.;.^.x.x.z.b.f.v.v.f.f.f.v.x.g.@.;.:.:.:.;.:.:.z.d.z.x.c.f.f.f.v.f.f.x.z.g.:.:.:.:.:.;.:.g.c.z.z.v.f.f.f.x.h.:._ + kX",
"kX4.f.z.^.v.^.D.D.f./.>./.z.>./.f.f.f.f.v.v.c.z.z.z.v.z.c.K.v.x.>.:.x.$.~.x.f.f.f.f.f.x.z.z.z.d.v.z.K.D.v.~.>.b.~.>./.n.U.J.a kX",
"kX9 _ o.:.x.D.OX$XD..XOX(.'..X'.%.~.>.~.v.K.U.I.D.S.f.A.OXOXU.}.U.}.)..X.X#.~.).>.x.S.U.U.D.D.d.c.I.OXU. XI..XR.{.P.[.U.U.U.C., ",
"kXB ;.,.%.h.U.I.I.OXK.I.OXOXU. XP.'. X'.(.^.S.S.D.S.D.U.U..XOXI.I.OXOXXX.X X}.'.L.E.$.S.D.D.D.D.I.U.G.U.U.K.OXU.I.U.D.S.S.2.C., ",
"kX0 ) &.,.,.n.b.g.b.c.S.F.:._.F.D.U.K.D.OX XJ.K.D.f.D.K.F.:.b.x.f.D.^.^.G.F.K.U.D.I.U..XK.D.d.D.K.K.:./.x.f.S.c.x.S.f.x.i.u % kX",
"kXkXh x.y.x.x.K z.:.@.j.g. .%.:._ c  .j.f.K.D.u.J.D.f.x.:.z. .;.z.O.:.;.:.:.5.d.f.f.D.D.f.a.s.f.s.^.g.z.@.@.j.@.:._ f.O.f.p.- kX",
"kXkX` f.4.f d 9 { ` h.H @.( j f.X.w ;.( f.f.p.d.Y I./ f./ f.{ w 0 @.z.@.@.p.u.z f.4.f.d./ z f.s.h f.' u.K } :.H H & h d f.4.kXkX",
"kXkX= x u kXkXkX& h ` & # kXkXf 9 # # & 4.p.u ` & # # # kXf u kX# h ` H H h ` : f u p.4.& & z u u ` & # # J } w kXkXkXkX# # kXkX"
};
