/* XPM */
static char *result[] = {
/* columns rows colors chars-per-pixel */
"64 64 87 1 ",
"  c #6F9B6E",
". c #749C6D",
"X c #7A9F6A",
"o c #638F76",
"O c #669175",
"+ c #6B9473",
"@ c #6C9870",
"# c #6B937B",
"$ c #729672",
"% c #719870",
"& c #7C9971",
"* c #77A664",
"= c #78A764",
"- c #77A863",
"; c #7AA863",
": c #75A169",
"> c #7CA169",
", c #7EAA69",
"< c #9BB94E",
"1 c #84AD5E",
"2 c #89AE5C",
"3 c #96AF5F",
"4 c #8FB257",
"5 c #8BB159",
"6 c #94B553",
"7 c #98B751",
"8 c #9AB851",
"9 c #92B15A",
"0 c #9DB15D",
"q c #A0BA4F",
"w c #A5B757",
"e c #A3B951",
"r c #ABB954",
"t c #A3B35E",
"y c #ABB55D",
"u c #A6BB59",
"i c #ADBA5A",
"p c #B3BA56",
"a c #B5B65D",
"s c #B9B75E",
"d c #B6BA58",
"f c #BEBA5B",
"g c #859D6F",
"h c #899E6E",
"j c #819B70",
"k c #82A565",
"l c #82AB61",
"z c #89AB61",
"x c #8DA16D",
"c c #93AE61",
"v c #9AAE61",
"b c #94A46B",
"n c #9AA769",
"m c #9DA868",
"M c #96B067",
"N c #9CB060",
"B c #94B66E",
"V c #86AF74",
"C c #8BAA78",
"Z c #A3AB66",
"A c #A9AE64",
"S c #ADB163",
"D c #A3BE65",
"F c #B3B461",
"G c #B4BE6A",
"H c #BEBF6D",
"J c #B3B674",
"K c #C0BA5B",
"L c #C1BC62",
"P c #C4BF6E",
"I c #BDCF9B",
"U c #BFD09E",
"Y c #ADC6A4",
"T c #D2D09F",
"R c #C8CDA0",
"E c #D3DEBF",
"W c #CAD8C4",
"Q c #D4DFC1",
"! c #DEDFC3",
"~ c #E1DFC2",
"^ c #DDE0C3",
"/ c #E2E0C4",
"( c #E7EDDF",
") c #EAEDDE",
"_ c #E6ECE2",
"` c #EAEEE2",
"' c #FFFFFF",
/* pixels */
"<1pppppp<<<ew11-t;;;;;-=47<<<<p<<<4wpppppr<<<p22-33--=;;-54<<7<p",
"<<<<<<<<er<<<<<<711;--;--;-45==;<<<<<<<<<rr<<<<<7<21;--;=-=-26--",
"<<<<<eefKfpe<<664--;7<;;;-111vKc<<<<<<<rrKKKq<<766---2<2;--1111K",
"<<<<<<dKe<ffp<<7<<<<<<5l4<efefKKq<<<<<<edp<dKf<<7<<7<<<711<qpppK",
"Kqe87<<<<<<<<<<<<<<<<<<<<ufddy;dfKreq77<<<<<q<<<<<<<<<<<<77ddda;",
";ll;;;;;77777<<<<<<<<<<72=;7;;;;l;l;k;;;;77777<<<<<<<<<<77==42==",
";;;;;-;;;;47<<<<<<<<<<<777<<77;;;;;--;;-=;=177<<<<<<<<<<7777<<74",
"<479l77<<<<<<<<<<6$+6<>$@<<<fp7;<<747-777<<<<<<<<<7@%X<6%%6<<pf<",
"<<<<<8dfq<<<<<<8@&F$#.+Fa+<ffffl7<<<<<<fpp<<<<8<<zoFZ+%+Sa&3rfKf",
"<efKKfff<<kOO+%+OfffF&sKfKSKffff<<<fffffKe<7OOO.oOnKffZAffKaffff",
"<qreree<+.OsaOjKS&fffKfffKKKfffff<<eerer<.+oZK.OfFhKfffffKKKKfKf",
"fr<<<<p>mKZKfKKKKKfNvaKp<<pKc;fffKd<<<<p>$fAKKKKKKffdvtff<7eKy-y",
"<<<<pKfKKKp<eKf<50N;--<e<65---rrr<<<<rKfKKKf<<dfe630---<r<<2;==3",
"<<rKr<rKp8<<<rp6-;---2576-;;2-;<<<<rdf<<Kfr<<<rf7==-;;;44<;;=5--",
"<<<<<<<<<<<6441;;2;--;;;;;;<<7257<<<<<<<<<<<<444=-21;-------6<<2",
"<<7;;<<<<<<<<1l;<<72<5;;l<;6<<<<<<<<1-7<<<<<<<51-57<;<72-;752<<<",
"26;;;7<<<<<dp<<ee<<<<<<<<<<<<<<<;=61;=2<<<<<eK<<eeq<<<<7<<<<<<<<",
"-;-;-;;76effffKKfa67761=17777<<;;--;;-;;766KKKKfKKar<766-;7<66<<",
";;;;;;=;7<<ffffa;l;;;;-;=;;;-;:;;;;;;-=;;27<dKfKd0;;=-=;-=;;;;=*",
"67zO+;7<qpfffK<7<<77;-;=;;==:OO+6777OO>1<<qffKKr7<<766;;;;-;**OO",
"$+xs$O6efffffp<<<<7;;;;-;;O+$$O++$++snOX<fffKKf<<<<7;---===%O+$+",
"KFKffFFe<<<rffep<<<<77;;;.OFffF$ffFffKsadq<<qfKef<<<<77;;==OZfKK",
"KKfKfKKefe<<<Kpep<<<88ypabFfffffffKKKfKKpdp<<<dKqp7<<<<7ddSZKKKK",
"pfdrKfKKfK<rr<<<<<<<<8GQ///~HufffrKKefKKKKK<qd<<<<<<<<<f<eKfKsep",
"<e<<ffKfffdfffppdd<8I`'''''''(Ii7<<<<rKKfffpffKppppr<<<<<<<<dr<<",
"<<<<err<ererr<6114D`'''''''''''(D<<<<qrr<<rrrr<<222<<<<<<77<<<<<",
"<<<<<<<<<<<<61-;-Y'''''''''''''''I<<<<<<<<<<<<2-*-;1--27pffq<<<<",
"6<<74<<<<<<4-;54B'''''''''''''''''t<<56<<<<<4--252=;--1ZffKKK2=5",
"2<7--;4;5<2224<8('''''''''''''''''_81;;42172225<<<5;<7222rp22662",
"1<5-21--116<<<<I'''''''''''''''''''I-;2;-;22<<<<<<<<<6222<226116",
"-;;1<<<<<8<<>O#('''''''''''''''''''_;<<<<<<<<4ookXO6pfshOzoh -==",
"<;;6666<<69&ZfJ'''''''''''''''''''''B666<<<4+hffgZZZfKfKhOafnAy=",
"<4;-llzza&ffff!'''''''''''''''''''''W;zz2cjffffasffKKy;dKhf<fKff",
"<;ffffffe<8pt1W'''''''''''''''''''''!ffffd<qes11;tZ;;=;=k67<<<<f",
"<<<<<<<<<q<<<<Q'''''''''''''''''''''Q<<<<q<77<<<<<;;;--;;;-;6<;;",
"<<<<<<<pKKe<<<W'''''''''''''''''''''^<<<qKKf<<<77<;1-17;;;;;;;;f",
"<<<<<effreffr<^'''''''''''''''''''''E<qufdqfKf<777676<<7;;7<rrrK",
"p<<<<<<e<<qee<D'''''''''''''''''''''N<<<<<<<eq<<<<<<<<<<<<<fKfKz",
"cccz=111<7<<<<8`'''''''''''''''''''_M;;22<<<<<<<<<<<<<<<<7;;51;;",
"-;;;;;=-;;16788U'''''''''''''''''''Y;-;;====46<<<<<<<<<<6447<<42",
"<145;94<<<<<<<<8('''''''''''''''''(15=646<<<<<<<<<<kk277,>6<<rp7",
"<<<<<<rr8<<<q<<<C'''''''''''''''''D<<<7rrr<<<<q<<2omhok+nm$6rKKd",
"<qrKKKKKe<5oO.>OoT'''''''''''''''U<rdKKKfp<<+oo2oOnKKFxnfKKZdKfK",
"<eppdpp7+kOSSO$Kb$P)''''''''''')P<<ppppp7k++hK$oFA&KKKffffKfKfKf",
"Ke<<<<e2xfxffffffffFR`'''''''_TLdKp<<<<e2$KhfKfKfKKKfyaffq<rKd-a",
"<<<<rfKfffp7rff<6aS;=;DEQ^WWV,dddq<<<qffKKKKe<fKe7wa;;=<p<<71=-0",
"<<eKd<dKde<<<fp6-;-==67<<--;;;1<<<<qpK<rfKp<77pf<;=-;=;777;;=1==",
"<<<<<<<8<<<7776;;;;;=;=;;;-<<7;;7<<<<<<<<<<<<777;;;==;;;=;=-6<7;",
"<<<;1<<<<<<<7;;;<<7;<1;;;<=<<<<<<<<<2;7<<<<<<72;;4<<-76;;;614<<<",
"47;;;<<<<<<pr<<7<<<<<<7<<<<7<<<<2;<2;-2<<<<<<f7<7<<<7<<<77<<7<<<",
";;;;;;l7<<ffffffKs<<<72;6<<<<<<l=;;=;;;1<<7dKKfdfKfr<<<7;1<<<<<<",
"=;=;;;;;4e8KfKff2;;;;;=;;;;;;1l;--;----=;;7effffKt==1;-;;;-1;;1;",
"662+.-67<rpffKe677661=-;;;-;=OO 7666@@=1<<qppKKp76<775;=;;;-;;+O",
"o>&A+O78KKKffp<<<<4-=;;-;=+O+OOOoo.+AhOk<dKKKfK<<776==;=--;:O+OO",
"KZffsZZr<<<pffer<<<<44===:OZffm+fKAafKZZfr<<rfKqp<<<<44;;;;ObFfF",
"fffKfffere<7effrr<<<<70tmgSsfffffKKKfffKprr<<<ffrr<<<<<4tZmxfKff",
"dffpKffKKK<ee<<<<<<<<<p<fffffpKKfpffrffKKfK<<r<<<<<<<<<f<rfffKpp",
"<e<<fKffKKrKKdrrrr<<<<<<<<ef<<qp<<<e<pKfKffrfKKrrrrq<<7<<<<<fr<<",
"<<<<pdp<ppppp<7466<<<<<<7<<<<<<8<<<<<rpd<qppppe<644<<<<<<<<<<<<<",
"<<<<<<<<<<<<72;;==6--7<qfp<<<<<76<<<<<<<<<<<<<6==;;1;-7<eff<<<<<",
"<<<<7<<<<<<7-;;11==-=yaKffff;16;;6<<<77<<<<<7;=1;1;;;-lafffffN-6",
";<<;;17;6<;l;4<<<-1711;lfw1;<;l<7;7<2-=742<111;<<<4;76;1lpfll44;",
"5<6-;;;;;16<<<<<<7<77677<677;777;;<<-;;--;;17<<<<<<7<7666<76755<",
";;;l<<777<<<l+@<@.<fsg++k+$=;;-;;;;;;<<777<<<7++2k@<rfF++9++:;;;"
};
