/* XPM */
static char *result[] = {
/* columns rows colors chars-per-pixel */
"64 64 161 2 ",
"   c #161C2E",
".  c #191E2F",
"X  c #2B2D34",
"o  c #293331",
"O  c #333135",
"+  c #383933",
"@  c #383A36",
"#  c #3D3939",
"$  c #423F3D",
"%  c #3F433D",
"&  c #44453D",
"*  c #48483F",
"=  c #546538",
"-  c #56693A",
";  c #5A6C3A",
":  c #6B693E",
">  c #3C3D42",
",  c #4F4242",
"<  c #4B4B43",
"1  c #574946",
"2  c #466142",
"3  c #4D6140",
"4  c #5C7E4D",
"5  c #74634F",
"6  c #796752",
"7  c #737C52",
"8  c #827259",
"9  c #8A7162",
"0  c #827B63",
"q  c #967B6A",
"w  c #698447",
"e  c #738A41",
"r  c #668E57",
"t  c #6D9254",
"y  c #6B9459",
"u  c #729C5D",
"i  c #60876E",
"p  c #6F9B6E",
"a  c #749C6D",
"s  c #7B9E6D",
"d  c #638F76",
"f  c #669175",
"g  c #6B9473",
"h  c #6C9870",
"j  c #729672",
"k  c #719870",
"l  c #7C9971",
"z  c #76A664",
"x  c #78A764",
"c  c #77A863",
"v  c #7AA863",
"b  c #75A169",
"n  c #7CA169",
"m  c #839D46",
"M  c #839E48",
"N  c #889E4A",
"B  c #88925D",
"V  c #86A147",
"C  c #8AA34A",
"Z  c #99B74E",
"A  c #9BB94E",
"S  c #85A552",
"D  c #8EAE51",
"F  c #84AD5D",
"G  c #8AAE5C",
"H  c #9FA45B",
"J  c #96AF5F",
"K  c #8EB257",
"L  c #8BB159",
"P  c #94B553",
"I  c #98B751",
"U  c #9BB850",
"Y  c #92B15A",
"T  c #9DB15D",
"R  c #A0BA4F",
"E  c #A5A252",
"W  c #A5B757",
"Q  c #ADB754",
"!  c #A4B951",
"~  c #ABB954",
"^  c #A3B25E",
"/  c #ABB45D",
"(  c #AFB858",
")  c #B3BA56",
"_  c #B5B65D",
"`  c #BAB75D",
"'  c #B6BA58",
"]  c #BEBA5B",
"[  c #898166",
"{  c #9D8564",
"}  c #859D6F",
"|  c #899E6E",
" . c #939C64",
".. c #819B70",
"X. c #8F9B7A",
"o. c #979F78",
"O. c #AB9C77",
"+. c #A69C79",
"@. c #B79C72",
"#. c #B89B77",
"$. c #82A565",
"%. c #82AB61",
"&. c #89AC61",
"*. c #84A469",
"=. c #8DA16D",
"-. c #93AD61",
";. c #9AAE61",
":. c #95A46B",
">. c #9AA769",
",. c #9BAB6B",
"<. c #9CB060",
"1. c #98A077",
"2. c #A3AB66",
"3. c #A9AE64",
"4. c #B2A96A",
"5. c #A5B365",
"6. c #ACB263",
"7. c #ADB860",
"8. c #A2B168",
"9. c #A8B06C",
"0. c #B3B460",
"q. c #B2B862",
"w. c #BEB966",
"e. c #BBB76D",
"r. c #ABA470",
"t. c #AFAE74",
"y. c #ABA37C",
"u. c #B0AF75",
"i. c #B9AD78",
"p. c #B3B173",
"a. c #C0BA5B",
"s. c #C2B76F",
"d. c #C5B96A",
"f. c #C6B676",
"g. c #C9B772",
"h. c #CAB871",
"j. c #C3B37A",
"k. c #CDB679",
"l. c #B1A783",
"z. c #B3A982",
"x. c #B7AD88",
"c. c #C3AF84",
"v. c #CCB284",
"b. c #C7B78A",
"n. c #D4B582",
"m. c #DCC28F",
"M. c #CEC397",
"N. c #D2C697",
"B. c #DEC996",
"V. c #D2C69A",
"C. c #E6D5A2",
"Z. c #E8D6A1",
"A. c #E9DBA6",
"S. c #EBDEAA",
"D. c #EBDEBC",
"F. c #EFE1AB",
"G. c #D9D4C6",
"H. c #DDDCD8",
"J. c #F3E9C6",
"K. c #F6EFD7",
"L. c #FAF5E7",
/* pixels */
"A F ) ) ) ) ) ) R A A ~ T L F c ^ v v c v v v c K P A A A A ) A A A K W ) ) ) ) ) ~ A A A ) F L x -.-.v c v c v z L K A A A A ( ",
"A A A A A A A A ! ~ A A A A A Z I F F v v c v v v v c P L c c v A A A A A A A A A ~ ! A A A A A A A F F v c c v c v v v L P c c ",
"A A A A A ! ! ] ] a.) ! A A K P K z v x I A v v c c %.F %.;.] T A A A A A A A ! ) ] a.a.R A A I P P v v c L A F v c c v F F G ] ",
"A A A A A A ' a.R A ] ] ~ A A A A A A A A A L v K A ! ] ! ] ] ] R A A A A A A ~ ' ) A ' a.a.A A I A A A A A A I %.F A ! ' ) ) ] ",
"a.R ! U I A A A A A A A A A A A A A A A A A A A A W _ ' _ / v _ ] ] ~ ! ! I I A A A A A A A A A A A A A A A A A A A I _ _ _ ' v ",
"v %.%.v v v v v I I I I A A A A A A A A A A A I L v v A v v v v v %.v v v v v v v I I I I I A A A A A A A A A A I I v v K L v v ",
"v v v v v v v v v v K A A A A A A A A U A A I I I I A A A A v v v %.v v c v v v v v v v A I A A A A A A A A A A I Z A A A A I L ",
"A K I Y v I I A A A A A A A A A A P j h P A *.k h A A A ] ' I v A U I K I c I I A A A A A A A A A A A h j n A P h h Y A A ) ' A ",
"A A A A A ! ' ' ! A A A A U A A h l 0.j f k f 0.0.h A ] a.] ' %.I A A A A A A ' ' ' A A A A I A I &.f 0.2.f k f 6.0.l Y ) a.a.] ",
"A ! ' a.] a.a.] A A $.f f h k f f ] ] ] 0...` a.a.a.7.] ] a.a.] A A A ' ] ] ] ] a.! A I g f f a f f >.a.a.] 2.6.a.a.a.0.' a.a.] ",
"A ! ~ ! ! ~ ! A g a f ` _ f ..a.6.l ] ] a.a.] ] ] a.] a.a.] ] ] ] A A ~ ! ~ ! ~ A s g f 2.] l f ` 0.=.] a.a.] ] a.a.a.a.] ] ] a.",
"a.~ A A A U ) n ,.a.2.a.a.a.a.a.a.a.a.<.;._ a.) A I ' a.-.v ] a.] ] ' A A A A ) n k a.2.] ] ] a.] ] a.] _ <.^ a.] U Z ! a./ z / ",
"A A A A ) a.] a.a.a.) A ! ] ' A G T ;.v c c Z ! A P G c v v ~ ~ ( A A A A ~ ] ] a.a.] ] A A ] ] ! P L ;.c c c I ! A A F v z v Y ",
"A A ~ a.~ A ~ a.) U A A A ( ) I v c c c v G L I P x v v F v v A A A A ! ' ' A ! a.] ~ A A A ~ ' A v v v v v v K Y A v v v K x x ",
"A A A A A A A A A A A P K K F v v G v v c v v v v v v A A I F L A A A A A A A A A A A A A K K K v c G &.v v c v v v c v P A U L ",
"A A I v v A A A A A A A A F %.v A A A F A L v c F A v I A A A A A A A A F v I A A A A A A A L F c L A A v A I F v v I K F A A I ",
"F I c v v I A A A A A ' ) A A ! ! A A A A A A A I A A I A A A A v v P %.v v G A A A A A ! a.A A ! ! ! A A A A I A A A A A A A A ",
"v v v v c v v P I U ] ] ] ] a.a.] _ I I P P F v L P I I I A A v v c c v z c v v I P I ] a.a.a.] ] ] _ W I P I P v v P A P P A A ",
"c v v v v v v v I A A ] ] ] ] _ v %.v c v v c v v v v v v z z v v v v v v v v v v F Z A ' a.] a.' ;.v v v v c v v v v v v v v z ",
"P I &.f g v I A R ) ] ] a.a.A I A A I I v c v x v v x z b f f g P P I I f f x F A A R ] ] a.] Q I A A A P K v v v c c v z x f f ",
"j h =.` j f P ! a.] ] ] a.) A A A A I v v v ,.u.u.u.y.y.o.j g f g j g g ` >.f s R ] ] ' a.a.a.R A A A A v v v v x v v h f g j g ",
"a.0.] ] ] 0.0.! A A A ) ] a.! ) A A U 7.e.n.n.n.n.n.n.n.n.n.f.1.] a.` w.a.] 0.` ' R A A R a.a.R ] A A A A Z I v v x x d 2.w.] ] ",
"a.a.] a.] a.a.! ' ! A A A a.) R ) ! f.n.n.n.n.f.f.i.g.h.n.n.n.n.k.a.a.a.] a.a.] ' ' ) A A A ' a.! ( A A A A A I _ _ 0.2.] ] ] a.",
") ] ' ~ a.a.a.a.] a.A ) ! A A A 7.f.n.n.e./ ( A ) a.a.a.] q.h.n.n.g.d.] ! a.] a.a.a.a.R A ' A A A A A A A A A ' A ! ] a.] ] ! ) ",
"I ! A A ] a.] ] ] ] ' ] ] ' ' d.n.n.f.R A A A A A A A ] A A A ( k.n.n.q.A ~ ] ] ] ] ] ) ] ] a.) ' ) ' ~ A A A A A A A A ) ( A A ",
"A A A A ! ~ ~ A ! ~ ~ ~ ~ Z 5.n.n.p.R U A A A A Z A A A A A A A U e.n.n./ ! ~ ~ A A ~ ~ ~ ~ A A G F G A A A A A A A A A A A A A ",
"A A A A A A A A A A A A P &.j.n.u.v F v v I A ) a.' A A A A A L G I e.n.f.U A A A A A A A A L v v v x v c v G A ) ] ] R A A A A ",
"P A A I L A A A A A A L v j.n.j.L v c v c ;.^ ' ] ` ] _ c v G L v L ! f.n.j.P A A A A A L v c F L L c v c c %.^ ] ] a.a.a.&.c L ",
"G A I c c v K v L A F L 8.n.n.U U v L A L G w @ & & % o V L L I U L I U n.n.,.L L v A L G G K A A A L v A I G G F Q ( G G P P G ",
"F A L c F F c c F F I A e.n.e.A A U A A G 3 [ c.S.A.C.+.< w K K c c U P p.n.p.v v v F L A A A A A A A A Z I G &.G A J G P F F Z ",
"c v v %.A A A A A A A A n.n.X.J f h U E + [ S.J.L.V.& , +.# y c c c c c ,.n.n.U A A A A A Y d d $.a g P ) ] ` } g &.d | p v c c ",
"A v v I I P I A A P Y 1.n.n.3...] } ` : [ S.J.L.S.z..   o +.% M F U G c L n.n.7.A A Z Y h } a.a.s 3.3.>.] ] ] ] | d _ ] ,.3.^ c ",
"A K v v &.&.&.&._ ..a.h.n.h._ a.a.a.E O B.F.F.l., l.7 . > G.M.* ; I A v v p.n.p.&.-.} ] ] a.a._ ] ] ] ] a./ v _ ] =.] A ] a.a.] ",
"A v ] ' ] ] ' ] ! U U d.n.p.v v ` $.4 $ B.F.l.. . . 0 y.N.K.F.A.[ e L ^ ' g.n.f.] ) A A U ` %.%.v 5.^ v v v x v v P I U A A A ] ",
"A A A A A A A A U R A e.n.e.I I P v 4 5 n.Z.z..     . l.x.V.b.O.0 e A A A e.n.e.A R R A A A A A A I v v c v v v v x v v P A v v ",
"A A A A A U U ' a.a.! s.n.e.A I P F 4 O n.m.B.$     # V.H.V.F.y.- V A A A e.n.e.! ] a.' U A A A Z Z v F c F I v v v v v v v v ] ",
"A A A A A ! ' ] ! ! a.h.n.e.I I P P D o 8 n.n.@.# $ b.S.D.A.A.[ C A A A A e.n.s.] ' ! ] ] ] A I I P I I P A A I v v I A ( ~ ~ a.",
"' A A A A U A ! A A ! q.n.n.U I Z Z Z ; 5 k.n.n.n.v.n.F.V.8 6 : ' ' ! A ! n.n.7.A A A A ! ! A A A A A A A A A A A A A ] ] ] a.&.",
"-.-.-.&.c F F F A A A U n.n.q.U A A R m X 6 #.n.n.c.n.A.A.8 2 x -.-.-.-.9.n.n.&.F A A A A A A A A A A A A A A A A I v v L F v v ",
"c v v v v v v c v c L Y e.n.e.U A A A A m X 1 q 9 q { 8 & - x x v c v v u.n.u.c x c c v P Y A A A A A A A A A A P K K I A A P F ",
"A F K L v K K I A A A A 7.n.n.U A Z $.$.P N = X , O - V Q Q Z v A A P &.n.n.5.Y P A A A A A A A A A A $.$.&.A I n $.P A A ~ ( A ",
"A A A A A A ) ~ A A A A U g.n.f.*.j >.g f $.d B 7 r Z _ ] ] ) v I A U f.n.f.U ~ ~ ~ A A R A A A A Y d >.=.f $.f :.,.j P ~ a.a.' ",
"A R ~ a.a.a.] a.! A K f f l j.n.y.] a.a.>.j 0.] a.a.,.a.] ] a.] A A e.n.k.a.a.a.] ( A U g d f &.d f >.] ] 0.=.>.a.] a.2.' ] ] a.",
"A ! ) ) ) ) ) I h *.d 6.3.f o.n.n.y.a.] a.a.a.] a.a.a.a.a.a.] a.a.e.n.n.w.) ' ' A %.g h | a.h f 0.2.l a.a.a.] a.] a.a.a.a.a.a.] ",
"a.! A A A U ~ L *.a.| a.a.] a.d.n.n.k._ _ ` ] ` Z Z ] a.5.%.] ] k.n.n.q.A A A ! L g ] =.` a.a.a.] a.a.] ' / _ a.] A A ( a._ c _ ",
"A A A A ! a.] ] a.a.` U ! ] ] I 7.k.n.v.t.,.U ! Z P D u u :.g.n.n.f.7.A A ! a.a.a.a.a.a.! U ' ] ! I W _ x v v I ) A A I F v c T ",
"A A ! a.' A ' a.' ! A A A ] ' I v v c.n.n.n.n.e.e.u.r.r.n.n.n.n.k.! U U ) ] A ! a.a.' A A A ) ] A v c v v c v I I A v v x F c x ",
"A A U A A A A U A A A I I I Y v v v v ,.p.n.n.n.n.n.n.n.n.k.r. .C I A A A A A A U U A A A I I I v v v v v v v v v v v v K A A v ",
"A A A v F A A A A A A A A v v v A A I v I G ,.p.r.e.r.4.H N m m m A A A L v A A A A A A A A F v v K A A c I I v v c P F K A A A ",
"K I v v v A A A A A A ) ~ A A I R A A A A A I I V e M M m m m m t v A F v v L A A A A A A ] A A I U A A I A A A I I A A I A A A ",
"v v v v c v %.A A U ] ] a.' ' a.a.' A A I I L v S m m M M m V t y v v c c v v v A I A ' a.a.] ' ] a.' ) A A I I v F A A A A A A ",
"v v v v v v c v K U ! ] a.a.] a.&.v v v v v v v c y t r t t t y v v v v z v v v v v I ! ] a.] a.] ^ x x %.v v c v v v %.v v F v ",
"P K G g p v P I A ) ' ] a.a.! P P A P P v c c v v v u u u i f k P P P P h h v F A A R ' ) a.a.) I P A Z P L v v v v v c v c g f ",
"f n l 3.f f I A ] ] ] ] ] ' A I A A L c v v v v v c g f h f f f f f a g 2.=.f $.A ) a.a.a.] a.Z A A A K c v c v c c v a f h f f ",
"] 2.a.a.] 2.2.( A A A ' ] ] ! ~ A A A A K K c c v a f 2.' a.,.f ] a.3.0.a.a.2.2.' ~ A A ~ ] ] R ) A A A A K K v v v z f :.0.] q.",
"] ] ] ] ] ] ] ! ) U A A ! a.' ~ ( A A A A A T ^ ,.} 6.] ] ] ] ] ] ] a.a.] ] ] a.) ( ~ A A A ] ] ~ ( A A A A A K ^ 5.>.:.] ] ] a.",
"' a.] ) ] a.] a.] a.A ! ! A A A A A A A A A ' Z ' a.a.] ] ) a.a.] ) a.a.) ] ] ] ] a.] U A ( A A A A A A A A A ' A ~ a.a.a.] ) ) ",
"A ! A A ] ] a.a.] a.! a.a.] ~ ! ~ W A A A A A A A A ! ] A A A ) A I A ! A ( ] ] ] ] a.~ ] ] ] ~ ~ ~ ~ ! A A A A A A A A ] ~ A A ",
"A A A A ) ) ) A ) ) ) ) ) I A P P P A A A A A A A A A A A A A U A A A A A ~ ) ) A ! ) ) ) ) R A K K P A A A A A A A A A A A A A ",
"A A A A A A A A A A A A I L v v v v K c v Z A ! a.) A A A A A I P A A A A A A A A A A A A A I v v v v F v v P A ! ' ] A A A A A ",
"A A A A P A A A A A A Z v v %.v F x v v x / _ ] ] ] a.] v F P v v P A A A I I A A A A I I F x %.v F v v v x &._ ] a.a.] ] -.v I ",
"v A A v v F I v P A v v v L A A A v F I F v v &.] ^ %.F A v %.A I v I A L v c I P %.A F v v F A A A L v Z P v %.%._ ' %.%.K K v ",
"L A P v v v c v v F Y A A A A A A I A Z I I P U U P I I v I I I v v A A v v v v v v v F A A Z Z A A A A U U I P I A I I A G K I ",
"v v c %.A A I I A A A A &.k h A j a A ' ` } g h $.g h c v v c v v v v v c I A I I Z A A A I h h G $.g A ! ] 6.j f Y f g b v v v "
};
