/* XPM */
static char *result[] = {
/* columns rows colors chars-per-pixel */
"64 64 159 2 ",
"   c #161C2E",
".  c #191E2F",
"X  c #1E272F",
"o  c #20282F",
"O  c #202130",
"+  c #232C31",
"@  c #2C2D34",
"#  c #273130",
"$  c #293230",
"%  c #2E3831",
"&  c #323335",
"*  c #373832",
"=  c #3C3E35",
"-  c #3D3738",
";  c #3B393A",
":  c #45433F",
">  c #4F663F",
",  c #576839",
"<  c #6D6B3F",
"1  c #3F4149",
"2  c #474647",
"3  c #544645",
"4  c #435F42",
"5  c #565348",
"6  c #725E54",
"7  c #466243",
"8  c #5C7D4E",
"9  c #4B6B5A",
"0  c #756550",
"q  c #786651",
"w  c #7A6952",
"e  c #836B5F",
"r  c #817057",
"t  c #88735C",
"y  c #867E65",
"u  c #977C6A",
"i  c #9A7E6C",
"p  c #738A41",
"a  c #7C994B",
"s  c #668E57",
"d  c #688F56",
"f  c #6E8D5B",
"g  c #679057",
"h  c #6B9155",
"j  c #699258",
"k  c #729451",
"l  c #7F9757",
"z  c #719C5D",
"x  c #60876E",
"c  c #6F9B6E",
"v  c #749C6D",
"b  c #638F75",
"n  c #669175",
"m  c #6B9473",
"M  c #6C9870",
"N  c #729672",
"B  c #719870",
"V  c #7C9971",
"C  c #76A664",
"Z  c #78A764",
"A  c #77A863",
"S  c #7AA863",
"D  c #75A169",
"F  c #7CA169",
"G  c #858746",
"H  c #8F8B49",
"J  c #839D46",
"K  c #819C49",
"L  c #A39E50",
"P  c #87A147",
"I  c #8CAA4C",
"U  c #90AC4A",
"Y  c #96B34D",
"T  c #99B64D",
"R  c #9BB94E",
"E  c #85A652",
"W  c #84AD5D",
"Q  c #8AAE5C",
"!  c #96AF5F",
"~  c #8EB257",
"^  c #8BB159",
"/  c #94B553",
"(  c #98B751",
")  c #99B850",
"_  c #92B15A",
"`  c #9DB15D",
"'  c #A0BA4F",
"]  c #A4A051",
"[  c #A0AF5E",
"{  c #A6B754",
"}  c #A3B951",
"|  c #ABB954",
" . c #A3B35D",
".. c #ABB55D",
"X. c #AFB858",
"o. c #B3BA56",
"O. c #B5B65D",
"+. c #BAB75D",
"@. c #B6BA58",
"#. c #BEBA5B",
"$. c #8A8367",
"%. c #8A8368",
"&. c #9C8564",
"*. c #859D6F",
"=. c #899E6E",
"-. c #819B70",
";. c #A08865",
":. c #A58F6B",
">. c #AB9A76",
",. c #A79D7A",
"<. c #B99C76",
"1. c #BA9D76",
"2. c #82A565",
"3. c #82AB61",
"4. c #89AB61",
"5. c #8DA16D",
"6. c #93AE61",
"7. c #9AAE61",
"8. c #94A46B",
"9. c #9AA769",
"0. c #9DA968",
"q. c #9CB060",
"w. c #A3AB66",
"e. c #A9AE64",
"r. c #ADB163",
"t. c #B3B361",
"y. c #ACA27D",
"u. c #C0BA5B",
"i. c #C5A67D",
"p. c #C7A87D",
"a. c #CBAC7F",
"s. c #B0A680",
"d. c #B4AB89",
"f. c #C2AD82",
"g. c #CFB080",
"h. c #D4B583",
"j. c #D7B886",
"k. c #DCC28F",
"l. c #CFC294",
"z. c #D0C496",
"x. c #DDC390",
"c. c #D1C599",
"v. c #E2CC99",
"b. c #D7CFB4",
"n. c #E9D7A2",
"m. c #E5D8A5",
"M. c #EADCA7",
"N. c #ECDEA9",
"B. c #EFE1AB",
"V. c #F0E2AF",
"C. c #F0E3B2",
"Z. c #DDDCDA",
"A. c #F1E6C4",
"S. c #F3E9C5",
"D. c #F6EFD6",
"F. c #F7F1DB",
"G. c #FAF7EA",
"H. c #F9F8F5",
"J. c #FEFEFC",
/* pixels */
"R W o.o.o.o.o.o.R R R | ` ^ W A  .S S A S S A A ~ / R R R ) o.R R R ~ { o.o.o.| o.| R R R o.W ^ S 6.6.S A S A S A ^ ~ R R ( R o.",
"R R R R R R R R | | R R R R R R ( W W S A A S A S S S ~ ^ A A S R R R R R R R ) R | } R R R R R ) R W W S A A S A S A C ^ / A C ",
"R R R R R } } #.#.#.| } R R ~ / _ S S S ( R S S S A W W W q.#.7.R R R R R R } } | u.#.#.} R R ( / / S S A ^ R W S A A W W W W u.",
"R R R R R R @.#.' R #.u.o.R R R R R R R R R ^ 3.~ R } #.} #.#.#.} R R R R R R } +.o.R @.u.#.R R ) R R R R R R ( 3.W ) } o.o.o.u.",
"u.' } ) ( ) R R R R R R R R R R R R R R R R ) ) R { +.@.+...S +.#.#.| } } / ) R R R R R R R R R R R R R R R R R R R ( +.+.@.+.S ",
"S 3.3.S S S S S ) ) ) ) ) R R R R R R R R R R ( W S S ) S S S S 3.3.S S 3.S S S S ) ) ) ) ) R R R R R R R R R R ) ( A S ~ W S S ",
"S S S S S S S S S S ~ ) ) R R R ) R R ) R R ) ) ) ) R R R ) S S S S A S S S S S S S S S ) ( R R R R R R R R R R ) ) R R R R ( ~ ",
"R ~ ( _ 3.( ( R R R R R R R R R ) / B N / R 2.B M R R R @.@.) S ) ) ( ~ ( A ( ( R R R R R R R R R R R m B F R / M M _ R R | +.R ",
"R R R R R } @.@.' R R R R R R R B V t.N n B m t.t.m R +.u.#.+.3.) ' R R R R R @.@.@.R R R R ) R R 4.n t.w.m v m r.t.V _ o.u.#.#.",
"R | @.u.#.u.u.#.R R 2.n n m B n n +.#.#.t.-.t.#.u.#.O.u.#.#.#.#.) ) R @.#.u.u.u.u.} ) ) n n n v n n 9.#.#.+.w.r.#.#.u.t.+.#.u.#.",
"R R | } | } } ) m v n +.O.n -.u.r.V #.#.#.#.#.#.#.u.u.#.u.#.#.#.u.R R | } } | } R v m n e.#.V n +.t.5.u.#.#.#.#.u.u.u.u.#.#.#.u.",
"u.| R R R ) o.F 9.u.w.u.u.u.u.u.u.u.u.q.q.+.#.o.R R @.u._ S #.#.u.u.o.R R R R o.F V #.e.#.#.#.u.#.#.#.#.O.7.w.#.#.R R } u...A ..",
"R R R ' o.#.#.u.#.#.o.R } #.@.R ^ ` ` S S A R } R / ^ A S S | X.| R R R R | #.#.#.#.#.#.R R #.#.} / _ q.A S A ) | R R W S A S _ ",
"R R | u.| R | u.o.} ) R R X.o./ S S A A S W ^ ( / A S S W A S ) R R R | @.@.R } u.+.| R R R | @.R A A S A S S ~ ~ R S S S ~ S A ",
"R R R R R R R R R R R / ~ ~ ^ S S W S S A S S S S S S R R ) Q ^ ) R R R R R R R R R R R R ~ ~ ~ C S Q 3.S S A S S S A S / R ) Q ",
"R R ) S S R R R R R R R R W 3.A R R R W R ^ S S 3.R S / R R R R R R R R W S ( R R R R R R R ^ W A ~ R R S R ( W A S ( ~ W R R ) ",
"W / A S S ) R R R R R o.o.R R { } R R R R R R R ) ) R R R R R R S A / 3.S S Q ) R R R R } #.R R } } } R R R R R R R R R R R R R ",
"S S S S A S S / / ' u.#.u.u.u.#.#.O.( R / / W Z ^ / ) / / R R S S S S S C S S S / / / #.u.u.u.u.#.#.o...) / / / S S / R / / R R ",
"A S S S S S S S / R R #.#.#.#.O.S W C S S S Z Z S S S S S S D S S S S S S S S S W W R R +.#.u.#.@.q.S S S S S S S S S S S S S C ",
"/ ) 4.n m S ) R ' o.#.#.u.u.R R R R / / S S S Z S S A C C n n m _ / ) / n n S W R R ' #.#.u.u.| ( R R ) / ~ S S S C S C D S n n ",
"N m 5.+.N n / } u.#.#.#.#.o.R R R R / S S S S S S S n n N N n n N N m m +.0.n F R #.#.+.u.u.u.R R R R ) S S S S S S S M n m N m ",
"u.O.#.#.#.t.t.} R R R o.#.#.| o.R R R R R / S S S v n +.#.u.t.N #.#.+.#.#.u.O.t.@.' R R ' #.#.} #.R R R R ) ) S D S S n w.#.#.#.",
"u.u.#.#.u.#.u.} @.} R R R u.o.' o.R R R R R ..o.t.8.+.#.u.#.#.#.u.u.u.#.u.u.u.u.@.@.o.R R R @.u.} X.R R R R R ( +.O.t.w.#.#.u.#.",
"o.#.@.X.#.u.u.u.#.#.R | | R R R R R R R R R X.R o.u.#.#.+.{ #.u.#.} #.u.' u.#.u.u.u.u.R ' @.R R R R R R R R R o.R } #.u.#.#.{ o.",
"R } R R #.#.#.#.#.#.@.#.u.#.o.o.o.o.R R R Y P p p p T u.R R R | ) ) R ) R X.#.u.u.u.#.o.#.#.u.o.o.o.@.| R R R R R R R R @.| R R ",
"R R R R { | | R } | | | } R / Q Q ^ R R P % o .     # , p R R R R R R R R } | | R R | | | | R R Q ^ W R R R R R R R R R R R R R ",
"R R R R R R R R R R R R / W A A Z Z W 7 o - &.>.y.y.y.: @ % J ^ ~ R R R R R R R R R R R R R ^ S S S S S Z S ^ ) | #.#.} R ) R R ",
"/ R R ( ~ R R R R R R ^ A A ^ ^ ^ Z 7   w a.k.B.V.S.D.M.f.0 X > S Q R R R ^ / R R R R R ^ A S W ^ ^ C S A A 3. .#.#.u.u.u.4.A ^ ",
"W R ( A S S ~ S ^ R ^ Q ^ / R R R g X * a.j.B.B.V.V.S.S.F.b.y + J ^ / R W A A / ^ S R W Q Q ^ R R R ^ S R ) Q Q Q X.o.W W / / W ",
"W R ^ A W W A A W W / R ) R R R Y % @ 1.a.v.B.B.V.C.F.G.J.F.N.$.+ j R Y C S Q S C S Q Q R R R R R R R R R ( Q 4.Q ) ^ Q ( W W ) ",
"S S S W R R R R R R R R F n n ! 9 . - i.j.n.N.y.$.y z.C.F.S.B.N.$.4 A Z A R R R R R R R R ~ b n 2.v n / X.#.+.-.n 4.n 5.c A S S ",
"R S S / / / ( R R / ~ N w.#.e.V * & a.a.j.B.&.. . . ; c.H.d.s.l.y.# ^ A W / / / R R ( / m *.#.#.*.e.e.0.u.#.u.u.=.n t.#.9.r. .A ",
"R _ S S 4.4.4.4.@.V #.#.#.#.+.H   - h.h.h.f.@       . y.s.. . 2 y.# Y A S W 4.4.Q 7.-.+.u.#.u.+.+.#.#.#.u...S +.#.5.#.R #.u.u.#.",
"R S @.@.#.@.#.#.} } ) |  .S S 8   t h.h.h.&..       . ,.2       @ $ Q  .@.+.@.+.#.o.R ) } @.3.3.S  .e.S S A S S S / ) ) R R R #.",
"R R R R R R R R ) ) R R R R ) p   6 1.h.h.;..         y.;       @ $ Y R R R R R R ' R R R R R R R R S S A S A A S A S S / ) S S ",
"R R R R R ) ) @.u.u.| R R R Y p   6 i.h.h.g.- .     . y.:   . ; ,.$ R R R R R R } #.u.+.) R R ) R R W S A W ) S S S S S S S S #.",
"R R R R R } @.u.| } #.u.| R / Y @ 3 u i.h.h.1.q ; ; %.M.l.2 1 %.y.% R ) R R R X.#.+.' #.u.+.R R / / / / ( R R R S S / ) | | | u.",
"@.R R R R R R } R R } } } R R R , O e i <.p.h.x.M.B.B.d.N.A.H.N.: G } ) R R R R R R R R } } R R R R R R R R R R R R R #.u.#.u.4.",
"6.6.7.4.A 3.W W R R R R R R R R P $ 3 e &.f.k.B.C.G.Z.2 B.D.S.z.& l 6.6._ S S W W R R R R R R R R R R R R R R R R ) S A ^ W S S ",
"A S S S S S S A A A ^ ~ / R R R R J , @ t h.v.B.B.c.z.5 M.n.n.z.% j S S S S S S S S A S ~ / R R R R R R R R R R / _ / ) ) ) ~ ^ ",
"R W ~ ^ S ~ ~ ) R R R R R R R R R ( 2.f % w j.C.c.:.N.M.B.>.v.M.; p _ W ~ A ~ ~ / R R R R R R R R R R F F 4.) ) F 3./ ) ) | X.R ",
"R R R R R R o.| R R R R R R R R 2.N 9.m b 4 2 m.n.r v.B.M.: f.M.; p R R R R R | X.| R R ' R R R R _ n 0.5.n 2.n 8.9.N / X.u.u.@.",
"R ' | u.u.u.#.#.} R ~ n n v F n b u.u.u.w.m = ; - . y y.y.- 0 y % Y R X.+.u.u.u.u.| R R n b b 4.n n 9.#.u.+.5.9.u.#.u.w.@.#.#.u.",
"R } o.o.o.o.o.) m 2.b r.r.n N u.8.N #.u.#.#.+.H H H < @ * L < * ] R R o.o.o.o.o.R 2.m m 5.#.N n r.e.V u.#.#.#.#.u.u.u.u.u.u.u.#.",
"u.} R R R R } ^ *.u.5.#.#.#.#.#.u.#.u.....#.u.@.Y T @.#.[ W #.u.#.u.X.R R R R } ~ m u.5.+.u.#.#.#.#.#.#.+...O.#.#.R R o.u.@.C O.",
"R R R ) | #.u.#.u.#.@.R | #.#.R / O...S Z Z T { U I I z z z o.@.@.' R R R ' u.#.u.#.u.u.} ) #.#.} ) { O.A S S R @.R R / Q A S _ ",
"R R } u.@.R +.#.+.' R R R +.@./ Z S S S Z E J J K s s d d d h J U Y R ' o.#.R | #.#.o.R R R o.#.R S A S S S S / ( R S S S 3.S S ",
"R R R R R R R ) R R R ) ( ( / S S S Z Z d s s s s s s J K K d h J J Y R R R R R ) ' R R R / R ( S S S S S S S S S S S C / R ) S ",
"R R R S W ) R R R R R ) R S S S R R / z J k s s s J s J J J J J J J J R ^ S R R R R R R R R Q S S ~ ) ) A R / S S S / W ~ R R R ",
"~ ) S S S R R R R R R | | R ) ) R R R U J J J J J J J a J J J J h g J Q S S ^ R R R R R R @.R R ) ) R R ( R R R ) / R R / R R R ",
"S S S S S S 3.) R ) #.u.u.@.#.u.u.+.R R P J k h a J J J J J J k d d C Z S C S S R R R +.#.u.#.+.#.u.#.X.R ) R / S W R R ) ) R R ",
"S S S S S S S S ~ ) } u.u.u.u.u.Q S S S Z z g g s d d s g h h g z z C S S S S A A S / } #.u.#.#.#. .A S W S S S S S S W S A W W ",
"/ / 4.M c S / ) R o.@.@.u.u.} / / R / / S S S A z z z z z x n c / / / / M M A W R R ' @.o.u.u.o./ / R ) / ^ A S S A S A S A m n ",
"b F V e.n n ) ) #.u.u.u.#.@.R R R ) ^ A S A S A Z Z m b m b n n n n v m e.5.n 2.R o.u.u.u.#.u.R R R R / A A S S S S S v n m n n ",
"#.w.#.u.#.w.w.| ) R R @.u.@.} | R R R R ~ ~ A A A v n w.#.u.0.m #.u.r.t.#.u.w.w.@.| R R | #.u.' o.R R R R ~ ~ S A S A n 8.t.#.O.",
"#.#.#.#.#.#.#.{ | } R R { u.@.| X.R R R R R `  .w.*...#.#.#.+.#.#.u.#.#.u.#.#.u.@.| | R R R #.#.| X.R R R R R ~  .w.9.8.#.u.#.#.",
"+.#.#.o.u.#.u.u.u.u.R } } R R R R R R R R R @.R @.u.u.#.#.| u.u.#.o.#.#.o.#.#.#.#.#.u.R R | R R R R R R R R R #.R | u.u.u.#.o.@.",
"R } R R #.u.#.u.u.u.| u.#.@.| | | { R R R R R R R R } #.R R } o.R R R } R X.#.#.#.#.#.X.#.u.u.| | | | } R R R R R R R R #.| R R ",
"R R R R o.o.o.R o.o.o.@.o.R ) ~ / / R R R R R R R R R R R R R R R R R R R | o.o.R } o.o.o.o.' R ~ / ~ R R R R R R R R R R R R R ",
"R R R R R R R R R R R R ( ^ S A S A / S S ( R } u.o.R R R R R ( / R R R R R R R R R R R R R / Z S A S W S S / R } @.u.R R R R R ",
"R R R R / R R R R R R / A S W S 3.S S S C ..O.u.u.#.#.#.S 3./ S S / R R R / ( R R R R R / W Z S S W A A S S 4.@.#.#.#.#.#.7.A / ",
"S R R S S W R S / R W S S ^ R R R S S R W W S 3.#. .3.3.R S 3.R ) S / R ^ S S ( ~ W R W 3.S W R R R ~ S ) / S S 3.+.@.3.3.~ ~ S ",
"^ R / A S S S S S S / R R R R R R ) R R / ( ( ) ) ( ) ) S ) ) ( S S R R S S S S Z S S W R R R R R R R R R ) / ( ( R ) ( ) ^ ^ R ",
"S S A W R R / R R R R R 4.m M R B v R +.+.-.m m 2.m m A S S S S S S S S A ) R ( R R R R R / N m Q 3.m R { +.t.M n _ n m D S S S "
};
