/* XPM */
static char *result[] = {
/* columns rows colors chars-per-pixel */
"64 64 183 2 ",
"   c #161C2E",
".  c #191E2F",
"X  c #1F2632",
"o  c #252531",
"O  c #242A31",
"+  c #2C2B34",
"@  c #273231",
"#  c #2B3432",
"$  c #2E3831",
"%  c #333234",
"&  c #3A3A37",
"*  c #3B3738",
"=  c #3B393A",
"-  c #413C3B",
";  c #44433F",
":  c #576839",
">  c #586839",
",  c #696B3E",
"<  c #48484D",
"1  c #445F42",
"2  c #485C43",
"3  c #565348",
"4  c #515151",
"5  c #6C5952",
"6  c #466243",
"7  c #5A7E4F",
"8  c #73634F",
"9  c #776651",
"0  c #7B6A53",
"q  c #6E7A53",
"w  c #846C5F",
"e  c #866E61",
"r  c #957E69",
"t  c #658349",
"y  c #748A41",
"u  c #7A8B43",
"i  c #668E57",
"p  c #688F56",
"a  c #698E58",
"s  c #679057",
"d  c #6C9155",
"f  c #6C965A",
"g  c #779951",
"h  c #719C5D",
"j  c #60876E",
"k  c #6D9860",
"l  c #6F9B6E",
"z  c #749C6D",
"x  c #7C9C6C",
"c  c #638F76",
"v  c #688F75",
"b  c #788D72",
"n  c #669175",
"m  c #6B9473",
"M  c #6C9870",
"N  c #729672",
"B  c #789772",
"V  c #719870",
"C  c #7C9971",
"Z  c #77A664",
"A  c #79A764",
"S  c #77A863",
"D  c #7AA863",
"F  c #75A169",
"G  c #7CA169",
"H  c #848B46",
"J  c #85874A",
"K  c #89894A",
"L  c #839D46",
"P  c #849C49",
"I  c #8D8D5B",
"U  c #969F58",
"Y  c #999E5E",
"T  c #86A047",
"R  c #8DAB4C",
"E  c #93A74B",
"W  c #96B44E",
"Q  c #9AB74E",
"!  c #9BB94E",
"~  c #84AD5D",
"^  c #89AE5C",
"/  c #92A953",
"(  c #9AAB57",
")  c #92A65D",
"_  c #9BA05D",
"`  c #96AA5C",
"'  c #9BAA58",
"]  c #8FB257",
"[  c #8BB159",
"{  c #94B553",
"}  c #99B751",
"|  c #99B850",
" . c #92B15A",
".. c #9DB15D",
"X. c #A0BA4F",
"o. c #A7A75D",
"O. c #B6AD5F",
"+. c #A3B752",
"@. c #A4B951",
"#. c #ABB954",
"$. c #AEB857",
"%. c #A3B35E",
"&. c #ABB45D",
"*. c #B3BA56",
"=. c #B5B65D",
"-. c #B9B65D",
";. c #B6BA58",
":. c #BEBA5B",
">. c #838662",
",. c #8A8267",
"<. c #8C856B",
"1. c #8E8C69",
"2. c #9B8365",
"3. c #918A65",
"4. c #94816A",
"5. c #879667",
"6. c #899467",
"7. c #819E65",
"8. c #8C9964",
"9. c #859D6F",
"0. c #899E6E",
"q. c #969164",
"w. c #999363",
"e. c #929A64",
"r. c #819B70",
"t. c #A49466",
"y. c #AA9868",
"u. c #AC8F73",
"i. c #A89874",
"p. c #A79D7A",
"a. c #B99D75",
"s. c #BA9C78",
"d. c #82A565",
"f. c #82AA61",
"g. c #89AB61",
"h. c #8DA16D",
"j. c #93AD61",
"k. c #9BAE61",
"l. c #93A36B",
"z. c #9AA769",
"x. c #9DA968",
"c. c #9CB060",
"v. c #AEA163",
"b. c #A3AB66",
"n. c #A9AE64",
"m. c #B5AC60",
"M. c #ADB163",
"N. c #B3B461",
"B. c #ABA17C",
"V. c #BCA075",
"C. c #B1A67F",
"Z. c #C0BA5B",
"A. c #C8A97E",
"S. c #B0A680",
"D. c #B4A983",
"F. c #BDBCBB",
"G. c #C9B486",
"H. c #D3B482",
"J. c #D7B886",
"K. c #D7BF8D",
"L. c #CABE92",
"P. c #DCC28F",
"I. c #CEC294",
"U. c #D0C496",
"Y. c #DDC390",
"T. c #D2C599",
"R. c #E2CD9A",
"E. c #E6D5A1",
"W. c #E7D9A5",
"Q. c #E8D9A5",
"!. c #E9DBA7",
"~. c #ECDEAA",
"^. c #EFE1AC",
"/. c #ECE3BF",
"(. c #F0E3B1",
"). c #D7D3C7",
"_. c #EDE4C3",
"`. c #F1E6C1",
"'. c #F2E8C4",
"]. c #F4EBC9",
"[. c #F6EFD6",
"{. c #FBF7EA",
"}. c #FEFCF8",
/* pixels */
"! ~ *.*.;.*.*.*.! ! ! @.%.[ ~ S %.D S S D D S S ] { ! ! | | ;.! ! ! ] +.*.*.*.*.;.#.! ! ! *.~ ^ S j.j.S S D D S S [ ] ! ! ! | *.",
"! ! ! ! ! ! ! ! @.@.! ! ! ! ! ! } ^ ~ S S S D D S D S { [ S D D ! ! ! ! | ! ! ! ! @.@.X.! ! ! ! ! ! ~ ^ S D S D S D D D [ { S S ",
"! ! ! ! ! @.@.:.Z.Z.*.@.! ! ] {  .D D D } ! D D D S f.~ ~ c.Z. .! ! ! ! ! ! | @.#.Z.:.:.@.| ! } { { S S D [ ! ~ D S D D ~ ~ ~ Z.",
"! ! ! ! ! ! ;.Z.@.! :.:.*.! ! ! ! ! ! ! | ! [ f.] ! @.:.@.:.Z.Z.@.! ! ! ! ! X.@.;.*.! ;.Z.Z.@.! ! ! ! ! ! ! ! | f.~ | @.;.*.*.:.",
"Z.X.@.| } | ! ! ! ! ! ! ! ! ! ! ! ! ! ! ! ! ! | ! +.-.;.=.&.D =.:.:.#.@.@.{ | ! ! ! ! ! ! ! ! ! ! ! ! ! ! ! ! ! ! ! } =.=.=.;.D ",
"D f.f.D D D D D } } } | | ! ! ! ! ! ! ! ! ! ! | [ D D | D D D D f.f.D D f.D D D D | | | } } ! ! ! ! ! ! ! ! ! ! } } D D ] [ A D ",
"D D D D D D S D D D ] | ! ! ! ! | ! | | ! ! | | { | ! ! ! | D D D D D S S D D D D D D D } | ! ! ! ! ! ! ! ! ! | } | Q ! ! ! } ] ",
"! ] }  .f.} } ! ! ! ! ! ! ! ! ! | { V V { ! G V V | ! ! :.;.| D | | } ] } S } } ! ! ! ! ! ! ! ! ! ! | M M G ! { M M  .! ! *.;.! ",
"! ! ! ! | @.;.;.X.! ! ! ! | ! | V B N.B n V m N.N.m ! -.Z.:.;.f.| ! ! ! ! ! ! :.;.;.! ! | | | ! ! g.n N.b.m z m M.N.C  .*.Z.Z.:.",
"! @.;.Z.Z.Z.Z.:.! ! d.n n M V m n :.:.Z.N.C -.Z.Z.:.N.Z.:.Z.Z.:.| X.! ;.Z.Z.Z.Z.Z.@.! } n m n x n n z.:.:.-.b.M.Z.:.Z.N.;.Z.:.:.",
"! @.@.#.#.@.@.| m z n -.N.n r.Z.M.B Z.:.:.Z.:.:.Z.:.:.:.Z.:.:.Z.Z.! ! @.@.@.@.@.! z n n b.Z.C n =.N.h.Z.:.:.:.:.:.Z.Z.Z.:.:.Z.:.",
"Z.#.! ! ! | *.G z.Z.b.Z.Z.Z.Z.Z.Z.Z.:.c.c.=.Z.*.! ! ;.Z.j.D :.:.Z.Z.;.! ! ! ! ;.G B :.n.:.:.Z.Z.Z.Z.:.:.=.k.b.:.:.! ! @.:.&.S M.",
"! ! ! X.*.Z.:.Z.Z.Z.*.! @.:.;.! [ ..c.S S S ! @.! { ^ S D D #.#.#.@.! ! ! *.Z.Z.Z.Z.Z.Z.! ! ;.Z.@.{  .k.S D S | #.! | [ D S D  .",
"! ! #.Z.#.! #.Z.*.| ! ! ! *.*.{ D S S S S ^ [ } { D D D ~ S D ! ! ! ! @.;.;.! | :.:.@.! ! ! #.;.! S D D S D D ] [ ! D D D ] A Z ",
"! ! ! ! ! ! ! ! ! ! ! { ] ] ^ S D ^ D S S D D D D D D ! ! | ^ ^ | ! ! ! ! ! ! ! ! ! ! ! | ] ] [ Z Z ^ ~ D D S D D S S S { ! ! [ ",
"! ! | D D ! ! ! ! ! ! ! ! ~ ~ S ! ! | ^ ! [ D S ~ ! D { ! ! ! ! ! ! ! ! ~ D } ! ! ! ! ! ! ! ] ^ S ] ! ! D ! | ~ S D } ] ~ ! ! | ",
"^ { D S D | ! ! ! ! ! *.*.! ! @.@.! ! ! ! ! ! ! | ! ! | ! ! ! ! D D { f.S D ^ ! ! ! ! ! @.Z.! ! @.@.@.! ! ! ! ! ! ! ! ! ! ! ! ! ",
"S S D D D S D { { +.:.:.Z.:.Z.:.:.=.{ ! { } ~ Z ^ } | } } ! | D D S D S D D D A { { } :.Z.Z.Z.:.:.:.=.&.| { { { D D { | { } ! ! ",
"D D S D D D D D } ! ! :.:.:.:.=.D f.D Z D A S A A D A A D A Z A D D D D D Z D D D ~ | ! ;.Z.:.Z.;...D D D D D D D D D D D D Z Z ",
"{ | g.n m A | ! ! *.:.:.Z.Z.! ! ! ! } } f.6.6.4.r 5.A A F n n M  .{ | { m n A ~ ! ! @.:.:.Z.Z.#.} ! ! ! {  .D D D S S D F D n n ",
"N M h.-.N m { @.Z.:.:.:.Z.*.Q Q Q Q ' 8.4.6.6.A D D v n N N m v b V m N -.z.m G X.:.:.;.Z.Z.:.! ! ! ! | D D D D D S D M n M N m ",
"Z.N.:.Z.:.N.N.+.! ! ! *.:.Z.@.;.Q Y q.Y { } A A Z z n =.:.:.M.B O.v.N.:.:.Z.N.N.;.X.! ! X.Z.Z.@.;.! ! ! ! | } D D D D n b.-.Z.N.",
"Z.:.Z.:.:.:.Z.@.;.@.Q Q ! Z.;.+.t.Y Q ! Q Q U J J q K -.-.Z.Z.:.:.y.t.Z.Z.:.Z.:.;.;.*.! ! ! ;.Z.@.#.! ! ! ! ! } =.N.N.b.Z.Z.Z.Z.",
"*.Z.;.#.Z.Z.:.Z.Z.Z.! #.#.! Q Y ( ! ! Q T : O * * = + % , u ;.Z.:.#.m.t.+.Z.:.Z.Z.Z.Z.X.! ;.! ! ! ! ! ! ! ! ! ;.! @.Z.:.Z.Z.@.;.",
"| @.! ! :.Z.:.:.:.:.;.:.:.-.t.o.*.*.T > X < B.P.E.^.I.B.,.  > @.! ! ! ( w.$.:.Z.:.:.:.*.Z.Z.:.*.*.*.;.#.! ! ! ! ! ! ! ! ;.#.! ! ",
"| ! ! ! @.#.#.! @.#.#.#.#.Y ) ^ ^ g @ + S.~./.'.{.[.^.^.!.B.& y ! ! ! ! ( w.#.#.! ! #.@.#.#.! ! ^ ^ ^ ! ! ! ! ! ! ! ! ! ! ! ! ! ",
"! ! ! ! ! ! ! ! ! ! ! ! { 8.D D D 1 + i.^.}.].{.{.].^.C.; ,.L.; g ! ! ! ! Y ( Q ! ! ! | ! ! [ S S S D D S S [ ! #.:.:.@.! ! ! ! ",
"{ ! ! } [ ! ! ! ! ! ! [ D D [ ^ t   0 R.^.(.[.`.^.{.F..     ,.B.# ~ ! ! ! ^ q.Q ! ! ! ! [ D D ^ [ [ S D S S ~ b.:.Z.Z.Z.:.g.S [ ",
"^ ! } D D D ] D [ ! ^ ^ ^ ] ! ! : % H.~.^.^.T.,.,.I.D.X       p.; t W Q ~ D 5.) ^ D ! [ ^ ^ [ ! ! ! [ D ! } [ ^ ~ $.*.~ ^ { { ^ ",
"~ ! [ D ^ ~ S S ~ ~ { ! ! ! ! W @ 8 H.~.^.!.;     = L.>.      ; B.@ W { D D ^ 3.D D ^ ^ ! ! ! ! ! ! ! ! ! } g.^ ^ | ] ~ { ~ ~ { ",
"S D D D ! ! ! ! ! ! ! ! A n n ^ O 2.H.R.^.C..       = G.< . < F.W.< 6 S S ! ! Y ! ! ! ! ! ] n c d.G n } *.:.N.r.m g.n h.l S S D ",
"! D D } { { { ! ! { ) B b.Z.M.x % 9 H.J.~.C.. .       < L.B.`.}.^.I.; 6 ^ { { Y ( ! !  .m 9.:.:.9.b.b.x.Z.Z.Z.:.0.v =.:.z.n.&.S ",
"!  .D D g.g.g.g.-.C v.Z.:.-.=.-.$ $ A.J.Y.C..         = !.T._.].E.~.Q.; 7 ~ g.g.e...C :.:.Z.Z.=.:.:.:.:.Z.&.D =.:.h.:.! :.Z.Z.:.",
"! D ;.;.;.;.:.:.@.! Y $.%.~ D S % w A.A.J.A.-       . ,./.4 ,.~.G.C.E.p.K ;.:.-.y.*.! ! @.-.~ D D b.&.D D D D D D { | | ! ! ! :.",
"! ! ! ! | ! ! ! ! @.Y ! ! ! | Q $ + V.A.J.A.a.9 % - i.~.{.).3 !.U.; 9 * y ! Q Q Y } ! ! ! ! ! ! ! ! D D S D S D D D D D { | D D ",
"! ! ! ! ! @.| ;.:.:._ ! ! ! } } y   w A.J.J.H.H.H.H.R.^.(.R.!.(.^.B.: y Q ! ! | o.Z.Z.;.! ! ! | ! ! D D S ~ | D D D D D D D D ;.",
"! ! ! ! ! @.;.Z.#.X.v.m.#.! } } E $ o r s.H.H.H.H.H.R.~.~.t.K.W.B.= y Q ! ! X.o.v.:.@.:.Z.;.! } } } { } { ! ! | D D } | *.#.#.Z.",
";.! ! ! ! ! ! @.! ! +.Y @.! ! ! ! T @ O w s.s.s.u.A.P.~.(.I.- = O , +.Q ! ! ! _ | ! ! ! @.@.! ! ! ! ! ! ! ! ! ! ! ! | :.Z.:.Z.g.",
"j.j.` g.S ~ ~ ~ ! ! ! w.! ! ! ! ! ! L @ o 5 e r r A.H.S.!.I.o : 7.` j.j.j.D D 3.f.! ! ! ! ! ! ! ! ! | ! ! ! ! ! ! | D S [ ~ D D ",
"S D D D A D D S D D ^ e.` ! ! ! ! ! ! L % o 5 5 % % & # = % 1 A D S D D D D D d.D Z D D ] { ! ! ! ! ! ! ! ! ! ! ] { { | | | ] [ ",
"! ^ ] ^ D ] ] | ! ! ! | Y ! ! ! ! ! d.d./ y # O 2 y Q W H E W D ! ! { ^ ] D ] ] { | ! ! ! ! ! ! ! ! ! G G g.! { G d.{ | ! #.*.! ",
"! | ! ! ! ! *.#.! ! ! ! w.' ! ! d.k z.M n d.c z.z.z ! *.:.Z.$.D Q ! ! | ! ! Q #.#.#.! ! ! ! ! ! ! ] n x.h.n d.m l.x.N { #.Z.:.;.",
"! @.#.:.Z.Z.:.:.@.! ^ c v 4.G n v :.:.Z.x.N N.:.:.Z.x.:.Z.Z.:.:.Q ! ! #.;.Z.Z.Z.Z.#.! | m v v g.n n z.:.Z.=.h.z.Z.Z.Z.b.;.Z.Z.:.",
"! @.*.*.*.*.*.| m d.m N.n.b <.:.e.C :.:.Z.Z.:.:.Z.:.:.:.:.Z.Z.:.;.! ! *.*.*.*.*.Q g.m m h.:.m n N.b.C Z.Z.Z.:.:.Z.:.Z.:.Z.:.Z.Z.",
"Z.@.! ! ! ! @.[ 9.Z.9.Z.Z.:.O.:.:.Z.Z.&.&.:.:.;.! ! ;.:.%.~ Z.Z.Z.Z.*.Q ! ! ! @.^ N Z.0.-.Z.:.Z.:.Z.:.Z.-.&.=.:.:.! ! *.Z.=.S =.",
"! ! ! ! #.:.:.:.Z.Z.;.! #.Z.:.! { =.&.D D D | #.Q R R h h h =.;.*.@.! ! ! @.:.:.:.Z.Z.Z.| @.:.Z.@.} %.=.S D D | *.! ! { ~ D S ..",
"! ! @.Z.;.! :.:.;.@.! ! Q ;.*.{ D 6.7.D D  .{ T P i i i p i d P / _ X.X.*.:.! #.Z.Z.;.! ! ! *.:.! D D S S D D } } ! D D Z ~ S D ",
"! ! ! ! ! ! | | ! ! ! Q } }  .D D D 1.4.5.h a i i i i L P P >.r 3.P ! ! ! ! ! ! | | ! ! ! } } | D D D D D D D D D D D D ] ! ! D ",
"! ! ! D ~ ! ! ! ! ! ! | ! D D D | ! } f.e.r r >.>.I >.I r 4.I P L L R ! [ D ! ! ! ! ! ! ! ! ~ D D ] ! ! S | { D D D { ~ ] ! ! ! ",
"] | D D D | ! ! ! ! ! *.#.! | | X.! ! ! ! P P I I I I I L L L L d d R ~ D D ^ ! ! ! ! ! ! :.! ! ! | ! ! } ! ! ! } } ! ! } ! ! ! ",
"S D D D S D ~ ! | ! ;.:.Z.;.;.Z.Z.;.! ! ! R g d g L L L L L T d d f A D D D D D ! | | ;.Z.Z.;.:.:.Z.;.*.! ! | } D ~ ! ! | ! ! ! ",
"D D D D D D D D ] @.@.Z.Z.Z.Z.Z.g.D D D D D h f i d d i d d d s h D Z D D S D D D D } @.:.:.Z.Z.:.%.S D f.D D Z D D S ~ D D ~ D ",
"{ { g.M M D  .! ! #.;.:.Z.:.@.{ { ! { { D D D S D h h h f j n M { {  .{ M M D ~ ! ! X.*.*.Z.Z.#.}  .! } { [ D D D D D S D S m n ",
"c G C n.m n | | :.Z.:.:.Z.;.| | ! ! ] Z D S D D D D M n m n n n n n z m b.h.n d.! ;.Z.Z.:.:.Z.X.! ! ! { S S D D S S D F n M n n ",
":.b.:.:.-.b.b.#.! ! ! ;.Z.:.@.#.! ! ! ! ] ] S D S z n b.:.:.x.m :.Z.M.=.:.Z.b.b.:.#.! ! #.:.:.X.*.! ! ! ! ] ] D D D D n l.N.:.N.",
":.:.:.Z.:.Z.:.@.*.@.! ! @.Z.;.#.#.! ! ! ! ! ..%.x.9.M.:.:.:.:.:.:.:.:.:.:.:.:.Z.*.#.#.! ! ! :.:.#.#.! ! ! ! ! ] %.b.x.h.:.Z.:.Z.",
";.Z.:.*.:.Z.:.Z.:.:.! @.@.! ! ! | ! ! ! ! ! ;.! ;.Z.Z.:.:.*.:.:.:.*.:.:.*.:.:.Z.:.:.Z.! ! #.! ! ! ! ! ! ! ! ! ;.! #.Z.Z.Z.Z.*.;.",
"! @.! ! :.:.Z.Z.Z.:.@.:.Z.;.#.@.#.#.! ! ! ! ! ! ! ! @.:.! ! ! ;.! ! ! @.! #.Z.:.Z.:.:.#.:.Z.:.#.@.#.#.@.! ! ! ! ! ! ! ! :.#.! ! ",
"! ! ! ! *.*.*.! *.;.*.;.;.| | { ] { ! ! ! ! ! ! ! ! ! ! ! ! ! ! ! ! ! ! ! #.;.*.! @.*.*.*.;.@.!  .{ { ! ! ! ! ! ! | ! ! ! ! ! ! ",
"! ! ! ! ! ! ! ! ! ! ! ! } [ D D D D ] D D | ! X.:.;.! ! ! ! ! { { ! ! ! ! ! ! ! ! ! ! ! ! ! { D D S D ~ A D } ! @.;.Z.| ! ! ! ! ",
"| ! ! ! { ! ! ! ! ! ! } S D D ~ f.D D S S &.=.:.:.:.Z.:.D f.{ f.D { ! ! ! } } ! ! ! ! ! } ~ D D D ~ D D D D g.=.:.:.Z.Z.:.c.S { ",
"D ! ! D D ~ } D { ! f.D D ] ! ! ! D ~ } ~ ~ D g.:.%.D ~ ! D f.! } D } ! ^ S S } { D ! ~ D D ~ ! ! ! [ D | { D f.f.;.:.f.~ ] ] D ",
"[ ! { D D D D D D D { ! ! ! ! ! ! | ! ! } { { | | { ! ! D | } } D D ! ! S D D D D D D ~ ! ! ! ! ! ! ! ! | | { { } ! { { } [ [ ! ",
"D D D f.! ! | | ! ! ! ! g.m M | m x ! ;.-.r.m m d.m M D S D S D D D D D S | ! } } ! ! ! ! } N m ^ d.m Q +.:.N.M n  .n M F D S D "
};
