/* XPM */
static char *result[] = {
/* columns rows colors chars-per-pixel */
"64 64 207 2 ",
"   c #00001E",
".  c #000529",
"X  c #130D24",
"o  c #04132C",
"O  c #0A172C",
"+  c #0E1A2D",
"@  c #16182C",
"#  c #151B2D",
"$  c #171E30",
"%  c #181F32",
"&  c #1D232F",
"*  c #1B2738",
"=  c #262B2E",
"-  c #222331",
";  c #272B32",
":  c #322D36",
">  c #273839",
",  c #393637",
"<  c #453C3D",
"1  c #2E413B",
"2  c #364537",
"3  c #3B523D",
"4  c #4F4B3C",
"5  c #47593B",
"6  c #536239",
"7  c #56693B",
"8  c #61683B",
"9  c #64763C",
"0  c #1D3543",
"q  c #222B42",
"w  c #252F49",
"e  c #26354A",
"r  c #2C3653",
"t  c #493E40",
"y  c #26424A",
"u  c #234654",
"i  c #2E5A5C",
"p  c #315150",
"a  c #394669",
"s  c #2A5867",
"d  c #3E4C73",
"f  c #366B6B",
"g  c #2F6474",
"h  c #35667A",
"j  c #3B7674",
"k  c #4A4141",
"l  c #554744",
"z  c #5D4D49",
"x  c #425D42",
"c  c #67584A",
"v  c #6B5851",
"b  c #725D55",
"n  c #506D4B",
"m  c #6A754F",
"M  c #777543",
"N  c #7E675A",
"B  c #404E75",
"V  c #405579",
"C  c #405B7C",
"Z  c #567A65",
"A  c #5B7E64",
"S  c #7E7C62",
"D  c #826A5E",
"F  c #88735A",
"G  c #846C60",
"H  c #896F62",
"J  c #8C7264",
"K  c #917668",
"L  c #977B6B",
"P  c #997C6B",
"I  c #5D8150",
"U  c #688449",
"Y  c #748441",
"T  c #748C42",
"R  c #7B9547",
"E  c #658957",
"W  c #668E56",
"Q  c #7A8559",
"!  c #6C9558",
"~  c #789A56",
"^  c #729F5F",
"/  c #76A15D",
"(  c #5E8360",
")  c #7A9D66",
"_  c #749B6E",
"`  c #638F76",
"'  c #669175",
"]  c #6B9473",
"[  c #6D9970",
"{  c #729672",
"}  c #719870",
"|  c #7C9971",
" . c #76A663",
".. c #78A764",
"X. c #77A863",
"o. c #7AA863",
"O. c #75A169",
"+. c #7DA169",
"@. c #898648",
"#. c #839D46",
"$. c #8A9E49",
"%. c #99964D",
"&. c #949E4B",
"*. c #9C9E4E",
"=. c #88905A",
"-. c #999954",
";. c #A29E4F",
":. c #A29E50",
">. c #8AA649",
",. c #92AE4B",
"<. c #97B44D",
"1. c #99B54D",
"2. c #9BB94E",
"3. c #8AAB54",
"4. c #84AD5D",
"5. c #8AAE5C",
"6. c #97AB57",
"7. c #8FB357",
"8. c #8CB159",
"9. c #94B553",
"0. c #98B751",
"q. c #99B850",
"w. c #92B15A",
"e. c #9DB15D",
"r. c #ABA755",
"t. c #A3B951",
"y. c #ABB954",
"u. c #A3B25E",
"i. c #ABB55D",
"p. c #AAB858",
"a. c #B5B157",
"s. c #B3BA57",
"d. c #B5B65D",
"f. c #BAB65B",
"g. c #B7BA58",
"h. c #BEBA5B",
"j. c #888D6B",
"k. c #9B8669",
"l. c #859C6E",
"z. c #899E6E",
"x. c #A4896C",
"c. c #A68A70",
"v. c #A88B71",
"b. c #AD9170",
"n. c #B59973",
"m. c #B49877",
"M. c #82A565",
"N. c #82AB61",
"B. c #8AAB61",
"V. c #8DA16D",
"C. c #93AE61",
"Z. c #9AAF61",
"A. c #98A569",
"S. c #9AA769",
"D. c #9CB060",
"F. c #A3AB66",
"G. c #AAAE64",
"H. c #AEB163",
"J. c #B4B460",
"K. c #BAB569",
"L. c #BDA176",
"P. c #BDA379",
"I. c #BFB770",
"U. c #C0BA5B",
"Y. c #C2A47B",
"T. c #C7A97B",
"R. c #CBAC7E",
"E. c #C8B775",
"W. c #3D6B84",
"Q. c #397789",
"!. c #3E7D91",
"~. c #406381",
"^. c #3E8295",
"/. c #3E8698",
"(. c #3F889A",
"). c #478E8A",
"_. c #428C9A",
"`. c #49959A",
"'. c #4C9CA1",
"]. c #56ACA7",
"[. c #5AB3AC",
"{. c #B7B190",
"}. c #B2B3B5",
"|. c #CBB082",
" X c #D5B583",
".X c #D8BB89",
"XX c #D0BE92",
"oX c #CAC493",
"OX c #DAC996",
"+X c #DDCA97",
"@X c #E3CD99",
"#X c #E5D19D",
"$X c #DDD5A4",
"%X c #E9D9A4",
"&X c #EBDBA5",
"*X c #EFE1AB",
"=X c #EFE8AD",
"-X c #F0E2AC",
";X c #EFE1B3",
":X c #F1E7BA",
">X c #E1DACF",
",X c #F2E9D2",
"<X c #F7F2DC",
"1X c #EEEBE8",
"2X c #FAF5E5",
"3X c #FDFBF5",
"4X c #FFFEFE",
/* pixels */
"2.4.s.s.g.s.s.s.2.2.2.t.u.8.4.X.u.o.o.o.X.X.X.X.w.0.2.2.0.q.g.2.2.2.7.t.s.s.s.s.s.y.2.2.2.s.5.5.X.C.Z.X.X.X.X.o...7.7.2.2.2.2.s.",
"2.2.2.2.2.2.2.2.t.t.2.2.2.2.2.2.0.4.4.o.X.X.X.X.o.o.X.w.8.X.o.o.2.2.2.2.0.2.2.2.2.y.t.2.2.2.2.2.2.2.4.4.X.X.X.o.X...o...5.w.X./ ",
"2.2.2.2.2.t.t.h.U.U.s.t.2.2.w.9.w.o.X.o.0.2.o.X.o.X.4.4.4.D.U.w.2.2.2.2.2.2.q.t.s.h.h.h.t.2.2.9.9.9.o.X.o.8.0.4.X.X.X.4.4.4.8.h.",
"2.2.2.2.2.2.g.U.t.2.h.h.y.2.2.2.2.2.2.2.2.2.7.N.7.2.t.h.t.h.U.U.t.2.2.2.2.2.t.t.g.s.2.g.U.h.2.2.2.2.2.2.2.2.2.q.N.4.2.t.s.s.s.h.",
"U.t.t.q.0.2.2.2.2.2.2.2.2.2.2.2.2.2.2.2.2.2.q.q.2.t.h.d.d.i.o.d.h.h.y.t.t.0.0.2.2.2.2.2.2.2.2.2.2.2.2.2.2.2.2.2.q.q.0.g.d.d.d.o.",
"N.o.N.o.o.o.o.o.0.0.0.0.2.2.2.2.2.2.2.2.2.2.2.0.8.X.o.q.o.o.o.o.N.N.o.N.N.o.o.o.o.q.q.q.q.q.2.2.2.2.2.2.2.2.2.2.0.0.o.o.7.8.o.o.",
"o.o.o.X.o.o.X.o.o.o.7.q.2.2.2.2.2.2.q.q.2.2.q.0.0.0.2.2.2.2.o.o.X.o.X.X.X.X.X.o.o.o.o.o.2.0.2.2.2.2.2.0.2.2.2.2.q.q.0.q.2.q.0.7.",
"2.7.0.w.N.0.0.2.2.2.2.2.2.2.2.2.2.9.{ } 9.2.M.} [ q.2.2.h.g.0.o.q.q.0.7.0.X.0.0.2.2.2.2.2.2.2.2.2.2.1.[ } +.2.9.} } 9.2.2.y.h.q.",
"2.2.2.2.2.t.g.g.t.2.2.0.2.0.q.2.} { J.{ ] { ] J.J.] 2.g.g.M 8 5 6 7 6 6 q.2.2.g.g.s.2.2.2.2.2.2.2.M.' J.F.' _ ] H.J.| w.s.U.h.h.",
"2.t.g.U.U.U.U.U.2.2.M.' ] [ } ] ` h.U.U.J.| J.h.h.U.d.M - @ ).`.`.`.f @ & @.h.h.U.t.2.0.] ' ` _ ' ' S.h.h.h.F.H.U.h.h.J.g.U.h.U.",
"2.t.y.t.t.y.t.2.[ _ ' f.J.` l.h.H.| U.U.U.U.h.h.U.h.r.@ ).[.[.0 ].[.[.[.j + , y.2.+.] ' F.U.| ' h.J.V.U.h.h.h.h.h.U.U.h.h.h.U.h.",
"U.y.2.2.2.2.s.+.S.U.F.U.U.U.U.h.U.U.h.D.D.d.U.s.2.,.@ ).[.[.> j [.[.[.`.'.j & 4 +.{ U.F.h.h.h.U.h.h.h.h.d.D.F.U.h.q.q.y.h.H.X.i.",
"2.2.2.2.s.h.h.U.U.U.s.2.t.h.g.2.8.D.D.X.o.X.2.t.2.# i [.[.'.@ ].[.[./././.!.* % f.h.h.h.2.2.h.h.t.w.w.e.X.o.X.0.t.2.2.8.o.X.o.w.",
"2.2.y.U.y.2.K.E.g.2.2.2.q.s.g.9.X.o.X.X.o.8.7.q.3.@ _.[.[.(.].[.[.`.(.g (./.d & f.h.y.2.2.2.y.g.2.X.X.X.o.o.N.8.7.2.o.o.o.7.X.X.",
"2.2.2.2.2.2.E.R.E.2.2.w.7.7.5.X.o.8.o.o.X.o.o.o.E @ _.[.].(.].[.[.`./.g s /.d % <.2.2.2.2.7.7.7.X.o.8.N.o.X.X.X.X.X.X.X.w.2.2.8.",
"2.2.0.o.4.2.6 1XOXI.2.2.2.4.4.X.2.q.q.4.2.8./ / W f [.[.[.(.[.[.[._././.X (.Q.@ <.2.2.2.2.2.8.4.X.7.2.2.o.q.0.8.X.X.0.8.8.2.2.0.",
"4.0.o...o.2.6 >X4XXXK.s.s.q.2.t.y.2.2.2.2.2.2.2.#.i [.[.[.`.[.[.[.'./.(.X /.& & 1.2.2.2.t.U.2.2.t.t.t.2.2.2.2.2.2.2.q.2.2.2.2.2.",
"X.o.o.o.o...3 oX4X4Xc.f.h.h.h.h.f.d.9.2.9.9.4...! @ _.[.[.[.[.[.[.`./.g e /.& p 9.9.0.h.U.U.U.h.h.U.d.p.2.9.9.9.X.o.0.2.9.9.2.2.",
"X.X.o...o.o.p oX2X4X<XR.U.U.h.d.o.N.o. ...o.o.....> u `.[.].[.[.'././.* d Q.& X.o.4.2.2.g.U.h.U.g.D.o.o.X.X.o.X.o.o...o.........",
"9.0.B.] [ / 6 oX X,X<X,XE.U.2.2.2.2.0.0.o.X.o.o...! % 0 !.^././.(.s q u d * 5 5.2.2.t.h.h.U.U.y.0.2.2.0.0.w.o.o.X.o.o.X.....' ] ",
"{ ] V.h._ ] 3.P.*X.X%X4X= s.2.2.2.2.q.o.o.o.o.o.X.o.Z % @ y u u u # a d a + ` +.2.h.g.h.h.U.h.2.2.2.2.0.o.o.o.o...o.o.[ ' { { ] ",
"U.J.h.h.h.J.J.o T..X+X:XP.@.t.s.2.2.2.2.0.0.X.o.o.[ ` a.; @ @ @ + a d a # # : M g.t.2.2.t.U.U.t.h.2.2.2.2.0.q.o.o.o...` F.f.U.K.",
"h.U.h.U.U.U.h.7 c R.R.=XoX2 s.t.s.2.2.2.2.2.p.d.d.A.i.$ k &XoX. r 0 d J ;XXX& @.g.g.g.2.2.2.g.h.t.y.2.2.2.2.2.q.d.d.d.F.h.h.U.U.",
"s.h.g.y.U.U.U.U.O L..XOX*Xo T 2.2.2.2.2.2.q.y.2.d.a.# O + ,X<X2X{.$X,X2X$X  c # @.U.U.2.2.g.2.2.2.2.2.2.2.2.2.g.2.t.U.h.U.h.t.s.",
"0.t.2.2.h.U.U.h.M x. X|.XXoX5 g.s.g.2.2.2.2.2.2.2.9 : L b   }.}.1X4X4X>XR.P P v , f.h.s.U.U.U.g.g.g.g.y.2.2.2.2.2.2.2.2.g.y.2.2.",
"2.2.2.2.t.y.y.2.y.. .X Xj.=X= 4.5.8.2.2.2.2.2.2.2.# b L n. X@X*X-X-X*X@X XT.L c - 2.t.y.y.y.2.2.5.8.4.2.2.2.2.2.2.2.2.2.2.2.2.2.",
"2.2.2.2.2.2.2.2.1.5 k.R.N =X$X> o.o.4.o.X.0.2.s.*.O L P  X X&X&X*X*X*X-X X Xv.L ; @ & 2.1.2.8.o.X.X.o./ o.o.5.2.y.h.h.t.2.2.2.2.",
"9.2.2.0.8.2.2.2.2.#..  Xn.P.#X= 4.o.W  .X.Z.u.U.@ l v.m. X.X;X3X4X4X4X*X.X XR.L K # c + 3.o.o.4.8.8.X.o.o.o.o.u.U.U.U.U.U.B.X.8.",
"5.2.0.X.X.o.7.o.8.2.2 F R.- OXc & & i > 4.8.7.4.O L T. X X%X-X2X4X4X<X*X%X X XP P : n. X, U 8.2.2.2.7./ 2.0.5.5.5.y.s.4.4.w.9.5.",
"4.2.5.X.4.4.X.X.4.3.R N .X4 c R.- y [.i & 5.5.U O K L c. X X.X&X2X,X*X*X*X XY.P P t % n.R.: = <.2.2.2.2.2.0.5.B.5.2.5.5.0.4.4.q.",
"X.o.o.4.2.2.2.2.q.2.2.# F J - R.c * y Q.f Q { # z K P  X%X&X;X;X2X4X3X*X*X X X XP J # : n.R.< * n ) ] 9.s.h.d.l.] B.' z.[ X.X.X.",
"2.o.o.0.0.9.0.2.2.9.7.# l P : 4 P.# Q.].f &.h.$ z L c. X X;X4X4X4X4X<X*X*X X X Xk., # F K z x.L , = m S.h.U.U.U.z.' d.h.S.G.i.X.",
"2.w.X.X.B.B.B.5.d.| %.@ + K J # 0 !.(._.* o.g.# z L v. X.X*X*X:X:X,X;X-X-XR.R.b.L K # H P L |. X XT.b., 7 6 M.d.U.V.h.2.U.U.U.U.",
"2.N.g.g.h.h.g.h.t.R s W.q # * a h (.s * W o.o.# z P v. X.X*X*X-X*X&X*X-X#X+XR.P P K # H L L J z . S c.=X$X# ^ o.o.9.q.2.2.2.2.h.",
"2.2.2.2.0.2.2.2.1.,.@ @ # d B d s * N t 3 o.o.& , v Y. X X&X3X4X<X*X+X.XR.R. X XY.N : H L L L L P N O c T.# / X.o.o...o.9.2.o.o.",
"2.2.2.2.2.2.2.g.U.U.9 q a d e @ x.m.x.G # T / # o L m. X X&X-X4X4X4X&X#X-X+X.XR.P K @ H L L L P P P H m T.& 7./ X.o.o.o.o.o.o.h.",
"2.2.2.2.2.t.g.U.y.t.@.# @ @ + b. X X XP O 2.4.E t L L K m.&X-X,X4X4X-X&X-XL.R.n.L v ; L L L L P P P N v T.& ,.q.o.o.0.2.y.y.y.U.",
"g.2.2.2.2.2.2.t.2.2.t.Y Y 9 + R. X XP < # >.2.>.@ N L L m. X X@X%X&X-X%X+Xn. XL.L ; v L L L L L L L P v T.# ,.2.2.2.2.h.U.h.U.B.",
"C.C.C.B.X.4.4.4.2.2.2.2.1.,.# o : D O @ @ 2.2.2.5 + N L Y. X X&X-X-X.X XY.L L L & @ - L L P L L L L L G T.& ,.q.2.2.o.o.8.4.X.o.",
"X.o.o.o.X.o.o.X.X.X.8.w.9.2.2.9 & $ % B @ R 2.w.w.$ + G P P  X#X%X X@X@XL K b @ $ d @ J L L L L L P L c.T.# ,.q.7.7.7.0.2.2.w.5.",
"2.4.7.8.o.7.7.0.2.2.2.2.2.2.2.2.2.9 @ # $ #.5.M.) # # $ : J P.n.n.Y.n.b.c $ @ r d B r & L L L L L L D c.T.$ ,.1.o.M.0.q.q.y.s.2.",
"2.2.2.2.2.2.s.y.t.2.2.2.2.2.2.2.+.] S.1 A M.` S.=.# d q ; # # # @ $ @ @ > r B B B w % @ G L L L L L G c T.% ~ ' A.S.{ w.y.U.U.s.",
"2.t.y.U.U.h.h.h.t.0.8.' ' _ +.` ` h.U.U.S.{ J.U.; w B V d d d d d d B B B B B B V d - % G L L L L L G t Y.@ l.A.U.h.U.F.g.U.U.h.",
"2.t.s.s.s.s.s.2.[ M.` H.H.' { U.A.{ h.U.U.U.U.h.# w B ^.(././.^.^./.~.V V B ^.C ^.d d # G P L L L L G l H & a.U.U.U.U.U.U.h.U.U.",
"U.t.2.2.2.2.t.5.l.U.V.U.U.h.U.h.U.h.U.i.d.h.h.g.T w B ^././././././././././.^.B C B q @ D P L L L L z H & 6.d.h.h.t.2.y.U.d.X.d.",
"2.2.2.2.y.h.U.U.U.U.g.0.y.h.h.2.9.d.i.o. ...2.y.<.# d C /./././././././././.C C B d q %.# D L L L , N @ ! X.o.2.s.2.2.w.4...X.e.",
"2.2.t.U.s.t.g.h.g.t.2.2.2.g.s.9.X.X.X.o.o.w.0.0.2.# * e ^./.^./././././././.^.B d w ; <.>.+ D P , b + ! o.o.o.0.1.2.N.o.X.4.o...",
"2.2.2.2.2.2.q.q.2.2.2.0.0.0.w.o.X.N.o.o.X.X. .o.o. .@ & d C ^._././././.!.C B B d % = 2.2.>.O < v t ! o.X.o.o.o.X.o...o.7.2.2.o.",
"2.2.2.o.4.2.2.2.2.2.2.2.0.o.o.o.q.2.0.o.q.4.o.o.o.2.n # @ & r r r r r r r r r e # T 2.2.2.2.~ @ @ ~ 2.2.X.0.0.o.o.X.9.4.9.2.2.2.",
"7.0.o.o.o.0.2.2.2.2.2.s.y.2.2.0.t.2.2.2.2.2.q.q.q.>.# # @ @ 9 T I m # # $ # # # T 2.2.2.2.g.2.>.$.0.2.2.0.2.2.2.0.0.2.2.0.0.2.2.",
"o.X.o.o.X.N.4.2.0.2.g.h.U.g.g.U.U.g.2.2.2.q.8.o.7.<.# # 2 1.2./ ^ ^ O.^ I # # 3 2.q.0.g.h.U.h.f.h.U.h.p.2.q.2.0.o.4.2.2.2.2.2.2.",
"X.X.o.o.X.X.X.o.7.t.t.U.U.U.U.U.B.o.o.o.o.o.X.o.X./ / & = ! ! W W W W W x $ > W W / ,.t.h.U.h.h.h.u.o.o.4.o.X.o.o.o.X.N.o.o.o.4.",
"9.9.B.[ [ o.w.2.2.y.g.h.U.h.t.w.9.2.9.9./ o.o.X.X.W & + % n Z ( R R ~ R # # 1 U >.#.#.*.s.U.U.y.0.9.2.1.w.7.o.X.o.X.X.X.X.X.] ' ",
"` +.| G.] ' q.0.U.h.h.U.U.g.2.2.2.2.7.X.o.X.o.o./ W 1 1 > y Z Z Z Z E ( 4 2 > 2 R *.;.;.;.U.h.t.2.2.2.9.X.X.o.o.o.o.X.O.] ] ' ' ",
"U.F.U.U.h.F.F.y.2.2.2.g.h.h.t.t.2.2.2.2.w.7.X.o.O.( Z =.r.:.=.A :.:.-.-.:.;.=.=.;.$.#.#.$.U.h.t.s.2.2.2.2.7.7.o.X.o.o.] V.J.h.J.",
"U.U.h.h.h.h.h.t.s.t.2.2.t.U.g.s.y.2.2.2.2.2.e.u.Z.Q =.;.:.:.-.:.:.:.:.6.;.;.;.;.*.&.&.#.<.2.h.h.p.p.2.2.2.2.2.7.u.G.S.V.U.U.h.h.",
"g.U.g.s.U.h.U.U.h.h.2.t.t.2.2.2.q.2.2.2.2.2.s.2.g.U.a.:.;.&.:.:.:.%.;.;.&.;.;.;.;.:.:.2.2.p.1.2.2.2.2.2.2.2.2.g.2.y.U.U.h.U.s.s.",
"2.t.2.2.h.U.h.U.U.h.t.h.U.g.y.t.y.y.2.2.2.2.2.2.2.2.t.h.1.1.1.,.#.#.#.>.#.&.r.h.h.U.U.y.h.U.U.y.y.y.y.t.2.2.2.2.2.2.2.2.h.y.2.2.",
"2.2.2.2.g.g.g.2.s.g.s.g.s.2.2.9.w.0.2.2.2.2.2.2.2.2.2.2.2.2.q.t.2.2.2.2.1.y.s.s.2.q.g.s.s.s.t.2.w.9.9.q.2.2.2.2.2.2.2.2.2.2.2.2.",
"2.2.2.2.2.2.2.2.2.2.2.2.0.8.o.o.X.X.7.o.o.q.2.t.h.g.2.2.2.2.2.0.w.2.2.2.2.2.2.1.2.2.2.2.2.2.9.o.o.X.o.4.X.X.0.2.t.h.h.q.2.2.2.2.",
"q.2.2.q.9.2.2.2.2.2.2.q.X.X.N.N.o.o.o.o.o.i.f.U.U.h.h.h.o.4.9.o.o.w.2.2.2.0.0.2.0.2.2.2.0.4.X.N./ 4.o.o.o.o.B.d.h.U.U.h.h.C.o.0.",
"4.q.2.o.o.4.0./ 9.2.N.o.o.7.2.2.2.o.4.2.4.N.o.N.h.u.N.4.2.o.N.q.2.o.0.2.5.o.X.0.9.4.2.4.o.o.N.2.2.2.7.o.q.9.o.N.N.d.g.N.N.7.7.o.",
"8.q.9.X.o.o...o.o.N.9.2.2.2.2.2.2.2.2.2.0.9.9.q.2.9.q.q.o.0.q.q.o./ 2.2.X.o.o.o.o.o.o.4.2.2.q.2.2.2.q.2.q.q.0.9.0.2.0.9.0.8.7.0.",
"o.o.X.4.2.2.0.0.2.2.2.2.M.[ [ 0.[ | 2.g.J.l.] ] M.] ]  .o.o.X.o.o.o.o.o.o.2.2.0.0.0.2.2.2.q.[ { 5.M.[ 0.t.h.H.] ] w.] ] O.o.o.o."
};
