/* XPM */
static char *_28a111a334f48cd8e21e715ee45f906Wsq0ytjFv7V2LjXV[] = {
/* columns rows colors chars-per-pixel */
"64 64 222 2 ",
"   c None",
".  c #00001E",
"X  c #000529",
"o  c #0A172B",
"O  c #151C2E",
"+  c #171C2E",
"@  c #1A1E31",
"#  c #1C232F",
"$  c #1D2532",
"%  c #232A2F",
"&  c #23262E",
"*  c #222432",
"=  c #242C31",
"-  c #2A2C31",
";  c #25243B",
":  c #282738",
">  c #332C39",
",  c #2A3531",
"<  c #363735",
"1  c #453C3D",
"2  c #3D4A34",
"3  c #354838",
"4  c #3A4F3B",
"5  c #464A35",
"6  c #455335",
"7  c #475A39",
"8  c #565539",
"9  c #51493C",
"0  c #516237",
"q  c #536339",
"w  c #59683A",
"e  c #5F723B",
"r  c #4F633C",
"t  c #64643D",
"y  c #6B6B3E",
"u  c #62753C",
"i  c #667A3D",
"p  c #6A7C3E",
"a  c #2D2C43",
"s  c #2C2542",
"d  c #3E3956",
"f  c #392F4E",
"g  c #423D5A",
"h  c #45335C",
"j  c #553B55",
"k  c #493E40",
"l  c #4A3D62",
"z  c #4A3662",
"x  c #563E70",
"c  c #594B47",
"v  c #435C41",
"b  c #4F4148",
"n  c #67584A",
"m  c #6B5851",
"M  c #725D55",
"N  c #4C6A45",
"B  c #4A6543",
"V  c #546D45",
"C  c #5B7D4D",
"Z  c #577649",
"A  c #687C44",
"S  c #797742",
"D  c #7E675A",
"F  c #6E744D",
"G  c #4D4166",
"H  c #5B4476",
"J  c #53436C",
"K  c #694864",
"L  c #724E6C",
"P  c #7E7C62",
"I  c #826A5E",
"U  c #816E55",
"Y  c #877655",
"T  c #855A7C",
"R  c #896F62",
"E  c #846C60",
"W  c #8C7264",
"Q  c #977B6B",
"!  c #997C6B",
"~  c #917668",
"^  c #6E843F",
"/  c #5C8152",
"(  c #5E804F",
")  c #68874C",
"_  c #748C41",
"`  c #798642",
"'  c #75954D",
"]  c #7B9648",
"[  c #658C55",
"{  c #688A56",
"}  c #6B9155",
"|  c #6C965A",
" . c #719453",
".. c #729D5D",
"X. c #7A9955",
"o. c #738F55",
"O. c #7CA259",
"+. c #6D986E",
"@. c #729E6C",
"#. c #7B9B6C",
"$. c #6A9572",
"%. c #779871",
"&. c #668869",
"*. c #76A464",
"=. c #79A763",
"-. c #7BA962",
";. c #7DA169",
":. c #73A16A",
">. c #878647",
",. c #928E4A",
"<. c #839C46",
"1. c #829C4B",
"2. c #8C9C49",
"3. c #889347",
"4. c #939D4C",
"5. c #9B9D4E",
"6. c #95924B",
"7. c #8A9555",
"8. c #989755",
"9. c #858E5B",
"0. c #A19D51",
"q. c #A09D4F",
"w. c #8AA649",
"e. c #8EAA4B",
"r. c #87A247",
"t. c #92AE4B",
"y. c #9AA84D",
"u. c #95B34C",
"i. c #99B64D",
"p. c #9BB94E",
"a. c #8BAC55",
"s. c #84AD5D",
"d. c #8AAE5C",
"f. c #88A857",
"g. c #96AB5C",
"h. c #8FB257",
"j. c #8CB159",
"k. c #94B554",
"l. c #99B653",
"z. c #9BB850",
"x. c #94B25A",
"c. c #9CB25B",
"v. c #A5A351",
"b. c #A9AC56",
"n. c #B2AE56",
"m. c #A4B554",
"M. c #A3B951",
"N. c #ABB954",
"B. c #A4B35D",
"V. c #ACB55C",
"C. c #ACB555",
"Z. c #B3B157",
"A. c #B2BA56",
"S. c #B5B65C",
"D. c #B9B65D",
"F. c #B6BA58",
"G. c #BDBA5B",
"H. c #889D6D",
"J. c #928A6A",
"K. c #A4896C",
"L. c #A68A71",
"P. c #B59973",
"I. c #B49877",
"U. c #AF956F",
"Y. c #82A565",
"T. c #82AA61",
"R. c #8AAB61",
"E. c #8DA26B",
"W. c #87A269",
"Q. c #93AD61",
"!. c #9AAF61",
"~. c #9AA769",
"^. c #98A66A",
"/. c #9BB060",
"(. c #A4AC66",
"). c #AAAF64",
"_. c #A0A968",
"`. c #ACB062",
"'. c #B2B361",
"]. c #BCA377",
"[. c #B6B073",
"{. c #C0BB5B",
"}. c #C2A47B",
"|. c #C7A97B",
" X c #CBAC7E",
".X c #CBB679",
"XX c #6B4C87",
"oX c #765395",
"OX c #795497",
"+X c #785498",
"@X c #715090",
"#X c #875C97",
"$X c #986795",
"%X c #8F6185",
"&X c #A46F9A",
"*X c #A8719A",
"=X c #A7709A",
"-X c #B7B190",
";X c #B2B3B5",
":X c #D5B583",
">X c #D8BB89",
",X c #CEB98D",
"<X c #CAC493",
"1X c #DAC996",
"2X c #DDCA97",
"3X c #E3CD99",
"4X c #E5D19D",
"5X c #DDD5A4",
"6X c #EBDBA5",
"7X c #E9D9A4",
"8X c #EFE1AB",
"9X c #EFE8AD",
"0X c #F0E2AC",
"qX c #F1E7BA",
"wX c #EFE1B3",
"eX c #F7F2DC",
"rX c #F2E9D2",
"tX c #FAF5E5",
"yX c #FFFEFE",
"uX c #FDFBF5",
"iX c #EEEBE8",
"pX c #E1DACF",
/* pixels */
"    + O           3 v +       O +       t 9 # 0 + +       O +     5 t 3 3 9 t + O   S y   + O   # 0       5 S &       + O       ",
"    _ p.7 0 2 # 0 / =.7 ,.S 9 n.,.3 [ V G.5._ i.8 5.w ] 6 ../ O % n.G.X.X.b.G.v ..6.F.F.9 t G.5.u p.0 C 3 q.G.t O O # ] t.6     ",
"  + u p.w.i.i.u p.b.c.5.G.6.v.G.>.q O.g.G.Z.p.w.y.N.a.p.p.k.A n.v.6.G.S.D.G.6.8.G.Z.N.M.p.3.Z.N.2.p.e.R.n.0.n.5.G.,.Z p.p.u     ",
"# C Z [ h.p.p.w.M.M.A.F.F.N.F.A.A.b.y.G.G.G.N.N.M.p.e 0 0 0 w w w G.N.F.F.N.F.N.G.G.G.F.N.N.p.p.p.p.p.N.M.A.F.F.b.y ..k.i e #   ",
"= =.s.p.p.z.p.p.p.p.p.p.M.p.M.p.p.p.M.F.N.A.F.F.y # o T %X%X%XK o + _ M.p.p.p.p.A.A.N.F.F.A.M.B.B.p.p.p.p.p.M.M.t.h.-.h.p.p.u   ",
"  v r d.d.-.-.-.l.N.G.N.M.k.k.j.p.p.p.p.p.p.p.w.O T *X*X> $X*X*X*XK + < d.z.p.p.p.p.p.p.p.j.-.-.-.-.T.M.F.F.N.l.k.-.s.p.] i #   ",
"  _ t.e.p.h.s.h.s.c.F.B.x.d.k.k.k.z.T.s.h.k.e.O T *X=X> L *X*X*X$X$XK + 6 j.p.s.-.k.h.z.j.s.k.p.s.j.d.s.V.C.B.h.s.k.s.k.p.0     ",
"  i <.w.p.<.p.m.R.Y.d.Y.s.s.d.-.s.s.s.j.s.j.+ j *X*X$XO $X*X*XoXoXoXXX$ + O.h.-.h.s.d.h.p.x.d.k.x.p.c.Y.d.Y.R.-.j.s.-.-.s.C     ",
"  5 S 8.P.0.v.G.G.H.H.'.~.Q.s.d.j.-.h.k.z.t.O #X=X*XOX$X*X*X#XoXx +XoXg @ a.-.s.k.k.p.x.R.~.^.^.^.F.G.'.%.(.(.!.T.j.j.s.-.4.>.& ",
"t G.b..X:X.XV.!.R.V.V.M.F.F.A.p.k.R.!.B.B.7.o OX=X&XOX&X*X*X#XoXH z oXg @ u.d.Q.B.B.V.B.F.S./.S.S.V.R.!.B.N.N.F.F.M.p.h.Q.D.Z.- ",
"% y w.q iX>X[.=.-.-.-.d.k.j.j.p.p.p.p.p.p.2.K *X*X&XOX*X*X&XoXoXOXo oXXX+ u.p.p.p.p.M.M.p.p.k.h.s.-.-.-.-.-.h.h.d.h.p.p.j.} *   ",
"  5 2.0 pXyX>X[.k.-.T.j.x.B.S.z.p.p.p.M.F.5.j *X*X*X#X*X*X=X#XoXOXo OX@ + u.p.p.p.N.F.F.A.p.k.k.s.s.k.h.-.s.x.x.S.V.p.p.p.p.]   ",
"0 m.m.0 <XyXyXL.u.p.z.V.V.V.B.F.N.M.l.z.M.<.O #X*X*X=X*X*X*X#XoXH a OX@ t A.M.M.k.p.M.p.N.M.p.p.p.p.p.p.p.l.V.V.B.V.A.N.M.z.i., ",
"6 q s.7 <XeXyXeX Xk.d.j.k.s.-.-.-.-.-.-.-.d., h #X&X&X&X&X#XoXoX@ g XX# =.-.-.-.-.-.s.j.k.z.p.p.p.p.p.p.k.s.k.h.T.-.-.-.-. .A + ",
"  w.p.0 <X:XrXeXrX[.R.p.M.N.s.k.k.j.s.h.k.p.r.+ a @XoXoXoXoXx ; a g s q h.p.j.j.j.h.p.p.p.p.p.p.d.Y.d.d.Y.d.p.N.M.s.p.h.h.) #   ",
"$ ] _ ] ].6X>X7XyX- '.B.G.G.S.k.p.M.A.F.G.M.k.{ # O f f f f O d g f + G.l.p.M.N.A.G.A.p.R.Y.d.#.~.'.E.H.G.).V.G.G.B.p.p.N.m.5   ",
"  6 5.0.o ].:X3XqX-X` G.G.S.G.F.M.N.N.N.M.#.#.'.H.* O + + + d d f O + < S M.M.N.N.M.Y.W.^.(.E.'.(.G.G.G.G.F.G.D.D.G.N.p.M.y.n.t ",
", i.p.G.y n :X:X9X<X< l.Q.-.F.F.N.p.M.F.`.'.F.m.+ b 6X<XX a ; d J.0X,X# >.A.M.p.N.S.).G.N.F.G.N.V./.-.B.M.z.c.R.d.F.F.M.M.N.Y + ",
"  i p.N.h.o P.:X2X9Xo C d.-.d.z.p.M.A.p.F.A.t.+ o O rXtXtX-X4XrXtX5X. m + _ p.A.M.N.F.M.p.M.N.s.-.-.-.j.k.T.-.j.-.k.p.p.M.V.w.7 ",
"O _ h.s.-.u K.:X:X,X1X4 z.p.z.p.p.z.j.z.p.p.u > Q M . ;X;XiXyXyXpX XQ ! m , u.h.k.p.p.p.k.j.T.T.z.s.h.-.-.d.s.p.p.p.p.p.] Z p.w ",
"_ i.M.N.N.N.X :X:XJ.9X= i.p.z.s.s.T.-.h.z.p.O M Q I.:X3X0X8X8X8X3X:X}.Q n * s.-.s.k.p.p.A.A.M.N.N.p.p.z.k.p.z.p.p.k.-.j.=., 6 O ",
"p t.N.G.S.d.3 J.:XD 9X5X3 d.-.-.-.-.-.-.T.' o Q ! :X:X6X8X8X8X8X0X:X:XL.Q : + # *.-.s.m.F.G.G.V.s.s.-.-.-.s.T.s.s.=.-.-.....k._ ",
"  8 n.A.p.p.' X :XP.I.5X* &.$.} Y.Y.%.@.p.+ b L.I.:X:X8XyXyXyXyX8X>X:X XQ W + m o a.M.F.G.{.N.z.z.j.-.-.-.-.@.@.$.+.Y.w.C ) p._ ",
"- G.G.A.N.p.p.3 Y :X# 1Xm & * j > V.G.~.b.o Q  X:X:X7X8XtXyXyXeX8X7X:X:X! Q > P.:X< ` p.N.G.N.M.p.p.h.-.-.@.H.'.'.H.D.0.Z.t e , ",
"& 0.b.N.p.M.p.] U :X9 n  X* f =Xj & G.G.>.o ~ Q L.:X:X:X6XtXrX8X8X8X:X}.Q Q b + P.:X> = i.M.N.M.p.p.p.N.N.'.G.G.F.G.F.G.F.>.S 5 ",
"< _ u i.N.N.M.p.O Y W * :Xn ; > XXK 3.G.+ c ~ ! :X7X6XwXwXtXyXyX8X8X:X:X:X! W O > P.:X1 , >.m.N.N.p.p.p.p.p.N.M.p.N.p.M.p.m.G.S ",
"w u.t.h.-.-.h.j.+ c ! > 9 }.O XX*XK ] p.+ c Q L.:X>XwXyXyXyXyXeX8X8X:X:X:X! < + R W c K.~ < = N O.h.h.p.M.N.p.p.p.z.p.p.p.t.5.< ",
"+ < w.k.h.s.-.[ + o Q W + ; XXoXOX; h.k.+ c Q L.:X>X8X8XqXqXqXwX8X8X:X:XK.Q ~ O R Q Q  X:X:X|.U.< v v c.D.G.S.d.s.d.s.k.z.X.,   ",
"+ v w.d.k.k.] z H ; O $ d J oXz ; ' -.-.+ c Q L.:X>X8X8X8X8X8X8X8X7X>X X! Q ~ O R Q Q W c X P K.9X5X+ f.z.l.k.h.k.k.j.h.s.*.4   ",
"B *.$.+.d.#.a.O O O g g g h : I 1 4 k.p.+ > m }.:X:X6XuXyXeX8X2X>X:X:X:X:X}.D > R Q Q Q Q ! I o n |.+ H.@.H.W.Y.-.-.-.-.-.1.r.< ",
", C V v.S.G.G.F ; f d a O K.].K.I O ) R.+ o ! I.:X:X6X8XyXyXyX8X4X0X1X:X:X! ~ O R Q Q Q Q Q Q E P  X+ b.~.F.F.G.V.z.p.k.-.d.t.7 ",
"% r.` d.R.c.R.( + O O O K.:X:X:X! o N.N.3.1 Q Q Q I.6X8XrXyXyX8X8X0X}.:XI.Q m * ! Q Q Q Q Q Q I n |.+ *.R.k.z.z.m.M.p.k.m.N.v.= ",
"- u.p.p.p.h.s.s.C Z N O :X:X:XK.< + w.M.y.O D Q Q I.:X:X3X7X8X0X6X>XU.:XI.Q - m Q Q Q Q Q Q Q ! n |.+ O.-.-.-.s.!.x.p.p.p.w.u.= ",
", ] p.p.p.p.k.p.p.h.a.+ X - D o O + p.p.A.q o I Q }.:X:X7X8X0X>X:X}.Q Q Q * O * ! Q Q Q Q Q Q Q Y |.+ e.h.z.A.A.F.F.M.p.u.2 7 + ",
"7 i.u.h.h.k.h.p.p.z.h.R.V # + + g O ) s.h.k.+ O I ! ! :X3X7X:X3X2XQ ~ M O @ d + W Q Q Q Q Q Q Q L.|.+ t.k.s.d.d.-.R.B.c.f.*.k.w ",
"  6 X.k.h.k.k.z.p.k.k.p.p.z.N + + + [ -.s.f.+ + + > W ].].].].].L.m + O a g g a # Q Q Q Q Q Q I L.|.+ t.k.k.p.z.k.-.j.s.-.[ _ < ",
"  7 u.p.u.#.^.%.;.E.E.x.F.G.c.k.6 <.z.M.N.<.O g ; ; + + + + + + + ; a g g g ; @ + E Q Q Q Q Q I n |.+ +.^.E.z.G.F.x.p.p.p.l.% + ",
"+ S S 6 S ,.G.G.`.G.G.D.G.G.G.N.p.F.G.G.A.* ; g G G g g g g g g g g g g g g g * + I Q Q Q Q Q I k ].+ b.G.G.D.G.G.F.M.M.N.v.v.8 ",
"y G.G.n.G.G.G.B.S.F.M.N.S.Q.G.G.A.p.p.M.c.+ ; g oXoXoXoXoXoXoXH l l l oXG oXl d + I Q Q Q Q Q I b R # Z.A.M.F.B.B.G.F.N.p.p.m.8 ",
"8 m.p.G.z.T.R.-.j.z.k.s.-.-.l.M.p.p.F.A.G.6.; g oXoXoXoXoXoXoXoXoXoXoXXXl G g ; + I Q Q Q Q Q c R + | k.p.h.-.-.T.M.M.p.M.4.i + ",
"+ i h.h.-.s.T.-.-.-.-.-.z.k.h.z.p.M.z.p.M.i.O g G oXoXoXoXoXoXoXoXoXoXG J g g ; ] O I Q Q ! > D + | -.-.-.-.s.z.h.h.p.p.M.z.i.% ",
"` p.p.k.h.p.k.z.z.h.k.k.k.p.p.k.k.h.-.k.p.p.+ @ a oXoXoXoXoXoXoXoXoXoX@Xg g ; * f.w.o I ! < m O w.k.p.k.j.z.k.p.p.p.h.z.s.=.p   ",
"<.p.i.A.G.V.k.k.h.s.j.k.h.z.h.-.-.-.-.-.d.h.C.+ + g H oXoXoXoXoXoXXXJ g g g @ $ -.s.O.o 1 m b v.c.k.h.d.s.k.k.k.z.s.-.-.s.f.X.Z ",
"2 7 6 Z.l.k.h.s.-.-.-.=.=.+.+.s.d.T.@.=.k.z.N.S + O + a a a a a a a a a a O ) @.*.d.z.y.+ O y.x.k.d.-.-.-.-.=.*.+.:.[ / O.a.p.<.",
"4 | B y.p.p.k.T.-.-.-.+.#.^.$.H.E.^.).+.B.A.y.+ + + + A ) C C + + + + + + F W.`.#.Q.A.A.v.v.M.p.z.h.-.-.-.*.+.E.E.%.6.6.t S p < ",
"B =.s.O.s.k.p.p.k.c.!.^.G.G.`.G.G.G.G.{.F.N.t.+ + 5 M.p.t.t.f.g.H.,.+ + 8 G.G.G.G.G.N.M.p.A.F.N.p.p.p.x.c.E.`.G.G.`.G.G.{.G.8   ",
"+ V A.M.p.p.p.p.M.p.N.F.F.M.F.N.N.A.A.G.G.G.N.b.# , <.<.<.<.2.2.4.y + , 5.2.b.m.G.G.G.F.N.A.p.p.p.p.p.M.p.A.F.A.N.F.N.F.N.N.Z.- ",
"6 u.b.M.c.c.z.p.p.p.p.p.M.p.M.p.p.p.M.A.N.N.4.+ + + A 1.<.<.<.<.<.+ + 2 _ <.<.<.4.N.N.A.A.N.m.c.c.p.p.p.p.p.p.p.p.M.p.p.p.i.>.& ",
"2 w ..-.-.-.-.-.c.A.G.A.m.k.h.s.p.p.p.p.p.u.<.6 3 3 4 } [ ' 4.0.5.5 2 2 3 ] <.<.<.<.p.p.p.s.-.-.-.-.-.N.F.G.N.l.k.d.h.p.p.u.e + ",
"  $ O.k.p.h.d.k.j.x.N.c.x.h.k.k.k.k.-.s.j.f.] ' ' <.<.} ]  .' 4.2.1.' ' 1.' <. .} ' s.k.h.j.z.p.s.k.h.j.m.N.c.h.j.z.h.z.h.j.i., ",
"  8 t i w.d.p.V.W.;.R.;.T.s.s.-.s.s.d.k.j.k.] <.o.' ' ] 2.X.{  .{  .}  .} } ' } ] f.h.k.p.d.R.k.d.M.B.#.R.;.Y.-.s.T.-.j.-.h.B # ",
"- Z.G.n.v.`.S.G.G.^.E.D.(.!.j.h.h.-.j.h.k.p.R.W.8.9.7.7.0.0.8.&.5.9.7. .' ] }  .a.k.p.d.R.(.(.~.~.F.G.D.#.).`.`.R.h.k.s.-.h.} N ",
"- y.z.c.B.S.B.Q.T.B.B.p.A.F.A.p.z.Q.B.V.V.V.V.F.B.g.Z.B.7.} 7.7.<.4.4.v.i.u.d.c.V.V.V.B.F.V.Q.V.V.).T.Q.B.M.M.A.F.N.p.h.d.} N   ",
"  2 t.p.k.j.s.-.-.-.-.s.h.s.s.p.p.p.p.p.p.N.M.p.p.k.h.d.-.-.-.-.s.j.s.s.k.p.p.p.p.p.M.M.p.p.z.k.d.-.-.-.-.-.s.j.s.h.p.p.p.t.% + ",
"% 5.y.z.k.h.d.k.z.-.s.k.c.V.D.M.p.p.p.M.F.F.F.A.p.k.h.d.h.p.s.-.h.c.c.G.N.p.p.p.p.A.F.F.F.M.k.k.d.d.z.h.-.d.l.l.D.A.p.p.p.r.u.0 ",
"% y.M.p.p.p.p.p.p.p.k.B.B.B./.F.A.N.l.k.z.p.p.M.p.p.p.p.p.p.p.p.c.B.B.Q.S.F.N.m.k.p.p.p.M.M.p.p.p.p.p.p.p.k.B.B.!.V.F.N.N.1.i   ",
"  o ) -.d.k.p.p.p.k.h.h.z.d.-.-.-.-.-.-.-.s.j.k.p.p.p.p.p.p.z.h.j.z.h.-.-.-.-.-.-.-.s.s.k.z.p.p.p.p.p.p.k.d.k.k.s.-.-.-.-.O.6   ",
"  8 Z.G.c.R.;.Y.x.;.Y.p.N.A.s.k.z.h.j.k.k.p.p.p.p.p.k.Y.;.x.Y.;.k.M.F.l.h.p.h.h.h.k.p.p.p.p.p.p.Y.;.d.d.;.d.p.A.N.s.p.s.h.p.<.  ",
"- n.G.G.G.!.G.(.H.D.D.B.G.G.D.z.p.N.F.F.G.M.k.;.Y.Y.+.S.'.H.).G.).F.G.G.l.p.M.A.F.G.N.p.Y.;.Y.@._.D.^.E.G.'.V.G.G.C.k.-...) 2   ",
"- n.>.M.M.N.F.F.G.G.A.F.G.S.G.F.M.N.N.N.z.#.#.S.^.).'.'.G.G.G.F.F.G.S.G.G.N.M.N.M.M.Y.E.(.).^.S.).G.G.G.F.A.G.D.D.G.R.+.*.=.v   ",
"  O 6 w.k.p.z.k.m.N.p.x.R.-.A.A.M.p.M.F.'.D.F.N.F.F.B.B.R.R.N.p.k.x.-.B.A.N.M.N.A.S.'.G.N.A.F.m.B.Q.-.B.M.k.x.T.Q./.*.:.+./ 3   ",
"  % t.p.X.p.) =.O.O.X.-.h.s.s.t.p.u.y.p.N.N.p.p.u.1.-.-.-.-.' j.=.} j.-.k.p.M.n.e.N.N.p.a.} u ) =...} s.f.-.-.h.V k.k.w.k.u     ",
"    <.i.0 e # N N =.[ e t.^ p.u t.p.u ^ p.p.<.i.u e.t.O.O.h.O.3 7 _ i.^ i.` F.S i.t.p.i.[ =.4  .p.V / ..N h._ _ 2 0 0 <.p._     ",
"    + O         4 [ N + O # _ 6 6 u # # <.t.6 q % _ e N N _ e +   6 q   O + O # _ 6 t.<.# O + 2 q     O # _ e +       6 u #     "
};
