/* XPM */
static char *e0c209eaa08446b19842354c864e3167jCu1UcOCt2XbgmWF[] = {
/* columns rows colors chars-per-pixel */
"64 64 226 2 ",
"   c None",
".  c #00001E",
"X  c #000529",
"o  c #0C1A2D",
"O  c #06162C",
"+  c #151C2E",
"@  c #191D2E",
"#  c #10152E",
"$  c #1C1D30",
"%  c #251F30",
"&  c #1C232F",
"*  c #1D2630",
"=  c #232A2F",
"-  c #23262E",
";  c #222431",
":  c #242C31",
">  c #2A2C31",
",  c #2B2336",
"<  c #362837",
"1  c #2A3531",
"2  c #323E31",
"3  c #373437",
"4  c #582E38",
"5  c #453C3D",
"6  c #4A2A35",
"7  c #6C353D",
"8  c #3D4A34",
"9  c #354838",
"0  c #3A4F3B",
"q  c #464A35",
"w  c #455335",
"e  c #475A39",
"r  c #565539",
"t  c #51493C",
"y  c #516237",
"u  c #536339",
"i  c #59683A",
"p  c #5F723B",
"a  c #4F633C",
"s  c #64643D",
"d  c #6B6B3E",
"f  c #62753C",
"g  c #667A3D",
"h  c #6A7C3E",
"j  c #3F2A41",
"k  c #442C44",
"l  c #482D45",
"z  c #57374E",
"x  c #663C59",
"c  c #693D5B",
"v  c #633957",
"b  c #713F5B",
"n  c #783A40",
"m  c #4A4141",
"M  c #5A4A46",
"N  c #435C41",
"B  c #674643",
"V  c #67584A",
"C  c #7B534C",
"Z  c #79415A",
"A  c #6B5851",
"S  c #725D55",
"D  c #4C6A45",
"F  c #4A6543",
"G  c #546D45",
"H  c #5B7D4D",
"J  c #577649",
"K  c #687C44",
"L  c #797742",
"P  c #7E675A",
"I  c #6E744D",
"U  c #7E7C62",
"Y  c #803E43",
"T  c #874558",
"R  c #924A4C",
"E  c #AB5155",
"W  c #B55555",
"Q  c #B75957",
"!  c #A44E52",
"~  c #826A5E",
"^  c #816E55",
"/  c #907057",
"(  c #BA655D",
")  c #896F62",
"_  c #846C60",
"`  c #8C7264",
"'  c #977B6B",
"]  c #997C6B",
"[  c #917668",
"{  c #A87060",
"}  c #BB7967",
"|  c #BE6E62",
" . c #C37E6B",
".. c #6E843F",
"X. c #5C8152",
"o. c #5E804F",
"O. c #68874C",
"+. c #748C41",
"@. c #798642",
"#. c #75954D",
"$. c #7B9648",
"%. c #658C55",
"&. c #688A56",
"*. c #6B9155",
"=. c #6C965A",
"-. c #719453",
";. c #729D5D",
":. c #7A9955",
">. c #738F55",
",. c #7CA259",
"<. c #6D986E",
"1. c #729E6C",
"2. c #7B9B6C",
"3. c #6A9572",
"4. c #779871",
"5. c #668869",
"6. c #76A464",
"7. c #79A763",
"8. c #7BA962",
"9. c #7DA169",
"0. c #73A16A",
"q. c #878647",
"w. c #928E4A",
"e. c #839C46",
"r. c #829C4B",
"t. c #8C9C49",
"y. c #889347",
"u. c #939D4C",
"i. c #9B9D4E",
"p. c #95924B",
"a. c #8A9555",
"s. c #989755",
"d. c #858E5B",
"f. c #A19D51",
"g. c #A09D4F",
"h. c #8AA649",
"j. c #8EAA4B",
"k. c #87A247",
"l. c #92AE4B",
"z. c #9AA84D",
"x. c #95B34C",
"c. c #99B64D",
"v. c #9BB94E",
"b. c #8BAC55",
"n. c #84AD5D",
"m. c #8AAE5C",
"M. c #88A857",
"N. c #96AB5C",
"B. c #8FB257",
"V. c #8CB159",
"C. c #94B554",
"Z. c #99B653",
"A. c #9BB850",
"S. c #94B25A",
"D. c #9CB25B",
"F. c #A5A351",
"G. c #A9AC56",
"H. c #B2AE56",
"J. c #A4B554",
"K. c #A3B951",
"L. c #ABB954",
"P. c #A4B35D",
"I. c #ACB55C",
"U. c #ACB555",
"Y. c #B3B157",
"T. c #B2BA56",
"R. c #B5B65C",
"E. c #B9B65D",
"W. c #B6BA58",
"Q. c #BEB95B",
"!. c #BDBA5B",
"~. c #889D6D",
"^. c #928A6A",
"/. c #A4896C",
"(. c #A68A71",
"). c #B59973",
"_. c #B49877",
"`. c #AF956F",
"'. c #82A565",
"]. c #82AA61",
"[. c #8AAB61",
"{. c #8DA26B",
"}. c #87A269",
"|. c #93AD61",
" X c #9AAF61",
".X c #9AA769",
"XX c #98A66A",
"oX c #9BB060",
"OX c #A4AC66",
"+X c #AAAF64",
"@X c #A0A968",
"#X c #ACB062",
"$X c #B2B361",
"%X c #BCA377",
"&X c #B6B073",
"*X c #C0BB5B",
"=X c #C5836E",
"-X c #C2A47B",
";X c #C7A97B",
":X c #CBAC7E",
">X c #CBB679",
",X c #B7B190",
"<X c #B2B3B5",
"1X c #D5B583",
"2X c #D8BB89",
"3X c #CEB98D",
"4X c #CAC493",
"5X c #DAC996",
"6X c #DDCA97",
"7X c #E3CD99",
"8X c #E5D19D",
"9X c #DDD5A4",
"0X c #EBDBA5",
"qX c #E9D9A4",
"wX c #EFE1AB",
"eX c #EFE8AD",
"rX c #F0E2AC",
"tX c #F1E7BA",
"yX c #EFE1B3",
"uX c #F7F2DC",
"iX c #F2E9D2",
"pX c #FAF5E5",
"aX c #FFFEFE",
"sX c #FDFBF5",
"dX c #EEEBE8",
"fX c #E1DACF",
/* pixels */
"    + +           9 N +       + +       s t & y + +       + +     q s 9 9 t s + +   L d   + +   & y       q L -       + +       ",
"    +.v.e y 8 & y X.7.e w.L t H.w.9 %.G !.i.+.c.r i.i $.w ;.X.+ = H.!.:.:.G.!.N ;.p.W.W.t s !.i.f v.y H 9 g.!.s + + & $.l.w     ",
"  + f v.h.c.c.f v.G.D.i.!.p.F.!.q.u ,.N.!.Y.v.h.z.L.b.v.v.C.K H.F.p.!.R.E.!.p.s.!.Y.L.K.v.y.Y.L.t.v.j.[.H.f.H.i.!.w.J v.v.f     ",
"* H J %.B.v.v.h.K.K.T.W.W.L.W.T.T.G.z.!.!.!.L.L.K.v.p y y y i i i !.L.W.W.L.W.L.!.!.!.W.L.L.v.v.v.v.v.L.K.T.W.W.G.d ;.C.g p &   ",
": 7.n.v.v.A.v.v.v.v.v.v.K.v.K.v.v.v.K.W.L.T.W.W.h & o / { { { C o + +.K.v.v.v.v.T.T.L.W.W.T.K.P.P.v.v.v.v.v.K.K.l.B.8.B.v.v.f   ",
"  N a m.m.8.8.8.Z.L.!.L.K.C.C.V.v.v.v.v.v.v.v.h.+ { =X=X3 } =X=X=XC + 2 m.A.v.v.v.v.v.v.v.V.8.8.8.8.].K.W.W.L.Z.C.8.n.v.$.g &   ",
"  +.l.j.v.B.n.B.n.D.W.P.S.m.C.C.C.A.].n.B.C.j.o { =X=X< R =X=X=X| | C + w V.v.n.8.C.B.A.V.n.C.v.n.V.m.n.I.U.P.B.n.C.n.C.v.y     ",
"  g e.h.v.e.v.J.[.'.m.'.n.n.m.8.n.n.n.V.n.V.+ M =X=X| o } =X=XW Q Q ! , @ ,.B.8.B.n.m.B.v.S.m.C.S.v.D.'.m.'.[.8.V.n.8.8.n.H     ",
"  q L s.).f.F.!.Q.~.~.$X.X|.n.m.V.8.B.C.A.l.o ( =X=XQ } =X=X( Q R W Q c $ b.8.n.C.C.v.S.[..XXXXXXXW.!.$X4.OXOX X].V.V.n.8.u.q.- ",
"s !.G.>X1X>XI. X[.I.I.K.W.W.T.v.C.[. XP.P.a.O Q =X=XQ  .=X=X( Q R n Q c $ x.m.|.P.P.I.P.W.R.oXR.R.I.[. XP.L.L.W.W.K.v.B.|.E.Y.> ",
"= d h.u dX2X&X7.8.8.8.m.C.V.V.v.v.v.v.v.v.t.B =X=X .Q =X=X .Q Q Q O Q ! + x.v.v.v.v.K.K.v.v.C.B.n.8.8.8.8.8.B.B.m.B.v.v.V.*.;   ",
"  q t.y fXaX2X&XC.8.].V.S.P.R.A.v.v.v.K.W.i.B =X=X=XQ =X=X=X( Q W O W % + x.v.v.v.L.W.W.T.v.C.C.n.n.C.B.8.n.S.S.R.I.v.v.v.v.$.  ",
"y J.J.y 4XaXaX(.x.v.A.I.I.I.P.W.L.K.Z.A.K.e.o ( =X=X=X=X=X=X( Q R j W @ s T.K.K.C.v.K.v.L.K.v.v.v.v.v.v.v.Z.I.I.P.I.T.L.K.A.c.1 ",
"w u n.e 4XuXaXuX:XC.m.V.C.n.8.8.8.8.8.8.8.m.1 7 (  . . .=X( Q W % v ! & 7.8.8.8.8.8.n.V.C.A.v.v.v.v.v.v.C.n.C.B.].8.8.8.8.-.K + ",
"  h.v.y 4X1XiXuXiX&X[.v.K.L.n.C.C.V.n.B.C.v.k.+ 6 E Q Q Q Q Y < k c 6 u B.v.V.V.V.B.v.v.v.v.v.v.m.'.m.m.'.m.v.L.K.n.v.B.B.O.&   ",
"; $.+.$.%X0X2XqXaX> $XP.!.!.R.C.v.K.T.W.!.K.C.&.& + 4 4 4 4 o v c z + !.Z.v.K.L.T.!.T.v.[.'.m.2..X$X{.~.Q.+XI.!.!.P.v.v.L.J.q   ",
"  w i.f.O %X1X7XtX,X@.!.!.R.!.W.K.L.L.L.K.2.2.$X~.; + + + + z v z o + 3 L K.K.L.L.K.'.~.XXOX{.$XOX!.!.!.!.W.!.E.E.!.L.v.K.z.H.s ",
"1 c.v.!.d V 1X1XeX4X2 Z.|.8.W.W.L.v.K.W.#X$XW.J.+ m 0X4XX k < v ^.rX3X& q.T.K.v.L.R.+XQ.L.W.!.L.I.oX8.P.K.A.D.[.N.W.W.K.K.L.^ + ",
"  g v.L.B.o ).1X6XeXO H m.8.m.A.v.K.T.v.W.T.l.+ o + iXpXpX,X8XiXpX9X. A + +.v.T.K.L.W.K.v.K.L.n.8.8.8.V.C.8.8.V.8.C.v.v.K.I.h.e ",
"+ +.B.n.8.f /.1X1X3X5X0 A.v.v.v.v.A.V.A.v.v.f 3 ' S . <X<XdXaXaXfX:X' ] A 2 c.B.C.v.v.v.C.V.].].A.n.B.8.8.m.n.v.v.v.v.v.$.J v.i ",
"+.c.K.L.L.L.X 1X1X^.eX: x.v.A.n.n.].8.B.A.v.+ S ' _.1X7XrXwXwXwX7X1X-X' V ; n.8.n.C.v.v.T.T.K.L.L.v.v.A.C.v.A.v.v.C.8.V.7.2 w + ",
"h l.L.!.R.m.9 ^.1XP eX9X9 m.8.8.8.8.8.8.].#.o ' ] 1X1X0XwXwXwXwXrX1X1X(.' , + & 7.8.n.J.W.!.!.I.n.n.8.8.8.n.n.n.n.7.8.8.;.;.C.+.",
"  r H.T.v.v.#.X 1X)._.9X; 5.3.&.'.'.4.1.c.+ M (._.1X1XwXaXaXaXaXwX2X1X:X' ` + A O b.K.W.!.*XL.A.A.V.8.8.8.8.1.1.3.<.9.h.H O.v.+.",
"> !.!.T.L.v.v.9 / 1X& 5XA - ; B 3 I.Q..XG.o ' :X1X1XqXwXpXaXaXuXwXqX1X1X] ' 3 ).1X3 @.v.L.!.L.K.v.v.B.8.8.1.~.$X$X~.E.f.Y.s p 2 ",
"- f.G.L.v.K.v.$.^ 1Xt V :X; 4 =XB - !.!.q.o [ ' (.1X1X1X0XpXiXwXwXwX1X-X' ' m @ ).1X> : c.K.L.K.v.v.v.L.L.$XQ.!.W.Q.W.!.W.q.L q ",
"2 +.f c.L.L.K.v.+ ^ ` ; 1XV < 3 ! C y.!.+ M [ ] 1XqX0XyXyXpXaXaXwXwX1X1X1X] ` + > ).1X5 1 @.J.L.L.v.v.v.v.v.L.K.v.L.v.K.v.J.!.L ",
"i x.l.B.8.8.B.V.+ M ] > t -X+ ! =XC $.v.+ M ' (.1X2XyXaXaXaXaXuXwXwX1X1X1X] 3 + ) ` M /.[ 3 : D ,.B.B.v.K.L.v.v.v.A.v.v.v.l.i.1 ",
"+ 2 h.C.B.n.8.%.@ + ' ` + < ! Q Q , B.C.+ M ' (.1X2XwXwXtXtXtXyXwXwX1X1X/.' [ + ) ' ' :X1X1X;X`.3 N N D.E.Q.R.m.n.m.n.C.A.:.1   ",
"+ N h.m.C.C.$.7 R , + , z T Q n < #.8.8.+ M ' (.1X2XwXwXwXwXwXwXwXqX2X:X] ' [ + ) ' ' ` V X U /.eX9X+ M.A.Z.C.B.C.C.V.B.n.7.0   ",
"F 6.3.<.m.2.b.+ o + c c c 7 , ~ 5 0 C.v.+ 3 A -X1X1X0XsXaXuXwX6X2X1X1X1X1X-XP 3 ) ' ' ' ' ] ~ o V ;X+ ~.1.~.}.'.8.8.8.8.8.r.k.2 ",
"1 H G F.R.Q.Q.I < z v j o /.%X/.~ + O.[.+ O ] _.1X1X0XwXaXaXaXwX8XrX5X1X1X] [ + ) ' ' ' ' ' ' _ U :X+ G..XW.W.Q.I.A.v.C.8.m.l.e ",
"= k.@.m.[.D.[.o.+ + + + /.1X1X1X' o L.L.y.5 ' ' ' _.0XwXiXaXaXwXwXrX-X1X_.' A ; ] ' ] ' ' ' ' ~ V ;X+ 6.[.C.A.A.J.K.v.C.J.L.F.: ",
"1 x.v.v.v.B.n.n.H J D + 1X1X1X/.3 + h.K.z.+ P ' ' _.1X1X7X0XwXrX0X2X`.1X_.' > A ' ' ' ' ' ' ' ] V ;X+ ,.8.8.8.n. XS.v.v.v.h.x.: ",
"2 $.v.v.v.v.C.v.v.B.b.+ X > P O + + v.v.T.u o ~ ' -X1X1XqXwXrX2X1X-X' ' ' ; + ; ] ' ' ' ' ' ' ' ^ ;X+ j.B.A.T.T.W.W.K.v.x.8 e + ",
"e x.x.B.B.C.B.v.v.A.B.[.G & + @ c + O.n.B.C.+ + ~ ] ] 1X7XqX1X7X6X' [ S + $ v + ` ' ' ' ' ' ' ' (.;X+ l.C.n.m.m.8.[.P.D.M.7.C.i ",
"  w :.C.B.C.C.A.v.C.C.v.v.A.D + + + %.8.n.M.+ + + > ` %X%X%X%X%X(.A @ + k c c k & ' ' ' ' ' ' ~ (.;X+ l.C.C.v.A.C.8.V.n.8.%.+.2 ",
"  e x.v.x.2.XX4.9.{.{.S.W.!.D.C.w e.A.K.L.e.+ x < , + + + + + + + , k c c c < $ + _ ' ' ' ' ' ~ V ;X+ <.XX{.A.!.W.S.v.v.v.Z.= + ",
"@ L L w L w.!.Q.#X!.!.E.!.!.!.L.v.W.!.!.T.; < c Z Z c x v v x x x c c c c c c , + ~ ' ' ' ' ' ~ l %X+ G.!.!.E.!.!.W.K.K.L.F.F.r ",
"d !.!.H.!.!.!.P.R.W.K.L.R.|.!.!.T.v.v.K.D.+ < c Q Q W W W W W R b b b W Z W b v + ~ ' ' ' ' ' ~ M ) & Y.T.K.W.P.P.!.W.L.v.v.J.r ",
"r J.v.!.A.].[.8.V.A.C.n.8.8.Z.K.v.v.W.T.!.p.< c W Q Q Q Q Q Q Q Q Q Q E b Z c , + ~ ' ' ' ' ' M ) @ =.C.v.B.8.8.].K.K.v.K.u.g + ",
"+ g B.B.8.n.].8.8.8.8.8.A.C.B.A.v.K.A.v.K.c.+ c Z Q Q Q Q Q Q Q Q Q W Z Z c x < $.+ ~ ' ' ] 3 P + =.8.8.8.8.n.A.B.B.v.v.K.A.c.= ",
"@.v.v.C.B.v.C.A.A.B.C.C.C.v.v.C.C.B.8.C.v.v.+ $ k W Q Q Q Q Q Q Q Q Q E c v < ; M.h.o ~ ] 3 A + h.C.v.C.V.A.C.v.v.v.B.A.n.7.h   ",
"e.v.c.T.!.I.C.C.B.n.V.C.B.A.B.8.8.8.8.8.m.B.U.+ + v T W Q Q Q Q Q E T c c v $ * 8.n.,.o 5 A m F.D.C.B.m.n.C.C.C.A.n.8.8.n.M.:.J ",
"8 e w Y.Z.C.B.n.8.8.8.7.7.<.<.n.m.].1.7.C.A.L.L + + + k k k k k k k l l k + O.1.6.m.A.z.+ + z.S.C.m.8.8.8.8.7.6.<.0.%.X.,.b.v.e.",
"0 =.F z.v.v.C.].8.8.8.<.2.XX3.~.{.XX+X<.P.T.z.+ + + + g O.H H + + + + + + I }.#X2.|.T.T.F.F.K.v.A.B.8.8.8.6.<.{.{.4.p.p.s L h 2 ",
"F 7.n.,.n.C.v.v.C.D. XXX!.!.#X!.!.!.!.*XW.L.l.+ + 8 K.v.l.l.M.N.~.w.+ + r !.!.!.!.!.L.K.v.T.W.L.v.v.v.S.D.{.#X!.!.#X!.!.*X!.r   ",
"+ G T.K.v.v.v.v.K.v.L.W.W.K.W.L.L.T.T.!.!.!.L.G.& 1 e.e.e.e.t.t.u.d + 1 i.t.G.J.!.!.!.W.L.T.v.v.v.v.v.K.v.T.W.T.L.W.L.W.L.L.Y.> ",
"w x.G.K.D.D.A.v.v.v.v.v.K.v.K.v.v.v.K.T.L.L.u.+ + + K r.e.e.e.e.e.+ + 8 +.e.e.e.u.L.L.T.T.L.J.D.D.v.v.v.v.v.v.v.v.K.v.v.v.c.q.- ",
"8 i ;.8.8.8.8.8.D.T.!.T.J.C.B.n.v.v.v.v.v.x.e.w 9 9 0 *.%.#.u.f.i.q 8 8 9 $.e.e.e.e.v.v.v.n.8.8.8.8.8.L.W.!.L.Z.C.m.B.v.v.x.p + ",
"  * ,.C.v.B.m.C.V.S.L.D.S.B.C.C.C.C.8.n.V.M.$.#.#.e.e.*.$.-.#.u.t.r.#.#.r.#.e.-.*.#.n.C.B.V.A.v.n.C.B.V.J.L.D.B.V.A.B.A.B.V.c.1 ",
"  r s g h.m.v.I.}.9.[.9.].n.n.8.n.n.m.C.V.C.$.e.>.#.#.$.t.:.&.-.&.-.*.-.*.*.#.*.$.M.B.C.v.m.[.C.m.K.P.2.[.9.'.8.n.].8.V.8.B.F & ",
"> Y.!.H.F.#XR.!.!.XX{.E.OX XV.B.B.8.V.B.C.v.[.}.s.d.a.a.f.f.s.5.i.d.a.-.#.$.*.-.b.C.v.m.[.OXOX.X.XW.!.E.2.+X#X#X[.B.C.n.8.B.*.D ",
"> z.A.D.P.R.P.|.].P.P.v.T.W.T.v.A.|.P.I.I.I.I.W.P.N.Y.P.a.*.a.a.e.u.u.F.c.x.m.D.I.I.I.P.W.I.|.I.I.+X].|.P.K.K.T.W.L.v.B.m.*.D   ",
"  8 l.v.C.V.n.8.8.8.8.n.B.n.n.v.v.v.v.v.v.L.K.v.v.C.B.m.8.8.8.8.n.V.n.n.C.v.v.v.v.v.K.K.v.v.A.C.m.8.8.8.8.8.n.V.n.B.v.v.v.l.= + ",
"= i.z.A.C.B.m.C.A.8.n.C.D.I.E.K.v.v.v.K.W.W.W.T.v.C.B.m.B.v.n.8.B.D.D.!.L.v.v.v.v.T.W.W.W.K.C.C.m.m.A.B.8.m.Z.Z.E.T.v.v.v.k.x.y ",
"= z.K.v.v.v.v.v.v.v.C.P.P.P.oXW.T.L.Z.C.A.v.v.K.v.v.v.v.v.v.v.v.D.P.P.|.R.W.L.J.C.v.v.v.K.K.v.v.v.v.v.v.v.C.P.P. XI.W.L.L.r.g   ",
"  # O.8.m.C.v.v.v.C.B.B.A.m.8.8.8.8.8.8.8.n.V.C.v.v.v.v.v.v.A.B.V.A.B.8.8.8.8.8.8.8.n.n.C.A.v.v.v.v.v.v.C.m.C.C.n.8.8.8.8.,.w   ",
"  r Y.!.D.[.9.'.S.9.'.v.L.T.n.C.A.B.V.C.C.v.v.v.v.v.C.'.9.S.'.9.C.K.W.Z.B.v.B.B.B.C.v.v.v.v.v.v.'.9.m.m.9.m.v.T.L.n.v.n.B.v.e.  ",
"> H.!.!.!. X!.OX~.E.E.P.!.!.E.A.v.L.W.W.!.K.C.9.'.'.<.R.$X~.+X!.+XW.!.!.Z.v.K.T.W.!.L.v.'.9.'.1.@XE.XX{.!.$XI.!.!.U.C.8.;.O.8   ",
"> H.q.K.K.L.W.W.!.!.T.W.!.R.!.W.K.L.L.L.A.2.2.R.XX+X$X$X!.!.!.W.W.!.R.!.!.L.K.L.L.K.'.{.OX+XXXR.+X!.!.!.W.T.!.E.E.!.[.<.6.7.N   ",
"  + w h.C.v.A.C.J.L.v.S.[.8.T.T.K.v.K.W.$XE.W.L.W.W.P.P.[.[.L.v.C.S.8.P.T.L.K.L.T.R.$X!.L.T.W.J.P.|.8.P.K.C.S.].|.oX6.0.<.X.9   ",
"  = l.v.:.v.O.7.,.,.:.8.B.n.n.l.v.x.z.v.L.L.v.v.x.r.8.8.8.8.#.V.7.*.V.8.C.v.K.H.j.L.L.v.b.*.f O.7.;.*.n.M.8.8.B.G C.C.h.C.f     ",
"    e.c.y p & D D 7.%.p l...v.f l.v.f ..v.v.e.c.f j.l.,.,.B.,.9 e +.c...c.@.W.L c.l.v.c.O.7.0 -.v.G X.;.D B.+.+.8 y y e.v.+.    ",
"    + +         0 %.D + + & +.w w f & & e.l.w u = +.p D D +.p +   w u   + + + & +.w l.e.& + + 8 u     + & +.p +       w f &     "
};
