/* XPM */
static char *a70b5fddab144da7da8aa91d3be34e59rwraMNqolEBtPhWM[] = {
/* columns rows colors chars-per-pixel */
"64 64 226 2 ",
"   c None",
".  c #00001E",
"X  c #00052B",
"o  c #0A162D",
"O  c #09162C",
"+  c #151B2E",
"@  c #1A1E2E",
"#  c #10152E",
"$  c #1C232F",
"%  c #1D2630",
"&  c #242A2F",
"*  c #23262E",
"=  c #222431",
"-  c #242B31",
";  c #2B2C31",
":  c #282632",
">  c #322D35",
",  c #2A3531",
"<  c #343432",
"1  c #3C3436",
"2  c #323E31",
"3  c #393438",
"4  c #2F302F",
"5  c #453B3A",
"6  c #4A3D3B",
"7  c #413935",
"8  c #3D4A34",
"9  c #354838",
"0  c #3A4F3B",
"q  c #434C35",
"w  c #474835",
"e  c #534A3B",
"r  c #455335",
"t  c #475A39",
"y  c #565437",
"u  c #516237",
"i  c #536339",
"p  c #59683A",
"a  c #5F723B",
"s  c #4F633C",
"d  c #64643D",
"f  c #6B6A3D",
"g  c #62753C",
"h  c #667A3D",
"j  c #6A7C3E",
"k  c #766E38",
"l  c #625C35",
"z  c #493E40",
"x  c #4A4141",
"c  c #5A4B46",
"v  c #435C41",
"b  c #6D5947",
"n  c #6E5A48",
"m  c #665547",
"M  c #705B48",
"N  c #6B5851",
"B  c #6E5A50",
"V  c #4C6A45",
"C  c #4A6543",
"Z  c #546D45",
"A  c #5B7D4D",
"S  c #577649",
"D  c #6A6F42",
"F  c #796648",
"G  c #687C44",
"H  c #787743",
"J  c #7E675A",
"K  c #747958",
"L  c #7E7C62",
"P  c #877D3C",
"I  c #857847",
"U  c #826A5E",
"Y  c #816E55",
"T  c #867255",
"R  c #896F62",
"E  c #846C60",
"W  c #8C7264",
"Q  c #977B6B",
"!  c #997C6B",
"~  c #917668",
"^  c #6E843F",
"/  c #5C8152",
"(  c #5E804F",
")  c #68874C",
"_  c #748C41",
"`  c #798642",
"'  c #75954D",
"]  c #7A964A",
"[  c #7B9647",
"{  c #658C55",
"}  c #688A56",
"|  c #6B9155",
" . c #6C965A",
".. c #719453",
"X. c #729D5D",
"o. c #7A9955",
"O. c #738F55",
"+. c #7CA259",
"@. c #6D986E",
"#. c #729E6C",
"$. c #7B9B6C",
"%. c #6A9572",
"&. c #779871",
"*. c #668869",
"=. c #76A464",
"-. c #79A763",
";. c #7BA962",
":. c #7DA169",
">. c #73A16A",
",. c #8B813C",
"<. c #878648",
"1. c #928C49",
"2. c #839C46",
"3. c #829C4B",
"4. c #8C9C49",
"5. c #8A9349",
"6. c #939D4C",
"7. c #9B9D4E",
"8. c #979248",
"9. c #8A9554",
"0. c #989754",
"q. c #858E5B",
"w. c #A59A47",
"e. c #A19D51",
"r. c #8AA649",
"t. c #8EAA4B",
"y. c #87A247",
"u. c #92AE4B",
"i. c #9AA84D",
"p. c #95B34C",
"a. c #99B64D",
"s. c #9BB94E",
"d. c #8BAC55",
"f. c #84AD5D",
"g. c #8AAE5C",
"h. c #88A857",
"j. c #96AB5C",
"k. c #8FB257",
"l. c #8CB159",
"z. c #94B554",
"x. c #99B653",
"c. c #9BB850",
"v. c #94B25A",
"b. c #9CB25B",
"n. c #AEA145",
"m. c #B3A645",
"M. c #B6AA48",
"N. c #A5A351",
"B. c #A9AC56",
"V. c #B2AE56",
"C. c #A4B554",
"Z. c #A3B951",
"A. c #ABB954",
"S. c #A4B35D",
"D. c #ACB55C",
"F. c #ACB555",
"G. c #B3B157",
"H. c #B2BA56",
"J. c #B4B65C",
"K. c #B9B65D",
"L. c #B6BA58",
"P. c #BDBA5B",
"I. c #BDB551",
"U. c #BBB14E",
"Y. c #9B8669",
"T. c #889D6D",
"R. c #888D6B",
"E. c #A4896C",
"W. c #A68A71",
"Q. c #B59973",
"!. c #B49877",
"~. c #AF956F",
"^. c #82A565",
"/. c #82AA61",
"(. c #8AAB61",
"). c #8DA26B",
"_. c #87A269",
"`. c #93AD61",
"'. c #9AAF61",
"]. c #9AA769",
"[. c #98A66A",
"{. c #9BB060",
"}. c #A4AC66",
"|. c #AAAF64",
" X c #A0A968",
".X c #ACB062",
"XX c #B2B361",
"oX c #BCBF62",
"OX c #BCA377",
"+X c #B6B073",
"@X c #C2BC59",
"#X c #C2A47B",
"$X c #C7A97B",
"%X c #CBAC7E",
"&X c #CBB679",
"*X c #C8C35D",
"=X c #D9DB6E",
"-X c #D2D46B",
";X c #DCDF71",
":X c #C8C660",
">X c #DDE172",
",X c #B7B190",
"<X c #B2B3B5",
"1X c #D5B583",
"2X c #D8BB89",
"3X c #CEB98D",
"4X c #CAC493",
"5X c #DAC996",
"6X c #DDCA97",
"7X c #E3CD99",
"8X c #E5D19D",
"9X c #DDD5A4",
"0X c #EBDBA5",
"qX c #E9D9A4",
"wX c #EFE1AB",
"eX c #EFE8AD",
"rX c #F0E2AC",
"tX c #F1E7BA",
"yX c #EFE1B3",
"uX c #F7F2DC",
"iX c #F2E9D2",
"pX c #FAF5E5",
"aX c #FFFEFE",
"sX c #FDFBF5",
"dX c #EEEBE8",
"fX c #E1DACF",
/* pixels */
"    + +           9 v +       + +       d e $ u + +       + +     w d 9 9 e d + +   H f   + +   $ u       w H *       + +       ",
"    _ s.t u 8 $ u / -.t 1.H e V.1.9 { Z P.7._ a.y 7.p [ r X./ + & V.P.o.o.B.P.v X.1.L.L.e d P.7.g s.u A 9 e.P.d # + $ [ u.r     ",
"  + g s.r.a.a.g s.B.b.7.P.1.N.P.<.i +.j.P.G.s.r.i.A.d.s.s.z.G V.N.8.P.J.K.P.8.0.P.G.A.Z.s.5.G.A.4.s.t.(.V.e.V.7.P.1.S s.s.g     ",
"% A S { k.s.s.r.Z.Z.H.L.L.A.L.H.H.B.i.P.P.P.A.A.Z.s.a u u u p p p P.A.L.L.A.L.A.P.P.P.L.A.A.s.s.s.s.s.A.Z.H.L.L.B.f X.z.h a $   ",
"- -.f.s.s.c.s.s.s.s.s.s.Z.s.Z.s.s.s.Z.L.A.H.L.L.f $ O D.oXoXoX<.O + _ Z.s.s.s.s.H.H.A.L.L.H.Z.S.S.s.s.s.s.s.Z.Z.u.k.;.k.s.s.g   ",
"  v s g.g.;.;.;.x.A.P.A.Z.z.z.l.s.s.s.s.s.s.s.r.# J.>X;Xw -X;X>X>X5.+ 2 g.c.s.s.s.s.s.s.s.l.;.;.;.;./.Z.L.L.A.x.z.;.f.s.[ h $   ",
"  _ u.t.s.k.f.k.f.b.L.S.v.g.z.z.z.c./.f.k.z.t.O D.;X;Xw 0.>X;X>X*X*X9.+ r l.s.f.;.z.k.c.l.f.z.s.f.l.g.f.D.F.S.k.f.z.f.z.s.u     ",
"  h 2.r.s.2.s.C.(.^.g.^.f.f.g.;.f.f.f.l.f.l.+ D ;X;X:XO -X;X>Xm.m.m.w.; @ +.k.;.k.f.g.k.s.v.g.z.v.s.b.^.g.^.(.;.l.f.;.;.f.A     ",
"  w H 0.Q.e.N.P.P.T.T.XX].`.f.g.l.;.k.z.c.u.o I.;X;XM.-X;X;X@Xm.P m.m.M @ d.;.f.z.z.s.v.(.].[.[.[.L.P.XX&.}.}.'./.l.l.f.;.6.<.* ",
"d P.B.&X1X&XD.'.(.D.D.Z.L.L.H.s.z.(.'.S.S.9.O M.;X=Xm.=X;X;XI.m.P k m.M $ a.g.`.S.S.D.S.L.J.{.J.J.D.(.'.S.A.A.L.L.Z.s.k.`.K.G.; ",
"& f r.i dX2X+X-.;.;.;.g.z.l.l.s.s.s.s.s.s.4.H ;X;X=XM.;X;X-Xm.m.m.X m.8.+ p.s.s.s.s.Z.Z.s.s.z.k.f.;.;.;.;.;.k.k.g.k.s.s.l.| =   ",
"  w 4.u fXaX2X+Xz.;./.l.v.S.J.c.s.s.s.Z.L.7.H ;X;X;XU.;X;X;X@Xm.m.X m.& + p.s.s.s.A.L.L.H.s.z.z.f.f.z.k.;.f.v.v.J.D.s.s.s.s.[   ",
"u C.C.u 4XaXaXW.p.s.c.D.D.D.S.L.A.Z.x.c.Z.2.o I.;X;X=X;X;X;X@Xm.,.5 m.@ d H.Z.Z.z.s.Z.s.A.Z.s.s.s.s.s.s.s.x.D.D.S.D.H.A.Z.c.a., ",
"r i f.t 4XuXaXuX%Xz.g.l.z.f.;.;.;.;.;.;.;.g., l I.=X=X=X=X@Xm.m.& m 8.$ -.;.;.;.;.;.f.l.z.c.s.s.s.s.s.s.z.f.z.k./.;.;.;.;...G + ",
"  r.s.u 4X1XiXuXiX+X(.s.Z.A.f.z.z.l.f.k.z.s.y.+ w w.m.m.m.m.k < 6 b 7 i k.s.l.l.l.k.s.s.s.s.s.s.g.^.g.g.^.g.s.A.Z.f.s.k.k.) $   ",
"% [ _ ] OX0X2XqXaX; XXS.P.P.J.z.s.Z.H.L.P.Z.z.} $ # y y y y o m b e + P.x.s.Z.A.H.P.H.s.(.^.g.$.].XX).T.P.|.D.P.P.S.s.s.A.C.w   ",
"  r 7.e.O OX1X7XtX,X` P.P.J.P.L.Z.A.A.A.Z.$.$.XXT.= # + + + m m c o + < H Z.Z.A.A.Z.^._.[.}.).XX}.P.P.P.P.L.P.K.K.P.A.s.Z.i.V.d ",
", a.s.P.f b 1X1XeX4X2 x.`.;.L.L.A.s.Z.L..XXXL.C.+ x 0X4XX 5 7 b R.rX3X$ <.H.Z.s.A.J.|.P.A.L.P.A.D.{.;.S.Z.c.b.(.g.L.L.Z.Z.A.I + ",
"  h s.A.k.o Q.1X6XeXO A g.;.g.c.s.Z.H.s.L.H.u.+ o # iXpXpX,X8XiXpX9X. N + ^ s.H.Z.A.L.Z.s.Z.A.f.;.;.;.l.z./.;.l.;.z.s.s.Z.D.r.t ",
"# _ k.f.;.g E.1X1X3X5X0 c.s.c.s.s.c.l.c.s.s.g > Q B . <X<XdXaXaXfX%XQ ! N 2 a.k.z.s.s.s.z.l././.c.f.k.;.;.g.f.s.s.s.s.s.] S s.p ",
"_ a.Z.A.A.A.X 1X1XR.eX: a.s.c.f.f./.;.k.c.s.# B Q !.1X7XrXwXwXwX8X1X#XQ N = f.;.f.z.s.s.H.H.Z.A.A.s.s.c.z.s.c.s.s.z.;.l.-.2 r # ",
"j u.A.P.J.g.0 Y.1XJ eX9X9 g.;.;.;.;.;.;./.' o Q ! 1X1X0XwXwXwXwXrX1X1XW.Q : + $ -.;.f.C.L.P.P.D.f.f.;.;.;.f./.f.f.-.;.;.X.X.z._ ",
"  y V.H.s.s.' X 1XQ.!.9X= *.%.| ^.^.&.#.a.+ c W.!.1X1XwXaXaXaXaXwX2X1X%XQ W + n O d.Z.L.P.@XA.c.c.l.;.;.;.;.#.#.%.@.^.r.A ) s._ ",
"; P.P.H.A.s.s.9 T 1X$ 5Xn * - D w D.P.].B.o Q %X1X1X8XwXpXaXaXuXwXqX1X1X! Q > Q.1X3 ` s.A.P.A.Z.s.s.k.;.;.#.T.XXXXT.K.e.G.d a 2 ",
"* e.B.A.s.Z.s.[ Y 1Xe m %X= y >XH * P.P.<.o ~ Q W.1X1X1X0XpXiXwXwXwX1X#XQ Q x @ Q.1X> : a.Z.A.Z.s.s.s.A.A.XXP.P.L.P.L.P.L.<.H w ",
"2 _ g a.A.A.Z.s.+ T W = 1Xm < w 8.<.5.P.+ c ~ ! 1XqX0XyXyXpXaXaXwXwX1X1X1X! W + > Q.1X5 ; ` C.A.A.s.s.s.s.s.A.Z.s.A.s.Z.s.C.P.H ",
"p p.u.k.;.;.k.l.+ c ! > e #X+ 8.;X<.[ s.+ c Q W.1X2XyXaXaXaXaXuXwXwX1X1X1X! 3 + R W c E.Q 3 - V +.k.k.s.Z.A.s.s.s.c.s.s.s.u.7.< ",
"+ 2 r.z.k.f.;.{ @ + Q W + 1 w.m.M.4 k.z.+ c Q W.1X2XwXwXtXtXtXyXwXwX1X1XE.Q ~ + R Q Q %X1X1X$X~.3 v v b.K.P.J.g.f.g.f.z.c.o.,   ",
"+ v r.g.z.z.] f <.> + ; m I m.k < ] ;.;.+ c Q W.1X2XwXwXwXwXwXwXwXqX2X%X! Q ~ + R Q Q W m O L Y.eX9X+ h.c.x.z.k.z.z.l.k.f.-.0   ",
"C =.%.@.g.$.d.# o # M M n f ; U 6 0 z.s.+ 3 N #X1X1X0XsXaXuXwX6X2X1X1X1X1X#XJ > R Q Q Q Q ! U o m $X+ T.#.T._.^.;.;.;.;.;.3.y.2 ",
", A Z N.J.P.P.D 1 e m 7 o E.OXE.U # ) (.+ O ! !.1X1X0XwXaXaXaXwX8XrX5X1X1X! ~ # R Q Q Q Q Q Q E K %X+ B.].L.L.P.D.c.s.z.;.g.u.t ",
"& y.` g.(.b.(.( + o # # E.1X1X1XQ o A.A.5.5 Q Q Q !.0XwXiXaXaXwXwXrX#X1X!.Q N = ! Q Q Q Q Q Q U b $X+ =.(.z.c.c.C.Z.s.z.C.A.N.: ",
", p.s.s.s.k.f.f.A S V # 1X1X1XY.3 + r.Z.i.# J Q Q !.1X1X7XqXwXrX0X2X~.1X!.Q ; N Q Q Q Q Q Q Q ! b $X+ +.;.;.;.f.'.v.s.s.s.r.p.- ",
"2 [ s.s.s.s.z.s.s.k.d.+ X ; U O # + s.s.H.i o U Q #X1X1XqXwXrX2X1X#XQ Q Q = # = ! Q Q Q Q Q Q Q T $X+ t.k.c.H.H.L.L.Z.s.p.8 t + ",
"t p.p.k.k.z.k.s.s.c.k.(.Z $ + @ M # ) f.k.x.+ # U ! Y.1X7XqX1X8X6XQ ~ B # @ m + W Q Q Q Q Q Q Q W.$X+ u.z.f.g.g.;.(.S.b.h.-.z.p ",
"  q o.z.k.z.z.c.s.z.z.s.s.c.V + @ + { ;.f.g.+ # + > W OXOXOXOXOXW.N @ # 5 b b 5 $ ! Q Q Q Q Q U W.$X+ u.z.z.s.c.z.;.l.f.;.{ _ 2 ",
"  t p.s.p.$.[.&.:.).).v.L.P.b.z.r 2.c.Z.A.2.# b < > + + + + + + + > 6 b b b 1 @ + E Q Q Q Q Q U m $X+ @.[.).c.P.L.v.s.s.s.x.& + ",
"@ H H r H 1.P.P..XP.P.K.P.P.P.A.s.L.P.P.H.- 1 b F F b b b b b b b b b b b b M > + U Q Q Q Q Q U z OX+ B.P.P.K.P.P.L.Z.Z.A.N.N.y ",
"f P.P.V.P.P.P.S.J.L.Z.A.J.`.P.P.H.s.s.Z.b.+ 1 b m.m.n.n.n.n.n.1.F F F n.F n.F m + U Q Q Q Q Q U c R $ G.H.Z.L.S.S.P.L.A.s.s.C.y ",
"y C.s.P.c./.(.;.l.c.z.f.;.;.x.Z.s.s.L.H.P.1.1 b n.m.m.m.m.m.m.m.m.m.m.w.F F b > + U Q Q Q Q Q c R @  .z.s.k.;.;./.Z.Z.s.Z.6.h + ",
"+ h k.k.;.f./.;.;.;.;.;.c.z.k.c.s.Z.c.s.Z.a.# b F m.m.m.m.m.m.m.m.m.m.F I M b < [ # U Q ! ! 3 J +  .;.;.;.;.f.c.k.k.s.s.Z.c.a.& ",
"` s.s.z.k.s.z.c.c.k.z.z.z.s.s.z.z.k.;.z.s.s.+ = 5 n.m.m.m.m.m.m.m.m.m.w.M m 1 - f.r.o U ! 3 N # r.z.s.z.l.c.z.s.s.s.k.c.f.-.j   ",
"2.s.a.H.P.D.z.z.k.f.l.z.k.c.k.;.;.;.;.;.g.k.F.+ + m I n.m.m.m.m.m.w.I b b b $ % ;.f.+.o 5 N x N.b.z.k.g.f.z.z.z.c.f.;.;.f.h.o.S ",
"8 t r G.x.z.k.f.;.;.;.-.-.@.@.f.g./.#.-.z.c.A.H + # + 6 6 6 6 6 6 6 6 6 5 # ) #.=.g.c.i.+ # i.v.z.g.;.;.;.;.-.=.@.>.{ / +.d.s.2.",
"0  .C i.s.s.z./.;.;.;.@.$.[.%.T.).[.|.@.S.H.i.+ + + + G ) A A + + + + + + K _..X$.`.H.H.N.N.Z.s.c.k.;.;.;.=.@.).).&.8.1.d H j 2 ",
"C -.f.+.f.z.s.s.z.b.'.[.P.P..XP.P.P.P.@XL.A.u.+ + w Z.s.u.u.h.j.T.1.+ + y P.P.P.P.P.A.Z.s.H.L.A.s.s.s.v.b.)..XP.P..XP.P.@XP.y   ",
"+ D H.Z.s.s.s.s.Z.s.A.L.L.Z.L.A.A.H.H.P.P.P.A.B.$ , 2.2.2.2.4.4.6.f + < 7.4.B.C.P.P.P.L.A.H.s.s.s.s.s.Z.s.H.L.H.A.L.A.L.A.A.G.; ",
"r p.B.Z.b.b.c.s.s.s.s.s.Z.s.Z.s.s.s.Z.H.A.A.6.+ + + G 3.2.2.2.2.2.+ + 8 _ 2.2.2.6.A.A.H.H.A.C.b.b.s.s.s.s.s.s.s.s.Z.s.s.s.a.<.* ",
"8 p X.;.;.;.;.;.b.H.P.H.C.z.k.f.s.s.s.s.s.p.2.q 9 9 0 | { ' 6.e.7.q 8 8 9 [ 2.2.2.2.s.s.s.f.;.;.;.;.;.A.L.P.A.x.z.g.k.s.s.p.a + ",
"  % +.z.s.k.g.z.l.v.A.b.v.k.z.z.z.z.;.f.l.h.] ' ' 2.2.| ] ..' 6.4.3.] ' 3.' 2...| ' f.z.k.l.c.s.f.z.k.l.C.A.b.k.l.c.k.c.k.l.a., ",
"  y d h r.g.s.D._.:.(.:./.f.f.;.f.f.g.z.l.z.[ 2.O.' ' ] 4.o.} ..} ..| ..| | ' | ] h.k.z.s.g.(.z.g.Z.S.$.(.:.^.;.f./.;.l.;.k.C $ ",
"; G.P.V.N..XJ.P.P.[.).K.}.'.l.k.k.;.l.k.z.s.(._.0.q.9.9.e.e.0.*.7.q.9...' ] | ..d.z.s.g.(.}.}.].].L.P.K.$.|..X.X(.k.z.f.;.k.| V ",
"; i.c.b.S.J.S.`./.S.S.s.H.L.H.s.c.`.S.D.D.D.D.L.S.j.G.S.9.| 9.9.2.6.6.N.a.p.g.b.D.D.D.S.L.D.`.D.D.|./.`.S.Z.Z.H.L.A.s.k.g.| V   ",
"  8 u.s.z.l.f.;.;.;.;.f.k.f.f.s.s.s.s.s.s.A.Z.s.s.z.k.g.;.;.;.;.f.l.f.f.z.s.s.s.s.s.Z.Z.s.s.c.z.g.;.;.;.;.;.f.l.f.k.s.s.s.u.& + ",
"& 7.i.c.z.k.g.z.c.;.f.z.b.D.K.Z.s.s.s.Z.L.L.L.H.s.z.k.g.k.s.f.;.k.b.b.P.A.s.s.s.s.H.L.L.L.Z.z.z.g.g.c.k.;.g.x.x.K.H.s.s.s.y.p.u ",
"& i.Z.s.s.s.s.s.s.s.z.S.S.S.{.L.H.A.x.z.c.s.s.Z.s.s.s.s.s.s.s.s.b.S.S.`.J.L.A.C.z.s.s.s.Z.Z.s.s.s.s.s.s.s.z.S.S.'.D.L.A.A.3.h   ",
"  # ) ;.g.z.s.s.s.z.k.k.c.g.;.;.;.;.;.;.;.f.l.z.s.s.s.s.s.s.c.k.l.c.k.;.;.;.;.;.;.;.f.f.z.c.s.s.s.s.s.s.z.g.z.z.f.;.;.;.;.+.r   ",
"  y G.P.b.(.:.^.v.:.^.s.A.H.f.z.c.k.l.z.z.s.s.s.s.s.z.^.:.v.^.:.z.Z.L.x.k.s.k.k.k.z.s.s.s.s.s.s.^.:.g.g.:.g.s.H.A.f.s.f.k.s.2.  ",
"; V.P.P.P.'.P.}.T.K.K.S.P.P.K.c.s.A.L.L.P.Z.z.:.^.^.@.J.XXT.|.P.|.L.P.P.x.s.Z.H.L.P.A.s.^.:.^.#. XK.[.).P.XXD.P.P.F.z.;.X.) 8   ",
"; V.<.Z.Z.A.L.L.P.P.H.L.P.J.P.L.Z.A.A.A.c.$.$.J.[.|.XXXXP.P.P.L.L.P.J.P.P.A.Z.A.A.Z.^.).}.|.[.J.|.P.P.P.L.H.P.K.K.P.(.@.=.-.v   ",
"  # q r.z.s.c.z.C.A.s.v.(.;.H.H.Z.s.Z.L.XXK.L.A.L.L.S.S.(.(.A.s.z.v.;.S.H.A.Z.A.H.J.XXP.A.H.L.C.S.`.;.S.Z.z.v./.`.{.=.>.@./ 9   ",
"  & u.s.o.s.) -.+.+.o.;.k.f.f.u.s.p.i.s.A.A.s.s.p.3.;.;.;.;.' l.-.| l.;.z.s.Z.V.t.A.A.s.d.| g ) -.X.| f.h.;.;.k.Z z.z.r.z.g     ",
"    2.s.u a $ V V -.{ a u.^ s.g u.s.g ^ s.s.2.a.g t.u.+.+.k.+.9 t _ a.^ a.` L.H a.u.s.a.) -.0 ..s.Z / X.V k._ _ 8 u u 2.s._     ",
"    + +         0 { V + + $ _ r r g $ $ 2.u.r i & _ a V V _ a +   q i   + + + $ _ r u.2.$ + + 8 i     + $ _ a +       r g $     "
};
