/* XPM */
static char *result[] = {
/* columns rows colors chars-per-pixel */
"64 64 183 2 ",
"   c #000012",
".  c #00012D",
"X  c #030D2E",
"o  c #02142D",
"O  c #0B142E",
"+  c #0A182D",
"@  c #151B2E",
"#  c #1B1E2E",
"$  c #1B262D",
"%  c #23232F",
"&  c #2B2D2E",
"*  c #2C302F",
"=  c #31352F",
"-  c #383C2F",
";  c #2B2631",
":  c #262F30",
">  c #372D33",
",  c #293733",
"<  c #3E3034",
"1  c #453535",
"2  c #384432",
"3  c #3F4E35",
"4  c #3B543D",
"5  c #414F34",
"6  c #4B4E34",
"7  c #5B4A36",
"8  c #4B5533",
"9  c #495936",
"0  c #565237",
"q  c #62463E",
"w  c #705B3A",
"e  c #626631",
"r  c #656737",
"t  c #7B653C",
"y  c #716939",
"u  c #61743B",
"i  c #667B3D",
"p  c #747833",
"a  c #3D3F48",
"s  c #574C4D",
"d  c #694A40",
"f  c #745343",
"g  c #7E5A47",
"h  c #597D4E",
"j  c #56725C",
"k  c #577C66",
"l  c #707175",
"z  c #82693F",
"x  c #8D7D3E",
"c  c #845E49",
"v  c #8B674B",
"b  c #967844",
"n  c #9B7C45",
"m  c #9A6D51",
"M  c #A76F43",
"N  c #A37454",
"B  c #A97857",
"V  c #AA7658",
"C  c #AC7A58",
"Z  c #718740",
"A  c #7D9345",
"S  c #638A54",
"D  c #6C9356",
"F  c #749A57",
"G  c #74A15F",
"H  c #6F9B6E",
"J  c #749C6D",
"K  c #7A9F6A",
"L  c #638F76",
"P  c #669175",
"I  c #6B9473",
"U  c #6C9870",
"Y  c #739672",
"T  c #719870",
"R  c #7C9971",
"E  c #77A664",
"W  c #78A764",
"Q  c #77A863",
"!  c #7AA863",
"~  c #75A169",
"^  c #7CA169",
"/  c #919637",
"(  c #A3A938",
")  c #B9BF3C",
"_  c #BBC13C",
"`  c #C5CB3D",
"'  c #C8CE3E",
"]  c #EAF137",
"[  c #E9F13B",
"{  c #958F48",
"}  c #839D47",
"|  c #8E9D49",
" . c #A78549",
".. c #B38F4C",
"X. c #A39641",
"o. c #AF8257",
"O. c #B38657",
"+. c #A29E50",
"@. c #BB9753",
"#. c #BD9254",
"$. c #8AA549",
"%. c #93AD4B",
"&. c #96B34C",
"*. c #99B64D",
"=. c #9BB94E",
"-. c #84AD5D",
";. c #8AAE5C",
":. c #8FB257",
">. c #8BB159",
",. c #94B553",
"<. c #98B751",
"1. c #99B850",
"2. c #92B15A",
"3. c #9DB25C",
"4. c #A0BA4F",
"5. c #B3AE56",
"6. c #A3B951",
"7. c #ABB954",
"8. c #A3B25E",
"9. c #ABB55D",
"0. c #AAB858",
"q. c #B1B756",
"w. c #B3BA56",
"e. c #B5B65D",
"r. c #B9B75E",
"t. c #B6BA58",
"y. c #BEBA5B",
"u. c #859D6F",
"i. c #899E6E",
"p. c #868871",
"a. c #819B70",
"s. c #82A566",
"d. c #82AB61",
"f. c #89AB61",
"g. c #8DA16D",
"h. c #93AD61",
"j. c #9AAF61",
"k. c #94A46B",
"l. c #9AA769",
"z. c #9DA968",
"x. c #9CB060",
"c. c #A3AB66",
"v. c #A9AE64",
"b. c #ADB163",
"n. c #B3B461",
"m. c #C09357",
"M. c #C29A52",
"N. c #CDA454",
"B. c #C2AC52",
"V. c #CFA854",
"C. c #D0A755",
"Z. c #D1AE53",
"A. c #C0BA5B",
"S. c #D2B352",
"D. c #D5BD50",
"F. c #CDC04F",
"G. c #D5C54E",
"H. c #DCCE4D",
"J. c #DED54C",
"K. c #D8C150",
"L. c #E1DC49",
"P. c #DDE342",
"I. c #E4E646",
"U. c #E7EA46",
"Y. c #E8EE45",
"T. c #E5E648",
"R. c #E9F044",
"E. c #E9EF59",
"W. c #EAF157",
"Q. c #EBF16A",
"!. c #ECF27A",
"~. c #7F8084",
"^. c #B9BB9C",
"/. c #9D9EA1",
"(. c #C5A89A",
"). c #F2F6A0",
"_. c #F3F7B5",
"`. c #E7DED9",
"'. c #F4F8C0",
"]. c #FAFCDD",
"[. c #F9F8EE",
"{. c #FCFDF0",
"}. c #FFFFFE",
/* pixels */
"=.-.w.w.w.w.w.w.4.=.=.6.8.>.-.Q v.! Q Q ! Q ! ! :.<.1.=.1.1.w.=.=.=.:.6.w.w.w.w.w.7.=.=.=.w.;.>.Q h.h.! Q ! ! Q Q ;.2.=.=.=.=.w.",
"=.=.=.=.=.=.=.=.6.7.=.=.=.=.=.1.<.-.-.! ! Q ! ! ! ! Q ,.>.Q ! ! =.=.=.=.1.1.=.=.=.7.6.=.=.=.=.=.=.=.-.-.Q ! Q ! W ! ! ! >.,.Q Q ",
"=.=.=.=.=.6.6.y.y.y.w.6.=.=.:.,.:.Q ! ! <.=.! ! ! Q -.-.-.j.y.3.=.=.=.=.=.=.6.6.7.y.y.y.6.=.=.,.,.,.! ! Q >.=.-.! Q Q G -.-.f.y.",
"=.=.=.=.=.=.t.y.6.=.y.y.7.=.=.=.=.=.=.=.=.=.>.G :.1.6.y.6.y.y.A.6.=.=.=.=.=.=.6.t.w.=.y.A.y.=.=.1.=.=.=.=.=.=.<.-.-.=.6.t.7.w.y.",
"A.4.6.1.<.1.=.=.=.=.=.=.=.=.=.=.=.=.=.=.=.=.=.=.=.0.t.e.e.9.! e.y.y.7.6.6.<.<.1.=.=.=.=.=.=.=.=.=.=.=.=.=.=.=.=.=.=.1.e.e.e.e.! ",
"! d.d.! ! ! ! ! <.<.<.<.=.=.=.=.=.=.=.=.=.=.=.1.>.Q ! 1.! ! ! ! d.d.! ! d.! ! ! ! 1.1.<.1.<.=.=.=.=.=.=.=.=.=.=.<.<.! ! ,.>.! ! ",
"! ! ! ! ! ! ! ! ! ! :.=.=.=.=.=.=.=.1.1.=.=.=.1.<.<.=.=.=.1.! ! ! ! Q ! ! ! ! Q ! ! ! ! 1.1.=.=.=.=.=.=.=.=.=.=.1.1.<.=.=.=.1.:.",
"=.:.<.2.d.<.<.=.=.=.=.=.=.=.=.=.=.,.Y U ,.=.^ Y U =.=.=.y.w.1.! 1.1.<.:.<.Q <.<.=.=.=.=.=.=.=.=.=.=.<.U Y ^ =.,.T U 2.=.=.w.t.=.",
"=.=.=.=.=.6.t.y.6.=.=.=.1.1.=.=.T Y n.Y P Y P n.n.I =.y.y.y.y.d.1.=.=.=.=.=.=.t.y.t.=.=.=.=.1.=.1.f.P n.c.I Y P b.n.R 2.w.y.y.y.",
"=.6.t.y.y.y.y.y.=.=.s.P P U Y P P y.A.A.n.a.y.y.y.y.n.y.y.y.y.y.=.=.=.t.t.y.A.A.y.6.=.<.I P P J P P l.y.y.y.c.b.y.y.A.n.y.y.y.y.",
"=.6.6.7.6.7.6.1.I J P r.e.P u.A.v.R y.y.A.A.y.y.y.A.A.A.y.y.y.y.y.=.=.7.6.7.7.6.=.^ P I c.A.R P r.n.g.A.y.y.y.y.y.A.A.A.y.y.y.A.",
"A.7.=.=.=.=.w.^ z.A.c.y.A.A.A.A.A.A.A.x.x.e.A.w.=.=.w.A.h.! y.y.y.A.t.=.=.=.=.w.^ Y y.c.y.y.y.A.y.A.A.y.e.j.8.y.y.1.=.6.A.9.Q 9.",
"=.=.=.=.w.A.y.A.A.A.w.1.6.A.y.=.>.x.x.! Q Q =.6.=.,.>.Q Q Q 7.7.7.=.=.=.=.7.A.y.y.A.y.y.=.=.y.y.6.,.2.j.Q ! Q <.7.=.=.-.! Q ! 2.",
"=.=.w.A.7.=.7.A.w.1.=.=.=.7.w.,.! ! Q Q Q >.>.<.,.Q ! ! ;.Q ! =.=.=.=.7.t.t.=.6.y.y.7.=.=.=.7.t.=.Q ! ! Q ! ! :.:.=.! ! ! :.! Q ",
"=.=.=.=.=.=.=.=.=.=.=.,.:.:.-.! ! ;.! ! Q Q ! ! ! ! ! =.=.1.;.;.1.=.=.=.=.=.=.=.=.=.=.=.1.:.:.:.Q Q ;.-.! ! ! ! ! Q Q ! ,.=.1.;.",
"=.=.=.Q ! =.=.=.=.=.=.=.=.-.-.! =.=.1.-.=.>.! Q -.=.! ,.=.=.=.=.=.=.=.=.-.! <.=.=.=.=.=.=.=.>.-.Q :.=.=.! =.<.-.Q ! <.:.-.=.=.1.",
"-.,.Q ! ! <.=.=.1.=.=.t.w.=.=.6.6.=.1.=.=.=.=.=.1.1.=.1.=.=.=.=.G W ,.-.! W ;.<.=.=.=.=.6.y.=.=.6.6.6.*.=.=.=.<.=.=.=.=.=.=.=.=.",
"! Q ! ! Q ! ! <.<.1.A.A.y.y.A.A.y.e.<.1.,.,.-.! ;.,.1.<.<.=.=.! ! ! W ! W W W ! ,.,.<.y.A.A.A.y.y.y.e.9.=.,.,.,.! ! <.=.,.,.=.=.",
"Q ! ! ! ! ! Q ! <.=.=.y.y.y.y.e.! d.! ! Q ! Q ! ! ! ! ! ! ! ~ ! ! ! W W ! ! ! ! G -.=.=.y.y.y.A.t.x.! ! ! Q ! ! ! ! Q ! ! ! Q Q ",
",.1.f.P I ! 1.=.4.w.y.y.A.A.=.1.1.=.<.<.! ! Q ! Q ! ! ! ~ P P U ,.<.<.<.P I W -.=.=.6.y.y.y.A.7.1.=.=.=.,.,.Q Q W ! ! W ~ ! P L ",
"Y U g.r.Y P ,.6.A.y.y.y.y.w.=.=.=.=.<.! ! ! ! ! ! ! P P Y Y P P Y Y I I r.l.P K 4.y.y.y.y.A.y.=.=.=.=.<.! ! Q ! Q ! ! I P I Y I ",
"y.n.y.y.y.n.n.6.=.=.=.w.y.y.7.w.=.=.=.=.1.<.! Q Q J P e.y.A.n.Y y.y.n.y.y.A.r.e.t.4.=.=.=.y.A.6.y.=.=.=.=.<.<.! ! ! ! P c.y.y.y.",
"A.y.y.y.y.A.A.6.t.6.=.=.=.y.w.6.w.=.=.=.=.=.9.e.e.k.r.y.A.y.y.y.A.A.A.A.A.y.y.y.t.t.w.*.&.1.t.y.6.7.=.=.=.=.=.<.n.e.n.c.y.y.A.y.",
"w.A.y.7.y.y.A.A.y.y.=.7.7.=.=.=.=.=.=.=.=.=.7.=.t.y.A.A.r.6.y.A.y.6.A.A.6.y.A.A.A.q.@ . @ { =.*.=.=.=.=.=.=.=.y.1.6.A.y.A.y.6.w.",
"<.6.=.=.t.A.A.y.y.y.t.y.y.t.t.w.w.w.=.=.=.=.=.=.=.=.=.A.=.=.1.7.1.1.=.1.=.w.y.A.y.5.X ' e 6 0 7.w.w.w.7.=.=.=.=.=.=.=.=.w.7.=.=.",
"=.=.=.=.7.7.7.1.6.7.7.7.7.=.<.-.-.>.=.=.=.=.=.=.=.=.=.=.=.=.=.=.=.=.=.=.=.6.7.7.=.%.O Y.R.P._ 9 ;.;.;.=.=.=.=.=.=.=.=.=.=.=.=.=.",
"=.=.=.=.=.=.=.=.=.=.=.=.,.d.Q ! ! ! >.! Q <.=.w.y.y.=.=.1.=.=.>.:.1.1.=.=.=.=.=.u O X L.N.I.R.X.4 Q ! ! ! Q :.=.w.y.y.6.=.1.=.=.",
",.=.=.<.:.=.=.1.=.=.=.>.Q Q >.:.-.! ! Q ! 3.c.A.y.A.A.e.Q ! >.>.! >.=.=.=.>.,.&.+ a s x N.Y.S.N.% 3 Q ! ! Q ! v.y.y.y.A.A.f.Q :.",
";.=.<.! Q ! :.! >.=.-.>.>.,.=.=.1.! >.=.:.;.;.;.w.3.;.-.=.>.>.=.=.>.<.Z h h h ,   }.}./.$ B.N.b z $ :.! =.<.;.;.;.7.w.;.-.,.,.-.",
"-.=.>.! -.-.Q Q G >.<.=.=.1.=.1.=.=.1.*.;.f.;.,.=.;.,.:.Q :.,.:.G S : O e e e e O l }.}.p.% ; 2 i =.=.=.=.<.;.;.;.=.;.;.<.-.-.1.",
"Q ! ! d.=.=.=.=.4.=.=.=.^ P P 2.P U 1.y.A.l.Y L ^ R R ~ Q ! ! G , @ * ' Q.].].Q.' ; ~.^.W./ @ k s.^ P ,.w.A.n.a.P f.P i.H ! ! ! ",
"=.G ! <.<.,.<.1.4.,.2.T c.y.b.R A.u.y.A.A.A.y.I Y A.A.u.y.;.! A @ 8 P.] }.}.}.}.'.T./ . ) / @ +.a.c.v.z.A.A.A.A.i.P n.y.l.v.8.Q ",
"=.,.! Q f.f.f.f.e.R y.y.A.r.e.y.y.y.y.y.f.! y.A.c.7.6.y.y.y.y.: = / R.] }.}.}.}.'.R.K.; @ @ 0 e.y.y.y.y.A.9.! e.y.g.y.=.y.A.A.y.",
"=.! t.y.t.t.y.y.6.=.=.7.8.-.! ! e.f.! d.! W ! ! =.=.=.=.1.A r O ' [ R.] }.`.M [._.R.L.M.b o d.! ! 8.c.! ! ! ! ! ! <.1.1.=.=.=.y.",
"=.=.=.=.1.=.=.=.4.4.=.=.=.=.=.1.,.! ! ! ! ! ! Q W ! D : : @ > y T._ - - s C (.[._.Y.Y.N.N.X 9 =.1.1.G -.! ! ! ! ! ! ! ! ,.1.! ! ",
"=.=.=.=.=.1.=.y.y.A.7.=.=.=.1.1.1.! ! W ,.<.! W ! S @ o p F.#.O.b X ; ..% v V P.R.R.R.N.M.X 3 *.1.=.d.! ! ! 1.! ! ! Q ! ! ! ! t.",
"=.=.=.=.=.6.y.A.7.6.y.y.7.=.<.,.<.<.<.,.=.=.>.W F . +.).).E.F.N.t +  .C.U.R.B.B.R.R.T.N.C.b 5 <.<.<.,.<.,.=.=.<.! ! <.1.w.7.7.A.",
"t.=.=.=.=.=.=.1.=.=.4.6.6.=.=.=.=.=.=.=.=.=.=.$.% ( !.}.}.!.R.Z.t @ # n S.Y.R.R.R.Y.D.N.N.b 5 =.=.=.=.=.=.=.=.=.=.=.1.y.A.A.A.f.",
"h.h.h.f.Q -.d.-.=.=.=.=.=.=.=.=.=.=.=.=.=.=.=.u - ] }.}.}.!.F.R.` / @ . . / H.Y.Y.T.C.M.#.g 5 =.=.=.=.=.=.=.=.=.=.1.! Q >.-.! ! ",
"Q ! ! ! ! ! ! ! Q ! -.,.<.=.=.=.=.=.=.=.=.=.=.# 0 ] {.{.W.U.B @.P.& e H.7 + C.N.N.N.N.C B c 5 =.=.=.=.=.=.=.=.=.:.,.,.1.1.1.,.-.",
"=.-.:.>.! :.:.1.=.=.=.=.=.=.=.=.=.<.s.s.,.1.f.o M.L.] ] R.Y.B.C q . P.U.t o C.M.C C C C B 1 5 =.=.=.=.^ s.f.1.<.^ s.,.1.1.7.w.=.",
"=.=.=.=.=.1.w.7.1.=.=.=.4.=.=.=.s.P l.I P s.L o M.H.R.R.R.R.R.o.B m q 1 @ p R.H.m.C C N < @ *.=.=.2.P z.g.P s.P l.z.Y ,.7.A.y.t.",
"=.6.7.A.A.A.y.y.6.*.:.P P J ^ L P y.A.A.z.Y n.o @.H.R.R.R.R.G.C O.O.C v - ' Y.Y.C.C C 1 # @ L f.P P l.A.y.n.g.l.y.y.A.c.y.A.A.y.",
"=.6.w.w.w.w.w.1.U s.L b.b.P Y A.k.Y A.y.A.A.A.o M.N.J.R.R.R.F.o.I.R.R.R.R.R.R.Y.C.C C C c + j L n.c.R A.A.A.y.y.y.y.A.y.y.y.A.A.",
"A.6.=.=.=.=.6.;.u.A.u.y.y.A.y.y.A.y.A.9.9.y.A.+.1 V.N.J.R.R.R.Y.Y.Y.R.R.R.R.Y.T.C.C C C V o 0 y.y.y.y.A.r.9.e.y.y.=.=.w.y.t.E e.",
"=.=.=.=.7.y.A.A.y.y.y.=.7.y.y.=.,.e.9.Q ! ! *.| %  .N.N.K.K.R.R.R.Y.R.R.R.R.I.V.m.B C C f O 6 y.6.<.6.e.! ! Q =.t.=.=.,.-.! ! 2.",
"=.=.6.y.w.4.t.y.t.6.=.=.=.y.w.,.! ! ! ! ! :.,.<.4 z N.N.N.N.N.Z.L.L.L.L.L.D.N.N.#.B C N < # q.y.1.! Q ! ! Q ! <.<.=.! ! ! d.! ! ",
"=.=.=.6.=.=.1.1.=.=.=.<.<.<.2.! ! ! ! Q ! Q ! ! F @ w N.N.N.N.N.N.N.N.N.N.N.N.O.C C B 1 @ i <.<.! ! ! ! ! ! ! Q ! ! ! Q ,.1.1.! ",
"=.=.=.! -.=.=.=.=.=.=.=.1.! ! ! 1.=.<.! =.-.! ! ! $.@ d  .m.C.N.V.V.N.N.N.m.C B m f o @ $ $.-.G ! :.1.=.! 1.,.! ! W ,.-.:.=.=.=.",
">.*.! ! ! =.=.=.=.=.=.w.7.=.=.1.6.1.=.=.=.=.1.1.1.=.%.3 $ ; ; N N M.@.N N q ; ; % 3 5 i *.y.=.=.<.1.=.=.1.=.=.=.<.<.=.=.<.=.=.=.",
"! ! ! ! ! ! d.=.=.1.y.y.A.t.t.A.A.t.1.=.1.1.>.! 2.=.1.1.$.A u + + o o + + @ D D } =.1.t.y.y.y.y.y.y.y.7.=.1.<.<.! -.=.=.=.=.=.=.",
"Q ! ! ! Q ! ! Q :.1.6.A.A.y.A.A.f.! ! ! ! ! ! ! ! -.G Q ! -.d.! G G W ! W Q ! W ! ! <.6.y.y.y.A.y.v.! ! -.! W Q ! ! ! -.! ! -.! ",
",.,.f.U H ! 2.=.=.7.t.y.A.y.6.,.<.=.,.,.! ! ! Q ! Q ! Q ~ P P U <.,.,.,.H U W -.=.=.4.y.w.A.A.w.<.,.=.=.,.>.! ! ! ! ! Q Q ! P P ",
"L ^ R v.P P 1.1.y.A.y.y.A.t.=.1.=.1.:.Q ! Q ! ! ! ! I P U P P P P P J I c.g.P s.=.w.y.y.A.y.A.1.=.=.=.:.Q ! Q ! Q Q ! ~ P I P P ",
"y.c.y.y.y.c.c.q.4.=.1.w.y.y.6.7.=.=.=.=.:.:.! ! Q ~ L c.y.A.z.I y.A.b.n.A.A.c.z.y.7.=.=.7.y.y.4.7.=.=.=.=.:.:.! ! ! ! P k.n.A.e.",
"y.y.y.A.y.y.y.6.7.6.=.=.6.y.y.7.7.=.=.=.=.1.3.8.x.u.b.y.y.y.y.y.y.A.y.y.y.y.y.y.w.7.7.=.=.=.y.y.7.w.=.=.=.=.=.:.8.c.z.g.y.A.y.A.",
"w.A.y.w.A.A.A.n.y.A.=.6.6.=.=.=.1.=.=.=.=.=.w.=.t.A.y.y.y.w.A.A.y.w.y.A.w.y.y.A.A.y.y.1.=.7.=.=.=.=.=.=.=.=.=.y.=.7.A.A.A.A.w.t.",
"=.6.=.=.A.A.A.F.y.A.7.A.A.t.7.7.7.7.=.=.=.=.=.=.=.=.6.y.=.=.4.w.=.1.=.6.=.7.A.y.y.y.A.7.A.A.A.7.6.7.7.6.=.=.=.=.=.=.=.=.y.7.=.=.",
"=.=.=.=.w.w.w.=.w.w.w.w.w.1.1.:.2.,.=.=.=.=.=.=.=.=.=.=.=.=.=.1.=.=.=.=.=.7.t.t.=.6.w.w.w.w.6.=.,.,.,.=.=.=.=.=.=.1.=.=.=.=.=.=.",
"=.=.=.=.1.1.=.=.=.=.=.=.<.>.! ! ! ! ,.! ! 1.=.4.A.w.=.=.=.=.=.<.,.=.=.=.=.=.=.=.=.=.=.=.=.=.,.! Q Q ! -.! ! ,.=.6.t.A.1.=.=.=.=.",
"1.=.=.=.<.1.1.4.=.=.=.<.Q ! -.! G ! ! ! ! 8.e.A.A.y.A.y.! d.,.! ! ,.=.=.=.,.<.=.=.=.=.=.1.G ! d.! d.W ! ! ! f.t.y.y.y.y.y.j.Q ,.",
"! 4.=.! -.G 1.! <.=.! ! G 2.=.=.=.! -.1.-.-.! f.y.8.d.-.=.! -.1.<.! <.=.>.Q Q <.:.d.=.-.d.d.! =.=.=.:.! 1.,.! ! d.w.y.d.-.:.:.! ",
">.=.,.Q ! ! ! Q ! d.,.<.=.=.=.=.=.1.=.=.<.,.,.1.=.,.<.<.! <.<.<.! ! =.=.Q ! ! ! ! ! d.-.=.=.=.=.=.=.*.1.1.=.,.<.,.1.<.,.<.>.>.=.",
"! ! Q -.=.=.<.<.=.=.=.=.f.T U =.T J =.y.n.i.P I f.P U Q ! ! Q ! ! ! ! ! Q =.=.<.1.1.=.=.1.1.I Y ;.s.U 1.6.y.b.Y P 2.I I ~ ! ! ! "
};
