/* XPM */
static char *result[] = {
/* columns rows colors chars-per-pixel */
"64 64 226 2 ",
"   c #1E2032",
".  c #282737",
"X  c #332E39",
"o  c #3C3439",
"O  c #443A3C",
"+  c #493939",
"@  c #533F3C",
"#  c #3F4636",
"$  c #47473C",
"%  c #55433E",
"&  c #5A473C",
"*  c #4C5B39",
"=  c #575A3B",
"-  c #634A3D",
";  c #6A4E3E",
":  c #6A523E",
">  c #72543F",
",  c #57633B",
"<  c #68673E",
"1  c #65763D",
"2  c #2F2F49",
"3  c #3B3644",
"4  c #393653",
"5  c #443D46",
"6  c #4B3D44",
"7  c #38414C",
"8  c #35435E",
"9  c #384A67",
"0  c #375269",
"q  c #3B5772",
"w  c #366878",
"e  c #464546",
"r  c #534444",
"t  c #5B4644",
"y  c #584A44",
"u  c #5E4C4A",
"i  c #4D544E",
"p  c #565445",
"a  c #664D45",
"s  c #634D4C",
"d  c #69554A",
"f  c #68544E",
"g  c #765847",
"h  c #7B5B44",
"j  c #684F50",
"k  c #6C5352",
"l  c #615A5A",
"z  c #725756",
"x  c #735A55",
"c  c #7D5D52",
"v  c #7B5D5B",
"b  c #4C6744",
"n  c #556A4C",
"m  c #5A7649",
"M  c #6A6A47",
"N  c #796844",
"B  c #647845",
"V  c #757A46",
"C  c #67645A",
"Z  c #766356",
"A  c #7D635C",
"S  c #787457",
"D  c #434E6D",
"F  c #435C7B",
"G  c #58716F",
"H  c #616869",
"J  c #6B6C6D",
"K  c #667978",
"L  c #805E4D",
"P  c #846446",
"I  c #84634A",
"U  c #8C6749",
"Y  c #936C4B",
"T  c #95754E",
"R  c #9C724E",
"E  c #866657",
"W  c #8E6E50",
"Q  c #82625F",
"!  c #86765A",
"~  c #9C7353",
"^  c #977A55",
"/  c #A3774F",
"(  c #A4784F",
")  c #A17652",
"_  c #A57952",
"`  c #AB7D53",
"'  c #866460",
"]  c #896762",
"[  c #856A60",
"{  c #8C6A64",
"}  c #916E67",
"|  c #926F68",
" . c #8D7165",
".. c #95736A",
"X. c #947569",
"o. c #9C7C6D",
"O. c #A17E71",
"+. c #6C803F",
"@. c #5F8552",
"#. c #6A8447",
"$. c #758845",
"%. c #7B9344",
"&. c #7B974A",
"*. c #668C56",
"=. c #7F8453",
"-. c #6B9358",
";. c #75995A",
":. c #78A45E",
">. c #5E8266",
",. c #648566",
"<. c #6B936F",
"1. c #75996C",
"2. c #669175",
"3. c #6B9374",
"4. c #6D9970",
"5. c #719672",
"6. c #789871",
"7. c #76A663",
"8. c #78A663",
"9. c #78A566",
"0. c #7AA863",
"q. c #829C46",
"w. c #849B49",
"e. c #97974C",
"r. c #8F8A50",
"t. c #AC8355",
"y. c #A58758",
"u. c #AB8D5C",
"i. c #B28255",
"p. c #B28859",
"a. c #B48A5B",
"s. c #A19B53",
"d. c #B4935E",
"f. c #8AA548",
"g. c #8AA549",
"h. c #94AC4C",
"j. c #95B14C",
"k. c #99B54D",
"l. c #9BB94E",
"z. c #89AB54",
"x. c #84AD5D",
"c. c #8AAE5C",
"v. c #97A652",
"b. c #8FB357",
"n. c #8CB159",
"m. c #94B553",
"M. c #98B751",
"N. c #99B850",
"B. c #96B15B",
"V. c #A9A954",
"C. c #A3B951",
"Z. c #ACB954",
"A. c #A7B35A",
"S. c #B2BA56",
"D. c #B7B659",
"F. c #B5B65D",
"G. c #B7BA59",
"H. c #BEBA5B",
"J. c #8A8664",
"K. c #9B8567",
"L. c #8A9B6D",
"P. c #A3876B",
"I. c #AF926A",
"U. c #A48272",
"Y. c #A98675",
"T. c #A58B73",
"R. c #AB8A75",
"E. c #AE8C79",
"W. c #B18F76",
"Q. c #B18E79",
"!. c #A69A75",
"~. c #B39475",
"^. c #B5927B",
"/. c #B79979",
"(. c #BC9B7C",
"). c #87A963",
"_. c #96AA66",
"`. c #A4AC66",
"'. c #AEB163",
"]. c #B4B460",
"[. c #A8A477",
"{. c #B8A77B",
"}. c #C0965E",
"|. c #C0BA5B",
" X c #C09A63",
".X c #C19F7F",
"XX c #C3A47C",
"oX c #C9AA7F",
"OX c #3E7588",
"+X c #426883",
"@X c #43748C",
"#X c #43788F",
"$X c #437C92",
"%X c #3D8292",
"&X c #438294",
"*X c #458799",
"=X c #448B9C",
"-X c #48939E",
";X c #6C8586",
":X c #4C99A4",
">X c #BAAD82",
",X c #C5A381",
"<X c #C7AA83",
"1X c #CDAC83",
"2X c #D1AF85",
"3X c #CCB886",
"4X c #D3B285",
"5X c #D8B888",
"6X c #DDBB89",
"7X c #E1BF8B",
"8X c #D5CB92",
"9X c #D8C992",
"0X c #E3C28C",
"qX c #E6CA92",
"wX c #E7D498",
"eX c #EBD699",
"rX c #E5DC9D",
"tX c #EDDC9D",
"yX c #EFE09F",
"uX c #EADFA0",
"iX c #EBE3A1",
"pX c #EFE8A5",
"aX c #F1E5A2",
"sX c #F3EBA6",
"dX c #F5EFA9",
"fX c #F6F0A9",
/* pixels */
"l.x.S.S.S.S.S.S.l.l.l.Z.N.n.x.7.A.0.7.0.0.0.0.0.b.z.+.j.k.h.e.f.&.f.b.v.v.Z.S.S.S.Z.l.l.l.S.c.c.7._.B.0.7.0.7.7.7.n.b.l.l.l.l.Z.",
"l.l.l.l.l.l.l.l.C.Z.l.l.N.l.N.N.M.x.x.0.0.0.0.0.0.-.M V B p ! K.r., 1 r.! +.l.l.l.C.Z.k.l.l.l.N.l.l.x.x.0.7.0.0.0.0.0.0.n.m.0.7.",
"l.l.l.l.l.Z.C.|.|.|.S.C.l.l.m.m.b.0.0.0.m.l.0.0.:.*.K.3Xr.XX5X6X6XXXK.oXs.+.C.C.Z.H.H.H.C.l.l.M.b.m.0.0.0.n.l.x.0.0.0.x.x.x.c.H.",
"l.l.l.l.l.l.G.|.l.l.|.|.S.l.l.N.l.l.l.l.N.N.c.:.&.S XX6X0X0X0XqXqX0X0X5XXX! f.C.D.S.l.S.|.H.l.l.l.l.l.l.l.l.l.k.).0.l.l.G.S.S.H.",
"|.C.C.C.M.l.l.l.l.N.l.l.l.l.l.l.l.l.l.l.l.g.V $.+.! oXqXoXqXqXaXaXqXqX0X5X! 1 $.#.f.l.l.l.l.l.l.l.l.l.l.l.l.l.l.N.N.N.G.].G.G.0.",
").0.0.0.0.0.0.0.N.N.N.N.N.l.l.l.l.l.l.l.l.%.f  .Z I.0XoXP.qXrXfXaXqXeX0X0XI.Z X.f $.M.M.M.M.l.l.l.l.l.l.l.l.l.C.N.M.0.0.b.n.0.0.",
"0.0.0.0.0.0.0.0.0.0.b.N.l.l.l.l.N.l.l.N.j.+.y U.U.{.0X(.{.8XwXdXaX0XwXeX0X(.U.U.y m :.0.N.N.l.l.l.l.l.l.l.N.l.N.N.N.N.N.l.l.m.n.",
"l.b.M.b.:.N.N.N.l.l.l.l.l.l.l.l.N.m.6.5.B S o.Y.U.(.7X2X~.{.yXdXsXeX0XeX0XoXo.U.o.! +.l.l.l.l.l.l.l.l.4.4.9.l.m.5.5.b.l.l.S.H.N.",
"l.l.l.l.l.C.G.G.C.l.N.N.l.N.l.l.5.1.e.H e  .R.E.O.<X0X6XP.<XwXfXsXaX0X0X0X7X/.O.W.} = +.w.m.M.k.N.).3.].`.5.4.3.'.].6.m.S.H.|.H.",
"l.C.G.H.H.|.|.H.l.l.).2.2.5.5.2.2.D.V x X.T.E.O.~.6X0X0XXX<XrXfXaXqX0X0X0X4XU.O.E.Y.X.Z n ,.2.6.2.2._.|.|.].`.'.H.H.H.].H.H.H.H.",
"l.C.C.Z.C.Z.Z.M.3.6.2.F.].2.L.H.'.<.M Q T.E.R.U.R.2X0X0XqXqXyXfXaX0X0X0X0X4XR.R.Q.Q.R.! M V.6.2.].].L.|.H.|.|.|.H.|.|.|.H.H.|.H.",
"|.Z.l.l.l.l.S.9._.|.`.|.H.|.|.H.H.s.E Y.^.^.^.E.U.XX0XqXyX0XeXdXaX9X4X0X0X4XW.R.,X/.R.R.Q s.H.|.|.|.|.|.].B.B.H.H.l.l.C.H.'.7.'.",
"l.l.l.l.S.|.|.|.H.H.S.l.C.H.G.g.#.S Y.Q..X2X.XR.Y.oX0XeXeXwXtXdXtX8X/.6X0X2XR.R.,X4X,XY.O.Z e.V.C.m.B.B.7.7.0.N.Z.l.N.c.0.0.0.b.",
"l.l.Z.|.Z.l.Z.|.S.C.l.l.l.S.v., O s R.E.1X7X4XR.Y.oX0X0XqXwXsXdX8X~./.3X0X4XU.Y.2X7X1XQ.E.u $ < g.0.0.0.0.0.0.b.b.l.0.0.0.n.7.0.",
"l.l.l.l.l.l.l.l.l.l.l.m.;.#., x z s Y..X6X7X5XR.Y.4X0X0XqXtXsXfXrX<X5X0X0X6X/.R.6X7X5XQ.E.u v z i *.;.x.0.0.7.0.0.0.0.0.m.l.N.n.",
"l.l.l.0.:.l.l.l.l.l.l.j.1 y f ' Q j E..X,X7X7XW.W.4X0X0XqXeXtXdXdXtX0X0X0X4X~.U.5X4X,X,XE.f A ' s y B j.0.l.N.x.0.0.M.b.x.l.l.N.",
"x.m.7.0.7.N.l.l.l.l.l.S.V s ] ] Q A E.E.,X6X1XE.^.4X7X7X7X0XsXdXdXdXeX7X7X4XE.E.2X6X,X,X,XQ v ] Q s B j.l.l.l.N.l.l.N.l.l.l.l.l.",
"0.0.0.0.0.0.0.m.j.C.G.e.d v ] Q t X.E.E.1X6X(.Y.W.5X0X6XXXeXdXfXdXdXyX7X7X,XO.Y.,X2X,XO.Y.O.6 ] E v d e.k.m.m.m.0.0.M.l.m.m.l.l.",
"0.0.0.0.0.0.0.0.k.l.h.& j Q ] z k U.E.E.4X7X5Xo.XX7X7X/.3XiXsXaXaXeXtX7X6X,XO.Y.,X1X<X,XY.O.j z ] Q j $ ;.7.0.0.0.0.0.0.7.0.0.7.",
"m.N.).3.3.0.l.l.l.S.S.r.t ] } x f { E.E.4X7X6XU..X7X7X/.~.rXtXiXsXeX7X7X7X2XE.,X1X,X,XY.,X} j z { [ r #.m.m.0.8.0.7.7.0.9.0.2.2.",
"5.5._.F.5.2.m.C.|.H.D.r.j { O.] z | E.E.4X7X5XR.^.7X0X6X>X8XrXdXdXqX7X7X0X7X,XE.2X1X,X,X,XJ s ] o...z $.8.8.8.0.0.7.0.4.2.5.5.3.",
"|.].].H.H.].].Z.l.l.h.$ v } ,X| v | ,XQ.4X5X,XE.(.0X0X7X,X3XdXdXdXtX5X4X0X0X,XE.6X6XE.,X,X| z ] U.o.A $ h.M.M.0.0.0.9.2.`.].|.H.",
"|.|.H.|.H.H.H.C.F.A.w.6 { o.Y.| v ..,X,X,X,X4XY.^.0X7X0X6XuXdXdXsXrXqX,X7X7X,XY.6X6X1X,X,X] v | R.o.] 6 %.l.l.N.].F.].`.H.H.|.|.",
"S.|.G.Z.|.H.H.H.|.|.#.j ] ..Y.| v O.,X,X,X6X2XO.^.0X0X7XqXaXdXdXdX>X>X,X6X6X,X,X5X5X,X,X,Xo.v | Y.Y.| j $.l.l.G.N.C.|.H.|.H.C.S.",
"N.C.l.l.H.|.H.H.H.|.r.f | Y.O.] v Y.,X,X2X7X6X..,X7X7X7X6XrXdXdXpX9X,X,X2X5X,X,X,X7X1X,XO.O.v ] O.Y...z $.N.l.l.l.l.l.l.G.Z.l.l.",
"N.l.l.l.C.C.Z.l.C.M.N Q | Y.O.Q ' E.E.Y.<X7X6X,X,XqXqX7X<XrXpXdXpX9X,X2X5X5X>XO.4X7X4X,XO.,X' v O.Y...v M h.l.l.l.l.l.l.l.l.l.l.",
"l.l.l.l.l.l.l.l.C.1 Z ' ..E.O.z v O.E.E.2X7X,X,X>XaXwX2XU.>XrXdXuXrX5X7X7XwX>X,X6X7X,X,XY.O.v z U.Y...x y b c.l.Z.H.H.C.N.N.l.l.",
"m.l.l.N.b.l.l.l.l.+.n z | Y.O.v z ..,XE.2X6X1X,X,X6X7X6X2XU.9XdXdXeX7X7X7X6X<X..5X7X4X,X,X..z v O.R.X.k p @.0.A.|.|.|.|.|.c.7.n.",
"n.l.m.0.0.0.b.0.b.q.f ' { o...Q | ,XY.,X,X,X,X..O.1XwXqX7XwXsXdXfXeXqXeXqX5X,X,X7X7X2X,XE.Y.| Q O.U.} | Z &.x.n.x.S.S.c.n.m.m.x.",
"x.l.n.0.x.x.0.0.x.* z x { o.O.A l | ,X,X,X,X,X,X,XqXaXeXqXtXaXsXdXtX0XwXqX4Xo.,X7X7X6X,XE.O.k v ..O.} A  ., c.c.n.N.n.c.m.x.x.N.",
"7.0.0.).l.l.l.l.k.+.o Q ..Y.U.{ k O.,XY.,X2X6X,X,X7XrXuXtXdXsXdXdXdXtXrXeXqXo.Q.5X7X,X,X,XO.z ] ..o.} Q O r.].L.2.).3.L.4.0.0.0.",
"l.0.0.m.m.m.M.l.l.$.o { o.Y.O.] v ,XU.,X,X,X6X,X>XwXsXsXuXrXrXfXrXrXiXpXdXiXK.o.,X5X,X,X,X,X' ] ..O.{ ' O e.|.].L.3.].|._.`.A.7.",
"N.m.0.0.).).n.).].S e E } U.U.v { W.W.Y.,X7X6XT.[.sXrXiX>X!.8X>X8X[.{.yXrXpXL.K.3X6XXXR.(.^.X.A O.Y.o.] $ e.7.F.H.L.H.l.H.|.|.|.",
"l.0.G.G.H.H.H.G.C.j.$ ] } U.U.z Q E.o.~.6X0X9X!.>XsX[.[.i # S y S $ i {.[.pX>XK.5X0X6X~.P.E.{ z O.Y.O...e ;.7.0.0.m.N.N.l.N.l.H.",
"l.l.l.l.l.l.l.l.N.j.$ ] ..Y...k ! O.! {.<XtXiX!.8X[.$ $     o a X   . o $ [.8XJ.yXwXoX{. .U.[ k | O...] $ 7.0.0.0.0.0.0.m.N.0.0.",
"l.l.l.l.l.N.l.G.H.e.5 ] ..E...j  .o.r y 3XsXpX=.J.- > O 4 4 @ c O 4 4 + a % J.J.yXsX3Xp r K. .j } o...] 5 #.M.0.0.0.0.0.0.0.0.G.",
"l.l.l.l.l.l.H.H.Z.%.u ] ..Y.{ k Y.E.X.! 3XaXyX!.$ a Y R r 4 % E % 4 y T Y a + [.yXpX8X! ..Q.R.f ] o.} ' u $.l.M.0.0.M.N.S.Z.Z.|.",
"G.l.l.l.l.l.l.C.l.%.k ] | o.x A U.,XoXP.3X8X!.X t L g d.u.& & ^ - r u.a.g c & X !.8X8XK..X(.K.A x O.| ] k %.l.l.l.l.l.H.|.|.|.n.",
"B._.B.).0.).x.x.k.#.x ] } { u A K.0XqX0XwX!   4 3 g ) ~ u.y.; ` > y.a.~ Y g 5 4 . J.aX0X0X1XR.Q s } } ] Z #.l.l.l.l.0.0.n.x.0.0.",
"0.0.0.0.0.0.0.8.-.! { ] ] { r y K.0XqX/./.d . 4 2 O U ` h W > i.> W L ` U X 2 4 2 M 3X{.0X<X! r t | } ] ] ! f.l.m.b.b.N.l.l.b.).",
"N.x.b.n.0.b.b.N.V k j ] ] { A y 2X6XoXI.M & h U ^ I - / / - : ( : - ( / - P ^ ^ N + S >XoX0X{.% ' ....] s k $.j.9.).M.N.C.Z.Z.l.",
"l.N.l.l.l.l.Z.Z.w.# k ] { ..U.d 9X0XP.a % h U ^ I.t.L > U U & : & T _ N P t.d.u.Y g p M P.6X5Xd o...{ { k o *.2._._.5.B.Z.H.|.G.",
"l.C.Z.|.|.H.|.|.m.* ' ] ] U.E.Z eX9X! . t L W ~ ` i.) ) i.}.}.}.}.}.}.}.}.a.i.i.W E x o S 4X5XK.| U.{ ' ' = L._.|.].|.`.G.|.|.|.",
"l.C.G.S.S.G.S.N.n r ' A k X.U.P.9XI.K.+ j g R ) ( ( ( ) ( ( / ( ( ( ( ( ( ( ( ( ~ I g t o I.I.~.Z X.z ' ] r r.H.|.|.|.|.|.H.|.|.",
"H.C.l.l.l.l.C.n.i x Q ] Z o.X.! E O j 2 6 6 @ - a a s s s u p $ s t u u u - a - & 6 6 6 2 6 x X.X.X.Z o.{ k M G.|.N.l.S.|.F.0.S.",
"l.l.l.C.Z.H.H.H.V O c { o.^.U.x . 2 D D D 8 X 6 k 5 9 9 q 0 0 8 w q w 8 0 e g t . D q D D 2 O ..E.E.o.o. .O b k.G.l.l.m.).0.0._.",
"l.l.C.|.G.l.F.|.v.& k f Y.Y.z O X 9 +X+X+X+Xo L U i #X$X=X=X%Xw -X-X&XOXOXl W c 5 +X@X@X@X9 X O Z E.U.k A d :.M.N.l.0.0.0.:.0.0.",
"l.l.l.l.l.l.l.N.q.# $ Q U. .6 + 5 9 #X$X$X$X6 ~ ) H %X:X:X-X:XG :X:X-X&X%XH ) ~ 6 F @X@X$Xq 6 + r  .U.X.$ i *.0.0.0.0.0.m.l.l.0.",
"l.l.l.0.x.N.l.l.j.%.V d y d $ a 6 8 +X$X$X@X5 ` ( C %XOX-X%X-Xw %X:X=X#XOXC ( ` e *X-X$X#X0 6 s r d y f m &.z.:.0.0.m.x.b.l.l.l.",
"n.l.0.0.0.N.l.l.l.l.q., $   @ c u q -X=X&X@Xe R / f K @X;XK @XZ 2.;X;XK @Xf ( _ e =X=X$X*Xq 6 c % . # , &.l.l.l.N.l.l.l.N.l.l.l.",
"0.0.0.0.0.0.x.N.l.l.G.e.M + a Y g q =X*X$X#X3 U ( > U y.y.y.a.d.a.I.u.y.U > _ ~ 5 $X&X@X#X0 a I g % 1 e.l.l.l.M.0.x.l.l.N.l.l.l.",
"0.0.0.0.0.0.0.0.b.N.C.V.< a E ` L F $X$X$X&Xe U ( a N ) t.t.a.a.a.i.p.^ h : _ U 4 *X*X*X$XD j ) I a b *.:.0.7.0.0.0.0.x.0.0.x.0.",
"m.m.).5.1.0.m.N.k.S.G.e.< h ~ t.a D @X$XOX*X7 U ( ; a I ) ` ` ` ` i.i.` I a R P 7 *X=X=X=X+Xu ` ~ a , &.k.b.7.0.9.0.9.0.0.0.3.2.",
"2.9.6.`.3.2.N.l.|.D.D.e.: U ` ` 6 +X$X-X$X#X7 @ > . @ > I h + + @ h U L t . t O 0 #X$X&X=X+X5 ` ` L * &.7.0.0.0.0.0.0.6.2.4.2.2.",
"H.`.H.H.G.`.`.S.l.h.f.e.= U ` ` 5 q $X=X$XOXOX9 8 8 4 D 9 9 8 4 4 9 9 4 4 9 8 9 OX*X&X+X#XD + ` ` I * %.j.b.b.7.0.0.0.2._.].G.].",
"H.H.H.H.|.H.].C.S.j.f.%.= U i.i.O 7 H G H K H H l A A J J J H l l l H l C A C C H G J G G 7 + ` _ U = %.j.l.l.b.'.B._._.].|.|.|.",
"G.|.H.S.|.|.|.|.|.H.h.q.< R ( ` + > ( y.y.y.y.u.u.d. X Xd.u.u.u.I.y.y.y.d.d.d.y.y.y.y.y.T > + ( ) Y 1 +.h.l.l.G.N.S.|.|.|.|.S.G.",
"l.C.l.l.H.|.|.|.|.H.k.s.N / / ` + L t.t.t.y.t.i.t.p.a.a.a.a.a.a.p.u.t.t.t.t.p.p.t.i.t.t.y.h + ` R ` 1 f.h.l.l.l.N.N.l.l.H.C.l.l.",
"l.l.l.l.S.S.G.l.S.G.v.e.< R Y ` > g ` i.i.` ` / R ) i.` ~ ~ R Y Y Y Y ( t.R R ` ` i.i.` ` c + ` Y R < +.g.g.l.l.l.l.l.l.l.l.l.l.",
"l.l.l.l.l.l.l.l.k.k.f.+.< h P ( P g U Y N g Y ( _ i.i.i.` t.t.t.` ( i.i.i.t.` ) U P h U / h % Y I / M *.-.-.m.l.C.H.|.l.l.l.l.l.",
"l.l.l.l.l.l.l.l.l.k.g.&.n o & U $ & U ( ) P P y.t.` ` ` N P N > : $ Y ` i.t.t.` P P y.T N O + = - > n *.-.7.).F.H.H.H.H.|.B.0.m.",
"0.l.l.0.0.0.N.0.m.k.;.*.#.1 1 1 %.b b , m m m B r.r.B m +., m +.+.@., $.r.r.=.$.B m +.1 #.m b q.1 $.#.*.j.m.0.x.).G.G.).0.m.b.0.",
"b.l.b.0.0.0.0.0.0.:.g.h.f.q.%.q.q.q.q.f.w.q.q.q.w.w.w.q.-.&.&.&.;.;.g.f.*.*.*.*.*.*.*.-.g.q.f.+.q.q.q.q.f.k.m.M.m.N.m.m.N.n.n.N.",
"0.0.0.x.l.l.N.N.l.l.k.l.;.,.>.q.,.,.f.D.V.1.>.>.1.,.,.-.-.-.-.:.;.:.0.-.-.f.f.q.h.g.f.h.j.g.>.G &.;.>.f.v.].].4.3.b.3.3.9.0.0.0."
};
