/* XPM */
static char *result[] = {
/* columns rows colors chars-per-pixel */
"64 64 198 2 ",
"   c #1E202F",
".  c #1C2531",
"X  c #232330",
"o  c #2D2730",
"O  c #2C2932",
"+  c #342C32",
"@  c #3A2F32",
"#  c #2D3233",
"$  c #2E3831",
"%  c #343433",
"&  c #3B3534",
"*  c #3B3933",
"=  c #423B35",
"-  c #473739",
";  c #47393B",
":  c #4C3B3C",
">  c #513E3D",
",  c #59453C",
"<  c #505B37",
"1  c #545D38",
"2  c #585A3B",
"3  c #644B3C",
"4  c #684E3D",
"5  c #6B513E",
"6  c #70543F",
"7  c #4C623E",
"8  c #5A673A",
"9  c #5E723D",
"0  c #6D6B3F",
"q  c #62743B",
"w  c #69773D",
"e  c #4E3E41",
"r  c #564242",
"t  c #5C4641",
"y  c #505B40",
"u  c #644B44",
"i  c #694E45",
"p  c #664D49",
"a  c #6C5246",
"s  c #6C5149",
"d  c #735643",
"f  c #745A43",
"g  c #7A5A46",
"h  c #73564C",
"j  c #77594D",
"k  c #795A4D",
"l  c #7F5E50",
"z  c #4C6A46",
"x  c #546A45",
"c  c #587040",
"v  c #587749",
"b  c #626A48",
"n  c #766346",
"m  c #7A6547",
"M  c #7D6548",
"N  c #7E6A49",
"B  c #767341",
"V  c #7C7743",
"C  c #7A7843",
"Z  c #597D64",
"A  c #815F44",
"S  c #815F4A",
"D  c #805F50",
"F  c #866246",
"G  c #896446",
"H  c #86644C",
"J  c #8B664B",
"K  c #836C4A",
"L  c #8C6848",
"P  c #946C4D",
"I  c #996F4B",
"U  c #897D4A",
"Y  c #94754F",
"T  c #9C724D",
"R  c #856252",
"E  c #886553",
"W  c #8E6953",
"Q  c #936C53",
"!  c #986F54",
"~  c #8D7250",
"^  c #9E7353",
"/  c #977850",
"(  c #967953",
")  c #A1754E",
"_  c #A2784F",
"`  c #A17654",
"'  c #A67953",
"]  c #AC7D54",
"[  c #6B8549",
"{  c #708740",
"}  c #748A41",
"|  c #798A42",
" . c #7D9847",
".. c #658D56",
"X. c #698F53",
"o. c #718F57",
"O. c #679057",
"+. c #6D965A",
"@. c #7A9853",
"#. c #729C5B",
"$. c #7EA85F",
"%. c #6E8C6B",
"&. c #6F9C6E",
"*. c #749B6E",
"=. c #669175",
"-. c #6B9373",
";. c #6D9970",
":. c #729672",
">. c #7C9971",
",. c #77A562",
"<. c #78A763",
"1. c #77A863",
"2. c #7AA863",
"3. c #75A169",
"4. c #7CA169",
"5. c #868947",
"6. c #93894B",
"7. c #849D46",
"8. c #859D49",
"9. c #8E9C49",
"0. c #939E4B",
"q. c #9D9A4E",
"w. c #9C8255",
"e. c #9C8C50",
"r. c #969755",
"t. c #A09C4F",
"y. c #A18657",
"u. c #AE8254",
"i. c #A38758",
"p. c #A48858",
"a. c #AF8E5E",
"s. c #B38355",
"d. c #B58B5B",
"f. c #BB8E5B",
"g. c #AC9253",
"h. c #A39F50",
"j. c #B4915D",
"k. c #BF925D",
"l. c #87A349",
"z. c #8FAB4A",
"x. c #95A24B",
"c. c #9BA74E",
"v. c #91AC4A",
"b. c #96B34C",
"n. c #99B64E",
"m. c #9BB94E",
"M. c #8CAA51",
"N. c #84AD5D",
"B. c #89AE5C",
"V. c #97AE5F",
"C. c #8FB357",
"Z. c #8CB159",
"A. c #94B553",
"S. c #98B751",
"D. c #99B850",
"F. c #93B15B",
"G. c #9DB15D",
"H. c #A5A253",
"J. c #A2AC51",
"K. c #A9AD52",
"L. c #B1AD56",
"P. c #A8B554",
"I. c #A4B951",
"U. c #ABB954",
"Y. c #A3B25E",
"T. c #ABB45D",
"R. c #B2B657",
"E. c #B2BA56",
"W. c #B5B65D",
"Q. c #BAB65B",
"!. c #B7BA58",
"~. c #BEBA5B",
"^. c #829C70",
"/. c #B69262",
"(. c #BE9762",
"). c #B79860",
"_. c #BB9B62",
"`. c #83A665",
"'. c #82AB61",
"]. c #8AAB61",
"[. c #8DA06D",
"{. c #93AD61",
"}. c #98AF60",
"|. c #94A46B",
" X c #9AA769",
".X c #9CB060",
"XX c #A3AB66",
"oX c #A9AE64",
"OX c #AEB163",
"+X c #B4B460",
"@X c #C0BA5B",
"#X c #C49C62",
"$X c #C89E64",
"%X c #CAA467",
"&X c #CCA568",
"*X c #CEA869",
"=X c #D3AF6D",
"-X c #D5B16E",
/* pixels */
"m.B.E.E.E.E.E.E.I.m.m.U.G.Z.N.1.oX1.1.1.2.2.1.1.C.S.m.m.m.D.E.m.m.m.C.P.E.E.E.E.E.U.m.m.m.E.B.B.1.{.{.1.1.2.2.2.1.Z.Z.m.m.m.m.E.",
"m.m.m.m.m.m.m.m.U.I.m.m.m.m.m.m.S.B.N.1.1.1.2.1.2.1.1.C.Z.1.2.2.m.m.m.m.D.m.m.m.m.I.U.m.m.m.m.m.m.m.N.B.1.1.1.<.2.1.1.1.Z.A.1.,.",
"m.m.m.m.m.I.I.~.~.~.U.I.m.m.A.C.Z.2.1.2.D.m.2.1.1.1.B.'.N..X~.}.m.m.m.m.m.m.D.U.U.~.~.~.I.m.m.S.A.A.1.1.1.Z.D.B.2.1.1.N.'.B.].~.",
"m.m.m.m.m.m.!.@XI.m.~.~.E.m.m.m.m.m.m.m.m.m.Z.N.C.m.I.~.I.~.~.~.I.m.m.m.m.m.m.I.~.E.m.~.~.~.m.m.D.m.m.m.m.m.m.D.'.N.D.I.!.U.E.~.",
"~.I.I.I.A.m.m.m.m.m.m.m.m.m.m.m.m.m.m.m.m.m.m.m.m.P.W.~.W.T.2.W.~.@XU.I.I.D.D.m.m.m.m.m.m.m.m.m.m.m.m.m.m.m.m.m.m.m.D.W.W.!.W.2.",
"'.2.2.2.2.2.2.2.S.S.S.S.m.m.m.m.m.m.m.m.m.m.m.D.Z.1.2.D.2.2.2.2.'.2.'.2.2.2.2.2.2.S.D.S.D.D.m.m.m.m.m.m.m.m.m.m.D.D.2.2.A.N.2.2.",
"2.2.2.1.2.1.2.2.2.2.C.D.m.m.m.m.m.m.m.m.m.m.D.D.S.D.m.m.m.m.2.2.2.2.2.2.1.1.2.2.2.2.2.'.D.D.m.m.m.m.m.m.m.m.m.D.D.S.m.m.m.m.D.Z.",
"m.Z.S.A.'.S.S.m.m.m.m.m.m.m.m.m.m.A.*.:.F.m.4.:.;.D.m.m.~.E.D.2.D.D.D.C.D.1.S.S.D.m.m.m.m.m.m.m.m.m.m.;.:.4.m.A.:.;.F.m.m.U.~.m.",
"m.m.m.m.m.I.!.!.I.m.m.D.m.D.D.D.:.:.+X:.-.:.-.+X+X;.m.~.~.~.~.'.D.m.m.m.m.m.m.!.!.!.m.m.D.D.m.m.S.].=.+X X-.*.;.OX+X>.F.U.~.@X~.",
"m.U.!.@X@X@X@X~.m.m.`.=.-.;.:.-.=.~.@X@X+X>.W.@X~.~.+X~.~.~.~.~.D.I.m.!.~.~.@X~.@XI.m.D.=.=.=.*.=.=. X@X@XQ.XXOX~.~.~.+X~.@X~.~.",
"m.m.U.I.I.U.I.D.;.*.=.W.W.=.^.@XoX>.@X@X@X@X@X~.~.~.@X@X~.@X~.~.~.m.m.U.U.I.I.U.m.*.-.=.oX~.>.=.W.+X[.@X@X@X~.~.~.@X@X~.@X~.@X~.",
"@XU.m.m.m.D.E.4. X~.XX@X@X@X@X@X@X@X~.}..XW.@XE.m.D.E.@X{.2.~.~.@X@XE.m.m.m.m.E.4.:.~.oX~.~.@X@X@X@X@X~.W.}.XX~.~.D.m.U.@XT.1.T.",
"m.m.m.I.E.@X@X@X@X@XE.m.I.@X~.m.Z.G.G.2.2.2.m.I.m.A.Z.1.1.1.U.U.U.m.m.m.m.U.@X@X@X@X~.~.m.m.!.@XI.A.F.}.1.2.1.m.U.m.D.Z.2.2.2.F.",
"m.m.U.~.U.m.U.@XE.D.m.m.m.U.E.A.2.2.1.1.2.N.Z.D.A.<.2.2.B.2.2.m.m.m.m.U.!.!.m.D.@X~.U.m.m.m.U.!.m.1.<.2.1.2.2.Z.Z.m.2.1.2.Z.1.1.",
"m.m.m.m.m.m.m.m.m.m.m.A.C.Z.B.1.2.N.2.1.1.2.2.2.2.1.2.m.m.m.N.B.D.m.m.m.m.m.m.m.m.m.m.m.m.C.C.Z.<.2.B.N.2.2.1.1.2.1.1.1.A.m.m.B.",
"m.m.m.2.2.m.m.m.m.m.m.m.m.B.'.1.m.m.D.B.m.Z.2.2.2.m.'.A.m.m.m.m.m.m.m.m.B.2.S.m.m.m.m.m.m.m.Z.B.2.Z.m.m.2.m.S.B.1.2.S.Z.B.m.m.m.",
"N.A.1.2.2.D.m.m.m.m.m.!.E.m.m.I.I.m.m.m.m.m.m.m.m.m.m.m.m.m.m.m.2.<.A.N.1.2.B.m.m.n.m.m.P.@Xm.m.I.I.I.m.m.m.m.D.m.m.m.m.m.m.m.m.",
"2.1.2.2.1.2.2.S.S.D.~.~.~.~.~.~.~.W.S.m.A.A.N.1.N.b.D.A.D.m.n.2.2.<.,.2.2.2.1.2.A.S.S.~.@X@X@X@X~.~.W.T.m.A.A.A.1.2.A.m.A.A.m.m.",
"2.2.1.2.2.2.1.2.S.m.m.!.~.Q.Q.T.$.$.$.1.<.2.,.,.$.$.*.$.$.1.3.,.,.,.2.,.,.,.,.,.$.B.m.n.R.Q.Q.Q.R.V.$.2.<.2.2.<.2.1.<.2.2.<.<.1.",
"A.D.].=.-.<.D.m.I.E.~.H.* * * * * * % 8 [ r.K F G 5 % @ # # % % * & $ * % % % 8 | } | = = * = * * $ l.S.S.C.2.2.2.2.2.2.3.<.=.=.",
":.;.[.W.:.-.F.I.~.~.~.6.w.F ] u.] s.s.] u.] s.] ] ] ] ] ] ] ] ] k.#X_.#Xf.] ] ] u.] d.#Xf.] ] ] P 4 } m.2.2.2.1.2.2.2.;.-.:.:.-.",
"@X+X@X~.~.+XW.I.m.m.m.5.i.j.- H ' /././.( p i s s s s d i h W W W E a a s p a i i i a a ` ` J ; ( j.} m.m.S.S.2.2.2.3.=.XX+X@X~.",
"@X@X~.~.@X~.@XI.!.I.D.$ w.*Xr s E E D E D s i u W S Q ` Q D E D R R E E E R E R R R E ^ W D D ; *Xp.$ m.m.m.m.S.W.W.+XXX~.~.~.@X",
"E.~.~.U.~.@X~.~.~.~.b.* j._.O ; s l E E E D D j D D D E W D D D R E R E R R R R R R R E i h e & _.j.$ m.m.m.m.~.D.I.@X~.@X~.I.E.",
"D.I.m.m.~.@X~.~.~.~.R.= *Xy.  r p s h h j k k S h h h h S k k S j j j h h s h h h h h h s p e + i.*X* P.m.m.m.m.m.m.m.m.!.U.m.m.",
"m.m.m.m.I.U.U.m.I.U.c.* -XY   u p i i g ' ] ] ] T A A S ) ] ] ] s.u.` P F F F F F F i i i i u   / -X* z.m.m.m.m.m.m.m.m.m.m.m.m.",
"m.m.m.m.m.m.m.m.m.m.l.* =Xj , Q s.s.] ] s.f.s.s.s.s.s.s.s.s.s.s.s.s.s.s.s.s.s.s.s.s.s.s.s.' Q : H -X* #.2.2.Z.D.U.~.@XI.m.m.m.m.",
"A.m.m.S.Z.m.m.m.m.m.7.* =Xi u ^ s.s.s.s.s.s.s.s.s.s.s.s.f.s.s.s.s.s.s.s.s.s.s.s.s.s.s.s.s.s.s.i i =X& ..1.2.'.Y.@X@X~.@X@X].1.Z.",
"B.m.S.1.1.2.C.2.Z.m.v & %Xi i s.s.s.s.s.s.s.s.s.s.s.s.s.s.s.s.s.s.s.s.s.s.s.s.s.s.s.s.d.s.s.s.a t %X& z m.D.B.B.B.E.U.N.B.A.A.B.",
"N.m.B.1.B.B.1.1.N.B.9 G j.j R s.s.s.s.s.s.s.s.] s.s.s.s.s.s.] ] s.s.s.s.s.s.s.s.s.s.s.s.s.s.s.j s j.G q D.A.].B.B.D.Z.B.A.N.N.A.",
"1.2.2.N.D.m.m.m.m.z.9 w.y.R R Q s.` ^ ! ' s.k.#X$X] ] ] ] T ) ^ ` s.s.s.f.#X$Xs.s.s.s.s.s.s.Q s l p.y.9 J.@XQ.^.-.].=.[.&.1.1.2.",
"m.2.2.S.A.A.A.m.m.M.9 w.y.u u i g s i G ` ] L L P G L L L L ^ ` ^ ` ` ` L L L ` s.s.s.s.s.^ k r u p.w.b L.@X@X@X^.=.+X~. XoXT.1.",
"m.A.2.2.].].].].R.%.B y.i.t R s.s.s.s.s.s.s.s.s.s.s.s.s.s.s.s.s.s.s.s.s.s.s.s.s.s.s.s.s.s.d.] R u p.y.B L.T.2.W.~.[.~.m.~.@X@X~.",
"m.2.W.!.~.!.~.~.I.7.% j.i.u ^ s.s.s.s.s.s.s.s.s.s.d.s.s.s.s.s.s.s.s.s.s.s.d.s.s.s.s.s.s.s.s.s.^ u p.j.O +.1.2.2.2.A.D.m.m.m.m.~.",
"m.m.m.m.m.m.m.m.v.7.& *Xi.u ^ s.s.s.s.s.s.s.s.s.s.s.s.s.s.k.s.s.s.s.s.s.s.s.s.s.s.s.s.s.s.s.s.` u p.=X% ..1.2.2.2.2.<.2.A.m.2.2.",
"m.m.m.m.m.D.D.!.L.t.* -X/ u ^ s.s.s.s.s.f.$X%Xs.s.f.s.s.s.s.s.s.s.s.s.s.s.s.k.%Xk.s.s.s.s.s.s.' , Y -X* ..N.S.2.2.2.2.2.2.2.2.~.",
"m.m.m.m.m.I.!.@XJ.| * -XP r H P ' ] s.s.k.$X$X$Xk.y.y.G G G G F F F G G u.y.p.p.u./ G G G G P Q ; Q -X% { z.m.D.2.2.S.m.U.U.U.@X",
"!.m.m.m.m.m.m.I.m.q 5 =Xs r R s.] s.s.s.s.s.s.s.s.s.s.] ' ^ W R D R ! T s.s.s.s.s.s.s.s.] s.] E r a -X5 q v.m.m.m.m.m.~.@X@X@X].",
"{.{.}.].1.'.B.'.v.q G -Xa s ` s.s.s.s.s.s.s.s.s.s.s.s.` ` ^ P G F F G ) s.s.s.s.s.s.s.s.s.s.s.' h s -XG q z.m.m.m.D.2.1.B.B.2.2.",
"1.2.2.2.2.1.1.1.#.z w.-Xs E s.s.s.s.s.s.s.s.s.s.s.s.s.s.s.s.s.s.s.s.` ` s.s.s.s.s.s.s.s.s.s.s.] E s -Xy.q z.m.m.A.C.C.S.m.m.Z.B.",
"m.B.C.Z.2.C.C.D.7.q y.-Xa g ] s.f.] s.s.s.s.s.f.s.s.s.s.s.s.s.s.s.s.s.s.s.s.s.s.s.s.s.s.s.s.s.] k s -Xy.z o.m.D.4.`.A.D.D.U.E.m.",
"m.D.m.m.m.D.U.U.8.q y.-Xa i ^ s.s.s.] ] s.s.s.s.s.s.) G ) s.s.s.s.s.s.s.s.s.s.s.s.s.s.s.s.s.s.` i p -Xi.x Z `.=. X X:.A.U.@X~.~.",
"m.I.U.~.@X@X@X~.8.% j.#Xa : h Q ) ^ ^ ^ ) ] ] s.u.] + f _.K u.%Xk.s.s.s.] s.s.s.` ^ ' ` ` ^ Q R u a #Xa.& r.[. X~.~.@XXX!.@X~.~.",
"m.I.E.E.E.E.E.v.Z % &X] R o i F J S i g A G G L G 3 4 P , _._.K #Xk.s.] G G G G A G i i i F F i > R ] &X* h.~.@X~.~.@X~.@X~.@X~.",
"@XI.m.m.D.D.P.B.%.= -XY D i ' s.s.s.s.s.] A ) ] u.@ I ! s.) K w.F s.s.s.s.s.s.s.s.s.s.s.s.s.s.] i D ~ =X* r.OXW.@XD.m.E.@XW.1.W.",
"m.m.m.m.U.@X~.Q.q.= -Xp.D D s.s.s.s.s.s.6 g u.6 S 3 ' s.' ] N n ) s.s.s.s.s.s.s.s.s.s.s.s.s.s.s.R R p.-X& v $.b.E.m.m.A.B.1.2.F.",
"m.m.I.~.E.m.!.L.5.& -Xi.D l s.s.s.s.s.T + F T ).N d ` s.! ) _.5 s.s.s.s.s.s.s.s.s.s.s.s.s.s.s.] R D p.-X& z #.S.S.m.2.2.2.'.2.2.",
"m.m.m.I.m.m.m.v.q = *Xi.D h ^ s.] ` ^ 3 A s.d.M _.m T ^ s.u.n g ` ] s.s.k.#X#Xs.s.s.s.s.s.s.s.' j D y.=X* z 2.2.2.2.2.1.A.m.D.2.",
"m.m.m.2.N.m.m.z.q w.%XY k : g F g g k @ ] k.(.] ' ( g ' T _.& F H E E E d L L ) s.s.s.s.s.` ` G > k ! $Xw.q C.$.$.1.A.N.C.m.m.m.",
"Z.m.2.2.2.m.m.7.q Y G u , u ' s.] ] 3 A ] k.^ s.#X= T u.F n g ] E D R D ' s.s.s.s.] s.s.] s.s.' u > , s.w.9 z.m.S.S.m.m.D.D.m.m.",
"2.2.2.2.2.2.'.8.w P 5 y.y.p.y.p.p.M + ^ ' ' ] s.w.> ` G w.& F F / p.p.p.j.%X$Xp.p.p.p.p.p.p.p.p.y.p.w.5 F 9  .A.$.$.m.m.D.D.m.m.",
"1.2.2.2.2.2.2.O.c + F p.#Xp.p./.p.n A ! ] ! s.%X- D ` K ( d ` ' /.a.p.p.p.p.p.k.a.p.p.p.p.p.p.p.p.p.y.4 O z O.1.1.2.2.N.1.1.N.N.",
"A.A.].;.&.<.A.8.q d ] s.s.s.s.s.I @ ] s.s.s.f w.: E F w.= R R ] ] ] ] ] s.] ] ] s.] s.s.s.s.s.] s.u.s.] d 9 +.,.2.2.1.1.1.1.-.=.",
"=.4.>.oX-.=.A.8.0 u ^ s.s.s.s.s.3 F s.s.s.) ( = h ^ f ( t R g F G G G ) s._ G I ] s.] u.s.s.s.s.s.s.' ^ t z $.1.1.1.1.3.-.;.=.=.",
"~.XX~.~.W.XXXX0.w : P ` ` s.' P @ s.s.] s.6 w.: E T w.& u E ' s.s.] s.s.s.s.s.] ` G 6 5 i P ` ] s.` ^ P : c @.$.2.2.1.-.|.+X~.+X",
"~.~.~.~.@X@X~.v.| , u P T T ] 3 A s.s.! T w.n h ` ' ).O X t = A = @ ) s.s.s.s.] ] A F ] ] T g ] T G F i , { l.Z.XXoX X[.~.~.~.@X",
"!.@X~.E.@X~.@XH.t.C q < 1 7.< + ] s.' ' G w., R s.*XK 0 2 2 q.V q.5.* U e.g.g.6.V B B w w 2  .1 <  .< { { } l.~.m.U.@X@X@X@XE.!.",
"m.I.m.m.~.@X@X!.@XK.0.t.t.q.< A ] s.` ] N n h ! j.k.8 t.7.7.8.0.7.7. .x.b.J.h.t.h.h.h.0.t.H.h.9.x.x.0.l.7.l.z.m.m.m.m.m.~.U.m.m.",
"m.m.m.m.E.E.E.m.P.K.R.R.c.} @ T d.s.] L ).& R g _.y.{ 7.7.7.8.l.z.z.v.b.m.J.E.E.n.n.K.K.E.E.v.v.l.C. .z.z.b.m.m.m.m.m.m.m.m.m.m.",
"m.m.m.m.m.m.m.m.m.m.m.m.A.7 F s.$Xs.s.$Xy.; D = w.* 9 7.l.v.n.S.A.n.m.m.m.m.m.m.m.m.m.m.m.m.A.2.1.2.1.N.2.2.A.m.I.!.@Xm.m.m.m.m.",
"m.m.m.m.S.D.m.m.m.m.m.A.O.% ] u.k.s.p.-Xy 2 y q.6.0 5.B 2.'.A.2.2.A.m.m.m.A.S.D.D.m.m.m.S.N.<.'.$.N.1.2.2.2.].W.@X@X~.@X~.{.1.S.",
"2.m.m.2.2.N.S.2.A.m.$.$.7 g 6 d.] T p.p.x X.o.@.E.T.N.$.m.2.'.m.S.2.S.m.Z.$.1.b.A.'.m.N.2.2.'.m.m.m.Z.2.m.A.2.'.'.W.!.'.N.C.C.2.",
"Z.m.A.2.2.2.2.2.2.2.A.m.8 , F G ' f =XN  .8.M.S.m.A.S.S.2.D.S.S.2.2.m.m.2.2.2.2.2.2.2.N.m.m.D.m.m.m.m.D.D.D.A.D.D.D.A.A.D.Z.Z.D.",
"2.2.2.'.m.m.D.D.m.m.m.m.o.. X 3 T w._.C H.^.-.;.`.-.-.1.2.2.1.2.2.2.2.2.1.m.m.D.D.n.m.m.m.S.;.;.].`.;.m.I.~.OX-.-.F.-.:.3.2.1.2."
};
