/* XPM */
static char *result[] = {
/* columns rows colors chars-per-pixel */
"64 64 205 2 ",
"   c #161C2E",
".  c #1C1F2F",
"X  c #1C1F30",
"o  c #1E202F",
"O  c #1F2031",
"+  c #22262F",
"@  c #242331",
"#  c #2B2632",
"$  c #242B32",
"%  c #2C2B32",
"&  c #342C33",
"*  c #382E35",
"=  c #2D3332",
"-  c #2A3533",
";  c #343434",
":  c #3C3236",
">  c #3A3B34",
",  c #3D333D",
"<  c #43363B",
"1  c #423B3B",
"2  c #4C3B3B",
"3  c #503D3C",
"4  c #344032",
"5  c #4A453C",
"6  c #53403D",
"7  c #495837",
"8  c #5B5A3A",
"9  c #644A3C",
"0  c #684D3D",
"q  c #56663A",
"w  c #566C3D",
"e  c #5A6C3A",
"r  c #696C3E",
"t  c #63753C",
"y  c #6C743F",
"u  c #4E3E42",
"i  c #4F3F48",
"p  c #503E42",
"a  c #324844",
"s  c #534144",
"d  c #5C4644",
"f  c #51414A",
"g  c #5D484D",
"h  c #435B43",
"j  c #5E4A52",
"k  c #634B44",
"l  c #674E4A",
"z  c #6B5249",
"x  c #73564B",
"c  c #795B4E",
"v  c #624C53",
"b  c #6C5352",
"n  c #6E5952",
"m  c #6C545B",
"M  c #73595A",
"N  c #7D5E5D",
"B  c #4A6644",
"V  c #556A4E",
"C  c #59794A",
"Z  c #6B7D4D",
"A  c #7A7643",
"S  c #777846",
"D  c #7B6655",
"F  c #795D60",
"G  c #7E6061",
"H  c #815F44",
"J  c #805E4A",
"K  c #815F51",
"L  c #846145",
"P  c #896548",
"I  c #9D724D",
"U  c #846152",
"Y  c #886453",
"T  c #81615E",
"R  c #916E51",
"E  c #956D54",
"W  c #A47854",
"Q  c #AD7E53",
"!  c #826363",
"~  c #8B6866",
"^  c #8D6B65",
"/  c #906C67",
"(  c #936E69",
")  c #8C7164",
"_  c #96716A",
"`  c #97776B",
"'  c #99756C",
"]  c #9E7B70",
"[  c #A17C71",
"{  c #6C823F",
"}  c #5F804D",
"|  c #6B8544",
" . c #718740",
".. c #738A40",
"X. c #7B974B",
"o. c #648154",
"O. c #658D56",
"+. c #6B9256",
"@. c #719654",
"#. c #729A58",
"$. c #7CA45B",
"%. c #5C846D",
"&. c #6F9C6E",
"*. c #749C6E",
"=. c #669175",
"-. c #6B9473",
";. c #6D9970",
":. c #729672",
">. c #719870",
",. c #7C9971",
"<. c #76A664",
"1. c #78A764",
"2. c #77A863",
"3. c #7AA863",
"4. c #75A169",
"5. c #7CA169",
"6. c #868847",
"7. c #8D8A49",
"8. c #829C46",
"9. c #849C49",
"0. c #8B9B49",
"q. c #959B4C",
"w. c #9C9C4E",
"e. c #8D9652",
"r. c #969951",
"t. c #A09C4F",
"y. c #B38255",
"u. c #A29E50",
"i. c #BE925D",
"p. c #86A047",
"a. c #89A449",
"s. c #8FAB4B",
"d. c #97A94D",
"f. c #95B34C",
"g. c #99B64E",
"h. c #9BB94E",
"j. c #84AD5D",
"k. c #89AE5C",
"l. c #93AB56",
"z. c #8FB357",
"x. c #8CB159",
"c. c #94B553",
"v. c #98B751",
"b. c #99B850",
"n. c #93B15B",
"m. c #9DB15D",
"M. c #A0B94F",
"N. c #A6A652",
"B. c #ABAC53",
"V. c #ABAD53",
"C. c #A3B552",
"Z. c #A4B951",
"A. c #ABB954",
"S. c #AEB856",
"D. c #A3B25E",
"F. c #ABB55D",
"G. c #B2B756",
"H. c #B3BA56",
"J. c #B5B65D",
"K. c #BAB65B",
"L. c #B7BA58",
"P. c #BEBA5B",
"I. c #879D6E",
"U. c #A58D69",
"Y. c #AA916C",
"T. c #A58373",
"R. c #A98576",
"E. c #AD8978",
"W. c #B08D76",
"Q. c #B28D7C",
"!. c #B6927D",
"~. c #BB997C",
"^. c #83A665",
"/. c #82AA61",
"(. c #8AAB61",
"). c #8DA16D",
"_. c #93AD61",
"`. c #99AF60",
"'. c #95A46B",
"]. c #9AA769",
"[. c #9CB060",
"{. c #A3AB66",
"}. c #A9AE64",
"|. c #AEB163",
" X c #B3B461",
".X c #C0BA5B",
"XX c #C79E63",
"oX c #C99F64",
"OX c #D0A969",
"+X c #D7B26E",
"@X c #D9B36F",
"#X c #C3A67A",
"$X c #D9B470",
"%X c #BB9682",
"&X c #BD9882",
"*X c #C09B83",
"=X c #C7A385",
"-X c #C8A585",
";X c #CEAB85",
":X c #D1AE87",
">X c #D5B487",
",X c #D9B689",
"<X c #DDBB8A",
"1X c #E1BF8B",
"2X c #E3C18C",
/* pixels */
"h.j.H.H.H.H.H.H.M.h.h.Z.Z.x.j.2.D.3.2.2.2.3.2.2.z.c.b.b.b.b.L.h.h.h.z.A.H.H.H.A.H.H.h.h.h.H.k.k.2._._.2.2.2.3.3.2.x.z.h.h.v.h.A.",
"h.h.h.h.h.h.h.h.Z.Z.h.h.b.b.b.v.v.k.j.3.2.2.3.3.2.3.2.c.x.2.2.3.h.h.h.h.v.h.h.h.h.Z.Z.h.h.h.h.b.h.h.k.k.3.2.2.3.3.2.2.2.x.c.2.3.",
"h.h.h.h.h.Z.Z.P..X.XH.Z.h.h.c.c.n.3.3.3.v.h.3.2.3.3.j.j.j.`.P.`.h.h.h.h.h.h.Z.Z.A..XP.P.Z.b.h.v.z.c.2.2.3.x.b.k.3.2.3.j.j.j.(.P.",
"h.h.h.h.h.h.L..XZ.h.P.P.H.h.b.v.h.h.h.h.h.h.x.j.z.b.Z.P.Z.P.P.P.Z.h.h.h.h.h.b.Z.L.H.h.L..X.XM.h.h.h.h.h.h.h.h.v.3.k.v.Z.L.H.H.P.",
".XM.Z.b.v.h.h.h.h.h.h.h.h.h.h.h.h.h.h.h.h.h.h.b.b.A.L.K.L. X3.L.P.P.A.Z.Z.c.b.h.h.h.h.h.h.h.h.h.h.h.h.h.h.h.h.h.h.v.v.L.L.L. X3.",
"3././.3.3.3.3.3.v.v.v.v.h.h.h.h.h.h.h.h.h.h.h.v.x.2.3.v.3.2.3.3././.3.3./.3.3.3.3.v.v.v.v.v.h.h.h.h.h.h.h.h.h.h.v.v.2.3.z.x.3.3.",
"3.3.3.3.3.2.3.3.3.3.n.b.h.h.h.h.h.h.b.b.h.h.b.v.v.v.h.h.h.b.3.3.3.3.2.3.3.3.3.3.3.3.3./.h.v.h.h.h.h.h.h.h.h.h.b.v.v.h.h.h.h.v.z.",
"h.z.v.n./.v.v.v.h.h.h.h.h.h.h.h.b.c.>.>.c.h.5.>.;.v.h.h.L.L.b.3.b.b.v.z.v.2.v.v.h.h.h.h.h.h.h.h.h.h.h.;.;.5.h.c.;.>.n.h.h.H.L.v.",
"h.h.h.Z.h.Z.L.L.M.h.b.b.b.b.b.b.>.:. X:.-.*.=. X X-.h.P..XP.L./.v.h.h.h.h.h.h.L.L.H.h.h.v.h.v.h.v.(.=. X].-.*.=.|. X,.n.H.P.P.P.",
"h.Z.L..X.X.X.XP.h.h.^.=.-.;.>.-.=.K..X.X X,.P.P.P.P. X.XP..X.XP.b.h.M.L..X.X.X.X.XZ.b.b.-.=.=.*.=.=.].P..XK.{. X.XP..X XP.P.P.P.",
"h.Z.Z.Z.Z.Z.Z.b.;.*.=.K. X=.I..X|.,.P.P..X.X.XP.P.P.P.P..XP.P.P..Xh.h.Z.Z.A.Z.Z.b.*.-.-.{..X,.=. X X)..X.XP.P.P.P..X.X.XP.P..XP.",
".XZ.h.h.h.Z.H.5.]..X{..XP..X.X.X.X.XP.[.`. X.XL.h.h.L..X_.3.P.P..X.XL.h.h.h.b.L.5.>.P.}.P.P.P..X.X.X.XP.L.`.{.P.P.b.h.Z..XF.2.F.",
"h.h.h.Z.H..XP..X.XP.H.b.Z.P.L.h.k.m.`.3.2.2.h.Z.h.c.x.2.2.3.A.A.A.M.h.h.h.H..X.X.X.X.XP.h.h.L..XZ.c.n.`.2.3.2.v.A.h.v.x.3.2.3.n.",
"h.h.A..XA.h.A..XH.h.h.h.h.H.H.c.3.2.2.3.2.x.x.v.c.2.3.3.k.2.3.v.h.h.h.Z.L.L.h.b..XP.A.h.h.h.A.L.h.3.3.3.3.3.3.z.z.h.3.3.3.z.<.2.",
"h.h.h.h.h.h.h.h.h.h.h.c.z.x.k.2.3.x.3.2.2.2.3.3.3.3.3.h.h.v.k.x.b.h.h.h.h.h.h.h.h.h.h.h.b.z.z.z.2.2.x./.3.2.3.3.2.2.2.3.c.h.b.x.",
"h.h.b.3.3.h.h.h.h.h.h.h.h.k./.3.h.h.v.k.h.x.3.3./.h.3.c.h.h.h.h.h.h.h.h.k.2.v.h.h.h.h.h.h.h.x.k.2.z.h.h.3.h.v.j.2.3.c.x.x.h.h.v.",
"k.c.3.2.3.v.h.h.h.h.h.L.H.h.v.Z.Z.h.b.h.h.h.h.h.v.h.h.h.h.h.h.h.3.3.c.j.2.3.k.h.h.h.h.h.Z..Xh.g.Z.Z.Z.h.h.h.h.h.h.h.h.h.h.h.h.h.",
"2.2.3.2.3.3.3.c.c.b..X.XP.P..XP.P.L.v.b.c.c.j.3.x.c.v.c.v.h.h.3.3.2.<.3.3.3.2.3.c.c.g.P..X.X.X.XP.P.J.F.v.c.c.c.3.3.c.v.c.c.h.h.",
"3.3.3.3.3.3.3.3.v.h.h.P..X.XP.L.3./.3.3.3.3.3.3.3.3.3.3.3.1.<.3.3.3.3.3.1.3.3.3.$.k.g.h.L..X.X.XL.[.$.3.3.3.3.3.3.3.2.3.3.3.3.<.",
"c.v.(.=.;.3.b.h.M.H.P.P.P..Xh.v.b.b.v.c.3.3.1.3.3.3.3.1.4.=.=.-.c.c.h.c.=.=.<.k.h.h.M.P.P..X.XA.b.b.b.b.c.z.3.3.3.3.3.3.<.3.=.=.",
":.;.).K.:.=.n.Z..XP.P.P.P.H.h.h.h.h.v.3.3.3.3.3.3.3.=.=.:.:.=.=.-.:.-.-.K.].=.,.b.P.P.L..X.X.Xh.h.h.h.h.3.3.3.3.3.3.1.;.=.:.:.-.",
".X XP.P.P. X XZ.h.h.h.H.P..XZ.H.h.h.h.h.v.v.2.3.3.*.=. X.XP. X:.P..X XP.P..XJ.J.L.M.h.h.C.N.7.C.L.h.h.h.h.v.v.3.1.3.1.=.{. X.XP.",
".X.XP..XP..X.XZ.L.Z.h.h.b..XH.Z.H.h.h.h.h.h.F.L. X'. XP.P..XP.P..X.X.X.XP.P..X.XH.L.H.a.e # & r Z.A.h.h.h.h.h.b. XL. X{..XP..XP.",
"H..XL.A..XP..X.X.X.Xh.A.A.h.v.v.h.h.h.h.h.h.A.v.G.P..XP.L.Z.P..X.XZ..X.XC.K.P..XP.N.7.> H I Q 0 e b.h.h.h.h.h.L.v.Z.P..XP.P.Z.H.",
"v.Z.h.h..X.X.X.XP..XL.P..XL.L.H.L.H.h.h.b.h.h.f.e 4 h.7.w b.h.Z.f.....a.t > 6.7.r # 2 R y.y.y.Q 9 r G.A.h.h.h.h.b.b.h.h.H.A.h.h.",
"h.h.h.h.Z.Z.A.h.Z.A.A.A.Z.h.p.| @.k.h.h.g.v.g.w z - f.5 S { p. .5 U.D 1 #XU.+ # d x K E Q W Q y.y.9 q g.h.h.h.h.h.h.h.h.h.h.h.h.",
"h.h.h.h.h.h.h.h.h.h.h.h.z.@.$ 2 6 - | C $ q = n !.; q U.U.$ Y Y.1X2X>X>X2X1 . 6 k * % K Y Y Q y.I 9 O } 1.3.z.v.H.P.P.Z.h.v.h.h.",
"c.h.h.v.x.h.h.h.h.h.h.x.<.B 2 U U x < @ D n n %X%X: 5 <X~.s <X2X2X2X1X2X2X) ^ n b %X* U Y K P R l x d C 3.2./.D.P..X.X.X.X(.2.z.",
"k.h.v.2.2.3.z.3.x.h.k.x.#.= U U U x & N Q.%X%X%X&X;X<X2X>X:X2X=X*X2X2X1X-X~.*X~.%XT.# d k 2 k K x k $ } h.v.k.k.k.A.H.j.x.c.c.k.",
"j.h.x.2.k.k.2.2.j.k.c.v.= k U U U % N ( R.%X%X%X%X:X,X2X,X1X2X>X<X2X1X=X=X,X1X%X%XR.n @ X   O @ o o p.h.h.v.k.(.k.h.k.k.c.j.j.c.",
"2.3.3.j.b.h.h.h.b.h.h.... 2 U U k i ( _ Q.%X%XR._ !.=X,X2X2X2X2X1X<X:X=X=X:X%X%XE.%X%XR.T b m m @ h =.c.H..X XI.=.(.=.).&.3.2.3.",
"h.3.3.c.c.c.c.h.h.c.z.V , d * # # b ( Q.%X%X%X[ ~.[ Q.%X&X&X,X2X1X,X*X%X%X%XE._ ( %X%X%X( ! / m , = S Z N..X.X.XI.=. XP.].}.D.2.",
"v.c.3.3.(.(.(.(.L.,.P.7.X < # F / / ( [ _ %X%XW.1XR._ Q.&X,X2X2X2X2X:X%X=X,X;X( R.%X%X%X/ F F m j O , , 7.F.3.J.P.).P.h.P..X.X.X",
"h.3.L.L.L.L.P.P.C.h.h.S.V X j m M ( ( ( _ %X%X-X1X' [ [ %X:X2X2X2X2X,X%X:X,X%X[ [ %X%X%X] / ~ m m j m f +.3.3.3.3.c.v.b.h.b.h.P.",
"h.h.h.h.b.h.h.h.M.h.h.h.{ < m ! ~ ( ( [ Q.%X%X%X%X' <X` %X&X>X1X2X2X*X*X%X%X] _ / [ _ ] ] ( ( m m m f B 2.3.3.3.3.3.1.3.c.h.3.3.",
"h.h.h.h.h.Z.b.L..X.XA.g.e m m m F ( ( [ R._ ( R.%XE.<X%X%X&X=X2X2X2X-X%X%X,X1X;X/ %X%X_ / ( ( F m m O C 3.j.v.3.3.3.3.3.3.3.3.P.",
"h.h.h.h.h.Z.L..XA.M..XP.= i v m F ( [ %X] ( ( Q.%X%X&X%X&X,X2X2X2X2X1X=X*X1X,XW.%X%X%X%X] R.%X%X] m f - n.b.h.v.3.3.v.h.A.A.A..X",
"L.h.h.h.h.h.h.Z.g.h.M.d.t $ m M ~ ( [ %X%X[ [ R.%X%XQ.E.%X>X=X:X2X2X1X<X%X*X%X%X%X%X%XR.] ' ~ %XG m m ; v.b.h.h.h.h.h.P..X.X.X(.",
"_._._.(.2./.j.j.v.g.g...e $ m ~ ( ( R.E.R.[ / ] %XQ._ :X1X~.%X-X1X2X1X:X%X%X%X%X%X%X%X' ( ( R.' m m m - c.h.h.h.h.h.3.2.x.j.3.3.",
"3.3.3.3.3.3.3.3.3.1.9.C , f v G ! ( ( _ ( ( ( Q.%X[ ( #X!.%X&X1X2X2X1X<X=X*X%X%X%X%X%X%X] ( ~ F m m % O { h.h.h.c.z.z.h.h.h.n.j.",
"h.k.z.k.3.z.z.v.b.M.g.{ 1 m m m ! ( ( ( ( ] Q.%X%XT.R.R.R.!._ >X1X2X2X2X;X%X%X%X&X&X%X%XR.( ( ! F m m i V (.h.b.5.5.v.b.b.A.H.h.",
"h.h.h.h.h.h.H.A.Z.b.h.8.7 @ f j F ( ( ( ! ~ ) / %X%X%X%X%X) @ ; , n U.U.%X~.%X%X%X%X=XR./ b b K F m j @ V %.^.=.].].>.c.A..XP.L.",
"h.Z.A.P..X.XP.P.b.b.X.a O O O j F ( ( K & c H , %X%Xn ^ T.: I I L L 9 # : : ^ T.!.) ^ : & 9 9 p m m i i * 7.I.].P..X.X{.L.P.P..X",
"h.Z.H.H.H.H.H.b.=.Z @ k x d O m F F i # r y.y.P !.x H 0 & I y.i.oXi.y.Q y.I L 0 ; 9 L I y.y.I # m m m m , 7..XP..XP..XP..X.X.XP.",
".XZ.h.h.h.h.Z.x.o.; O 2 K p u v # # @ # < & H H & H Q I I y.y.i.$X$X@XOXi.y.y.Q 9 H y.y.oXoXy.& i m m u - e.F.P.P.h.h.H..XL.<.J.",
"h.h.h.h.A.P.P.P.: x x # z p i m m p d J J x # @ # & & H I y.y.y.oXoX@X@XoXy.y.0 . J y.+X@XOXy.H , m m , B O.#.v.L.h.h.c.j.3.3.`.",
"h.h.Z.P.L.h.L.P.A z K x & l < & u * @ # @ < 9 d H P @ . & * k L P y.y.y.y.Q 0 2 k k y.XXy.y.y.I @ m m j $ O.#.c.v.h.3.3.3.j.2.3.",
"h.h.M.h.h.h.b.b.d.r k K K u < < & J K J @       # #   < k K K K U Y z 3 * & 9 U k k Q y.y.y.y.y.# i m m i - +.3.2.3.3.3.z.h.v.3.",
"h.h.h.3./.h.h.h.h.b.e 3 x d 9 Q Q I H # + # 3 9 U K k k k % # k k x K K K x K x # x U k k & * l 2 , , $ - | X.$.3.3.c.k.z.h.h.h.",
"z.v.3.3.3.h.h.h.h.h.g.6.% o 6 L * & & L y.XXi.E Y W y.E U x d p < 2 # @ @ 2 2 . < 3 & k k x K k 2 i @ | X.8.s.h.b.b.h.h.v.b.h.h.",
"3.3.3.3.3.3.j.h.h.h.V.t.8 @ v o H y.i.OX+X@XoXy.Q y.y.Q Y Y c d s < < @ @ < < < < x K K k k & p @ m , y 8.p.f.g.3.j.b.b.b.h.h.h.",
"2.3.3.3.3.3.3.3.z.b.a.t.$ j b , 9 y.i.@X+XoXi.y.y.Q Q E U U k & k l x K K l d u < < # @ @ ~ ^ N X f i B +.#.<.3.3.3.3.j.3.3.j.3.",
"c.c.(.;.;.3.n.h.b.A.V.u.8 % , ,   L y.y.y.Q y.L 9 6 z Y c x K K K l l k 2 O @ @ u i j j f N / s 7 C = t a.z.<.3.1.3.1.3.3.2.;.=.",
"=.5.,.}.=.=.v.b..X.X.XB.t.q.$ g @ # H L 0 * l c U U K x k u @ @ @ p N N v @ m m ! N m m / ~ b % 8.8.8.X.<.2.3.3.3.2.3.4.=.;.=.=.",
"P.{.P.P.P.{.{.A.M.h.h.H.u.8 , m , . k k U U U U l & % @ @ # @   l / / b g X m / ( ( b , D ^ # t q.8.8.a.g.z.z.2.3.2.3.=.'. XP. X",
"P.P.P.P.P.P.P.Z.A.Z.h.g.9.% m v , @ c k k & s ( / ^ / K 8 w.r.A A A A A A 8 % b / / ; 7 % & ; w.u.d.8.f.h.h.h.z.}.{.].).P.P.P.P.",
"L..XL.H.P..XP..X.X.Xh.C.0.- = $ X v * p b ( _ _ !.n d ( b 6.u.u.u.d.B.u.w.t.7.& b d 7.8.8.0.8.f.h.h.h.h.h.h.h.P.h.A..X.X.X.XH.L.",
"h.Z.h.h.P.P..XP.P.P.Z.K.t.w.0.0.% b ^ / R.%X` b T.T.= > $ t f.V.d.v.v.d.a.d.t.w.A 7.w.C.P.K.K.A.A.A.Z.Z.h.h.h.h.h.h.h.h.L.A.h.h.",
"h.h.h.h.L.H.H.h.H.H.H.N.w.8.8.X.| 7 ; ; ' ^ ; 7 7 ; t { 8.a.h.b.g.h.h.g.g.C.N.w.a.d.C.H.G.G.Z.h.c.c.z.h.h.h.h.h.h.h.h.h.h.h.h.h.",
"h.h.h.h.h.h.h.h.h.h.h.f.8.j.1.O.O.O.X.C = 7  .9.t.q.8.8.s.h.h.v.c.h.h.h.h.h.g.p.f.h.h.h.h.h.c.1.3.2.3.j.3.2.c.h.Z.L..Xh.h.h.h.h.",
"b.h.h.b.v.h.h.h.h.h.v.v.$.3.$.#.+.O.O.O.O.e.r.N.t.t.N.B.<.$.c.3.3.c.h.h.h.c.b.h.h.h.h.h.c.j.3.3.3.j.3.3.3.3.(.L.P.P.P.P..X_.3.b.",
"j.b.h.3.3.j.v.3.c.h./.$.3.x.h.h.h.1.$.a.+.+.@.$.u.l./.(.h././.h.v.3.c.h.k.3.2.g.n.j.h.j.3.$./.h.h.h.x.3.h.c.3.3./.J.P./.j.z.z.3.",
"x.b.c.3.3.3.3.3.3.3.z.h.h.h.h.h.h.v.g.g.s.9.s.v.p.l.v.v.3.v.h.c.3.3.h.h.2.3.3.3.3.3.3.k.h.h.h.h.h.h.h.v.b.b.b.c.v.b.c.b.b.x.x.b.",
"3.3.2.j.h.h.v.b.h.h.h.h.(.;.-.b.>.*.h.L.J.I.-.-.^.=.:.1.3.3.3.3.3.3.3.3.2.h.h.v.b.b.h.h.b.v.>.-.k.^.-.h.A.K.|.;.=.n.=.;.4.3.3.3."
};
