/* XPM */
static char *result[] = {
/* columns rows colors chars-per-pixel */
"64 64 186 2 ",
"   c #10152E",
".  c #161C2E",
"X  c #181E2E",
"o  c #1D242F",
"O  c #1C2630",
"+  c #22262F",
"@  c #232A2F",
"#  c #222730",
"$  c #252D31",
"%  c #2A2D30",
"&  c #263332",
"*  c #293330",
"=  c #2E3B33",
"-  c #333E31",
";  c #313331",
":  c #3C4A34",
">  c #324639",
",  c #364C3B",
"<  c #384F3B",
"1  c #394632",
"2  c #3E573E",
"3  c #424234",
"4  c #424D34",
"5  c #4C4C36",
"6  c #504F37",
"7  c #455335",
"8  c #485735",
"9  c #4C5B36",
"0  c #42593E",
"q  c #40553B",
"w  c #505237",
"e  c #555438",
"r  c #5B5A3A",
"t  c #4E653E",
"y  c #516237",
"u  c #536439",
"i  c #566939",
"p  c #596C3B",
"a  c #5E653B",
"s  c #5F723B",
"d  c #64643D",
"f  c #6C6B3F",
"g  c #62743B",
"h  c #667A3D",
"j  c #697E3E",
"k  c #435C41",
"l  c #4B6542",
"z  c #4B6946",
"x  c #476343",
"c  c #526C44",
"v  c #506D49",
"b  c #54754A",
"n  c #5B7D4D",
"m  c #577548",
"M  c #626E42",
"N  c #627940",
"B  c #6C7E47",
"V  c #747241",
"C  c #787542",
"Z  c #7D7B44",
"A  c #827F45",
"S  c #6E843F",
"D  c #5C8150",
"F  c #5C805A",
"G  c #64834B",
"H  c #6B8A4C",
"J  c #738341",
"K  c #748C41",
"L  c #7B8C43",
"P  c #7B9343",
"I  c #7F9844",
"U  c #76944B",
"Y  c #7C9748",
"T  c #608451",
"R  c #648B55",
"E  c #6B8E53",
"W  c #6C9154",
"Q  c #6B9459",
"!  c #719453",
"~  c #779C56",
"^  c #7C9F54",
"/  c #729D5D",
"(  c #7A9B5A",
")  c #7EA154",
"_  c #77A05C",
"`  c #7EA45C",
"'  c #6B936F",
"]  c #6F9B6F",
"[  c #729E6C",
"{  c #7B9D6D",
"}  c #799869",
"|  c #679175",
" . c #6B9472",
".. c #6C9871",
"X. c #739672",
"o. c #729870",
"O. c #7D9A71",
"+. c #76A565",
"@. c #79A663",
"#. c #7BA962",
"$. c #74A269",
"%. c #7DA169",
"&. c #848246",
"*. c #888547",
"=. c #8B8848",
"-. c #928E4A",
";. c #879147",
":. c #819B45",
">. c #829D4C",
",. c #8C9C49",
"<. c #94914B",
"1. c #99954D",
"2. c #919C4D",
"3. c #9C9C4E",
"4. c #959750",
"5. c #9F9C50",
"6. c #A09C4F",
"7. c #A19E51",
"8. c #86A047",
"9. c #88A247",
"0. c #8AA549",
"q. c #8EAA4B",
"w. c #91A74A",
"e. c #9CA44E",
"r. c #92AE4B",
"t. c #9BAC4E",
"y. c #95B24C",
"u. c #99B64D",
"i. c #9BB94E",
"p. c #87AA56",
"a. c #8CAB54",
"s. c #84AD5D",
"d. c #8AAE5C",
"f. c #8AA259",
"g. c #92AF5F",
"h. c #9BAF5E",
"j. c #9CA457",
"k. c #8FB257",
"l. c #8CB159",
"z. c #94B554",
"x. c #99B752",
"c. c #9BB850",
"v. c #93B259",
"b. c #9CB25C",
"n. c #A5A251",
"m. c #AAA754",
"M. c #A6AE53",
"N. c #ADAB54",
"B. c #A4A658",
"V. c #B2AE56",
"C. c #A4B655",
"Z. c #AAB455",
"A. c #A3B951",
"S. c #ABB954",
"D. c #A4B35D",
"F. c #ACB55C",
"G. c #AFB858",
"H. c #B3B156",
"J. c #B3BA56",
"K. c #B5B65D",
"L. c #B9B75D",
"P. c #B6BA58",
"I. c #BDBA5B",
"U. c #849D6F",
"Y. c #899F6E",
"T. c #829B70",
"R. c #82A566",
"E. c #8CA766",
"W. c #83AA61",
"Q. c #8AAB61",
"!. c #83A16B",
"~. c #8DA26C",
"^. c #92A767",
"/. c #93AD61",
"(. c #9BAE61",
"). c #93A46B",
"_. c #99A769",
"`. c #9DA968",
"'. c #9CB060",
"]. c #A4AC66",
"[. c #A9AE64",
"{. c #A0A968",
"}. c #ADB062",
"|. c #B2B361",
" X c #C0BA5B",
".X c None",
/* pixels */
".X.X. . .X.X.X.X.X> k . .X.X.X. X .X.X.Xd 6 o y . . .X.X.X. . .X.X5 d > > 6 d . . .XC f .X. . .X+ y .X.X.X5 C + .X.X.X. . .X.X.X",
".X.XK u.y y : o y D @.0 =.C w H.-.> R c  X3.K u.w 1.a :.7 / D . @ V.I.( ( N. X0 / <.I.P.5 d  X1.g u.y n > 5.I.d   . o Y r.7 .X.X",
".X. g u.0.i.i.g u.M.h.5.I.-.m.I.*.l ` t.I.V.u.0.e.S.f.i.i.u.G H.n.<. XK.I. X<.1.I.P.S.i.i.;.Z.S.,.u.a.d.V.5.M.5. X=.b u.u.g .X.X",
"O n b Q k.i.i.0.A.A.G.P.I.S.I.J.J.M.e.I. X XS.S.A.u.c.u.i.i.S.S.P.I.G.P.P.S.P.G.I. X XJ.S.S.i.i.i.i.u.S.A.P.I.P.Z.f / v.h s o .X",
"$ +.W.i.i.c.i.i.i.i.u.u.A.u.A.i.i.i.A.J.G.G.J.J.G.C.C.C.c.i.c.u.c.A.i.A.u.u.i.i.J.G.G.J.J.J.C.D.C.c.i.i.i.i.c.A.y.k.#.k.u.i.g .X",
".Xk t d.s.#.#.#.x.J.I.G.A.z.z.l.i.i.i.i.i.i.i.x.s.#.@.#.#.l.S.I.J.A.z.x.l.z.i.i.i.i.i.i.i.l.@.#.#.W.W.C.J.P.S.x.i.#.` c.Y h O .X",
".XK r.q.i.k.s.l.l.b.P.C.v.l.z.l.k.z.#.s.k.z.z.d.d.c.z.#.k.d.v.G.G.v.k.l.x.l.i.l.#.z.l.x.l.d.x.c.W.l.s.d.G.K.D.k.s.z.s.x.u.u .X.X",
".Xh :.0.i.8.u.C.E.R.d.R.s.s.d.#.l.s.l.l.s.l.z.c.l.v.z.z.A./.%.v.%.l.#.k.#.#.k.#.k.d.s.k.c.k.d.z.v.i.D.#.l.W.W.` l.s.@.@.l.D .X.X",
".X5 Z Z V 1.M.I.I.Y.~.|._./.l.d.l.#.l.z.i.i.l.E.].^._.(.I.I.'.O.|._.b.W.s.k.#.d.z.z.i.k.Q.`.`.).).L.I.|.o.].].'.s.l.l.s.#.w.=.# ",
"d I.m.b.D.L.F.b.s.}.D.A.J.P.G.c.c.Q.'.[.D.D.G.I.[.[.|.G.}.#.[.D.A.J.P.P.i.i.l./.[.D.S.[.P.K.'.K.K.K.W.b.F.S.S.P.L.A.i.k./.P.H.% ",
"# V q.c.k.d.#.#.#.#.#.l.z.l.l.i.i.i.i.i.i.A.A.i.i.z.l.s.#.@.#.#.s.k.k.l.x.i.i.i.i.i.c.A.i.i.z.k.d.#.@.@.@.#.l.v.l.k.i.c.d.E # .X",
".X3 ,.u.z.d.s.k.z.#.#.l.v.D.P.c.i.i.i.c.J.P.P.G.i.z.k.#.l.i.s.#.d.b.v.L.C.i.i.c.i.G.I.P.J.i.z.z.s.s.x.l.@.s.v.v.K.G.i.i.u.u.Y .X",
"y c.Z.x.i.i.i.i.c.c.c.D.|.D.[.J.G.S.c.i.A.c.c.S.c.i.i.i.c.c.i.i.b.G.G.'.K.J.C.A.c.c.i.i.S.A.i.i.i.i.i.i.c.x.F.F.D.K.J.S.A.x.u.* ",
"7 u s.s.k.i.i.i.i.z.l.l.z.s.#.#.#.#.#.#.#.d.k.z.i.i.i.i.c.x.z.k.d.x.l.#.#.#.#.#.#.#.s.l.z.c.i.i.i.i.i.i.z.s.z.l.#.@.#.#.#.~ N . ",
".X0.u.u.c.v.R.W.z.R.W.c.A.S.l.z.z.l.d.k.k.i.c.i.i.c.z.s.R.c.E.#.z.c.J.v.l.u.l.l.l.l.z.i.i.c.c.i.l.%.k.l.#.g.i.G.A.s.u.k.l.H o .X",
"# :.K >.R.T.I._.O.|.P.[.I.I.P.z.i.A.G.J.I.A.x.R.Q.W.o.|.[.O.{.I.'.P. XI.b.i.A.S.J.I.J.i.W.W.Q.%.`.|.~.Y.L.}.S. X XD.u.A.A.M.5 .X",
".X8 e.6.K._.I. XI. XP.I. XL. XP.A.S.S.S.A.%.{ }.~.].[.|.I.I.I.I.I.I.|.I.I.A.S.S.G.S.W.!.`.{.~.|.]. XI.I.I.P. XI.|. XS.A.A.t.N.d ",
"& u.i.I.G.F.F.#.v.S.i.x./.#.P.P.S.i.A.P.}.K.P.G.I.P.F.G.Q.Q.J.c.c.D.#.S.I.S.A.i.G.|.[.I.J.P.I.S.}.'.#.G.A.z.C.s.v.I.P.A.A.S.Z o ",
".Xh u.G.l.#.@.@.s.l.l.#.l.#.l.z.i.A.J.i.J.J.c.i.A.A.#.#.#.#.l.z.#.s.s.#.z.i.i.J.A.S.J.A.c.A.A.s.@.@.#.d.k.#.#.l.#.z.c.i.C.G.0.9 ",
"  P v.s.#.z.l.l.s.#.s.#.c.c.c.i.i.i.l.i.i.i.i.z.s.#.l.z.s.s.#.#.l.l.i.i.i.i.c.k.z.i.i.i.z.l.s.#.z.s.k.#.@.d.l.i.i.c.c.i.U n u.p ",
"S u.A.G.S.S.i.u.i.k.i.i.u.c.c.W.l.#.@.l.i.i.A.J.A.S.S.A.i.i.x.z.c.c.i.i.d.W.s.@.s.z.i.i.J.J.A.S.S.i.i.i.z.i.c.i.i.z.@.l.` = 2   ",
"S y.S.I.K./.s.W.#.#.#.s.#.l.#.#.@.@.@.@.#.k.G.I.I.I.D.s.s.#.@.#.s.#.s.s.#.#.@.@.#.` l.A.P.I. XG.s.l.#.#.#.#.s.#.d.@.@.@./ / z.K ",
".Xw H.J.i.i.k.s.@.@.#.$.$.|  .%.W.R.O.$.i.S.I.I.I.i.z.z.l.@.@.@.+.$...| $.R.Q.{ ] k.A.P. XI.A.i.z.l.#.#.#.#.[ [ | ..R.0.n H u.S ",
"% I.I.G.S.i.c.k.d.@.$.X.}.|.!.|.|.|.I.`.J.A.i.P.I.S.i.i.z.l.@.@..._.|._.].|.[.I.[.[.S.i.S.I.G.A.i.i.k.#.#.$.{ }.|.U.L.6.H.f s = ",
"+ n.Z.S.i.A.u.i.A.G.P.K.I.P.I.I.I.I.I. XI.I.A.i.S.A.i.i.i.i.S.J.|.I.I.I.I.I.I.I. X XI.S.i.A.S.A.i.i.i.S.G.|.I.I.P.I.P.I.I.=.Z 3 ",
"- S g t.S.S.A.u.i.i.c.A.J.i.J.i.c.A.S.I.I.I.P.I.P.S.S.A.i.i.c.i.i.J.c.S.A.i.A.i.I. XI.I.I.I.S.A.A.i.i.c.i.i.G.A.c.J.i.A.i.A.I.C ",
"i u.r.v.#.#.k.l.c.A.G.i.i.i.c.x.i.i.i.A.i.c.A.c.z.#.#.l.l.x.i.S.A.i.i.c.z.c.i.i.c.i.i.c.i.c.l.#.s.k.z.c.A.S.z.c.i.x.c.i.i.0.e.; ",
". - 0.z.l.s.#.#./.F.I.P.b.s.s.s.z.i.k.z.i.i.z.s.#.l.l.#.W.W.D.I.|.G.s.l.l.l.c.c.k.i.c.c.k.#.s.l.#.#.#.b.L.I.P.g.d.d.s.z.u.~ & .X",
"o k 0.d.z.z.z.x.v.z.c.z.v.z.x.l.z.k.#.#.#.s.z.x.i.i.c.v.i.v.v.c.z.z.k.c.l.l.c.#.#.#.#.z.c.c.c.c.z.c.z.v.x.x.z.l.z.z.l.k.d.+.< .X",
"x +.' ' d.{ b.I.]...O.).+.#.#.#.` #.z.c.c.c.c.l.!.+.%.E.J.}.O.O.~.$.#.#.#.#.#.l.c.c.i.i.z.%.{ R.%.G.|.).o.U.!.R.#.#.#.#.#.8.9.- ",
"& n z B.L.L.I.K.F.|.[.J.|.K.C.c.i.#.W.s.v.b./.}.I.K.I.I.I.[.P.`.P.|.I.D.c.i.s.#.g.l.b./.[.L.|.I.I.|.F.P.`.P.P.I.F.c.u.z.@.d.q.8 ",
"O 0.L l.Q.h.W.#.@.W.l.x.A.C.C.i.z.c.S.G.G.A.A.S.v.W.'.W.W.#.#.l.z.A.c.G.c.x.z.A.S.S.S.A.A.b.l././.W.@.#.s.v.x.A.C.C.i.z.C.S.n.$ ",
"* i.i.i.i.k.s.` s.#.#.#.#.g.'.i.i.i.c.c.A.I.G.u.i.z.z.l.#.l.#.#.#.s.s.'.c.c.i.i.c.A.P.P.A.i.i.z.s.` s.#.#.#.#.s.'./.i.i.i.q.u.$ ",
"1 S i.u.i.c.z.c.i.l.z.A.P.P.I.A.c.i.i.c.J.A.G.I.i.z.x.z.z.c.z.k.A.P.I.|.J.c.i.i.c.S.G.A.P.S.i.z.i.z.i.i.l.z.J.J.P.I.A.i.i.< 2 o ",
"8 y.y.l.l.z.k.u.i.x.l.Q.z.W.#.[.D.b.l.d.k.c.x.c.i.i.i.i.i.i.c.z.W.v.W.#./.[.'.v.s.k.z.x.c.c.i.i.i.i.i.i.c.s.l.g.#.Q.[.b.p._ z.i ",
".X: p.z.k.z.z.x.c.z.z.c.c.x.#.l.d.#.#.#.` l.l.x.i.i.i.c.z.i.x.v.x.c.c.l.s.l.#.#.#.#.l.k.x.c.i.i.i.z.i.i.z.z.c.c.z.#.l.#.#.T S 1 ",
".X9 y.c.y.{ _.o.#.~.).v.L.I.b.z.c.i.c.A.G.A.u.z.i.x.W.).U.#.T.`.Q.J.I.G.k.i.c.c.A.G.A.c.c.z.c.v.!.~.$.%._.~.i.I.P.g.i.i.i.u.O . ",
"o C C 7 C 1.I.L.}. X X|. XI.I.S.i.P.I.I.J.d.W.~...!.T.|.I.}.|. XL.I.I.I.J.c.S.I.I.P.b.l.U.O.o.~.'.I.|.|. X XI.I. XP.A.A.J.n.n.e ",
"f  XI.N.I.I.I.'.P.L.A.J.P./.I.I.J.i.i.A.b.`.].I.K.L.I.I.F.F.I.A.S.L./.P.I.I.A.i.i.C.~.}.|.L.L.L.|.|.[.P.J.A.P.[.D. XI.A.i.i.C.r ",
"r i.i.P.x.W.W.@.l.x.c.s.#.#.c.i.i.i.P.G.I.I.S.i.P.S.s.E.#.#.i.i.l.#.#.k.A.i.i.S.J.P.I.J.i.S.J.k.Q.W.#.z.c.k.#.#.s.A.A.i.A.2.h . ",
". j k.l.W.d.#.#.#.#.#.#.i.z.k.z.i.i.c.c.A.c.i.z.k.s.W.d.@.#.#.#.@.k.z.k.z.i.c.A.c.i.A.i.x.k.l.#.l.#.#.#.#.#.s.x.k.k.u.i.A.i.u.$ ",
"J i.u.x.l.i.z.c.z.l.z.z.z.i.i.l.z.k.@.z.i.i.i.A.c.v.x.c.x.z.l.l.z.z.i.i.z.z.x.#.s.i.i.i.A.A.k.z.i.z.i.k.l.c.k.u.i.u.k.x.s.@.S .X",
":.i.i.J.I.F.x.z.l.#.d.z.k.z.l.#.#.@.@.#.l.z.J.I.I.P.K.v.z.l.s.s.z.l.z.z.#.#.@.@.#.s.k.A.I.I.P.I.b.z.k.l.s.k.v.z.u.s.@.@.s.p.~ n ",
": 9 8 V.b.z.l.W.#.@.@.@.#.] [ d.l.s.$.+.k.c.S.I. XA.v.z.l.#.#.+.#.@.$...#.s.l.$.+.l.x.A.P. XJ.z.x.s.#.#.@.@.@.+...[ R D ` p.c.I ",
"< Q l r.u.u.k.#.#.#.#...O._...~.~._.}.o.D.J.S.I.P.i.i.c.s.#.#.#.$...`.O.O.).~.}.O./.G.J.P.I.A.i.z.k.#.#.@.+. .~.Y.} <.<.d V S > ",
"l +.p.) s.z.i.i.x.b./._. XI.}.I. XI.I.I.J.S.i.A.P.J.A.i.c.c.v.'.~.|. XK.L.I.I.I. XI.S.A.i.J.P.G.i.i.i.z.b.).}.I.I.|. XI.I.I.w .X",
"X M J.A.i.i.i.i.A.A.G.J.L.A.P.S.G.J.J.I.I. XS.P.S.i.i.i.c.i.A.A.J.I.S.S.P.S.J.S.I.I.I.J.S.J.i.c.c.i.i.A.A.S.I.P.S.I.S.J.S.S.H.% ",
"8 y.Z.A.b.b.c.i.i.i.i.i.A.c.A.i.i.i.A.J.S.S.J.S.A.b.b.C.i.i.i.c.i.A.i.A.i.i.i.i.J.G.S.G.J.S.A.v.b.i.c.i.i.i.i.i.i.i.i.u.u.u.*.+ ",
"1 i / #.#.#.#.@.b.J.I.J.C.z.k.d.x.c.c.i.i.i.z.z.s.#.#.#.@.l.G.I.J.G.l.z.s.x.i.i.i.i.i.u.c.s.#.#.#.#.#.S.L.I.S.z.c.l.k.c.c.y.s o ",
".XO ) x.u.k.l.k.l.x.G.b.v.l.z.k.z.z.#.s.l.k.z.l.k.i.i.#.v.l.l.G.C.z.k.l.z.l.c.d.#.l.d.x.l.l.c.u.d.k.l.l.C.S.b.z.l.z.l.c.k.l.c.& ",
".Xe d h q.W.c.G.~.%.Q.R.s.s.s.#.s.s.l.k.l.z.z.c.Q.l.l.z.C.(.{ l.$.W.#.l.` #.l.#.k.l.l.z.i.l.Q.v.l.A.D.%.W.%.W.#.s.s.@.l.#.k.t O ",
"% H.I.N.n.}.K.I.L.^.).K.'./.l.l.k.+.l.k.z.z.d.^.}.`.].]. XI.}.O.|.].F.s.l.z.#.d.l.z.c.v.E.].{.`.`.L.I.K.O.}.}.[.W.k.k.s.` l.Q x ",
"% t.i.h.D.K.D./.#.[.C.i.J.P.J.c.x.Q.D.G.F.G.G.P.].v.K.D.b.#.b.D.A.G.J.I.c.i.l.'.F.G.G.D.J.G.v.G.G.[.#./.D.A.A.G.P.A.c.k.l.Q v .X",
".X1 r.i.v.l.s.@.#.#.#.s.l.s.d.i.i.i.i.i.c.S.A.i.c.z.k.l.#.#.#.#.s.l.l.s.z.i.c.c.i.i.A.C.i.i.c.v.l.#.#.#.#.#.l.l.l.l.i.i.z.y.@ o ",
"@ 1.t.x.z.l.s.z.z.#.l.k.b.G.P.A.i.i.i.A.P.P.J.J.i.z.k.s.l.c.s.#.l.x.x.|.A.c.i.i.i.J.P.P.J.A.z.k.d.s.i.l.#.l.z.z.|.P.i.i.i.8.r.y ",
"@ e.A.i.u.u.i.i.i.i.z.D.[.'.'.P.J.S.z.x.c.i.A.C.A.i.i.i.c.u.i.i.b.F.[.'.K.J.S.C.z.i.A.i.A.A.i.i.i.i.i.i.i.z.}.[.b.}.J.S.S.Y S .X",
".X  G #.l.z.u.u.i.z.l.k.x.l.#.@.#.@.#.#.#.s.l.z.i.i.c.c.c.u.c.k.l.c.l.#.#.#.#.#.@.@.s.d.k.x.i.i.i.i.i.x.z.d.z.z.s.@.#.@.#.) 8 .X",
".Xe H.I.b.Q.%.R.v.#.R.u.S.G.s.z.c.k.l.k.z.i.i.i.i.i.z.R.%.v.R.%.z.A.P.z.k.c.k.l.k.z.u.i.i.i.i.x.W.{ d.d.%.d.u.J.A.s.c.s.l.c.8..X",
"% H.I. XL.'.I.].~.|.I.}.I.I.P.c.i.S.J.J.P.A.v.%.R.R.o.|.|.Y.}.I.[.P.I. XA.c.A.J.J.I.G.u.#.%.R.O.{.L._.).I.}.K.I.I.J.c.#._ G : .X",
"% V.&.A.A.S.I.P.I.I.P.P.I.K. XP.A.S.S.S.c.!.!.|._.}.|.|.I.I.I.P.J.I.|. XI.S.A.A.S.A.R.~.{.}.`.K.[. XI.I.I.J. XL.|. XQ.] +.@.k .X",
".X. : 0.z.u.c.z.C.A.c.z.Q.#.J.J.S.u.A.P.|.P.P.S.L.P.D.D.W.W.S.i.z.v.#.D.J.S.A.A.J.P.|. XS.P.P.D.D./.@.C.A.c.v.W./.b.+.$...F , .X",
".X# r.c.) u.H #._ ) ) #.v.s.s.y.i.y.n.i.G.G.i.i.y.>.@.@.@.#.U k.@.W l.@.z.c.A.J.w.A.G.i.a.E g H @./ Q s.p.#.#.k.m z.z.0.l.s .X.X",
".X.X:.u.y s o z z @.R p q.S c.s y.u.s S u.i.:.u.g q.y.` ` l._ , 0 P c.J u.J P.Z i.y.c.c.G @.0 U i.c n [ z l.K K : y y :.i.K .X.X",
".X.X. . .X.X.X.X< R x o . o K 7 8 s o o I y.7 i @ K g l z S s . .X: y .X. . . O S 7 q.I o . . : y .X.X. o K g . .X.X.X8 g o .X.X"
};
