/* XPM */
static char *result[] = {
/* columns rows colors chars-per-pixel */
"64 64 56 1 ",
"  c #6F9B6E",
". c #749C6E",
"X c #7A9F6A",
"o c #638F76",
"O c #669175",
"+ c #6B9473",
"@ c #6C9870",
"# c #729672",
"$ c #719870",
"% c #7C9971",
"& c #77A664",
"* c #77A863",
"= c #7AA863",
"- c #75A169",
"; c #7CA169",
": c #9BB94E",
"> c #84AD5D",
", c #8AAE5C",
"< c #96AF5F",
"1 c #8FB257",
"2 c #8BB159",
"3 c #94B553",
"4 c #98B751",
"5 c #99B850",
"6 c #92B15A",
"7 c #9DB25C",
"8 c #A0BA4F",
"9 c #A5B757",
"0 c #A3B951",
"q c #ABB954",
"w c #A3B35E",
"e c #ABB55D",
"r c #AFB858",
"t c #B3BA56",
"y c #B5B65D",
"u c #B9B75E",
"i c #B6BA58",
"p c #BEBA5B",
"a c #859D6F",
"s c #899E6E",
"d c #819B70",
"f c #82A566",
"g c #82AB61",
"h c #8AAB61",
"j c #8DA16D",
"k c #93AD61",
"l c #9AAE61",
"z c #94A46B",
"x c #9AA769",
"c c #9DA869",
"v c #9CB060",
"b c #A3AB66",
"n c #A9AE64",
"m c #ADB163",
"M c #B3B461",
"N c #C0BA5B",
/* pixels */
":>tttttt8::09,>&w=&===**13::::t:::19tttttq:::t,,=kk&*===&21::::q",
"::::::::00:::::::>>=**=*=*&32&*=:::::::::008:::5::,>&=*==*=&26*=",
":::::00pNNt0::311**=4:===&>>gvp7:::::::0tpNp0::433=**2:>===>>>,N",
"::::::iN0:ppt:::::::::2g1:0p0ppN0::::::0it:tNN5::::::::4=>:8tttp",
"N80545:::::::::::::::::::9yiye=yppq0035:::::::::::::::::::4iyyi=",
"=gg=====4444:::::::::::42==:====gg==g====45444::::::::::44==12==",
"==========155::::::::::544:::5====&========g55::::::::::444:::41",
":146g43::::::::::6#@3:;#@:::pt5=:5414&445:::::::::3 #X:3@#6::qp5",
":::050ii8::::5:5$#M#+$+MyO5ppNig5::::::iit::::::5hOMc+.+mM%6tNNp",
":0iNNNNp::fOO@#+OpNNM%uNNpypNNNp5::ipNNNN0:5OOO.OOxpNubmNpNMiNpp",
":0000005+.OuyOdNn%pNNpppNpNNpNppN::00q00:.++bN%OuMjppNpppNNNppNp",
"N0:::0t;cNbNpNNNNNNlluNt:5tNk=pNNNi8:::t;#NbpppNpNppy7bpp::0Ne&m",
":::0tNpNNNt:0pi:27l===:8:3,&==0tq5:::tNpNNpp::pN036v&=*:0:52=*=6",
"::qNq:qNt5:::tt3===*=>143===>&=::::0pi:8Npq:::qi:*==&==11:===1&&",
":::::::::::311>==>=&*====*=::5,,5::::::::::::111=*,>==&===*=3::2",
"::5==::::::::>>=:::>:1===:>3::::::::>=3:::::::2>&2::=:4>==42>:::",
">3===5:::::tt::00:::::::5:::::::=*3>==2::5::qN::000:::::::::::::",
"==&=&==330NpNNNNpy4:33>=,3533::===&*&=&=335ppNNNppte:333==3:33::",
"========3::ppppy=g============&=========>>5:tNuNiv======&=*=&=&=",
"35hO+=5::tppNN:4::33==&====&-OO+3344OO-,::8ppNNq4::536======&=OO",
"#@ju#O30NpppNt::::3=======oO##OO+#++ucOX:uppNNp::::5=====&=@O+#+",
"NMpNpMM0:::tpN0t::::35===.OuuNy#NNpuNuuyi8::8NN0p::::35====ObuNp",
"NpNppNN0i0:::Ni0t:::::eyyzuNNNNNNNNNpNNNiit:::iN0q:::::5MyMbppNN",
"tNiqNpNNNN:qq:::::::::q:tNNNi0uNN0Nu0pNNNNN::i:::::::::i:0NpNp0t",
"50::NNNNNNiNNitttt:::::::58N:::q5::::tppNuNtNNptittq::::::::iq::",
"::::00050qq0053,,1:::5::5::::::::::::8qq::qqqq::2>,:::::::::::::",
"::::::::::::3>**==>==45tNi:::::215::::::::::::2&=*===&,:qpN0::::",
"3::31::::::1**21>*===<wNNNNu&=22=,:::23::::51=*,11*=*=gbpNpNNh&2",
",:3===1=,:,2,3:::=2:1,,,t7,>:22::23:>==1,=:1>21:4:1=:4,,>rt,>332",
">:2*>>==>,3:::::::::,,,3:,13*361&=:3&=>===,>:::::::::3,,,:,,3>>3",
"===>::::::::;OO<O@5pNx#oX#%-*===**&=*::::::::1oO;XO3tpya+hOs ===",
":==3333::36#bpndpsuNuNN#%NNap,=5>:2*2334:::1@appanbcpNNNsOypxnw*",
":6==hhhhydpNppiNNpNNh=pNbt0Nppp0::5==>hh,<duNNuiuNNNue=yNsi:NNNN",
":=piipip05:twg==ugg=====55:8:0p5::,9tuuupt::8u>f=ww=====f45::::p",
":::::::::0::5::53=====*====:3==>:::::::::88:::::4:========&=3:==",
":::::5:iNp0:::553===33=*=====hyh::::::::0NNi::::5:=g=>5========p",
":::::8ppq8pNq:445335::>=245p:pNN8::5:::qpi8pNp:543433::5==3:qqqN",
"i::::::85:808::::::::::::0Nppyhpii05::::::::00:::::::::::::pNpNh",
"kk<h*>>>::::::::::::::::1**3*===<kkkk&>>>:::::::::::::::::==2>==",
"&======&=&,63::::::::::136::51====&=======-=13::::::::::13155:1,",
":>62=61::::::::::5ff35hff:::tq4=5:3,1&163::::::::::ffh:4;f35:0t:",
"::::::qq8::::::8;+c+Ofocc$:tNpt=55:5:::qqq:::8:::,ocsOfOzc#3qNpp",
":8qNNNNN04,oO.;o+ppNc#MNNNlpppNp:::qiNNNNt::+oo,o+xpNujxNNNbiNNp",
":8ttttt5@fOMnO#Nz#NpNNNNNNNpNNpNp:5ttttt5>+Oju#oMb%NppNpNpNpNpNN",
"N0:::5q,dNjNpNppppNeepNu::ipbgpNuNt::::0,#NjuNNNpNNNieyNp::tNy&i",
"::::0NNNNNi:qpp53ym===:0:53===iti8:::0NpNuNN8:NN049y===4i::3>==k",
"::0pi:ipi0:5:it3===&=144:*====g::::8tp:qNNt:::tu:=&====33:===>==",
":::8:::5:::5453===========*::5=g5::::::::::::444============1::=",
":::=>::::::55===::4=:>===5=5::::::::2=::::::::,==1::*:3==&3>1:::",
"14===::::::qt::4::5:::54::55::::,=5>==,:::::8i5:45::4::::3::3:::",
"====&=>:::pNNiiNNu::::,=6::::::>=&======::5iuNippppq:::4=>::::::",
"========150pNNNN,============>=====&=====>40pNNNpw==>=**===>&&>>",
"63,@@=6::qtpNp063:33======*=&O+ 3333@@=>5:8ttNNq36:531===&=&=*+O",
"o&%nOO45NNNNNi::::6===&===+O+oOOooXOnsof5tNNppN8:::1&&=====-O+OO",
"NbuNpbbq:::iNi8q::::11=&=.obpNcOpNnyNNbbp0:5qNp8t::::11==&=OzMpy",
"NNNNNpN0q0::0Npq0:::::7wlsmppNppppNpNNuNttq:::ppqt:::::1wbcjpNpp",
"iNptNNpNNN:00:::55::::i:pNuNitpNNtNNtNNNuNN8:q:::8:::::p:qpNpNti",
":0::NuNpNN0NNpq0q0::::::::8N::8t:5585qpNNNNqpNNqq0q8::::::::p0::",
"::::ttt:tttti:4333:::::::::::::8:::::qtt:8tttt8:331:::::::::::::",
"::::::::::::3,====1&=5:0Nt::::543:::::::::5:::3==&=>=*3:0pp:::::",
"::::3::::::4===>>=&=&wyNNuNu=>3==3:::355::::4>&>=>====hiNNpNNk=4",
"=::==>3>35>==1:::=>5>>=>p9>,:=>55=3:,==41>:>==f:::2=:3==gyig>11=",
"2:3======>35:::::5::44445435=544==::=======>::::55:5::3455435225",
"==&>:5445455h@@5$#:uua++f++=&========5:555:::5++,h@59pm++6++-==="
};
