/* XPM */
static char *result[] = {
/* columns rows colors chars-per-pixel */
"64 64 195 2 ",
"   c #000001",
".  c #00030A",
"X  c #00090E",
"o  c #000D11",
"O  c #001315",
"+  c #001718",
"@  c #031A1B",
"#  c #081E1E",
"$  c #021F21",
"%  c #042324",
"&  c #0C2323",
"*  c #042729",
"=  c #052A2C",
"-  c #0D2C2C",
";  c #112827",
":  c #122C2B",
">  c #13302F",
",  c #0C2F31",
"<  c #0D3233",
"1  c #0E3738",
"2  c #0E3C3D",
"3  c #063032",
"4  c #143434",
"5  c #1B3634",
"6  c #163837",
"7  c #163C3B",
"8  c #1A3E3D",
"9  c #123738",
"0  c #272D21",
"q  c #293D34",
"w  c #17403F",
"e  c #1B403F",
"r  c #3C472D",
"t  c #3D552E",
"y  c #345F2F",
"u  c #395F2E",
"i  c #2E4134",
"p  c #2B4C3B",
"a  c #2F4832",
"s  c #2E5235",
"d  c #2E5C36",
"f  c #2C553D",
"g  c #2A5D3D",
"h  c #275B3F",
"j  c #315632",
"k  c #315C34",
"l  c #385B30",
"z  c #3A642C",
"x  c #356D2F",
"c  c #3A6D2E",
"v  c #34602E",
"b  c #3B742C",
"n  c #3F792A",
"m  c #2F6435",
"M  c #2C613B",
"N  c #316532",
"B  c #326930",
"V  c #3A6830",
"C  c #5B7D1C",
"Z  c #6A7819",
"A  c #415C2C",
"S  c #465A2A",
"D  c #467226",
"F  c #4A7724",
"G  c #427F27",
"H  c #487D25",
"J  c #417529",
"K  c #427C28",
"L  c #517922",
"P  c #456928",
"I  c #143F41",
"U  c #164242",
"Y  c #1A4443",
"T  c #1A4847",
"R  c #1C4C4B",
"E  c #164949",
"W  c #1E554B",
"Q  c #214545",
"!  c #244C46",
"~  c #294F42",
"^  c #214C49",
"/  c #245545",
"(  c #295341",
")  c #255B43",
"_  c #285C40",
"`  c #215549",
"'  c #225949",
"]  c #4D8F1F",
"[  c #54871D",
"{  c #548D1D",
"}  c #5C8A19",
"|  c #5B861A",
" . c #5E9416",
".. c #5A9F16",
"X. c #52941C",
"o. c #569919",
"O. c #589B19",
"+. c #5A9018",
"@. c #6D960F",
"#. c #688816",
"$. c #619914",
"%. c #689414",
"&. c #709111",
"*. c #5EA413",
"=. c #66AE0D",
"-. c #6AAB0B",
";. c #6BA30C",
":. c #7AA405",
">. c #7EAA01",
",. c #71A609",
"<. c #77A806",
"1. c #6BB20A",
"2. c #72B305",
"3. c #7BB201",
"4. c #73BC03",
"5. c #7BBC00",
"6. c #62A511",
"7. c #62A910",
"8. c #468425",
"9. c #4B8524",
"0. c #4B8B21",
"q. c #7CC100",
"w. c #83AC01",
"e. c #8AA800",
"r. c #9BA700",
"t. c #86B000",
"y. c #8CB300",
"u. c #89BE00",
"i. c #83BA00",
"p. c #94B400",
"a. c #9DB300",
"s. c #95BA00",
"d. c #9CBA00",
"f. c #B1AB00",
"g. c #A4B400",
"h. c #A3BD00",
"j. c #BDB700",
"k. c #C7B700",
"l. c #D8BA00",
"z. c #E5BB00",
"x. c #84C500",
"c. c #8AC600",
"v. c #8EC900",
"b. c #94C400",
"n. c #9EC500",
"m. c #95CB00",
"M. c #9BCD00",
"N. c #A4C100",
"B. c #ABC300",
"V. c #A6CE00",
"C. c #ABCC00",
"Z. c #B5C600",
"A. c #B3CC00",
"S. c #BACA00",
"D. c #A3D100",
"F. c #ACD400",
"G. c #B4D600",
"H. c #B7D800",
"J. c #BDD900",
"K. c #BBD500",
"L. c #C4CE00",
"P. c #CBCE00",
"I. c #C7C700",
"U. c #DEC600",
"Y. c #D1CC00",
"T. c #DCCC00",
"R. c #C6D300",
"E. c #CBD300",
"W. c #C3DB00",
"Q. c #C9DD00",
"!. c #D4D200",
"~. c #DAD600",
"^. c #D3DC00",
"/. c #D9DA00",
"(. c #E4C500",
"). c #EDC400",
"_. c #E5CE00",
"`. c #EBCC00",
"'. c #FBCE00",
"]. c #F6C900",
"[. c #EBD200",
"{. c #EBDB00",
"}. c #E4D900",
"|. c #F2D400",
" X c #F9D300",
".X c #F5DB00",
"XX c #F8DC00",
"oX c #D1E000",
"OX c #DAE300",
"+X c #E3E500",
"@X c #EBE500",
"#X c #ECE800",
"$X c #F3E400",
"%X c #F9E100",
"&X c None",
/* pixels */
"&X&X&X&X&X&X&X&X: &X&X&X&X; ; # T ( 4 ; &X&X: : q ( : &X&X&X& 6 / ~ : &X&X&X&X&X&X: &X&X&X&X&X&X&X&X&X&X&X&X&X&X&X&X&X&X&X&X&X&X",
"&X&X&X&X; O $ O.6.O.J k k K Q p G.=.=.6.V R M ( 7.7.7.8.J B Y F D.=.K ` V T N z ' g Q 5 ; &X&X&X&X&X&X& o - *.=.n Q 5 &X&X&X&X&X",
"&X&X&X: f 9.R X.=.=.=.1.q.M.N L. XG.x.D.h.) 8.N m 8.=.4.q.m.g a. X%XF.b W Y g m 8.=.1.2.&.R 4 &X&X&X: N K ^ o.=.=.=.=.w.T 6 &X&X",
"&X&X8 g 1.=.7.N M n 5.OX@XC.' I @.!.S._ n 0.X.=.=.7.M.OX#Xn.M ! s :.D ' G 0.b 0.m b B.!.N.M R &X&XY N =.=.*.M M N B.!.L.M ` 4 &X",
"&X&XY R |.Q.x.N ' b =.=.=.=.=.' ] =.*._ =.=.=.=.=.=.=.=.=.=.X.M o.=.o.M =.=.=.=.=.b G =.=.=.M : &XR P .XG.5.m n 8.b =.=.=.x 7 &X",
"&X&X7 N t.E.m M *.=.=.=.=.=.*.m =.=.7.N n =.=.=.=.=.=.=.=.=.=.b =.=.=.M 8.=.=.=.=.=.X.=.=.=.B 4 &XT m Z.^.h M *.=.0.=.=.=.K 8 &X",
"&X&X/ =.*.b B n =.=.=.4.F.F.0._ 7.=.=.=.M 8.7.=.=.=.=.4.G.F.] b =.=.=.*.) O.7.=.=.=.1.m.J.5.g + ; N =.X.x m 8.=.=.=.x.F.c.x & &X",
"&X+ ) =.=.=.8.' 0.7.o.i.^.| _ X.=.7.0.M m ] n B O.7.O.u.!.u g o.=...M ' N 0.x x O.7...R.h.Y U * & x =.=.=.b _ *.=.o.^.E.p Y = &X",
"&X  W 7.=.=.7._ 7 Y Y R Y 4 m =.=.=.=.] 8.J.J.' 6 T Y R ! 7 G =.=.=.=.0.8.=.] W 7 R / f 4 Y J / o M =.=.7.*._ U R / / 4 6 M m &X",
"&X+ E B =.7.*.] m n =.=.=.V _ O.m.1.=.=.=.1.X.X._ 8.=.=.=.9.x X.M.=.=.=.=.=.] ] n *.=.=.0.f J R $ R 8.=.=.] 8.n X.=.=.0.( 8.' ; ",
"&X4 W 7.=.=.=.=.O.=.=.=.=.=.*.m.'.Q.D.q.5.=.=.=.O.=.=.=.=.=.=.F.'.@XM.q.1.=.=.=.=.=.=.=.=.7._ Y 7 _ =.=.=.=.=.=.=.=.=.=.=.m Y 6 ",
"&X7 U b =.=.=.=.o.=.=.=.=.=.=.n  .K./.E.B.n ] *.o.=.=.=.=.=.=.b ,.C./.E.s.G ] =.X.=.=.*.x g ) _ 6 R O.=.=.=.=.O.=.=.1.b m ` M 7 ",
"&X4 8 ^ K 0.X.B _ =.=.=.=.=.q.D.M Y ! m V 8.] B g =.=.=.=.1.c.M._ Y ( m b 8.0.m m =.=.=.=.=.b g 7 7 ! 8.0.O.x m =.=.=.=.7.J x 7 ",
"&X7 M =.=.=.=.X.) 8.=.=.x.@X'.{.n =.=.=.=.=.=.0.' 0.=.=.c.@X XOXG -.=.=.=.=.=.8.' o.=.=.c.@XZ.P.Y N =.=.=.=.8.W o.=.=.x.OXB.d.q ",
"&XU K 8.=.7.=.=.n W x m.$X X/.b =.=.=.=.X.=.=.=.x W b D.$X XR.J =.=.=.=.X.=.=.=.B W n F.#X$X{.a.R o.] =.=.=.=.b W n m.@X$X$XU.& ",
"&X1 ' W m M *.=.] =.B ) M ' R Q.q.=.=.] M n 7.=.B *.N _ g ` ` Q.4.=.=.0.g 8.7.=.B *.m _ M F Y : E _ ' b m =.=.m X.m g N w.s 4 O ",
"&X. 7 ) x G M b =.=.*.=.=.m 4 y.%XQ.m.M b M Y M =.=.*.7.7.g 4 b.$XQ.v.M b ) R m =.=...=.=./ U 2 O Y ' V x m 0.=.=.o...*.h 7 2 X ",
"&X, =.-.=.=.o.N M *.=.=.=.=.! d {.M.4.=.=.^ ! c M =.=.=.=.=.R z {.M.1.=.=.N ( B x =.=.=.=.=.Y W T =.=.=.=.0.m b =.=.=.=.=.! W @ ",
"&XI O...B _ M B M o.=.q.x.F.( #. X X$X1.M ^ X.b M ..=.x.Q.OXM ;.OX X@X*.g W m b N =.=.=.=.4.g R f =.7.b M m M M 7.=.=.=.=.m R & ",
"&X: R Y 8.X.O.=.=.=.v.Q.+Xn.( e / 3.<._ K ..=.=.=.M.@X X^.F._ Y f 3.,.' 8.{ *.=.=.=.=.=.=.X.' U 7 W ^ n 8.] *.=.=.=.=.=.1.) 7 U ",
"&X: 8 Q 7.=.=.=.=.=.=.=.=.=.=._ X.=.*.g =.=.=.=.=.=.=.=.=.=.=._ o.=.O.M 7.=.=.=.=.=.=.=.=.=.8.W : 4 f =.=.=.=.=.=.=.=.=.=.X.W 7 ",
"&X7 W ^ ( =.=.=.=.=.=.=.=.=.*._ =.=.=.B b =.=.=.=.=.=.=.=.=.o.g =.=.=.m 8.=.=.=.=.=.=.=.=.=.0.W Y W R V =.=.=.=.=.=.=.=.=.=.W R ",
"&X= N ' W N 7.=.=.=.=.5.J.J.0.m =.=.=.=.m J =.=.=.=.=.q.W.G.0.B =.=.=.*.M 8.=.=.=.=.=.q.Q.F.n N U m W R J =.=.=.=.=.=.m.m.8.8.- ",
"&Xo 8 ~ m =.n M ] ..o.-.R.D M X.=.7.m _ m X.b m ] *.] 5.S.z M o.=.*.M ' x =.B N X.*.0.i.S.s R = + f d N *.b n *.=.*.m._.p.W 2 O ",
"&X% W W ] 1.X.' 7 I I k ! e b =.=.=.=.X.8.=.0.W 9 E R ` ^ Y N =.=.=.=.0.0.=.8.W 7 Y R g ! ^ b N = R ` X.=.X.` I R R ^ ^ 7 d M $ ",
"&X7 W g =.=.O.X.K *.=.=.=.V M 8.D.1.=.=.=.=.o.o.K *.=.=.=.n g *.D.=.=.=.=.=.X.X.G 7.=.=.=.=.m ` T W N =.=.8.J N 8...=.=...b g 9 ",
"&X4 n M ] =.=.=.4.=.=.=.=.=.=.m. X$XH.c.q.=.=.=.=.=.=.=.=.=.=.D.'.XXF.c.5.=.=.=.=.=.=.=.=.=.7./ ! B M 7.=.=.=.=.=.=.=.=.=.*.h : ",
"&X7 ^ ' N =.4.H.Q.0.=.=.=.=.=.8.H 3.R.A.p.n 8.=.X.=.=.=.=.=.=.b { L.R.S.y.G 0.=.0.=.=.0.=.=.q.3.7 g ' B =.=.b.m.=.=.O.7.=.1.$.R ",
"&X: W W M 8.m.h.! 7.=.=.=.=.v.F.g Y f b n 8.X.N g =.=.=.=.1.m.F.h T h b n 0.0.m M =.=.X.M 2.T.z 4 W W c o.H.~.N =.=.o.N ] {.S., ",
"&XU W J =.=.7.K ^ 8.=.=.x.@X X}.n =.=.=.=.=.=.X._ 0.=.=.c.@X$XQ.8.=.=.=.=.=.=.] ' 0.=.=.7.5._ Y T ` b *.*.X.M 7 X.=.=.] .._ Y o ",
"&X: W OX4.=.=.=.b ' b q.@X XR.b =.=.=.=.X.=.=.=.x ' J x.#X$XZ.n *.=.=.=.] =.=.=.m ' S.@X{.s.b Y Y _ D.1.=.=.=.B ' A.OX@X^.0.` 6 ",
"&X+ & #.y.m 7.=.J *.x _ _ ` R ^.6.b =.8.' b =.X.x *.B _ ^ ! 8 +XJ X.=.8.g n =.=.x 7.M _ ` e : 1 # I U.u.8.=.=.m 0.m J v Y 8 I 9 ",
"&X  7 ` b 8.( N *.=.7.7.=.m 6 t.%X^.V.N n M 8 M 7.=.7.=.=.k 4 h.XXOXv.m K g T M =.=.*.=.=.8.p 2 X < T k N z n 7.=.X.X.O.V 8 = . ",
"&X. W _ o.7.( b M 7.=.=.=.=./ v {.c.1.=.=.J ! x M =.=.=.=.=.^ F {.c.1.=.7.f g b m =.=.=.=.=.f W $ W x =...^ B V =.=.=.=.=.c R < ",
"&X* R W g ! ) x m O.=.q.m.H.m }  X X$X-.g W g x m *.=.=.=.=.M 3. X X$XX.! 8 N ] B 7.=.4.H..Xb.R , W W b ( N M M *.=.=.5.OXF./ 6 ",
"&X# 6 W 8...*.=.=.=.m.Q.^.b.M R / +.{ ` 0...*.=.=.=.=.=.=.X.) R ( +.[ ) 9.=.=.=.=.=.x.$XXXOXf 7 4 7 W x n 8.*.=.=.q.@XXX X@.Y Y ",
"&X: W m =.=.=.=.=.=.=.=.=.=.=._ o.=.*.g F.-.=.=.=.=.=.=.=.=.=._ ..=...M =.=.=.=.=.=.=.=.=.=.7.` > R m =.=.=.=.=.=.=.=.7.=.*.! 7 ",
"&X4 W _ b =.=.=.=.=.=.=.=.1.*._ =.=.=.x ^.%Xm.x.=.=.=.=.=.=.O.M =.=.=.m G =.=.=.=.=.=.=.=.=.=.M Y ' N O.=.=.=.=.=.=.=.=.=.=.m I ",
"&X8 b M ' 8.*.=.=.=.=.x.Q.Q.8.m =.=.=.*.M 2.Q.F.=.=.=.c.OXJ.8.B =.=.=.*.M 8.6.=.1.=.=.v.OX@X$.k Y d W M 7.=.=.=.=.=.=.q.x.7.8.Y ",
"&XI Y M B 0.n M 8.X.0.{ N.v g *.=.*.b ' x X.b M 0.o.9...N.d M *.=...M ' b X.B m 0.X.8.-.r.y N ` ` f N M b b K 7.=.7.m.(.I.| R : ",
"&X& w W 8.=.] ) 7 Y ^ / / Y M =.=.=.=.o.8.=.8.W 7 Y R ` ! Y 8.7.=.=.=.X.0.7.8.R I R _ k ( / o.` - U W n =.] ` Y ` ^ R 8 Y o.M = ",
"&X  = ] =.=.*.*.9.*.=.=.1.9.g o.F.4.=.=.=.=.*.*.8.M X.=.=.N b *.H.1.=.=.=.=.*.*.8.7.=.=.7.o.^ - O U ] =.=.8.b d b *.=.=.9.d Y . ",
"&XX + B.=.=.*.*.=.=.=.=.=.=.7.m. XXXQ.M.m.=.=.=.*._ _ n M N _ V.'.|.W.M.v.=.=.=.=.=.=.=.=.c 7 Y X 4 5.=.=.=.=.=.=.=.=.=.*.R 8 X ",
"&X# 4 r k.o.m *.=.=.=.=.=.=.=.8.z B.B.N.s.M M x M m *.=.=.=.=.n l B.B.N.e.b 0.=.X.=.=.=.O.d Y $ & # k.+X2.N =.=.=.=.=.=.N e 4 X ",
"&XO W R , w Q.=.=.=.=.=.=.1.D.F.g Q f b n 0.N ! / 7.=.=.=.=.=.=.Q 8 f J K ] O.N _ =.=.=.=.v.t . 4 R 7 : E v.=.b =.1.=.*.0.s     ",
"&X. 4 R = w T.%XOX*.0.=.x.$X XM.g =.=.=.=.=.=.0._ 8.=.=.=.=.=.q.p 6.=.=.=.=.7.8.7 b =.+X%X`./ Y @ R W % p XXW.m ] 7.q.J.$X>.4 + ",
"&X  % R R *.b ;.H ' n o.[. X[.j.Y X.=.=.=.=.=.=.o./ *.=.=.v.@X Xl.=.=.=.=.7.0.b d 5 ! g.Y.k 8 7   * I Y V [ T.A 4 c {.].L.R R # ",
"&XX : n X.=.=.=.=.X.g i #.=.*./ 4 S v.=.=.=.=.=.F.I.p M.@XXXXX).i p.`.`.,.*.*.=.7.7.M R ` ) 8.5 # 9 x b =.7.*.*.J ~ 7 R W f 8   ",
"&X  7 h J G D.OX$Xz.: t.}.B.>.R $ 0 ).R.1.v.D.+X$Xl.q [.@XA.t.` & @ T B O.v.M.@XXXk.4 b 2.F.:.: . > ] O.O.=.q.M.{.^ ) b 8.6.e   ",
"&X  8 Y 7 ` | p.y.6 + G B ' W W I + ; ^ ` _ @.G.H.Q % b B ) W W 9 > W W ' _ :.s.:.: , 8.n.w.^ W O R R ^ k R.U.U.r + *.M._.C Y @ ",
"&X. : ; 7 W W W W T 4 W W W W W T 4 W W W W W W ` 7 6 ` W W W W w T R W W W W W ` I 7 W W W W : O : : w W W W W 8 - ' ` W W Y + ",
"&XO 7 T W W W W W R ; 7 W W W W R ; W W W W W W W R ; Y W W W W 6 7 W W W W W W ` Y : T ` W 7 : # 7 9 W W W W W R 4 W W W R 4 o ",
"&X. ; : 8 R W W W Y 8 J b m W W R 6 T R R W W W W T & H V ` W W U O R W W W ' m Q Y > k J W W & @ 4 Y R W W W R 7 : ! V ' Y > . ",
"&X  @ : R W W W W R # ! ' W W W 4 % c 8.d W W W W R o R W W W W 9 . W W W W ' ' ` Y # R W W W - X ; ; U W W W W W ; _ ' ' W -   ",
"&X  + & 6 W W R ! R o 9 ) _ ) Q ^ O Y W W W W W R 9 + I ' ) _ ^ 7 + R W W W W W ` > . Q g M x '   X : R W W W W T O : W W W ^ 7 ",
"&Xo 7 6 W W W W g 9   Z %X@XQ.+XU.  4 W W W W W W U O r..X@XJ.@Xt.% 7 ' W W W W - O   f.$XF.z > . ; > T W W R f 4   e.W.2.=.( $ ",
"&X* W <.=.8.b J x L a 3 / d ) x / $ d x M _ ` ' ^ 9 @ 2 ) ' ' b / < 8.m.X.8.x J V | 5 I ) W R 4 I R M M M W _ Y 9 % 5 N.d.` : O ",
"&Xo 4 g.!.3.OX@X X`.A U W W W W e = n $X#X=.-.4.Q.{.Z U W W W W R Y g L.S.u.@X@X X(.q T W W W 9 % W |.@X1.4.q.OX XS 2 W W W I + ",
"&Xo : 4 ` W ' ) ) ` Y R W W W W 7 < ` ' ) D E.^.!.y.4 Y W W W W R Y W W W W ) ! ^ W Y R W W W - # ; 7 W F E.Y.Y.w.Y Y W W W 8 o ",
"&X  : 7 R W W W W W 7 U W W W R > e W W W W W W W W 7 Y W W W W R 4 W W W W W ( m W 7 Y W W _ _ O ; 7 W W W W ( ' Y Y W W W R @ ",
"&X  : ` c N ' _ g V ' 4 W W W W T 7 W W R R R W W / 8 6 ` ` W W R 4 7 W W W W M ) B ^ 4 R W h 4 O 7 Y / W W W W ^ ^ 4 W W M g O ",
"&X  & ; T m M ' g ' 7 > 7 W W W U > R W R h h W m N 7 8 I W W W 7 R W W W W m b m _ 4 7 7 W W 7 X ; ! J 8.M M B K R 7 Y W W 7 X ",
"&X&XX ; R W W W W U     < R W W $ # R W W W W W W R   & R R W W @ * 7 W W W W W W ,   # : W W %   & : R W W W ` R * & 4 R W Y   ",
"&X&X&X&X&X&XW R &X&X&X&X&X&X&X&X    & R W W W W R &X&X&X* R W &X&X&X&X- W W W W &X&X&X&X&X&X&X&X&X&X: U W W R 7 .     # R R @ &X"
};
