/* XPM */
static char *result[] = {
/* columns rows colors chars-per-pixel */
"64 64 151 2 ",
"   c #000001",
".  c #00040A",
"X  c #00090E",
"o  c #000E11",
"O  c #001315",
"+  c #001718",
"@  c #021A1B",
"#  c #081E1E",
"$  c #011E21",
"%  c #062324",
"&  c #0C2323",
"*  c #042729",
"=  c #052A2C",
"-  c #0D2C2C",
";  c #122827",
":  c #122B2A",
">  c #13302F",
",  c #0F2F32",
"<  c #063032",
"1  c #0E3333",
"2  c #0D3738",
"3  c #0F3D3D",
"4  c #143434",
"5  c #1D3532",
"6  c #163837",
"7  c #123738",
"8  c #163C3B",
"9  c #193E3D",
"0  c #272D21",
"q  c #263E37",
"w  c #2D3D32",
"e  c #353F31",
"r  c #17403F",
"t  c #1B403F",
"y  c #2E463E",
"u  c #2E4B3E",
"i  c #364536",
"p  c #3C4635",
"a  c #364937",
"s  c #3C4B37",
"d  c #32463A",
"f  c #334A3A",
"g  c #7A5912",
"h  c #77641F",
"j  c #7D661D",
"k  c #47472D",
"l  c #48452B",
"z  c #5D4F28",
"x  c #5F542D",
"c  c #424E36",
"v  c #455136",
"b  c #4B5336",
"n  c #525635",
"m  c #595533",
"M  c #575935",
"N  c #5C5A34",
"B  c #635325",
"V  c #6A5C27",
"C  c #63572A",
"Z  c #665C2F",
"A  c #6A5D2C",
"S  c #715F29",
"D  c #625D31",
"F  c #6E612B",
"G  c #776427",
"H  c #7B6626",
"J  c #7F6923",
"K  c #736329",
"L  c #103E40",
"P  c #183F41",
"I  c #174241",
"U  c #1A4443",
"Y  c #1A4847",
"T  c #1D4C4B",
"R  c #234645",
"E  c #2B4741",
"W  c #274D44",
"Q  c #2A4B42",
"!  c #224C49",
"~  c #8B670E",
"^  c #936F0F",
"/  c #98740E",
"(  c #9D7A0C",
")  c #856512",
"_  c #8D6F12",
"`  c #866C1E",
"'  c #886E1F",
"]  c #906D12",
"[  c #8F7116",
"{  c #8D711C",
"}  c #957612",
"|  c #977817",
" . c #9B7B14",
".. c #937519",
"X. c #A06A00",
"o. c #B16C00",
"O. c #AA7400",
"+. c #A67D00",
"@. c #A97C01",
"#. c #A37E0B",
"$. c #B47400",
"%. c #B57D00",
"&. c #BA7C00",
"*. c #A07F12",
"=. c #816722",
"-. c #836B21",
";. c #C07F00",
":. c #AC8301",
">. c #A9840C",
",. c #AD880A",
"<. c #B08200",
"1. c #BF8100",
"2. c #B78F04",
"3. c #BC8B00",
"4. c #B08908",
"5. c #BD9200",
"6. c #A38010",
"7. c #C28500",
"8. c #CF8000",
"9. c #C68C00",
"0. c #C98D00",
"q. c #D98500",
"w. c #D68D00",
"e. c #C39100",
"r. c #CD9300",
"t. c #D19500",
"y. c #DE9700",
"u. c #D29B00",
"i. c #DE9C00",
"p. c #E49200",
"a. c #E79A00",
"s. c #ED9C00",
"d. c #D7A100",
"f. c #DAA500",
"g. c #DDAA00",
"h. c #E5A100",
"j. c #EAA500",
"k. c #E1AC00",
"l. c #EAAD00",
"z. c #FBAF00",
"x. c #E4B400",
"c. c #ECB300",
"v. c #E7B900",
"b. c #EBBA00",
"n. c #F3B300",
"m. c #FAB300",
"M. c #F3BE00",
"N. c #F8BB00",
"B. c #F6C100",
"V. c #F9C000",
"C. c None",
/* pixels */
"C.+ s 2.2.2.{ Q ..2.*.3.u._ b  .2.4...v D | J F *.4.6.7.u.C n  .5.6.b f D | K K 6.2.6.u.&. .2.4...b D  .=.F 6.2.6.3.t.B n 6.= C.",
"C.  ! 4.2.2.2.v 8 Y Y Y Y 4 N 2.2.2.5.| -.g.g.Q 6 T U T R 6 -.5.5.2.2.....2...T I Y s d 4 2.2.2.2.| -.g.g.Q 8 U Y T R 9 -.2.N C.",
"C.+ Y F 2.2.6.| D =.2.2.2.S s 6.r.5.2.5.5.5. .| v { 5.2.2.{ K  .r.5.2.2.2.2. .| -.,.2.5._ 6.r.5.2.2.2.5. .| v ' 2.2.2.{ K  .f : ",
"C.4 W 4.2.2.2.2.6.2.5.2.2.2.,.r.m.g.u.e.e.2.2.2.6.2.2.2.2.2.5.u.m.x.t.5.5.2.2.2.2.2.2.2.2.0.m.k.u.e.e.2.2.2.6.2.2.2.2.2.2.u.I 6 ",
"C.8 r H 2.2.2.2. .2.2.2.2.2.2.-.( r.f.u.9.-.| 4.6.2.2.2.2.2.2.H :.r.f.u.1.' ..2.6.2.2.,.K -.( r.f.u.7.{ ..2.6.2.2.2.2.2.2.H M 6 ",
"C.6 9 R =...6.F v 2.2.2.2.2.e.u.n I E Z K -. .A b 2.2.2.2.5.r.t.s U f D K { | Z N 2.2.2.2.u.n I u D K -.| A b 5.2.2.2.5.r.r.F r ",
"C.8 n 2.2.5.2. .a ' 2.5.e.v.z.l.=.5.2.2.2.2.2...f | 2.2.0.b.m.k.-.5.2.2.2.2.2.{ f 6.2.2.0.l.J 2.2.2.2.2.2...f | 2.5.r.b.z.x.&.q ",
"C.I -.{ 2.4.2.2.J u K 0.M.m.f.H 2.2.2.2.*.2.2.2.K Q H u.b.N.u.-.2.5.2.2.6.2.2.2.F W -.u.B.H 2.5.2.2.6.2.2.2.K Q H r.b.m.u.-.p.$ ",
"C.1 Q Q D n 4.2.| 2.F f v f T f.e.2.2.| n -.2.2.K 6.D s b f T g.5.2.2.| b ' 2.2.F ,.M s v f.e.2.5.| n -.4.2.F >.D s b u T g.6 O ",
"C.. r s K -.N H 2.2.>.2.5.N 6 <.B.g.r.N G n U M 2.5.,.4.4.b 4 7.M.g.9.M H s U D 2.2.>.2.2.%.B.g.r.N K n U M 2.2.>.2.4.b 6 7.3 . ",
"C.1 2.2.2.2.*.A M 2.2.2.2.5.E m l.r.5.2.2.W Q K N 2.2.2.2.2.! V l.u.5.2.2.Z f F K 2.2.2.5.n l.r.5.2.5.R E K N 2.2.5.2.2.U V ! $ ",
"C.P 6.>.F v n K M 6.2.5.9.u.p ] m.N.B.2.N T  .G M 6.2.e.g.x.M :.x.m.b.6.v ! D J F 2.2.2.2.^ m.m.B.2.N !  .K M >.2.e.g.x.N :.T & ",
"C.: Y U {  .*.2.2.2.r.x.v.9.d I E <.<.f -.>.2.2.2.r.b.m.k.u.f Y s <.:.f {  .>.2.2.2.2.2.2.U E 2.:.f -.>.2.2.2.r.b.m.k.u.f Y P P ",
"C.: 8 R 4.2.2.2.2.2.2.2.2.2.2.v 6.2.,.b 2.2.2.2.2.2.2.5.5.2.2.s 6.5.6.n 2.2.2.2.2.2.2.2.2.v 6.2.>.b 2.5.2.2.2.2.5.2.2.2.5.s W 6 ",
"C.9 W ! d 2.2.2.2.2.2.2.2.2.,.c 2.5.2.F J 2.2.2.2.2.2.2.4.2.*.b 2.2.2.D { 2.2.2.2.2.2.2.5.v 2.2.2.K J 2.2.2.2.2.2.2.2.2.6.b W Y ",
"C.= Z f ! F 4.2.2.2.2.e.f.f...A 2.2.2.2.N -.2.2.2.2.2.e.g.i...K 2.2.2.,.v ' 2.2.2.2.2.e.f.Z 2.2.2.4.N -.2.2.2.2.2.e.g.d...F ' 1 ",
"C.o 9 i N 2.J N | >.6.4.r.h b *.2.4.D f A  .H D  .>. .2.0.V M *.2.>.b f K 2.K F  .>.| 3.0.*.2.4.D f F  .G D  .>. .2.r.V m 6.3 O ",
"C.$ W W  .2. .u 8 8 I m y r G 2.2.5.2. .{ 2.| Q 6 T ! u T U D 5.2.2.2.| ..2.{ ! 6 U ! c E 2.2.2.2. .{ 2...W 8 Y T u ! U D 2.n @ ",
"C.9 W b 2.2.6.6.-.>.2.2.5.K n ' u.5.2.2.2.5.6.*.-.6.2.5.2.-.b ,.u.2.2.2.2.2.*.*.-.2.2.2.2...u.5.2.2.2.2.6.6.' >.2.2.2.` b ,.b 7 ",
"C.4 -.v  .2.2.2.5.2.2.5.2.2.2.r.m.M.d.0.5.2.2.2.2.2.2.2.2.2.2.r.m.N.d.e.e.2.2.2.2.2.2.2.2.0.z.M.f.r.5.2.2.2.2.2.2.2.2.2.2.r.v : ",
"C.6 ! f Z 2.5.d.f...2.2.2.2.2.-.` 2.r.r.&.-...4. .2.2.2.2.2.2.J | t.u.0.<.-...2.| 2.2...2.-.` 2.r.r.&.J ..2. .2.2.2.2.2.2.J >.Y ",
"C.> ! W N { r.1.y 4.2.2.2.2.r.i.b U f J J '  .Z b 2.2.2.2.5.r.u.c U s H =...| A N 2.2.*.N u.n U i H H {  .D b 2.2.2.2.5.r.u.0.1 ",
"C.r W =.2.2.4.' Q { 2.5.e.v.z.k.=.4.2.2.2.2.2.6.s | 2.2.0.b.M.f.{ 2.2.2.2.2.2.| Q | 2.2.2.k.=.4.2.2.5.2.2.6.s ..2.2.r.b.M.g.Y o ",
"C.: W x.5.2.2.2.=.f K e.v.m.u.H 2.2.2.2. .2.2.2.K f -.e.b.B.9.=.,.2.2.2. .2.2.2.D Q r.c.c.H 2.2.2.2. .2.2.2.K d =.e.b.B.7.-.R 6 ",
"C.+ & _ <.D 4.5.=.>.K f b R T g.,.H 5.{ f H 4. .K ,.Z s E R 9 x.=. .2.{ v -.2.2.K ,.N s Q g.,.=.5.{ a H 2.| K >.Z s Q R 9 k.P 8 ",
"C.  8 d H ..p D ,.2.4.4.2.D 6 <.N.k.r.D J N 9 b 4.5.4.2.2.N 6 1.N.x.0.N -.v Y N 2.2.,.2.2.<.M.g.r.D =.N P b 2.2.2.2.2.N 4 7.=   ",
"C.. W v 6.4.f K b 4.5.2.2.2.Q C l.0.5.2.5.H y K N 2.2.2.2.2.T j l.0.5.2.4.c b K Z 2.2.2.5.C x.9.5.2.2.H E K N 5.2.2.2.2.! j T 1 ",
"C.* T W v R s K D 6.2.e.r.f.A } m.m.B.2.v ! b K D ,.5.2.2.5.N :.m.m.B. .E 9 Z | Z 2.2.5.d.| m.m.B.4.v ! n S D 4.2.2.2.2.N :.u 6 ",
"C.$ 7 R { >.>.5.5.2.r.g.x.7.v Y Q / | a ..>.,.2.2.2.2.2.2. .s T i ( ..f { 2.2.2.2.2.0.M.M.Y E ( } f | >.,.2.2.2.5.2.2. .s Y U Y ",
"C.: W D 2.2.2.2.2.2.2.2.2.2.2.v 6.2.>.v u.2.2.2.2.2.2.2.2.2.5.s >.2.6.b 2.2.2.2.2.2.2.2.5.v 6.2.,.v u.2.5.2.2.2.2.2.2.2.2.v R 8 ",
"C.4 Q v K 5.2.2.2.2.2.2.2.2.,.v 5.2.2.K f.M.r.e.2.2.5.2.2.2.6.n 2.2.2.A ' 2.2.2.2.2.5.2.2.c 2.2.2.K f.B.r.e.2.2.2.2.2.2.6.n N r ",
"C.P H v f { ,.2.2.2.2.e.k.g.' Z 2.2.2.,.N 2.g.u.2.2.2.e.x.f.' F 2.2.2.,.n ' 4.2.2.2.2.0.x.Z 2.2.2.,.M 2.g.u.2.2.2.e.x.f.' F { U ",
"C.9 U b F { J n { 6.| } 7.Z b >.2.2.K u K  .H N .. .{ #.7.M D >.2.>.b f K  .F D | *.{ :.O.6.2.2.K f F 6.K N .. ...#.7.n D >.R : ",
"C.& 9 f { 2.| f 8 Y W f i U n 5.2.2.2.6.{ 2.{ W 6 U ! Q E U ` 2.2.2.2. ...5.{ ! 8 ! s m i 5.2.5.4.6.{ 2...Q 8 Y T Q Q U ' 2.D - ",
"C.  = | 2.2.,.>.{ ,.2.2.2.{ b 6.d.5.2.5.2.2.>.>.{ n  .5.2.Z J ,.d.5.2.5.2.2.>.6.{ 4.5.2.2.*.d.5.2.2.2.2.,.6...b  .2.2.Z H ,.r X ",
"C.X @ e.2.2.2.4.2.2.2.2.2.2.4.0.m.N.g.r.r.2.2.2.,.v s J D D s r.m.m.g.r.r.2.2.5.2.2.2.2.2.0.z.m.g.r.r.2.2.2.,.v c J N Z c r.r X ",
"C.# 6 k &. .N ,.2.2.2.2.2.2.2.{ F 7.7.7.%.N M H n Z >.5.2.2.2.J C 9.7.1.@.H ..2. .2.2.2.6.{ F 7.7.3.&.N n K n D >.2.2.2.2.J > X ",
"C.+ W T - I f.2.2.2.2.2.2.5.r.d.b R c H J ..C R u 4.2.2.2.2.2.2.R P c J =.| 6.A b 2.2.2.2.i.b ! c H -...Z E d 4.5.2.2.2.2.2.    ",
"C.  4 T = I i.N.x.>...2.0.B.m.t.b 2.2.2.2.2.2.| s { 2.2.2.2.2.9.w >.2.2.2.2.2.' L H 2.v.B.r.v 2.2.2.2.2.2.| s ..2.2.2.2.2.e.1 @ ",
"C.  % Y T ,.G >.` f J *.l.m.j.&.U  .2.2.2.2.2.5. .f >.2.2.r.v.m.w.2.2.2.2.2...H m 4 d $.t.&.U  .2.2.2.2.2.2. .f 6.2.5.0.v.m.Y # ",
"C.X : J  .5.2.2.5. .n e } 2.,.s 4 z 0.2.2.2.5.2.d.0.i t.v.m.V.s.e %.j.j.:.>.,.2.2.2.b T W s 4 z 0.2.2.2.2.5.d.r.i t.v.N.V.s.9   ",
"C.  6 c -.` r.x.b.p.: :.h.7.:.T $ 0 s.u.5.0.t.x.M.q.e l.b.r.<.W & @ U S 6.r.r.v.B.8.7 J 5.T & 0 s.u.5.0.r.x.M.q.e l.b.r.%.W R   ",
"C.  r U 9 R [ %.%.6 @ -.F Q W W 9 + ; ! Q f ( u.d.R % H F f W Q 6 , W W W s :.1.+.: - -.7.W 9 + : W Q s ( u.f.R % G F a W W 9 @ ",
"C.. : ; r W W W W Y 4 W W Q W W U 4 ! Q Q W W W W 8 6 W W Q W W P T T W W W W W Q I 8 W W Q W : O : : I W W W W 8 , u u W W U + ",
"C.+ 8 Y W W W W W T : 6 T W W W T : ! W W W W W W T - I ! W Q W 6 6 ! W W W W W ! U : U Q ! 9 ; # 8 6 T W W W W T 4 ! Q W T > O ",
"C.  ; : 8 T W W Q I 9 ` G N W Q T 6 Y T T T W W W U & ` F W W W U + T W W W f Z R Y : D -.Q ! ; + 6 I ! W W W T 9 : R V a U > . ",
"C.  # : T W W W ! T # R f W W W 4 & K { N W W W Q T O T W W Q W 7   ! Q W W Q Q W r # U W ! ! - X ; ; U T W W Q ! ; c f W W -   ",
"C.  + # 8 W W T u T o 7 a v i R ! + U ! W W W W Y 7 + Y f c v Y P + T ! W W W W W 4   ! v N K Q   X : Y W Q ! T T O : T W W ! 8 ",
"C.o 6 6 ! Q Q ! s 7   g B.b.g.x.y.  7 ! W W W W W I O X.N.v.d.b.<.% 6 Q W W W W - O   o.V.t.V > . : > Y W W T c 4   O.f.5.2.d $ ",
"C.* ! <.2.' K J S ` p < f M f F d % n S M v Q f W 7 $ 2 f a u G u 1 ' r.6.{ F =.A _ 5 3 s W T 4 L T b N n W s U 6 % 5 7.%.R : O ",
"C.O 6 $.u.2.x.v.m.s.z I W W W W r % -.B.v.5.2.5.g.c.) I W W W Q T 9 n r.r.3.v.M.m.a.q Y W W W 4 & T m.x.5.5.e.x.n.B 3 W W W I @ ",
"C.X ; 4 W Q d a a Q I T W W W W 9 1 W u a h r.u.y.%.6 U W W W W T I W W W W f R Q R U Y W W W - # ; 8 W ` r.r.t.+.U I Q W W 9 o ",
"C.  > 6 T Q W W W W 8 8 W W W W > 8 W W W W W W W ! 8 I Q W W W ! > ! Q W W W d D ! r U W W s s + ; 6 W W W W s f I U W W W Y @ ",
"C.  : R G D Q s c A f 6 W W W W Y 8 W W T T T T W s 9 6 W W Q W T 7 8 T W W Q b s V R 4 ! W v 6 O 8 U f Q W W W ! ! 6 W W N c + ",
"C.  ; ; ! D n u b Q 8 4 r T W W I 4 T W ! v v W Z Z 8 8 I ! Q Q 9 T W W Q E D K Z c 6 r 6 ! W 6 X ; R =.{ b M Z -.! 6 Y W R 6 o ",
"C.  6 c =.` u.x.M.p.: <.k.7.:.T & 0 s.u.5.0.r.x.B.q.w l.b.r.<.W & + T F >.0.u.v.V.;.4 J 5.d.+.:   4 | #.6.2.5.r.c.R a J ' >.R   ",
"C.  I U 8 R } <.%.6 + -.K Q Q W 9 + ; ! W s #.u.d.R % H F s W W 7 > ! W W s :.%.+.: - -.9.:.! W + T Y W m u.a.a.l + 4.u.h.) U @ ",
"C.. : ; 9 W W W W U 4 W W W W W Y 4 T Q W W W W W 8 6 W W W W W I U T W W W W W Q I 8 Q W Q W > O : > r W W W W 8 , f E Q ! U + ",
"C.O 8 Y ! Q W W W T : 6 T W W W T : ! W W W W W Q T : I ! W W W 6 8 W W W W W W ! U ; Y Q ! 9 ; # 8 6 T W W W W T 4 ! W Q T 4 O ",
"C.  ; : r T W W W I 9 ` K N W W T 6 Y T T T W W W U & ` F W W W U + T W W W u A R U , Z =.Q ! ; @ 4 I ! W W W T 8 : R V f I 4   ",
"C.  # : T W W W ! T # Q s Q W W 1 & K { N W W W W T o T Q W W W 7 . T W W W W u Q I # T W W ! - X ; ; U T W W Q ! ; c f Q W :   ",
"C.  @ $ 6 W W T E T o 7 f c f R R + U ! W W W W Y 7 @ Y f s v U 9 + T W W W W W W ,   R v M K Q   X : Y W W ! T T O - T ! Q ! I ",
"C.o 6 6 ! W W W c 2   g V.b.g.x.y.  6 ! W W W W W r O / N.v.f.v.:.% 8 u W W W W - O   o.B.r.V 4 . : > Y W W U c 4   O.f.2.5.d @ ",
"C.= Q <.<.{ K =.S ` c < f n s V d $ m V N v Q f R 7 @ 1 d a u G d 1 ' r.6.{ F -.A _ 5 8 s W T 4 8 T b N n E c U 7 % 5 7.&.R > O "
};
