/* XPM */
static char *result[] = {
/* columns rows colors chars-per-pixel */
"64 64 159 2 ",
"   c #000001",
".  c #00030A",
"X  c #00090E",
"o  c #000D11",
"O  c #001315",
"+  c #001718",
"@  c #031A1B",
"#  c #081E1E",
"$  c #021F21",
"%  c #042324",
"&  c #0C2323",
"*  c #042729",
"=  c #052A2C",
"-  c #0D2C2C",
";  c #112827",
":  c #122C2B",
">  c #13302F",
",  c #0C2F31",
"<  c #063032",
"1  c #0D3233",
"2  c #0E3738",
"3  c #0E3C3D",
"4  c #143434",
"5  c #1B3634",
"6  c #163837",
"7  c #123738",
"8  c #163C3B",
"9  c #1A3E3D",
"0  c #272D21",
"q  c #263E37",
"w  c #2C3D32",
"e  c #353F31",
"r  c #17403F",
"t  c #1B403F",
"y  c #2E463E",
"u  c #2E4B3F",
"i  c #364537",
"p  c #3B4636",
"a  c #364937",
"s  c #3C4B37",
"d  c #33463A",
"f  c #334A3B",
"g  c #7A5912",
"h  c #77641F",
"j  c #7C651D",
"k  c #47472D",
"l  c #48452B",
"z  c #564E2B",
"x  c #5C4F28",
"c  c #5F542D",
"v  c #424E36",
"b  c #4B4E36",
"n  c #455136",
"m  c #4C5336",
"M  c #525535",
"N  c #5A5532",
"B  c #575935",
"V  c #5C5A34",
"C  c #635324",
"Z  c #6B5B25",
"A  c #62572D",
"S  c #655C2E",
"D  c #6A5D2C",
"F  c #745F26",
"G  c #715E29",
"H  c #625C31",
"J  c #6E612B",
"K  c #766427",
"L  c #7B6625",
"P  c #7F6923",
"I  c #736329",
"U  c #103E40",
"Y  c #183F41",
"T  c #164242",
"R  c #1A4443",
"E  c #1A4847",
"W  c #164949",
"Q  c #1C4B4B",
"!  c #234645",
"~  c #2B4741",
"^  c #274D44",
"/  c #2A4B42",
"(  c #224C49",
")  c #8B670E",
"_  c #936F0F",
"`  c #9C7707",
"'  c #99720C",
"]  c #9C7A0D",
"[  c #856512",
"{  c #8D6F12",
"}  c #866D1E",
"|  c #896E1E",
" . c #906D12",
".. c #8F7215",
"X. c #8C711D",
"o. c #947512",
"O. c #977817",
"+. c #9B7B14",
"@. c #937519",
"#. c #A06A00",
"$. c #B16C00",
"%. c #AB7300",
"&. c #A67D00",
"*. c #AA7C00",
"=. c #A17B0B",
"-. c #B37500",
";. c #B47D00",
":. c #BA7C00",
">. c #A07F12",
",. c #816722",
"<. c #836B22",
"1. c #C37F00",
"2. c #AC8301",
"3. c #A6810E",
"4. c #A9840C",
"5. c #AD880A",
"6. c #B18200",
"7. c #BE8200",
"8. c #B78F04",
"9. c #BB8C00",
"0. c #B08908",
"q. c #BD9300",
"w. c #A38010",
"e. c #C28500",
"r. c #CF8000",
"t. c #C68B00",
"y. c #C98E00",
"u. c #D98500",
"i. c #D68D00",
"p. c #C39100",
"a. c #CD9300",
"s. c #D19500",
"d. c #DD9700",
"f. c #D39B00",
"g. c #DC9C00",
"h. c #E49300",
"j. c #E59A00",
"k. c #ED9C00",
"l. c #D7A100",
"z. c #D9A500",
"x. c #DDAA00",
"c. c #E5A100",
"v. c #EAA400",
"b. c #E1AD00",
"n. c #EAAD00",
"m. c #F6A700",
"M. c #F3AC00",
"N. c #FBAF00",
"B. c #E4B400",
"V. c #ECB300",
"C. c #E7B900",
"Z. c #EBBA00",
"A. c #F3B200",
"S. c #FAB300",
"D. c #F3BE00",
"F. c #F8BB00",
"G. c #F5C100",
"H. c #F9C100",
"J. c None",
/* pixels */
"J.J.J.J.J.J.J.J.: J.J.J.J.: : # E p 4 ; J.J.; ; t p : J.J.J.& 4 y d : J.J.J.J.J.J.: J.J.J.J.J.J.J.J.J.J.J.J.J.J.J.J.J.J.J.J.J.J.",
"J.J.J.J.; O $ >.8.>.,.A N ,.Y p f.8.8.5.F ( B d 8.8.0.<.,.S R } s.8.} u D E A G f v ! 5 : J.J.J.J.J.J.& o , 5.8.<.! 5 J.J.J.J.J.",
"J.J.J.: m | Q +.9.8.8.q.p.s.H y.A.l.p.s.:.a X.S H X.9.p.p.s.n -.S.H.l.K ^ R m H X.8.q.q.' R 4 J.J.J.> S <.Q w.q.8.8.8.*.Q 5 J.J.",
"J.J.9 v q.8.0.S B ,.q.B.C.s.d R ] f.a.s <.@.>.8.8.8.a.B.C.t.V ^ v *.L u | @.L @.H I t.f.e.B Q J.J.R S 8.8.5.M m S t.f.s.B ^ 4 J.",
"J.J.R Q A.x.t.J / P 8.q.8.8.8.f O.8.5.n 8.8.8.8.8.8.8.8.8.8.w.m w.8.w.M 8.q.8.8.8.P <.8.8.8.B : J.Q Z F.z.q.H <.| I 8.8.8.I 6 J.",
"J.J.8 H 6.f.S M 5.8.8.8.8.q.5.B 8.8.8.H | 8.8.8.8.8.8.8.8.8.q.I 8.8.q.B | 8.8.8.8.8.+.8.8.q.D 4 J.E V 7.z.s V 0.8.O.8.q.8.<.9 J.",
"J.J.f 8.5.L J L q.8.8.q.f.l.@.s 0.q.8.8.n | 0.q.8.8.8.p.z.f.+.L 8.8.q.5.a w.0.8.q.8.q.a.z.q.m + ; H 9.w.I S X.8.8.q.p.l.t.I & J.",
"J.+ a q.q.8.X./ X.0.w.9.l.{ n +.8.0.@.m H +.P J w.8.w.9.s.A M w.q.w.m f S O.J I w.0.3.f.:.R Y * & G 8.q.q.I s 4.8.w.z.a.d R = J.",
"J.  ( 0.8.q.0.n r R E E E 4 V 9.q.8.8.O.<.x.z./ 8 E R Q ^ 8 <.8.8.8.8.@.X.8.@.( T Q a i 4 R P / o B 8.8.8.4.s R E / f 4 8 V V J.",
"J.+ W I 8.8.w.O.S <.8.8.8.I s >.a.q.8.8.8.q.+.O.n | q.8.8.X.I w.a.8.8.8.8.8.+.O.<.5.8.8.@.b L Q @ ( <.8.8.+.| <.w.8.8.@.i | f : ",
"J.4 ^ 0.8.8.8.8.w.8.8.q.8.8.5.a.S.x.f.p.p.8.8.q.w.8.8.8.8.8.8.f.S.C.f.q.q.8.8.8.8.8.q.8.q.0.i R 8 n 9.q.8.8.8.8.8.8.q.q.8.B R 4 ",
"J.8 T L 8.8.8.q.w.8.8.8.8.8.8.<.] a.z.f.e.| @.0.w.8.8.8.9.8.8.L 2.a.z.s.7.X.O.8.>.8.8.5.I n s n 8 E >.8.8.8.8.>.8.8.9.I H / B 8 ",
"J.4 9 ( L @.w.J s q.8.8.8.8.p.f.M R / H I <.+.J m q.8.8.8.q.t.s.s R d S L X.O.H H 8.8.8.q.8.L n Y 8 / | +.>.I V 8.8.q.8.0.<.J 9 ",
"J.8 M 8.8.q.8.O.a <.8.8.t.C.N.n.P q.8.8.8.8.8.@.f @.8.8.a.Z.S.x.<.8.8.8.8.8.8.| f w.8.8.y.B.t.a.R S 8.9.8.8.X./ >.8.8.p.B.e.:.q ",
"J.T <.X.8.0.8.8.<./ I a.D.F.z.L 8.8.8.8.w.8.8.8.L ^ L s.D.S.f.<.q.q.8.8.w.8.8.8.D ^ <.l.G.D.V.-.Q w.+.8.8.8.8.K ^ <.a.Z.D.D.d.& ",
"J.1 / / H M 0.q.O.8.I d n f Q z.q.8.8.O.M <.0.8.I w.H s n u ( x.q.8.8.@.m | 0.8.D 5.V s n h R : W f f I H 8.8.H >.H n S *.v 4 O ",
"J.. 8 s I <.B L 8.8.5.8.8.V 4 ;.H.x.a.B L M R B 0.q.5.0.0.M 4 e.G.z.y.B P a E H 8.8.4.8.8.a R 3 + R f J I H @.8.8.w.4.5.s 9 3 X ",
"J., 8.8.q.8.w.S B 5.8.8.8.8.~ N V.s.q.8.8.^ ~ I V 8.8.8.q.8.Q D B.a.q.q.8.S a I I 8.8.8.8.q.E ( ! 8.8.8.8.@.S L 8.8.8.8.8./ ( $ ",
"J.Y w.4.I n M J B w.8.q.p.f.p _ A.F.D.q.B ( +.L B 4.q.p.z.B.M 2.B.S.Z.4.n ( H L J 8.8.9.8.q.v E m 8.0.L V D B B 0.8.8.8.8.H Q & ",
"J.: E R | O.w.q.8.8.a.B.C.y.d 9 d 6.2.a <.w.8.8.8.a.Z.S.B.f.a R v 0.2.f @.O.4.8.8.8.8.8.8.+.u Y 8 ( ^ <.<.+.0.8.q.8.8.8.8.s 9 T ",
"J.: Y ! 0.8.8.8.8.8.8.8.8.8.8.n +.8.5.n 8.8.8.8.8.8.8.8.8.8.8.v >.9.w.M 8.8.8.8.8.8.8.8.8.8.X.^ : 4 i 8.8.8.8.8.8.8.8.8.8.w.^ 6 ",
"J.9 ^ ( d 8.8.q.8.8.8.8.8.8.5.v q.8.q.J <.8.8.q.8.8.8.8.8.8.w.m 8.8.8.H X.8.8.8.8.8.8.8.8.q.@./ R ^ E F 8.8.8.8.8.8.8.8.8.0.^ E ",
"J.= S a ( J 5.8.8.8.9.q.z.z.@.S 8.8.q.0.V <.0.8.8.8.8.p.x.l.@.D 8.q.8.5.n X.0.8.8.8.8.p.x.f.P H T B ^ ( <.8.8.8.8.8.q.a.a.X.X., ",
"J.o 9 d V 8.P V O.4.w.0.a.L M >.8.0.H a J +.L H +.3.+.8.a.D B w.8.w.m f I 8.I J +.4.O.9.p.m Q = + b m D 5.I <.5.8.5.t.c.;./ 3 O ",
"J.$ ( / +.8.+./ 8 9 R N ~ 9 K 8.8.8.8.O.X.8.O.^ 8 E ( / ( R H q.8.8.8.O.@.8.X.( 9 E ( v y Q L J = Q / >.8.>.^ 9 Q Q ^ ( 8 B M $ ",
"J.9 / m 8.8.w.w.<.4.8.9.8.K M X.f.q.8.q.8.8.w.w.<.4.8.8.8.<.m 5.f.8.8.8.8.8.w.w.<.5.8.8.8.8.H / Q ^ D 8.8.| <.H X.4.8.8.=.L m 7 ",
"J.4 <.n +.q.8.8.q.8.8.8.8.8.8.a.S.H.l.y.q.8.8.8.q.8.8.8.8.8.0.a.S.D.l.t.q.8.8.8.8.8.q.8.8.8.0.f ! J B 0.8.8.8.8.8.8.8.q.8.5.v : ",
"J.8 ^ u H 8.q.g.z.@.8.8.8.8.8.<.} 0.a.a.:.P @.8.O.9.8.8.8.8.q.<.o.s.s.a.6.<.@.8.O.8.8.@.9.8.p.6.8 m / I 8.8.y.a.8.8.w.0.8.8.4.E ",
"J.: ( ^ B X.a.e.u 0.8.8.8.q.y.l.m R i L <.| O.S m 8.8.8.8.q.a.f.n E s P <.@.O.S B q.8.w.V 8.g.Z 8 ( / I w.l.l.S 8.8.3.S +.A.y.1 ",
"J.T ^ <.8.8.0.<./ X.8.8.t.C.S.b.P 8.8.8.8.q.q.+.s @.8.q.y.Z.D.z.<.8.8.8.8.8.q.O./ @.8.0.0.q.n R R ^ <.4.4.>.V 9 +.8.8.+.>.v E X ",
"J.: ^ B.q.8.8.8.P a K p.C.S.f.L 8.8.8.8.+.8.8.q.I f <.p.Z.D.t.<.0.8.8.8.+.8.8.8.H f a.C.V.:.K R R s f.8.8.8.q.D / s.B.C.z.@.^ 4 ",
"J.+ & ) 6.H 0.q.P 4.I a n ^ Q x.4.P 8.@.a L 0.+.I 5.H s ^ ~ Y b.,.>.8.| n <.0.8.I 0.B s u 9 : 2 # r d.7.X.8.8.H @.H h S E 8 Y 8 ",
"J.  8 f P @.p H 5.8.0.0.q.H 4 2.D.x.a.H <.B 9 m 0.8.0.8.8.V 8 7.F.B.y.V <.b E B q.8.5.8.8.} 9 8 o , E S S I P 0.q.+.+.w.G 5 = . ",
"J.. ( n +.0.d L m 0.q.8.8.9.u S V.t.q.8.8.,./ I V 8.q.8.8.q.Q j n.y.q.8.8.v m I H 8.8.8.8.8.M ^ % ^ D 8.4.~ D I 8.8.8.8.8.G Q 1 ",
"J.* ( ^ n ( s I H w.8.p.a.l.S o.A.S.H.8.v ( m I H 0.8.8.8.8.V 6.S.S.D.+.~ 9 S O.J 0.8.q.l.F.e.Q - ( ^ L d H M n 5.8.8.q.C.a.f 8 ",
"J.# 8 / <.4.5.8.8.8.a.z.B.e.n E ~ ] O.a @.4.4.8.8.8.8.8.8.+.s E d +...a @.8.8.8.8.8.p.G.F.B.b 9 4 Y ( L P X.0.8.8.p.G.F.M.=.R R ",
"J.: ^ H 8.8.8.8.8.8.8.q.8.8.8.n >.8.0.n f.8.8.q.q.8.8.8.8.8.8.s 4.8.4.m 8.8.8.8.8.8.8.8.8.8.5.u 4 ( H q.8.8.8.8.8.8.8.8.8.4.! 8 ",
"J.4 ^ v I q.8.8.8.8.8.8.8.8.5.n 8.8.8.I l.G.a.p.8.8.8.8.q.8.w.M 8.8.q.S <.8.q.9.8.8.8.8.8.8.q.B 9 u S w.8.8.8.8.8.8.8.8.8.8.H r ",
"J.9 L n f X.5.q.8.8.8.p.x.x.| J 8.q.8.0.V 8.z.l.8.8.8.p.B.l.<.D 8.8.q.4.m X.5.8.8.8.8.y.B.C.] V R n / B 0.q.8.q.8.8.8.p.t.0.X.R ",
"J.9 R m J | P m X.w.@.O.t.V M 4.8.0.I f J +.L B @.w.@.=.e.V H 5.8.4.m / L +.I V O.w.X.2.%.A J y / M H H L I <.0.8.0.t.j.t. .^ : ",
"J.& 8 u X.8.O.u 8 E ^ f a R M 8.8.8.8.w.X.8.X.^ 8 E Q / y E <.9.8.8.8.+.@.8.X.( 8 Q a N d d w./ : T u <.8.+.^ R f ^ ( 9 R >.H = ",
"J.  = O.8.8.5.4.X.5.8.8.8.X.m w.l.q.8.q.8.8.5.4.@.m O.8.8.S L 0.z.q.8.8.8.8.4.4.@.0.8.8.8.w.( - + T O.8.8.| P B P 4.8.8.| B R . ",
"J.. + a.8.q.8.0.8.8.8.8.8.8.8.t.S.S.x.a.a.8.8.q.5.n s P H H v a.S.S.x.a.y.8.8.8.8.8.8.8.8.I 8 R . 4 p.8.8.9.8.8.8.8.q.8.5.( 9 X ",
"J.# 6 k 7.o.V 5.9.8.8.8.8.9.8.| G t.e.7.;.B B I M H 5.8.8.8.8.L c e.e.e.*.L @.8.>.8.8.8.w.n R & & # 1.B.8.H 0.q.8.8.8.0.S r 4 X ",
"J.+ ^ Q , r z.q.8.8.8.8.8.q.s.g.b ! b L <.@.S ! f 0.8.8.8.q.8.8.! Y v L <.O.w.D n 8.8.8.8.y.z   4 Q 8 : R e.8.L 8.8.8.5.@.M     ",
"J.  4 ( = T g.F.C.3.@.8.p.G.S.s.n 8.8.8.8.8.8.O.a @.q.8.8.8.8.t.e 5.8.8.8.8.q.<.U L 8.B.H.v.y R @ Q ^ % i F.z.V O.8.p.z.D.2.1 + ",
"J.  % Q Q 5.L 4.} u <.>.n.S.v.:.E +.8.8.8.8.8.8.>.a 4.8.8.a.C.S.i.8.8.8.8.q.@.L N 5 ~ -.d.S 8 8   % 8 E G @.f.x 4 F V.m.s.Q Q # ",
"J.X : P +.8.8.8.8.+.M w ' 8.4.s 4 x y.8.8.8.8.8.f.y.i a.C.F.H.k.e ;.v.v.6.4.4.8.8.0.M Q ^ d | 5 @ 8 K I 8.8.5.2.P y 9 Q ^ i 9   ",
"J.  8 v <.} s.B.Z.h.: *.n.e.2.Q # 0 k.f.q.y.f.C.D.u.w n.Z.a.6./ & + E J >.a.s.C.H.1.7 L q.f.*.: . > O.w.w.8.q.a.V.^ f P <.5.!   ",
"J.  8 R 8 ^ ..;.6.4 + } J / ^ / 9 + ; ( / s ` f.f.^ & K J a ^ ^ 7 4 ^ ^ / a 2.;.*.: - } t.2.^ ( + ( E ^ S f.j.d.l + 5.a.c.[ T @ ",
"J.. : ; r / ^ / ^ Q 4 ^ ^ ^ ^ ^ Q 4 Q ^ ^ ^ ^ ^ / 8 7 ^ ^ ^ ^ ^ r E Q ^ ^ ^ ^ ^ / R 8 ^ ^ ^ ^ > O : : T ^ ^ ^ ^ Y - f f ^ ^ R + ",
"J.O 8 E ( ^ ^ ^ ^ ( ; 8 ( ^ ^ / Q : ( ^ ^ ^ / ^ ^ E : R ( ^ ^ ^ 8 6 ^ ^ / ^ ^ ^ ^ R : E u ( 8 ; # 8 8 Q ^ ^ ^ ^ Q 4 Q ^ / Q > O ",
"J.  ; : 8 ( ^ ^ / R 8 <.K B ^ ^ Q 8 R Q Q ( ^ ^ ^ R & } D / ^ ^ T + Q ^ ^ ^ f J ! R : S <./ ( ; @ 4 r ( ^ ^ ^ Q 8 : ! I a R 4 . ",
"J.  # : Q ^ ^ ^ ( Q # ! a ^ / ^ 1 & I X.V ^ ^ ^ ^ Q O Q / ^ ^ ^ 7   ( ^ ^ ^ ^ / ^ R # Q ^ ^ Q - . ; ; R Q ^ ^ ^ ( : v f ^ ^ -   ",
"J.  + # 8 ^ ^ Q y Q o 8 a v a ^ ^ + E ( ^ ^ ^ ^ E 4 + R u v n ! 8 + Q ^ ^ ^ ^ ^ ^ 4   ! v B I f   X : E ^ ^ ^ ( Q O - Q ^ ^ ^ 3 ",
"J.o 8 8 Q ^ / ( v 3   g H.Z.z.C.g.  4 ( ^ ^ ^ ^ ^ E O #.F.B.z.C.6.% 9 / / ^ ^ ( - O   $.H.f.D 4 . : > E ^ ^ Q s 4   %.l.q.8.d @ ",
"J.* ^ 6.8.| I P G [ p = a B a J f $ M D B n ^ f ^ 1 $ 2 f a u K u 4 X.a.w.| J <.S  .5 U s / W 4 U Q m V M / v R 4 * 5 e.:.^ : O ",
"J.O 4 -.s.8.B.C.S.v.c R ^ ^ ^ ^ 8 * <.D.C.9.8.p.x.A.[ r ^ ^ ^ / Q 8 M a.a.9.B.Z.S.j.q R ^ ^ ^ 4 & ( A.C.q.q.p.B.M.C 3 ^ ^ ^ Y + ",
"J.o ; 4 / ^ f f d ^ R W ^ ^ ^ ^ 8 4 ^ f a j a.f.f.6.4 E ^ ^ ^ ^ Q R ^ ^ ^ ^ a ^ ^ ^ R E ^ ^ ^ - $ ; 8 / j a.s.s.2.R R ^ ^ ^ 8 o ",
"J.  > 6 Q ^ ^ ^ ^ ^ r 9 ^ ^ / W > R ^ ^ ^ ^ ^ ^ ^ ^ r r ^ ^ / ^ Q 4 ( ^ ^ ^ ^ d H ^ 8 R ^ ^ s s O ; 9 ^ ^ ^ ^ i u R R ^ ^ ^ E @ ",
"J.  : ^ K S u s n S f 6 ^ ^ ^ ^ R 8 ^ ^ Q Q Q ( ( a 9 8 ^ ^ ^ ^ Q 4 8 Q / ^ / n v D ^ 4 ( ^ v 4 o 8 R a ^ ^ ^ ^ ^ ( 4 ( ^ V n + ",
"J.  & ; ( H M f n u r > r ( ^ ^ T > Q ^ ( n v ^ H J 8 8 R ( ^ ^ r Q ^ ^ ^ / H I H s 7 8 8 ^ ^ 8 o ; ! ,.@.m B S <.( 6 Q ^ ( 8 o ",
"J.J.X : Q ^ ^ ^ ^ T     1 Q ^ ^ % # Q ^ ( ^ ^ ^ ^ E   & ( Q ^ ( @ % r ^ ^ ^ ^ / Q 1   # : ( ( %   & : E ^ ^ ^ ^ ( $ : : E ^ R   ",
"J.J.J.J.J.J.^ W J.J.J.J.J.J.J.J.    & Q ^ ^ ^ ^ Q J.J.J.= Q ^ J.J.J.J.4 ( ^ ^ ^ J.J.J.J.J.J.J.J.J.J.: R ^ ^ Q 9 .     $ Q E @ J."
};
