/* XPM */
static char *result[] = {
/* columns rows colors chars-per-pixel */
"64 64 163 2 ",
"   c #161D2E",
".  c #1B2533",
"X  c #1F2936",
"o  c #212B37",
"O  c #222D39",
"+  c #25323C",
"@  c #28353E",
"#  c #2D3C43",
"$  c #2D4149",
"%  c #304046",
"&  c #33444A",
"*  c #36494D",
"=  c #384B4F",
"-  c #344B51",
";  c #3A4E51",
":  c #3D5255",
">  c #3F5659",
",  c #3D5A5E",
"<  c #3E5D62",
"1  c #405557",
"2  c #415759",
"3  c #445C5D",
"4  c #435F61",
"5  c #446365",
"6  c #4A6464",
"7  c #4E6867",
"8  c #466669",
"9  c #466A6D",
"0  c #4C6B6C",
"q  c #516C6B",
"w  c #53706F",
"e  c #4B6E70",
"r  c #4D7273",
"t  c #4E787A",
"y  c #537474",
"u  c #567877",
"i  c #5D7976",
"p  c #547678",
"a  c #567B7B",
"s  c #587D7D",
"d  c #687061",
"f  c #59807F",
"g  c #6C8277",
"h  c #67837C",
"j  c #6F867C",
"k  c #7A8775",
"l  c #73877B",
"z  c #547F81",
"x  c #558283",
"c  c #5B8484",
"v  c #5D8887",
"b  c #578788",
"n  c #5D8B8B",
"m  c #5E9091",
"M  c #618484",
"N  c #628D8D",
"B  c #6E8F8B",
"V  c #718F86",
"C  c #60908F",
"Z  c #7C9182",
"A  c #77948B",
"S  c #79968C",
"D  c #648F92",
"F  c #639494",
"G  c #6A9595",
"H  c #6C9895",
"J  c #6B9799",
"K  c #669C9C",
"L  c #6B9D9D",
"P  c #729993",
"I  c #7A9C92",
"U  c #729D9C",
"Y  c #6CA09E",
"T  c #76A39D",
"R  c #7BA39B",
"E  c #699FA0",
"W  c #729FA0",
"Q  c #6DA3A3",
"!  c #71A5A5",
"~  c #79A6A3",
"^  c #77AAA7",
"/  c #7EAAA2",
"(  c #71A7A8",
")  c #75ABAB",
"_  c #79ADAE",
"`  c #7AAFB0",
"'  c #7CB3B3",
"]  c #889782",
"[  c #849D8F",
"{  c #93A38C",
"}  c #85A193",
"|  c #83A499",
" . c #85AB9F",
".. c #8BAA9C",
"X. c #92AA96",
"o. c #9CAD95",
"O. c #94AF9E",
"+. c #93B09E",
"@. c #9FB49E",
"#. c #A0B49B",
"$. c #A6B99F",
"%. c #84ADA5",
"&. c #8BAFA4",
"*. c #84AFA9",
"=. c #8DB2A5",
"-. c #84B2AC",
";. c #8BB5AD",
":. c #92B4A5",
">. c #9DBAA5",
",. c #91B7A9",
"<. c #95B9AA",
"1. c #9BBCAB",
"2. c #81B5B6",
"3. c #8AB6B0",
"4. c #8BBAB5",
"5. c #81B7B8",
"6. c #84BBBC",
"7. c #89BEBE",
"8. c #93BDB5",
"9. c #98BFB5",
"0. c #93BFB8",
"q. c #A2BCA6",
"w. c #A2BFAA",
"e. c #8DC0BE",
"r. c #9DC2B4",
"t. c #95C3BD",
"y. c #9BC5BC",
"u. c #9FC9BF",
"i. c #A4C2AC",
"p. c #ABC5AC",
"a. c #B0C1A2",
"s. c #BCC9A5",
"d. c #B1C7AC",
"f. c #B5CAAC",
"g. c #BDCFAE",
"h. c #A5C5B3",
"j. c #A8C6B2",
"k. c #A6C8B7",
"l. c #AECBB5",
"z. c #A2C7BA",
"x. c #A5CBBE",
"c. c #ABCEBD",
"v. c #B3CDB4",
"b. c #B1CEB9",
"n. c #AFD0BD",
"m. c #B6D0B7",
"M. c #BAD2B6",
"N. c #B4D2BC",
"B. c #BAD4BB",
"V. c #C3D4AF",
"C. c #C1D4B4",
"Z. c #C7DAB7",
"A. c #CCDCB6",
"S. c #C1D7B9",
"D. c #C5D9B8",
"F. c #D0DEB5",
"G. c #88BFC0",
"H. c #8CC3C4",
"J. c #93C5C3",
"K. c #99C7C2",
"L. c #9CC8C1",
"P. c #A2CBC0",
"I. c None",
/* pixels */
"I.I.I.I.I.I.I.I.y I.I.I.I.q 7 4 N U p q I.I.q 0 M J q I.I.I.6 p J J y I.I.I.I.I.I.q I.I.I.I.I.I.I.I.I.I.I.I.I.I.I.I.I.I.I.I.I.I.",
"I.I.I.I.7 : 4 7.H.7.2.^ ~ 2.N A y.H.H.G.*.F ( J H.H.J.2.2._ n %.L.H.' J _ N ~ _ Q Q N i q I.I.I.I.I.I.6 ; e H.H.5.N s I.I.I.I.I.",
"I.I.I.q ! 2.F 6.H.H.H.J.J.L._ >.Z.x.J.y.<.! 5.` _ 6.H.H.J.K.! :.A.B.u.' L n ( _ 6.H.H.H. .D a I.I.I.y ^ ' D 6.H.H.H.H.=.N s I.I.",
"I.I.c ! H.H.H.` ) ' e.P.b.y.E v  .i.1.Q ' G.G.H.H.H.P.P.c.r.) J P &./ E 5.6.' 6.) _ i.i.1.) F I.I.n _ H.H.H.) ( _ 1.p.w.) K u I.",
"I.I.v F M.x.t.` Q ' H.H.H.H.H.E 6.H.G.( H.H.H.H.H.H.H.H.H.H.G.( 6.H.G.) H.H.H.H.H.' 5.H.H.H.) q I.C R B.x.e.) 6.6.' H.H.H.' s I.",
"I.I.c _ =.h.^ ) H.H.H.H.H.H.H.) H.H.H.` 6.H.H.H.H.H.H.H.H.H.H.' H.H.H.) 6.H.H.H.H.H.6.H.H.H.` s I.N ) >.h.Q ) H.H.6.H.H.H.5.c I.",
"I.I.L H.H.' ' ' H.H.H.J.L.u.6.! H.H.H.H.( 6.H.H.H.H.H.J.P.L.G.' H.H.H.H.Q G.H.H.H.H.H.K.x.H.! 2 q ) H.H.' ` 6.H.H.H.J.P.J.' 6 I.",
"I.2 Q H.H.H.6.L 6.H.G.4.i.%.! G.H.H.6.) ) 6.' ' G.G.G.0.i.I ( G.H.H.( Q ` 6.` ' H.H.7.i.:.N b 9 6 _ H.H.H.' Q G.H.7.h.i.G n 9 I.",
"I.X F H.H.H.H.( x n n F n u ) H.H.H.H.6.6.P.x.K z N N F C f ' H.H.H.H.6.6.H.6.K c C Y L y n ' J $ ) H.H.H.H.Q n F J Y s s ) ) I.",
"I.> m ' H.H.G.6.` 5.H.H.H.` ! G.L.H.H.H.H.H.6.6.( 5.H.H.J.6.' H.K.H.H.H.H.H.6.6.' H.H.H.6.T ' F , K ' H.H.6.6.' 6.H.H.6.J 6.Q q ",
"I.a E H.H.H.H.H.G.H.H.H.H.H.G.y.A.P.L.H.J.H.H.H.G.H.H.H.H.H.H.L.A.n.K.H.H.H.H.H.H.H.H.H.H.H.Y v c ) H.H.H.H.H.H.H.H.H.H.H.) c s ",
"I.f c ' H.H.H.H.G.H.H.H.H.H.H.5.-.h.j.i.1.6.6.H.7.H.H.H.H.H.H.' ;.r.j.i.,.6.6.H.G.H.H.H.' ) Q ( s m H.H.H.H.H.G.H.H.H.' ) K ) f ",
"I.a c F ' 6.H.' ( H.H.H.H.J.J.L.) c G ` ' ' 6.` ) H.H.H.H.H.J.K.Q M L ' ' 6.6.` ) H.H.H.H.H.' ( c s F 2.6.H.' ) H.H.H.H.H.2.' c ",
"I.c ) H.H.H.H.6.Q 5.H.H.J.P.F.b.6.H.H.H.H.H.H.6.Q 6.H.H.J.N.F.l.6.H.H.H.H.H.H.6.Q H.H.H.K.n.1.q.n ' H.H.H.H.' Q G.H.H.J.c.1.>.i ",
"I.b 2.6.H.H.H.H.' Q ' K.N.Z.j.' H.H.H.H.H.H.H.H.' E ' L.N.D.h.2.H.H.H.H.6.H.H.H._ K ' L.N.m.m.+.F H.6.H.H.H.H.' K 6.K.n.B.N.d.6 ",
"I.t L K ) ) H.H.6.H.' Q ( E F x.H.H.H.6.) ' H.H.' G.` Q ! L F x.H.H.H.6.) ' H.H.` H.) ( ) R n q m Q Q ' ' H.H.) 6.) ! ^ &.P a : ",
"I.& c Q ' 5.) ' H.H.H.H.H.! u :.B.x.L.) ' ) v ) H.H.H.H.H.! a 8.B.P.t.) ' Q C _ H.H.H.H.H.Y b x ; n Q ` ` ` 6.H.H.G.H.H.Q c z * ",
"I.y H.H.H.H.G.` ) H.H.H.H.H.G T b.L.H.H.H.G G ' ) H.H.H.H.H.D R N.K.H.H.H._ L ' ' H.H.H.H.H.N K n H.H.H.H.6.` ` H.H.H.H.H.F K < ",
"I.c G.G.` ( ) ` ) H.H.H.J.L.U %.Z.Z.N.e.) F 6.' ) H.H.J.P.c.) 3.c.D.N.6.! K ` ' ` H.H.H.H.H.Q F ! H.H.' ` ` ) ) H.H.H.H.H.) F 5 ",
"I.w m n 6.G.G.H.H.H.K.c.n.t.J c J ;.;.Q 2.e.H.H.J.P.P.A.c.u.Q n U ;.;.Q 6.6.H.H.H.H.H.H.H.4.K b s K F ' ' 6.H.H.H.H.H.H.H.Q c c ",
"I.w c N H.H.H.H.H.H.H.H.H.H.H.( 6.H.H.Q H.H.H.H.H.H.H.H.H.H.H.Q H.H.6.) H.H.H.H.H.H.H.H.H.H.6.K w s J J.H.H.H.H.H.H.H.H.H.7.K s ",
"I.c K F G H.H.H.H.H.H.H.H.H.H.Q H.H.H.' ' H.H.H.H.H.H.H.H.H.G.) H.H.H.) ' H.H.H.H.H.H.H.H.H.6.Y n K N _ H.H.H.H.H.H.H.H.H.H.K F ",
"I.9 ` Q F ' H.H.H.H.H.J.P.P.6.` H.H.H.H.) 6.H.H.H.H.H.J.P.P.6.` H.H.H.H.Q 6.H.H.H.H.H.J.x.x.6.) v ) K F 5.H.H.H.H.H.H.t.J.6.6.r ",
"I.; c J ` H.' ) 6.H.6.6.i.R ) 6.H.H.) Q ' 6.' ` 6.H.6.4.w.~ ) 6.H.H.( Q ' H.` ' 6.H.G.4.1.U m e > U ! ` G.' 5.H.H.H.t.v.+.K x ; ",
"I.4 K K 6.H.G.E c c c ^ G c ' H.H.H.H.G.6.H.6.K f N F L F n _ H.H.H.H.6.6.H.6.K c N F ! G N ' ' 9 F K 6.H.6.K c F F K C f ) ) , ",
"I.c K ( H.H.G.G.2.G.H.H.H.' ) 6.L.H.H.H.H.H.H.6.6.6.H.H.H.2.( H.K.H.H.H.H.H.6.7.' H.H.H.H.H.) E F K ` H.H.6.2._ 5.H.H.H.7.' ) a ",
"I.a 5.Q 6.H.H.H.J.H.H.H.H.H.H.y.A.B.P.J.H.H.H.H.H.H.H.H.H.H.H.u.A.B.P.J.H.H.H.H.H.H.H.H.H.H.H.L N ' ) H.H.H.H.H.H.H.H.H.H.H.Q q ",
"I.s F Q ` H.H.x.z.6.H.H.H.H.H.6.-.3.r.i.,.' 6.H.H.H.H.H.H.H.H.2.-.i.i.1.,.6.6.H.G.H.H.6.H.H.J.3.s ! L ' H.H.J.y.H.H.e.H.H.H.6.N ",
"I.y K K ) 5.t.<.J H.H.H.H.H.K.L.) n U ' 2.6.G.` ( H.H.H.H.H.K.L.! N L ' ' 6.6.' ) H.H.6.) 4.p.R s K K ' G.x.i.) H.H.7.' 6.m.w.y ",
"I.c K 2.H.H.H.6.G 5.H.H.J.N.A.l.' H.H.H.H.H.H.G.Q 6.H.H.J.N.B.k.6.H.H.H.H.H.H.6.E 6.H.H.H.H.( n n K ' H.H.6.) c 7.H.H.t.e.Q m - ",
"I.q K c.H.H.H.H.' Q ' H.n.D.h.' H.H.H.H.6.H.H.H.' Q ' J.P.B.1.2.H.H.H.H.6.H.H.H.) E r.n.m.<.' n n Q L.H.H.H.H.' Y r.P.P.h.6.F s ",
"I.1 0 } ,.) H.H.5.H.' Q ( K D k.6.2.H.6.Q ' H.G.' H.` Q H G c c.' 6.H.6.) 2.H.H.' H.) ( L c q s 3 c p.t.6.H.H._ 6.) / ~ n c c x ",
"I.# x L 2.6.J _ G.H.H.H.H._ s =.B.x.K.) ' ) c ) H.H.H.H.H.^ s <.B.c.K.) 6.! N ) H.H.H.H.H.2.M z = y m _ _ _ 2.H.H.6.G.G._ s 0 # ",
"I.& K ( 6.H.J ' ( H.H.H.H.H.H T m.K.H.H.H.' G ' ) H.H.H.H.H.C %.b.J.H.H.H.L ! ' ` H.H.H.H.H.T K 5 K ` G.G.G ' ' H.H.H.H.H._ F a ",
"I.8 F K ( F ! ' ) G.H.J.K.P.) -.D.A.N.e.) F Q ' _ H.H.H.H.H.) ;.Z.A.N.6.G M ^ 6.' H.H.H.P.B.t.F e K K ' L _ ) ) H.H.H.J.x.y.E z ",
"I.4 s J 6.G.G.H.H.H.K.c.x.t.) n H -.-.Y 6.H.H.H.H.H.H.H.H.6.Q m J 3.-.Q 5.H.H.H.H.H.J.N.B.l.! c p c K ' ' ' H.H.H.H.m.D.C.;.n n ",
"I.w K _ H.H.H.H.H.H.H.H.H.H.H.) H.H.H.Q L.H.H.H.H.H.H.H.H.H.H.Q H.H.G.) H.H.H.H.H.H.H.H.H.H.H.J u K ` H.H.H.H.H.H.H.H.H.J.G.G s ",
"I.u K Q ' H.H.H.H.H.H.H.H.H.H.Q H.H.H.' p.N.K.K.H.H.H.H.H.H.H.( H.H.H.) 6.H.H.H.H.H.H.H.H.H.H.) c L ) H.H.H.H.H.H.H.H.H.H.H.) v ",
"I.c ' ) E 6.G.H.H.H.H.J.P.c.6._ H.H.H.H.) 4.x.L.H.H.H.J.c.x.' ` H.H.H.H.( 6.H.H.H.H.H.J.c.n.3.) M ) K ) H.H.H.H.H.H.H.J.J.H.5.N ",
"I.c M ( ' 6.' ) 6.7.6.6.<.T ) 7.H.H.` Q ' 7.' ) 6.G.6.4.1.! ) e.H.G.! Q ' 6.' ) 6.6.6.4.X.T ^ K K ~ ) ) ' ' ' H.H.H.t.f.>.%.F w ",
"I.6 x Q 6.H.6.Q z N F L U n ) H.H.H.H.H.6.H.6.K f n F K H n 6.H.H.H.H.6.6.H.6.K s D L ~ J J e.K w n Y 5.H.6.K M E J F M M 6.) e ",
"I.@ e 6.H.H.H.6.6.H.H.H.H.6.) G.L.H.H.H.H.H.H.e.6.) 6.H.H.) ' H.P.H.H.H.H.H.G.G.6.H.H.H.H.6.K 0 : b 6.H.H.6.' ) ' G.H.H.6.) c * ",
"I.* 2 r.H.H.H.H.H.H.H.H.H.H.H.t.A.Z.x.K.K.H.H.H.H.Q ( ' ) ' Q u.A.S.P.L.K.H.H.H.H.H.H.H.H.' z n & u H.H.H.H.H.H.H.H.H.H.G.F v * ",
"I.3 s l >.-.) e.H.H.H.H.H.H.H.5._ 1.1.<.=.( ) ' ) _ H.H.H.H.H.' T 1.1.1.&.' 6.H.6.H.H.H.H.) M 6 7 3 $.c.7.` H.H.H.H.H.H._ v y = ",
"I.> K F 0 c x.H.J.H.H.H.H.H.L.P.! N ! ' 6.6.) F L H.H.H.H.H.H.H.N M W 2.2.6.G.` ) H.H.H.H.K.A & y F s 0 N t.H.' H.H.H.H.6.U # + ",
"I.% y F e b p.D.c.H.6.H.J.N.A.K.~ H.H.H.H.H.H.6.Q 6.H.H.H.H.H.t.B G.H.H.H.H.H.5.x ' J.P.B.M.J N 3 F K 8 G D.x.^ 6.H.H.x.N.&.u 2 ",
"I.@ 5 F F H.' ;.^ E 5.6.m.Z.v.#.n 7.H.H.H.H.H.H.6.Q e.H.H.K.n.A.a.G.H.H.H.H.6.2.( i G O.p.~ s z O 6 b n ` *.p.S y _ b.A.q.F F 3 ",
"I.& y ' 6.H.H.H.H.G.! l &.H.G.Q p S K.H.H.H.H.H.x.q.G K.n.B.B.V.V O.m.m.;.G.G.H.H.H.! F K E 2.i 3 x ' ' H.H.G.G.2.G f K K U M # ",
"I.. f ! 5.2.y.c.N.g.0 =.v.1.=.m 5 d C.h.H.K.u.n.N.s.g v.n.r.=.K 6 , m ' H.K.P.P.B.a.u ' H.P.=.w & y 6.H.H.H.H.K.n.F Q ' ' e.v @ ",
"I.# c n c F %.:.:.u > 6.' K K K c > q F Y Y %.y.x.N 8 ' ` Q K Y a r Q m Y Y =.=...w 0 6.r.=.F F : F m F T r.f.f.k > H.K.v.| b 3 ",
"I.& q q x K K K K C t K K K K K m y F K K K K K K c s L K K K K b C m Y K K K K K b x K K K K w ; w y c m Q K K c r Y Q K K C : ",
"I.; c n K Y K K Y C q f F Q K K F q K K K K K E K F q n K E K K s f K K K K K K K n q n K K c q 3 c s F Y K K Q F y F Y K F y : ",
"I.& q q c F K K Q M f 2.' ) K K F s n F K m K Y K n 5 2._ L K E b : F K K K Q ) F N y ^ 2.K K 0 2 u v F Y K K m c q G _ Q n y & ",
"I.X 3 q F K K K K F 3 F Q K E K y 6 ' 6.( K K K K F ; F L K K K s & K K K K E Q L c 3 D K K F 0 = 0 q n K K K Y F 7 ! Q K K 0 O ",
"I.O > 6 s K K m G F = a Q ! Q N N 1 c K K K K K C s 1 n Q Q ! N c , F K K Y K K K y & N ! ) ' Y o * q n K K K F F : w F K K F b ",
"I.- s f K K K K Q a X ] B.N.P.c.p.# s K K K K K K b : { B.n.P.N.=.< f Y K K K K 0 : O o.B.y._ y & q y C K K m Y y + ..x.e.H.L 3 ",
"I.9 L ;.7.6.' ' ' %.V r Q ( Y ` E < ~ 3._ ( Y Q F a < a Y Y Y ' L y 5.J.6.6.` ' ^ %.i b Q K F u b F ( ) ( Q ( M a 8 i 1.,.F u ; ",
"I.; u +.i.4.c.n.Z.M.S b K K K Y c 9 ' P.N.H.H.H.P.M.[ b K K K K F c ) i.i.8.n.N.Z.M.h N K K K a 6 F M.n.H.H.J.x.B.Z b K K K c 1 ",
"I.= 0 y L K L Q L K n F K K K K c y K Y Y / w.i.p.=.s n K K K Y K b K K K K Y F G K c F K K K r 5 q f K / i.i.w.&.n n K K K c ; ",
"I.# y s F K K K K K c c K Y K F u c K K K K K K K K x b K K K K F y K K K K L L ) K c n K K Q ! : 7 x K K K K K Y b n K K K m , ",
"I.# q J 2.) L Q Q _ L s K Y K Y C c K K F F m m K Y M s K K K K m u c m K K Y ( Q _ G u K K ! u ; c N L Q K Y Q G F a K K ) ! : ",
"I.O 7 q N ) ) Q ) Y x y x F Q m b u F K K ! ! E ) ` c f b K Y K c F K K K Y ) ` ) Q s x s K K s = 7 N 2.' ( ( ) 5.F s n K K s = ",
"I.I.* q F K K K K b % # t F K K < 3 m K K K K K K m % 6 F F K K 3 8 b Y K Q Q m K r # 3 w K K 5 o 6 w C K K E K F 5 0 y F K n @ ",
"I.I.I.I.I.I.K F I.I.I.I.I.I.I.I.  X 7 m K K Y K F I.I.I.9 C K I.I.I.I.t m m Q Q I.I.I.I.I.I.I.I.I.I.w c Q K F c $   # 3 F m 3 I."
};
